<svg width="900" height="210" viewBox="0 0 900 210" fill="none" xmlns="http://www.w3.org/2000/svg">
<mask id="mask0_2061_272" style="mask-type:alpha" maskUnits="userSpaceOnUse" x="0" y="0" width="900" height="210">
<rect width="900" height="210" rx="30" fill="#4B6359"/>
</mask>
<g mask="url(#mask0_2061_272)">
<path d="M54.2176 141.116C50.8272 140.613 47.8221 138.721 44.0828 138.44C46.4016 140.867 50.3675 141.215 51.7106 145.235C48.7826 144.084 46.5227 142.452 43.8014 141.832C47.5921 146.033 51.195 150.222 55.0141 154.204C59.2472 158.618 64.6445 161.271 70.1894 163.654C71.2535 164.111 73.184 164.163 72.6455 165.97C72.1708 167.563 70.3998 167.123 69.2566 166.888C65.2305 166.06 62.0403 163.731 59.2849 160.77C58.5751 160.007 57.9239 159.189 56.8087 158.615C58.796 163.761 60.8028 168.899 62.758 174.057C63.3059 175.502 64.4202 175.457 65.6389 175.449C69.6154 175.42 73.5936 175.207 77.5533 175.904C79.5892 176.262 81.4253 176.907 82.9485 178.513C77.9059 176.706 72.7011 176.613 67.4816 176.658C64.9204 176.68 63.8895 177.934 64.3888 180.422C64.5734 181.352 64.6778 182.299 64.8619 183.522C67.9861 181.543 71.0054 180.68 74.6407 181.874C81.4195 184.101 83.4481 192.715 82.1172 197.516C80.9911 201.579 78.1369 203.466 73.9768 203.328C67.3789 203.108 60.5942 196.386 62.5768 188.612C63.0367 186.809 62.673 185.402 61.3288 183.954C57.2968 179.612 52.0238 177.414 46.707 175.433C37.8282 172.126 30.0953 167.663 26.4963 158.236C26.35 157.853 26.0478 157.529 25.4234 156.572C27.4217 166.24 32.6028 172.204 41.6886 174.794C39.3891 176.757 37.507 175.744 35.6199 174.998C34.9524 174.735 33.9707 174.106 33.7466 175.147C33.3954 176.777 32.5989 178.438 33.3511 180.188C33.7542 181.126 34.3589 180.891 35.1756 180.786C41.7866 179.938 46.5241 182.97 47.5828 188.596C47.7659 189.569 48.0923 190.587 46.9561 191.14C45.8098 191.698 44.9031 190.905 44.6569 190.018C43.1875 184.726 38.646 183.208 34.2757 181.969C30.8534 180.999 30.4956 179.027 31.4062 176.45C32.3536 173.769 31.5144 172.105 29.5326 170.347C26.2437 167.429 23.259 164.186 20.3749 159.782C20.7781 163.735 21.0964 166.856 21.4147 169.976C21.2828 169.997 21.1507 170.018 21.0188 170.039C20.0344 167.718 19.05 165.398 17.8005 162.452C16.9115 166.16 19.4878 168.874 18.604 172.046C16.664 169.711 16.3725 166.643 14.8421 164.389C14.1438 164.259 14.0528 164.69 14.127 164.917C15.4053 168.845 14.8904 172.742 14.0079 176.644C13.3307 179.639 14.1522 182.099 16.496 184.157C18.1863 185.641 19.8674 187.211 20.9257 189.237C21.6801 190.681 22.2852 192.524 20.4411 193.431C18.7044 194.285 18.151 192.483 17.5075 191.267C16.9067 190.132 16.5363 188.716 15.626 187.931C11.7716 184.607 11.225 180.377 11.6346 175.685C11.9622 171.931 11.5345 168.222 9.92456 164.698C10.4676 168.91 10.1568 173.153 10.4724 177.351C10.8166 181.93 9.68969 185.944 7.71719 190.021C4.86971 195.906 2.50862 202.026 -0.0907669 208.033C-0.418541 208.79 -0.55925 209.945 -1.53635 209.998C-2.62003 210.056 -2.65328 208.799 -2.95477 208.088C-6.85056 198.902 -11.081 189.887 -16.5717 181.575C-17.0882 184.299 -18.7247 186.842 -20.0124 189.543C-21.3372 192.322 -21.2792 195.395 -21.8284 198.339C-21.9451 198.964 -21.9198 199.708 -22.7046 199.894C-23.6027 200.107 -24.0443 199.514 -24.4166 198.789C-25.8072 196.08 -25.8013 193.272 -24.2415 190.784C-21.8536 186.974 -20.2148 182.713 -17.2748 179.251C-16.8817 178.788 -16.7537 178.347 -16.7764 177.813C-16.9574 173.547 -16.7948 169.295 -16.1751 165.044C-17.6577 167.162 -18.2061 169.622 -19.2895 171.924C-19.6151 169.004 -19.2137 166.153 -18.9562 163.212C-21.3612 165.779 -21.8034 169.34 -23.9435 172.152C-23.4988 169.125 -23.0542 166.097 -22.5561 162.706C-24.5024 163.957 -24.4887 166.108 -26.1125 167.385C-27.3938 164.452 -24.3523 162.242 -25.1471 158.977C-28.2464 164.258 -31.8695 168.388 -36.2377 171.781C-37.7557 172.96 -37.6985 174.053 -37.2447 175.622C-35.314 182.3 -35.5625 182.898 -41.8337 185.586C-43.8937 186.469 -44.6778 188.039 -45.1177 189.988C-45.3254 190.908 -45.2919 192.15 -46.6135 192.059C-47.9473 191.966 -48.2779 190.719 -48.2626 189.652C-48.2213 186.777 -47.1294 184.545 -44.3492 183.178C-39.0362 180.567 -39.0711 180.496 -40.1988 174.536C-49.037 177.484 -58.7102 177.874 -67.2105 183.131C-63.3075 184.77 -60.5568 187.292 -59.5862 191.338C-58.5756 195.55 -59.5852 199.271 -62.7279 202.224C-65.5046 204.834 -68.9139 205.261 -72.3153 203.745C-77.0811 201.62 -78.1343 197.104 -78.5836 192.547C-78.9428 188.903 -76.3744 185.069 -72.6194 183.853C-69.6835 182.903 -68.2538 180.913 -67.2391 178.372C-64.6274 171.832 -63.5914 164.783 -60.3406 158.006C-64.6176 158.826 -67.4575 160.736 -69.2655 164.165C-70.1809 165.901 -71.2721 167.485 -73.327 168.055C-74.5649 168.399 -75.7098 168.446 -76.3238 167.041C-76.8969 165.73 -76.0859 164.83 -75.0631 164.496C-72.3678 163.616 -71.0229 161.503 -69.6416 159.295C-67.7177 156.221 -64.174 156.905 -61.3336 156.006C-60.4981 155.742 -59.6564 155.64 -59.1279 154.925C-55.7248 150.321 -51.4676 146.559 -46.8151 142.77C-49.3182 142.773 -52.2735 144.224 -54.4007 146.496C-55.794 147.983 -57.1199 149.558 -58.292 151.224C-60.9047 154.936 -65.8967 156.94 -70.0213 155.766C-70.2832 155.692 -70.6396 155.456 -70.6833 155.24C-70.7315 155.003 -70.5389 154.562 -70.3284 154.458C-69.8745 154.234 -69.3271 154.014 -68.8441 154.061C-62.8098 154.648 -58.9956 151.535 -55.9272 146.753C-53.6385 143.186 -50.114 140.783 -46.7886 138.036C-49.7939 139.873 -53.3828 138.71 -56.8731 140.853C-55.0122 137.182 -51.4899 136.923 -49.245 134.84C-52.3778 135.819 -55.4765 134.429 -58.5937 135.072C-56.6771 133.066 -53.971 132.916 -51.6811 131.7C-57.307 132.184 -63.0353 131.339 -68.5639 132.91C-72.1065 133.916 -74.5647 136.61 -76.9375 139.258C-78.6553 141.176 -80.7043 142.43 -83.2078 142.92C-84.5292 143.178 -85.9649 143.101 -86.4332 141.626C-86.9314 140.056 -85.4655 139.505 -84.3786 139.3C-79.3143 138.345 -76.161 133.88 -70.9062 132.263C-79.1991 129.865 -86.2142 125.616 -93.6907 122.393C-95.7587 121.502 -97.7465 120.426 -99.7799 119.453C-100.813 118.959 -101.671 118.064 -100.258 117.447C-91.127 113.459 -83.0688 107.197 -73.3313 104.573C-71.0894 103.969 -68.5457 104.484 -66.0768 104.102C-71.3144 104.238 -75.4715 102.1 -79.0353 98.537C-80.7177 96.8551 -83.0748 97.3449 -85.1048 96.7847C-86.1526 96.4955 -87.4301 96.5077 -87.3631 95.0479C-87.3035 93.7493 -86.2448 93.3903 -85.0727 93.2444C-81.8714 92.8457 -78.9462 93.5214 -76.9455 96.1082C-72.951 101.273 -67.4045 102.762 -61.333 103.119C-58.7783 103.27 -56.2871 103.751 -53.0751 104.498C-55.4547 102.543 -57.8733 101.872 -59.6328 99.7188C-57.1916 99.108 -55.3404 100.71 -52.9417 100.446C-55.069 98.6696 -58.1215 98.7412 -59.7241 96.1622C-56.8881 95.6955 -54.5262 97.59 -51.3787 97.1236C-54.7279 95.464 -57.6333 94.0243 -60.5388 92.5847C-60.4971 92.4918 -60.4554 92.3989 -60.4138 92.306C-56.6854 93.0693 -52.9569 93.8326 -49.2285 94.5959C-54.4711 92.6054 -57.742 88.1306 -61.7462 84.6624C-65.1043 81.7538 -68.9376 82.514 -73.0406 82.3006C-71.4861 80.0502 -68.6383 82.1633 -67.2781 79.8264C-70.4752 77.4084 -73.7233 74.8813 -77.5777 73.1811C-78.762 72.6587 -80.9668 72.4914 -80.045 70.2637C-79.1198 68.0279 -77.283 69.1031 -75.8984 69.6514C-70.9914 71.5945 -67.7971 75.5814 -64.6667 79.5545C-60.5895 84.7293 -55.3128 88.1801 -49.0871 90.4019C-50.2938 89.5425 -51.5273 88.7177 -52.6999 87.814C-53.89 86.897 -54.9957 85.8712 -56.1804 84.9468C-62.0788 80.3442 -66.6922 74.8813 -68.4877 67.376C-69.0073 65.2038 -69.8319 63.068 -70.7895 61.0445C-72.857 56.6754 -76.3478 55.2818 -80.8012 56.9949C-83.0445 57.8579 -85.1923 58.9692 -87.5361 59.6703C-85.0077 57.2077 -81.7728 55.9888 -77.8608 54.3691C-81.4789 53.8637 -84.2576 53.1531 -86.8902 51.8619C-90.9654 49.8633 -93.3098 46.6384 -93.164 42.2014C-93.0325 38.2003 -91.5149 34.6549 -87.2398 33.0847C-83.0884 31.56 -77.2942 32.7237 -74.3733 35.9196C-71.5715 38.9851 -70.0172 42.5819 -70.8143 46.8132C-71.2774 49.2709 -70.7539 50.7911 -68.5037 52.3676C-64.3018 55.3117 -59.8827 57.858 -54.9825 58.9857C-46.5087 60.9358 -40.1689 65.5076 -35.4901 72.6679C-35.1253 73.2263 -34.8505 74.016 -33.684 74.06C-35.8727 68.5811 -39.5603 64.5691 -44.2199 61.3647C-45.8577 60.2383 -47.3862 59.5712 -46.0501 56.8197C-44.896 54.443 -46.2325 51.8156 -47.9766 49.7161C-48.5001 49.0861 -49.2766 48.4018 -48.5414 47.4686C-47.7833 46.5064 -46.7717 46.8728 -45.883 47.2032C-43.4014 48.1254 -41.6662 52.564 -42.8722 55.8636C-43.5762 57.7897 -43.1395 58.6974 -41.6812 59.9112C-38.2087 62.8017 -35.4368 66.3818 -32.5487 69.8712C-33.8093 65.4443 -37.1624 62.2237 -39.2483 58.2543C-35.3331 60.7545 -32.989 64.6236 -29.7947 68.0029C-30.4254 65.7177 -31.0561 63.4325 -31.8763 60.4609C-28.8294 62.8616 -28.4633 66.19 -25.8807 69.1122C-26.8066 65.107 -27.5427 61.9232 -28.2787 58.7394C-28.1397 58.6837 -28.0007 58.6281 -27.8617 58.5724C-26.3191 61.7548 -24.7765 64.9371 -22.9421 68.7215C-22.5603 64.8826 -24.8227 62.1406 -24.3864 58.7329C-21.9047 60.665 -21.7546 63.8619 -19.3371 66.4845C-19.8959 61.056 -20.4989 56.2005 -19.1223 50.6853C-17.8891 56.1533 -18.4376 61.2101 -15.5145 66.0285C-16.1861 60.9241 -16.7415 56.3697 -17.4018 51.8306C-17.7211 49.636 -18.983 47.8542 -20.5356 46.369C-23.2857 43.7384 -24.6841 40.4069 -25.7551 36.8897C-26.0754 35.8379 -26.7956 34.4837 -25.0024 34.0047C-23.4835 33.599 -22.5445 34.4146 -22.0839 35.821C-21.4499 37.7564 -20.9221 39.7301 -20.2073 41.6344C-19.424 43.7212 -17.4814 45.2076 -17.0491 47.8216C-15.0252 40.6023 -10.3762 35.0794 -7.16411 28.799C-6.09196 26.7026 -5.54041 25.2032 -7.55084 23.2039C-9.88343 20.8843 -10.8774 17.7173 -11.0391 14.396C-11.3195 8.63744 -8.3121 4.6647 -2.66818 3.55749C-0.948166 3.22004 0.48365 2.62655 1.93123 1.62223C5.59017 -0.916254 10.9663 -0.386968 14.1679 2.59102C17.5565 5.74303 18.3664 11.4982 16 15.61C13.7208 19.5703 9.18211 21.2534 4.58196 19.7976C2.4418 19.1203 0.811737 17.7838 -0.176643 15.7408C-0.7528 14.5499 -1.28105 13.3358 -2.06348 11.6228C-2.83804 14.8276 -2.73622 17.3433 -1.50713 19.8495C1.5165 26.0151 4.16515 32.3862 7.52489 38.3598C12.18 46.6367 11.472 55.2326 10.0935 63.9966C10.0111 64.5201 9.83946 65.0304 9.77232 65.5549C9.73309 65.8609 9.81908 66.1828 9.85425 66.5559C12.1067 62.5515 12.8213 58.0122 11.8911 51.5027C11.5543 49.1453 11.7808 47.2495 13.867 45.8876C17.8267 43.3028 18.891 39.4286 18.8024 35.0068C18.7816 33.9715 18.5324 32.5809 19.9384 32.3547C21.5416 32.0967 21.6742 33.6355 22.0136 34.7058C23.4315 39.1758 22.3696 42.9665 18.2839 45.6762C14.7201 48.0397 12.9941 50.706 14.1515 55.0719C14.6354 56.8972 14.4647 58.9224 14.422 60.8529C14.3826 62.6387 14.1168 64.4195 13.9358 66.3612C16.4937 64.2532 16.1873 60.5575 18.7051 58.1622C19.1304 61.6818 16.9813 64.521 17.7202 67.9674C19.6867 64.8225 20.0811 61.003 23.3035 58.3577C22.6766 61.3621 21.0809 63.7078 20.738 67.0795C22.96 64.5714 23.7331 61.7619 26.5765 59.6083C25.2429 62.513 24.2003 64.7839 22.8204 67.7895C26.001 66.1531 26.053 63.0243 28.5104 61.3506C28.3 65.3141 25.7972 68.1855 25.2767 71.6836C28.143 67.0439 31.3303 62.7071 35.1069 58.7906C36.8899 56.9415 37.0962 54.3124 37.4272 51.9105C37.6883 50.0151 38.4113 48.5655 40.0505 47.7833C42.9694 46.3903 43.9731 44.0528 43.9299 41.0127C43.9192 40.2539 43.4777 39.1057 44.8543 39.0382C45.8585 38.9891 46.2485 39.7564 46.5947 40.6318C48.0125 44.2171 46.5407 48.4546 42.8682 50.0935C40.8751 50.983 39.8466 52.19 39.4794 54.2543C38.8437 57.8279 36.1761 60.1898 34.0531 62.8333C31.6178 65.8655 30.0436 69.2942 28.7115 72.885C31.5438 69.8122 33.6302 66.1937 35.8846 62.7675C39.2758 57.6137 43.8457 55.6401 49.6485 55.3757C54.5524 55.1522 59.0084 53.4237 63.3586 51.2146C65.2832 50.2372 65.1819 49.6027 64.0468 48.0213C60.509 43.0924 61.7032 36.5442 66.3727 33.9798C69.0401 32.5149 71.6273 32.5455 73.777 34.6655C75.9287 36.7876 75.5942 39.0843 73.8774 41.587C72.1988 44.0341 71.0629 46.8503 69.6452 49.4811C69.2611 50.1939 68.9119 50.8972 69.5902 51.5283C72.4686 54.206 75.5337 56.5052 79.794 56.2004C83.7828 55.915 86.7489 54.1091 88.3408 50.3719C89.866 46.7914 88.8837 43.2661 85.9062 41.2408C82.9643 39.2399 80.4765 39.5929 77.2857 42.4358C76.8982 42.7812 76.4262 43.032 75.9228 43.3746C75.738 39.1014 79.5591 36.3145 84.2746 37.118C88.7704 37.884 91.9375 41.2692 92.4368 45.842C93.0042 51.039 90.3569 56.1034 86.1303 57.7891C79.8991 60.2741 74.5577 58.2942 69.8167 54.2106C68.1175 52.747 67.5929 52.5052 66.8049 54.9611C64.4235 62.3828 61.9951 69.7994 58.5318 77.1559C63.0641 76.6563 66.9872 76.0499 68.6418 71.3171C69.0483 70.1544 69.9789 69.1039 70.8689 68.1985C71.9947 67.0531 73.5721 66.9807 74.6147 68.0892C75.6782 69.2198 74.5096 70.1419 73.6835 71.0363C69.9588 75.0698 66.3788 79.286 60.0399 79.4265C60.1531 79.7839 60.2664 80.1413 60.3796 80.4987C62.7115 80.4987 65.0434 80.4877 67.3751 80.5059C68.0184 80.5109 68.8043 80.6068 68.7252 81.4269C68.6916 81.7749 67.9557 82.3121 67.5263 82.3245C64.1796 82.4213 60.9977 83.0368 57.8164 84.1962C56.0195 84.8511 58.5359 82.7157 56.8469 82.6713C54.3146 86.4668 50.5267 89.4346 46.7812 92.5667C48.3391 93.1062 49.3358 91.4605 50.9751 91.7048C50.876 95.2814 47.2164 95.1641 45.2064 97.0988C48.1207 97.3522 50.3843 96.14 52.9454 95.1591C52.9122 98.3842 49.2619 97.4852 48.5287 99.6601C50.9629 99.3482 53.2956 97.9655 56.2001 97.9638C54.2658 100.762 51.8588 102.345 48.8411 103.269C54.358 103.596 59.8268 104.312 65.277 103.454C68.7698 102.904 71.0254 100.358 73.2493 97.807C75.7371 94.9537 78.9264 93.6427 82.7522 94.3535C83.803 94.5487 85.0741 94.886 85.0335 96.2148C84.9944 97.4921 83.6633 97.4646 82.777 97.5213C78.9385 97.7668 75.7971 99.3961 73.0683 102.019C71.9216 103.121 70.4697 103.744 68.8524 104.175C80.3979 106.743 89.8186 113.807 101.468 118.501C90.3048 123.188 80.3294 128.168 69.6171 132.102C73.8239 134.871 77.2559 138.71 82.6485 138.985C83.6412 139.036 84.1921 139.584 84.0638 140.694C83.9436 141.735 83.2174 141.732 82.4481 141.837C79.5332 142.232 76.6533 141.852 74.6302 139.724C69.2826 134.101 62.7116 131.603 55.1281 131.192C53.8933 131.125 52.6841 130.585 51.2927 130.219C51.8602 131.188 53.2684 130.786 53.5263 132.116C52.052 133.036 50.4731 131.478 48.8773 132.23C50.5343 133.58 52.8547 133.871 54.3898 136.105C52.2476 135.646 50.5154 135.275 47.8458 134.703C50.1775 135.966 51.6924 136.786 53.2073 137.606C53.1717 137.719 53.136 137.832 53.1004 137.945C51.1342 137.315 49.1679 136.685 47.2017 136.056C49.4065 137.998 52.2343 138.946 54.1446 141.193L54.2176 141.116ZM-50.3045 160.508C-46.29 158.453 -43.9164 154.62 -40.6795 151.71C-44.7385 153.291 -47.2252 156.792 -50.369 159.482C-50.2975 157.713 -49.0754 156.569 -48.0174 155.395C-45.7396 152.869 -43.3616 150.434 -41.0247 147.961C-49.4875 151.93 -53.2897 159.779 -57.5204 167.654C-57.2936 162.387 -54.0912 158.861 -51.5691 154.993C-48.9499 150.976 -45.2026 147.949 -41.7541 144.194C-57.8036 149.588 -58.9226 163.998 -63.3259 177.341C-58.8192 174.831 -54.3969 174.996 -50.3893 173.536C-46.3812 172.077 -42.8394 169.882 -40.0035 166.725C-37.2426 163.652 -34.8209 160.311 -33.7063 156.254C-42.7815 166.686 -49.0601 171.998 -53.9205 172.675C-46.493 167.807 -39.9563 162.715 -35.555 154.566C-39.6675 158.429 -43.2316 161.793 -46.8138 165.138C-50.4276 168.512 -54.9157 170.526 -59.0099 173.157C-55.6948 168.905 -50.4938 166.988 -46.9719 163.046C-43.5119 159.173 -39.4264 155.806 -36.9091 151.152C-42.8222 155.869 -48.5107 160.783 -54.2575 166.504C-53.0494 163.426 -52.5388 162.685 -50.3045 160.508ZM-48.4874 114.886C-48.6811 142.678 -25.8258 161.927 -1.60384 161.542C23.4143 161.145 44.9972 141.509 44.6561 114.533C44.3311 88.8289 23.2765 68.5254 -2.41735 68.7293C-27.6996 68.9299 -49.0322 88.9594 -48.4874 114.886ZM49.1773 110.098C60.0409 108.111 70.5107 108.648 80.2232 114.671C70.0717 111.14 59.8859 108.557 48.6741 113.525C62.4451 111.042 74.7458 114.566 87.0554 118.067C74.3232 116.793 61.7979 112.667 48.0903 115.823C59.988 117 71.2067 118.109 82.4254 119.218C71.7476 121.195 61.2351 117.94 50.5841 118.958C59.6935 120.596 68.6271 123.57 78.1135 122.164C68.0091 125.116 57.9467 122.971 46.9339 121.754C54.7857 124.88 61.9614 126.738 69.503 127.289C67.0859 128.859 64.4843 128.242 62.0179 128.105C59.478 127.963 56.9592 127.335 54.4467 126.841C52.103 126.38 49.7799 125.816 47.4477 125.298C56.2318 129.458 65.0777 131.953 74.3871 126.95C80.0648 123.9 85.9895 121.308 92.1875 118.325C87.1002 115.65 82.4243 113.456 78.0146 110.818C68.5298 105.144 58.9463 105.728 49.1773 110.098ZM-55.6351 112.477C-62.6578 109.628 -69.71 110.22 -76.7942 111.984C-69.1742 107.845 -61.1744 108.828 -53.1127 110.051C-56.5346 107.455 -60.4315 106.592 -64.4864 106.296C-75.9826 105.457 -83.6618 113.685 -93.6568 118.038C-85.9842 121.973 -79.1589 125.806 -72.0529 129.02C-65.5555 131.958 -59.2611 129.414 -52.1701 127.198C-59.7705 126.355 -66.5477 130.121 -73.1724 126.606C-65.2445 127.591 -58.4335 123.171 -50.9002 122.29C-55.7496 121.495 -60.4093 122.808 -65.124 123.297C-69.9309 123.795 -74.676 124.376 -79.1795 122.067C-74.6669 121.839 -70.1776 122.145 -65.7112 121.199C-61.3697 120.278 -56.9647 119.657 -51.9289 118.792C-63.2624 117.449 -73.7576 120.713 -84.4339 119.369C-75.0018 117.783 -65.4827 116.827 -55.9384 115.995C-66.3404 113.181 -76.3669 116.152 -86.5336 117.324C-76.6216 113.256 -66.2312 112.225 -55.6351 112.477ZM35.3881 79.5379C41.3047 74.3288 46.7975 68.6301 54.171 65.3406C48.2997 70.6941 41.6935 75.2976 37.235 82.0698C44.2846 77.3201 51.6262 72.9668 57.0746 66.2226C53.498 74.6729 44.7906 77.9712 38.3093 84.7699C44.8274 82.997 49.2596 79.5314 53.4882 75.6774C51.0533 81.359 45.2378 83.4301 40.5441 87.781C45.4764 86.3429 49.5073 84.6189 52.2478 81.27C58.2106 73.9832 59.8321 64.8207 62.8968 55.7773C58.5377 56.9527 54.8544 58.2 50.9209 58.7433C41.5109 60.0429 34.3711 64.6962 30.7376 74.5888C35.0889 70.045 38.5211 65.1927 44.2984 63.2632C39.5661 66.6085 35.6696 70.712 32.8336 75.9754C40.1979 68.9048 48.4075 63.225 57.9389 59.5996C49.783 65.5451 39.5121 69.0268 35.3881 79.5379ZM-8.37777 64.7247C-9.84454 56.0908 -8.87774 47.7143 -5.93179 39.4845C-7.53527 48.5922 -5.49648 57.1125 -1.97913 65.4268C-3.21963 54.5226 -3.90034 43.6252 -2.14745 32.6992C-0.816139 43.7389 -1.03655 54.8931 0.691345 65.8905C1.95803 57.9039 2.32886 49.8782 1.76894 41.785C2.16211 41.7841 2.55528 41.7832 2.94847 41.7824C3.5564 48.4399 4.16429 55.0974 4.77218 61.7549C7.00136 55.9119 5.65344 50.1436 4.82935 44.3606C7.89629 51.1218 7.45801 58.1838 6.64795 65.3064C9.08521 60.6756 9.53965 55.8096 8.7975 50.7311C7.51083 41.9271 1.01403 35.6707 -2.2394 26.9435C-4.94144 33.5018 -9.28147 38.0681 -12.302 43.4653C-16.4603 50.8958 -14.6838 58.2662 -11.863 65.5773C-12.2534 58.9899 -13.2612 52.3766 -10.5149 46.002C-10.9879 52.3728 -11.8837 58.7445 -8.37777 64.7247ZM-1.76355 195.891C-4.87825 185.856 -3.24702 175.696 -2.78243 165.535C-5.44539 171.892 -5.51057 178.805 -7.51147 185.331C-10.469 178.782 -9.36538 171.85 -9.83245 164.229C-11.9172 170.23 -12.0641 175.547 -11.1474 180.841C-9.78518 188.707 -3.70889 194.514 -1.61556 202.204C0.945847 195.547 4.70564 189.633 7.36179 183.226C9.45354 178.18 9.34999 172.941 6.78504 167.938C6.62457 173.411 8.13951 179.054 4.46043 184.944C5.46725 177.964 5.87018 171.817 4.09794 165.737C3.83768 168.7 3.98513 171.673 3.79569 174.624C3.61094 177.501 3.21971 180.384 2.66496 183.214C2.1176 186.007 1.25176 188.737 0.52565 191.494C1.12648 182.525 3.03207 173.639 0.565018 164.688C0.674088 169.007 0.0172119 173.213 -0.919121 177.446C-1.58714 176.759 -0.820824 175.709 -1.81728 175.042C-1.61398 182.08 -0.806984 188.982 -1.76355 195.891ZM59.9389 176.751C59.3074 173.838 58.3646 171.572 57.1198 169.451C55.072 165.961 52.614 162.734 51.0127 158.957C48.2864 152.528 42.3757 149.952 36.4785 147.4C41.0698 152.22 47.9196 154.974 49.771 162.226C46.8158 157.846 42.7612 154.736 38.2028 152.161C42.2705 157.96 48.0356 162.282 52.16 168.013C45.5491 162.491 38.9014 157.055 33.5555 150.258C37.6588 160.999 46.3861 167.193 55.8312 172.662C44.2881 169.558 37.1843 160.93 29.9428 152.402C31.6745 155.955 33.6807 159.214 35.7843 162.408C37.8457 165.539 39.725 168.977 43.3908 170.486C48.7102 172.675 54.1484 174.576 59.9389 176.751ZM-41.0817 82.0283C-46.9957 75.9897 -51.7783 68.7844 -58.9407 63.8939C-51.2689 68.0752 -44.8585 73.7892 -38.9546 80.2351C-40.0288 75.979 -42.6704 72.7643 -45.6445 69.6988C-51.7044 63.4526 -60.2231 61.6864 -67.6796 57.0758C-67.1923 59.3555 -66.8317 61.1223 -66.4355 62.8811C-65.4158 67.4082 -63.4556 71.2493 -59.3742 73.9186C-55.614 76.3776 -52.1319 79.2574 -48.4539 81.8476C-46.7583 83.0418 -45.1053 84.4127 -42.8056 84.6422C-50.1696 77.2754 -59.0936 71.4236 -64.3635 62.1076C-57.1188 69.3224 -49.7621 76.3794 -41.0817 82.0283ZM-86.9947 36.4658C-83.9292 36.567 -81.7006 37.0113 -80.5659 39.5981C-78.99 43.191 -80.7055 46.4933 -84.7833 47.7214C-85.6077 47.9697 -87.0079 47.746 -87.0315 48.9958C-87.0524 50.1055 -85.7819 50.3748 -84.9161 50.6896C-82.3987 51.6051 -79.849 52.4345 -77.2969 53.2505C-76.3659 53.5481 -75.4963 53.6314 -74.6534 52.764C-71.7897 49.8171 -71.5308 43.0443 -74.2203 39.1592C-76.9643 35.1954 -81.7549 34.0358 -86.9947 36.4658ZM6.70615 3.59949C6.38988 3.62293 5.49294 3.41606 5.14607 3.76127C3.40772 5.49147 1.05708 7.11136 0.336761 9.24688C-0.901627 12.9183 2.40665 16.8311 6.28097 17.2126C10.2966 17.6079 13.8016 14.7016 14.0729 10.7517C14.3341 6.94836 11.0545 3.6162 6.70615 3.59949ZM78.9493 191.234C79.7244 186.244 74.6988 183.178 71.1986 182.853C67.9889 182.555 65.2726 184.863 64.1996 188.646C63.3156 191.764 64.7334 197.731 68.8953 198.966C69.3592 191.701 71.8916 189.716 78.9493 191.234ZM-61.0177 193.873C-61.131 192.262 -61.3584 190.67 -62.2462 189.278C-63.5386 187.251 -65.2162 184.892 -67.6073 185.305C-69.8734 185.697 -70.1489 188.68 -70.8613 190.737C-71.0892 191.395 -71.4207 192.423 -70.1755 192.849C-67.8002 193.663 -68.0211 194.641 -69.8427 196.081C-70.8331 196.864 -72.0955 198.066 -71.1536 199.616C-70.1746 201.226 -68.5209 201.701 -66.7011 201.402C-63.4205 200.862 -61.0332 197.666 -61.0177 193.873ZM71.5371 39.7577C71.3903 38.3188 70.9793 36.2774 69.0868 35.668C67.078 35.0212 65.7385 36.7037 64.7621 38.2728C62.973 41.1481 63.6309 45.6595 65.9448 48.1284C66.8338 49.0769 67.5007 49.2139 68.2346 48.1241C69.8608 45.7092 71.3012 43.2092 71.5371 39.7577ZM-2.05245 6.46778C-8.69752 9.41944 -10.5304 14.9343 -6.94529 21.3715C-6.36411 22.415 -5.93997 24.4437 -4.68725 24.0552C-3.21985 23.6001 -3.53815 21.539 -3.44223 20.1009C-3.394 19.3779 -3.68012 18.6346 -3.79879 17.8979C-4.24891 15.1032 -4.09339 12.4282 -2.81216 9.79213C-2.35049 8.84233 -1.65874 7.72596 -2.05245 6.46778ZM-43.9946 88.39C-50.3149 83.0589 -57.0158 78.2436 -63.2974 71.834C-60.4165 79.2244 -52.2359 86.1381 -43.9946 88.39ZM-86.8272 46.3945C-83.8603 46.4617 -81.4774 44.501 -81.4049 42.4923C-81.3452 40.8403 -83.7195 38.448 -85.4914 38.6694C-87.69 38.9441 -89.4511 40.2734 -89.5343 42.529C-89.607 44.499 -88.5598 46.2194 -86.8272 46.3945ZM79.027 195.968C78.8907 193.578 77.2348 192.815 75.1336 192.708C72.7625 192.587 71.5569 193.823 71.5489 196.187C71.5409 198.548 72.8184 199.757 75.1043 199.792C77.557 199.829 78.7929 198.442 79.027 195.968ZM-70.5734 185.083C-76.5128 186.149 -78.4064 191.893 -74.9954 197.183C-71.0321 194.004 -73.1194 188.93 -70.5734 185.083ZM37.9375 144.876C47.814 148.906 52.8683 157.06 56.3676 166.545C54.2769 155.855 49.48 147.481 37.9375 144.876ZM-52.7297 62.6952C-50.4847 63.7427 -48.3467 64.9795 -46.4751 66.5795C-44.6826 68.1118 -43.0704 69.8537 -41.3604 71.4842C-39.7083 73.0593 -38.8572 75.4752 -36.1784 76.7695C-39.4875 68.8501 -44.3596 63.6291 -52.7297 62.6952ZM-28.6294 157.041C-30.7906 160.652 -32.1831 164.718 -35.6136 166.726C-39.0027 168.709 -41.9526 171.276 -45.4394 173.054C-38.0175 171.657 -29.1288 165.13 -28.6294 157.041ZM38.3853 169.881C34.7827 165.657 32.6678 160.384 28.7236 156.43C30.7744 161.744 32.6019 167.212 38.3853 169.881ZM-12.4942 183.676C-13.4745 177.834 -12.4207 171.815 -13.0811 165.432C-15.4515 172.217 -15.2942 177.791 -12.4942 183.676ZM-7.18733 183.834C-6.82561 177.634 -6.46393 171.435 -6.10219 165.235C-8.95077 171.242 -8.63372 177.463 -7.18733 183.834ZM56.7594 79.743C53.1301 84.0158 48.5485 87.202 44.0264 90.4562C49.6946 88.5094 54.4383 85.5079 56.7594 79.743ZM-5.9323 65.327C-5.96092 59.8968 -7.36726 54.6083 -7.24444 49.181C-8.23542 54.6816 -7.56965 60.0522 -5.9323 65.327ZM-31.8136 157.264C-33.915 160.135 -35.5303 163.316 -37.6187 166.195C-33.9872 164.305 -32.8852 160.795 -31.8136 157.264Z" fill="#4C3A41"/>
<path d="M54.1445 141.193C55.8485 141 58.2371 142.232 58.5427 139.079C58.5534 138.968 59.0821 138.777 59.3139 138.837C62.8977 139.768 66.8275 139.944 69.2888 143.366C69.7551 144.015 70.1416 144.715 69.6246 145.385C69.1612 145.986 68.438 145.62 67.8492 145.385C66.5776 144.878 65.3171 144.343 63.5504 143.612C65.1005 145.849 66.3425 147.618 67.5543 149.406C67.9283 149.958 68.124 150.7 67.701 151.197C67.1095 151.892 66.3175 151.546 65.6973 151.092C65.0126 150.591 64.2748 150.092 63.7657 149.434C61.1296 146.025 58.2277 142.944 54.2203 141.114C54.2176 141.116 54.1445 141.193 54.1445 141.193Z" fill="#4C3A41"/>
<path d="M23.4944 172.08C24.8257 172.244 24.6763 173.372 24.9207 174.08C25.646 176.182 26.03 178.41 26.8577 180.464C27.4095 181.833 28.5879 182.898 29.925 183.661C30.6746 184.089 31.6137 184.442 30.9208 185.558C30.3765 186.435 29.477 186.384 28.618 186.138C26.6957 185.588 25.1766 184.457 23.9961 182.848C21.6889 179.704 22.2694 176.191 22.6947 172.702C22.7538 172.218 23.1297 172.011 23.4944 172.08Z" fill="#4C3A41"/>
<path d="M23.2845 57.4064C26.0069 52.1329 31.8645 49.6667 30.7867 42.9854C35.1052 48.637 32.2933 53.9799 23.2845 57.4064Z" fill="#4C3A41"/>
<path d="M55.1083 94.3365C58.8046 90.9057 63.6677 89.6409 67.0381 86.167C68.9562 90.749 63.3992 94.5899 55.1083 94.3365Z" fill="#4C3A41"/>
<path d="M58.2859 96.1478C61.9986 94.233 65.2855 92.4976 68.6172 90.853C69.2999 90.516 70.1907 89.6947 70.913 90.6581C71.4527 91.3781 70.7305 92.0271 70.3424 92.6591C67.832 96.7479 64.9962 97.6286 58.2859 96.1478Z" fill="#4C3A41"/>
<path d="M51.5784 146.282C53.2391 148.074 55.0335 149.762 56.5264 151.683C58.3397 154.017 60.3316 154.812 63.3668 154.263C65.115 153.946 68.36 152.511 68.7567 154.529C69.1459 156.507 65.6728 155.506 64.0902 156.329C60.6195 158.132 58.2998 156.628 56.327 153.77C54.6619 151.357 52.8483 149.046 51.1003 146.691C51.2597 146.555 51.419 146.418 51.5784 146.282Z" fill="#4C3A41"/>
<path d="M22.2334 55.751C23.2229 50.6618 24.0602 46.5207 30.0839 45.7393C28.4232 49.8601 26.0261 52.8299 22.2334 55.751Z" fill="#4C3A41"/>
<path d="M-44.9614 114.203C-44.8917 91.3979 -25.0306 72.1437 -1.72745 72.2904C21.7275 72.438 41.4117 92.4708 41.2643 116.044C41.1271 137.992 20.7596 157.473 -2.03896 157.463C-25.5546 157.452 -45.0336 137.82 -44.9614 114.203ZM-6.106 129.533C2.46495 138.06 17.5711 137.545 25.4405 128.807C33.2859 120.096 34.3183 106.988 27.9417 96.8423C22.4156 88.0501 14.3451 84.0252 3.96119 84.2222C10.2535 87.1627 15.542 91.2343 18.5702 97.5454C21.6444 103.953 21.7455 110.559 18.8132 117.119C14.4207 126.945 5.47853 131.504 -6.106 129.533Z" fill="#4C3A41"/>
<path d="M846.25 141.116C849.64 140.613 852.645 138.721 856.385 138.44C854.066 140.867 850.1 141.215 848.757 145.235C851.685 144.084 853.945 142.452 856.666 141.832C852.875 146.033 849.273 150.222 845.453 154.204C841.22 158.618 835.823 161.271 830.278 163.654C829.214 164.111 827.284 164.163 827.822 165.97C828.297 167.563 830.068 167.123 831.211 166.888C835.237 166.06 838.427 163.731 841.183 160.77C841.892 160.007 842.544 159.189 843.659 158.615C841.672 163.761 839.665 168.899 837.709 174.057C837.162 175.502 836.047 175.457 834.829 175.449C830.852 175.42 826.874 175.207 822.914 175.904C820.878 176.262 819.042 176.907 817.519 178.513C822.562 176.706 827.766 176.613 832.986 176.658C835.547 176.68 836.578 177.934 836.079 180.422C835.894 181.352 835.79 182.299 835.606 183.522C832.481 181.543 829.462 180.68 825.827 181.874C819.048 184.101 817.019 192.715 818.35 197.516C819.476 201.579 822.331 203.466 826.491 203.328C833.089 203.108 839.873 196.386 837.891 188.612C837.431 186.809 837.795 185.402 839.139 183.954C843.171 179.612 848.444 177.414 853.76 175.433C862.639 172.126 870.372 167.663 873.971 158.236C874.118 157.853 874.42 157.529 875.044 156.572C873.046 166.24 867.865 172.204 858.779 174.794C861.078 176.757 862.961 175.744 864.848 174.998C865.515 174.735 866.497 174.106 866.721 175.147C867.072 176.777 867.869 178.438 867.116 180.188C866.713 181.126 866.109 180.891 865.292 180.786C858.681 179.938 853.943 182.97 852.885 188.596C852.702 189.569 852.375 190.587 853.511 191.14C854.658 191.698 855.564 190.905 855.811 190.018C857.28 184.726 861.822 183.208 866.192 181.969C869.614 180.999 869.972 179.027 869.061 176.45C868.114 173.769 868.953 172.105 870.935 170.347C874.224 167.429 877.209 164.186 880.093 159.782C879.689 163.735 879.371 166.856 879.053 169.976C879.185 169.997 879.317 170.018 879.449 170.039C880.433 167.718 881.418 165.398 882.667 162.452C883.556 166.16 880.98 168.874 881.864 172.046C883.804 169.711 884.095 166.643 885.625 164.389C886.324 164.259 886.415 164.69 886.341 164.917C885.062 168.845 885.577 172.742 886.46 176.644C887.137 179.639 886.315 182.099 883.972 184.157C882.281 185.641 880.6 187.211 879.542 189.237C878.787 190.681 878.182 192.524 880.026 193.431C881.763 194.285 882.317 192.483 882.96 191.267C883.561 190.132 883.931 188.716 884.841 187.931C888.696 184.607 889.243 180.377 888.833 175.685C888.505 171.931 888.933 168.222 890.543 164.698C890 168.91 890.311 173.153 889.995 177.351C889.651 181.93 890.778 185.944 892.75 190.021C895.598 195.906 897.959 202.026 900.558 208.033C900.886 208.79 901.027 209.945 902.004 209.998C903.088 210.056 903.121 208.799 903.422 208.088C907.318 198.902 911.548 189.887 917.039 181.575C917.556 184.299 919.192 186.842 920.48 189.543C921.805 192.322 921.747 195.395 922.296 198.339C922.413 198.964 922.387 199.708 923.172 199.894C924.07 200.107 924.512 199.514 924.884 198.789C926.275 196.08 926.269 193.272 924.709 190.784C922.321 186.974 920.682 182.713 917.742 179.251C917.349 178.788 917.221 178.347 917.244 177.813C917.425 173.547 917.262 169.295 916.643 165.044C918.125 167.162 918.674 169.622 919.757 171.924C920.083 169.004 919.681 166.153 919.424 163.212C921.829 165.779 922.271 169.34 924.411 172.152C923.966 169.125 923.522 166.097 923.024 162.706C924.97 163.957 924.956 166.108 926.58 167.385C927.861 164.452 924.82 162.242 925.615 158.977C928.714 164.258 932.337 168.388 936.705 171.781C938.223 172.96 938.166 174.053 937.712 175.622C935.782 182.3 936.03 182.898 942.301 185.586C944.361 186.469 945.145 188.039 945.585 189.988C945.793 190.908 945.759 192.15 947.081 192.059C948.415 191.966 948.745 190.719 948.73 189.652C948.689 186.777 947.597 184.545 944.817 183.178C939.504 180.567 939.539 180.496 940.666 174.536C949.504 177.484 959.178 177.874 967.678 183.131C963.775 184.77 961.024 187.292 960.054 191.338C959.043 195.55 960.053 199.271 963.195 202.224C965.972 204.834 969.381 205.261 972.783 203.745C977.549 201.62 978.602 197.104 979.051 192.547C979.41 188.903 976.842 185.069 973.087 183.853C970.151 182.903 968.721 180.913 967.707 178.372C965.095 171.832 964.059 164.783 960.808 158.006C965.085 158.826 967.925 160.736 969.733 164.165C970.648 165.901 971.74 167.485 973.795 168.055C975.032 168.399 976.177 168.446 976.791 167.041C977.364 165.73 976.553 164.83 975.531 164.496C972.835 163.616 971.49 161.503 970.109 159.295C968.185 156.221 964.642 156.905 961.801 156.006C960.966 155.742 960.124 155.64 959.595 154.925C956.192 150.321 951.935 146.559 947.283 142.77C949.786 142.773 952.741 144.224 954.868 146.496C956.262 147.983 957.587 149.558 958.76 151.224C961.372 154.936 966.364 156.94 970.489 155.766C970.751 155.692 971.107 155.456 971.151 155.24C971.199 155.003 971.006 154.562 970.796 154.458C970.342 154.234 969.795 154.014 969.312 154.061C963.277 154.648 959.463 151.535 956.395 146.753C954.106 143.186 950.581 140.783 947.256 138.036C950.261 139.873 953.85 138.71 957.341 140.853C955.48 137.182 951.957 136.923 949.713 134.84C952.845 135.819 955.944 134.429 959.061 135.072C957.145 133.066 954.438 132.916 952.149 131.7C957.775 132.184 963.503 131.339 969.031 132.91C972.574 133.916 975.032 136.61 977.405 139.258C979.123 141.176 981.172 142.43 983.675 142.92C984.997 143.178 986.432 143.101 986.901 141.626C987.399 140.056 985.933 139.505 984.846 139.3C979.782 138.345 976.629 133.88 971.374 132.263C979.667 129.865 986.682 125.616 994.158 122.393C996.226 121.502 998.214 120.426 1000.25 119.453C1001.28 118.959 1002.14 118.064 1000.73 117.447C991.594 113.459 983.536 107.197 973.799 104.573C971.557 103.969 969.013 104.484 966.544 104.102C971.782 104.238 975.939 102.1 979.503 98.537C981.185 96.8551 983.542 97.3449 985.572 96.7847C986.62 96.4955 987.898 96.5077 987.831 95.0479C987.771 93.7493 986.712 93.3903 985.54 93.2444C982.339 92.8457 979.414 93.5214 977.413 96.1082C973.419 101.273 967.872 102.762 961.801 103.119C959.246 103.27 956.755 103.751 953.543 104.498C955.922 102.543 958.341 101.872 960.1 99.7188C957.659 99.108 955.808 100.71 953.409 100.446C955.537 98.6696 958.589 98.7412 960.192 96.1622C957.356 95.6955 954.994 97.59 951.846 97.1236C955.195 95.464 958.101 94.0243 961.006 92.5847C960.965 92.4918 960.923 92.3989 960.881 92.306C957.153 93.0693 953.424 93.8326 949.696 94.5959C954.939 92.6054 958.21 88.1306 962.214 84.6624C965.572 81.7538 969.405 82.514 973.508 82.3006C971.954 80.0502 969.106 82.1633 967.746 79.8264C970.943 77.4084 974.191 74.8813 978.045 73.1811C979.229 72.6587 981.434 72.4914 980.512 70.2637C979.587 68.0279 977.751 69.1031 976.366 69.6514C971.459 71.5945 968.265 75.5814 965.134 79.5545C961.057 84.7293 955.78 88.1801 949.555 90.4019C950.761 89.5425 951.995 88.7177 953.167 87.814C954.357 86.897 955.463 85.8712 956.648 84.9468C962.546 80.3442 967.16 74.8813 968.955 67.376C969.475 65.2038 970.299 63.068 971.257 61.0445C973.325 56.6754 976.815 55.2818 981.269 56.9949C983.512 57.8579 985.66 58.9692 988.004 59.6703C985.475 57.2077 982.24 55.9888 978.328 54.3691C981.946 53.8637 984.725 53.1531 987.358 51.8619C991.433 49.8633 993.777 46.6384 993.631 42.2014C993.5 38.2003 991.982 34.6549 987.707 33.0847C983.556 31.56 977.762 32.7237 974.841 35.9196C972.039 38.9851 970.485 42.5819 971.282 46.8132C971.745 49.2709 971.221 50.7911 968.971 52.3676C964.769 55.3117 960.35 57.858 955.45 58.9857C946.976 60.9358 940.636 65.5076 935.958 72.6679C935.593 73.2263 935.318 74.016 934.152 74.06C936.34 68.5811 940.028 64.5691 944.687 61.3647C946.325 60.2383 947.854 59.5712 946.518 56.8197C945.364 54.443 946.7 51.8156 948.444 49.7161C948.968 49.0861 949.744 48.4018 949.009 47.4686C948.251 46.5064 947.239 46.8728 946.351 47.2032C943.869 48.1254 942.134 52.564 943.34 55.8636C944.044 57.7897 943.607 58.6974 942.149 59.9112C938.676 62.8017 935.904 66.3818 933.016 69.8712C934.277 65.4443 937.63 62.2237 939.716 58.2543C935.801 60.7545 933.457 64.6236 930.262 68.0029C930.893 65.7177 931.524 63.4325 932.344 60.4609C929.297 62.8616 928.931 66.19 926.348 69.1122C927.274 65.107 928.01 61.9232 928.746 58.7394C928.607 58.6837 928.468 58.6281 928.329 58.5724C926.787 61.7548 925.244 64.9371 923.41 68.7215C923.028 64.8826 925.29 62.1406 924.854 58.7329C922.372 60.665 922.222 63.8619 919.805 66.4845C920.363 61.056 920.966 56.2005 919.59 50.6853C918.357 56.1533 918.905 61.2101 915.982 66.0285C916.654 60.9241 917.209 56.3697 917.869 51.8306C918.189 49.636 919.45 47.8542 921.003 46.369C923.753 43.7384 925.152 40.4069 926.223 36.8897C926.543 35.8379 927.263 34.4837 925.47 34.0047C923.951 33.599 923.012 34.4146 922.551 35.821C921.917 37.7564 921.39 39.7301 920.675 41.6344C919.892 43.7212 917.949 45.2076 917.517 47.8216C915.493 40.6023 910.844 35.0794 907.632 28.799C906.559 26.7026 906.008 25.2032 908.018 23.2039C910.351 20.8843 911.345 17.7173 911.507 14.396C911.787 8.63744 908.78 4.6647 903.136 3.55749C901.416 3.22004 899.984 2.62655 898.536 1.62223C894.877 -0.916254 889.501 -0.386968 886.3 2.59102C882.911 5.74303 882.101 11.4982 884.468 15.61C886.747 19.5703 891.285 21.2534 895.886 19.7976C898.026 19.1203 899.656 17.7838 900.644 15.7408C901.22 14.5499 901.749 13.3358 902.531 11.6228C903.306 14.8276 903.204 17.3433 901.975 19.8495C898.951 26.0151 896.302 32.3862 892.943 38.3598C888.288 46.6367 888.996 55.2326 890.374 63.9966C890.456 64.5201 890.628 65.0304 890.695 65.5549C890.734 65.8609 890.648 66.1828 890.613 66.5559C888.361 62.5515 887.646 58.0122 888.576 51.5027C888.913 49.1453 888.687 47.2495 886.601 45.8876C882.641 43.3028 881.577 39.4286 881.665 35.0068C881.686 33.9715 881.935 32.5809 880.529 32.3547C878.926 32.0967 878.793 33.6355 878.454 34.7058C877.036 39.1758 878.098 42.9665 882.184 45.6762C885.747 48.0397 887.473 50.706 886.316 55.0719C885.832 56.8972 886.003 58.9224 886.046 60.8529C886.085 62.6387 886.351 64.4195 886.532 66.3612C883.974 64.2532 884.28 60.5575 881.762 58.1622C881.337 61.6818 883.486 64.521 882.747 67.9674C880.781 64.8225 880.386 61.003 877.164 58.3577C877.791 61.3621 879.387 63.7078 879.73 67.0795C877.507 64.5714 876.734 61.7619 873.891 59.6083C875.225 62.513 876.267 64.7839 877.647 67.7895C874.467 66.1531 874.415 63.0243 871.957 61.3506C872.168 65.3141 874.67 68.1855 875.191 71.6836C872.325 67.0439 869.137 62.7071 865.361 58.7906C863.578 56.9415 863.371 54.3124 863.04 51.9105C862.779 50.0151 862.056 48.5655 860.417 47.7833C857.498 46.3903 856.494 44.0528 856.538 41.0127C856.548 40.2539 856.99 39.1057 855.613 39.0382C854.609 38.9891 854.219 39.7564 853.873 40.6318C852.455 44.2171 853.927 48.4546 857.599 50.0935C859.592 50.983 860.621 52.19 860.988 54.2543C861.624 57.8279 864.291 60.1898 866.414 62.8333C868.85 65.8655 870.424 69.2942 871.756 72.885C868.924 69.8122 866.837 66.1937 864.583 62.7675C861.192 57.6137 856.622 55.6401 850.819 55.3757C845.915 55.1522 841.459 53.4237 837.109 51.2146C835.184 50.2372 835.286 49.6027 836.421 48.0213C839.959 43.0924 838.764 36.5442 834.095 33.9798C831.427 32.5149 828.84 32.5455 826.691 34.6655C824.539 36.7876 824.873 39.0843 826.59 41.587C828.269 44.0341 829.405 46.8503 830.822 49.4811C831.206 50.1939 831.556 50.8972 830.877 51.5283C827.999 54.206 824.934 56.5052 820.673 56.2004C816.685 55.915 813.719 54.1091 812.127 50.3719C810.602 46.7914 811.584 43.2661 814.561 41.2408C817.503 39.2399 819.991 39.5929 823.182 42.4358C823.569 42.7812 824.041 43.032 824.545 43.3746C824.73 39.1014 820.908 36.3145 816.193 37.118C811.697 37.884 808.53 41.2692 808.031 45.842C807.463 51.039 810.111 56.1034 814.337 57.7891C820.568 60.2741 825.91 58.2942 830.651 54.2106C832.35 52.747 832.875 52.5052 833.663 54.9611C836.044 62.3828 838.472 69.7994 841.936 77.1559C837.403 76.6563 833.48 76.0499 831.826 71.3171C831.419 70.1544 830.489 69.1039 829.599 68.1985C828.473 67.0531 826.895 66.9807 825.853 68.0892C824.789 69.2198 825.958 70.1419 826.784 71.0363C830.509 75.0698 834.089 79.286 840.428 79.4265C840.314 79.7839 840.201 80.1413 840.088 80.4987C837.756 80.4987 835.424 80.4877 833.092 80.5059C832.449 80.5109 831.663 80.6068 831.742 81.4269C831.776 81.7749 832.512 82.3121 832.941 82.3245C836.288 82.4213 839.47 83.0368 842.651 84.1962C844.448 84.8511 841.932 82.7157 843.621 82.6713C846.153 86.4668 849.941 89.4346 853.686 92.5667C852.128 93.1062 851.132 91.4605 849.492 91.7048C849.592 95.2814 853.251 95.1641 855.261 97.0988C852.347 97.3522 850.083 96.14 847.522 95.1591C847.555 98.3842 851.206 97.4852 851.939 99.6601C849.505 99.3482 847.172 97.9655 844.267 97.9638C846.202 100.762 848.609 102.345 851.626 103.269C846.109 103.596 840.641 104.312 835.191 103.454C831.698 102.904 829.442 100.358 827.218 97.807C824.73 94.9537 821.541 93.6427 817.715 94.3535C816.665 94.5487 815.393 94.886 815.434 96.2148C815.473 97.4921 816.804 97.4646 817.691 97.5213C821.529 97.7668 824.67 99.3961 827.399 102.019C828.546 103.121 829.998 103.744 831.615 104.175C820.07 106.743 810.649 113.807 799 118.501C810.163 123.188 820.138 128.168 830.85 132.102C826.644 134.871 823.212 138.71 817.819 138.985C816.826 139.036 816.275 139.584 816.404 140.694C816.524 141.735 817.25 141.732 818.019 141.837C820.934 142.232 823.814 141.852 825.837 139.724C831.185 134.101 837.756 131.603 845.339 131.192C846.574 131.125 847.783 130.585 849.175 130.219C848.607 131.188 847.199 130.786 846.941 132.116C848.416 133.036 849.994 131.478 851.59 132.23C849.933 133.58 847.613 133.871 846.078 136.105C848.22 135.646 849.952 135.275 852.622 134.703C850.29 135.966 848.775 136.786 847.26 137.606C847.296 137.719 847.331 137.832 847.367 137.945C849.333 137.315 851.3 136.685 853.266 136.056C851.061 137.998 848.233 138.946 846.323 141.193L846.25 141.116ZM950.772 160.508C946.757 158.453 944.384 154.62 941.147 151.71C945.206 153.291 947.693 156.792 950.837 159.482C950.765 157.713 949.543 156.569 948.485 155.395C946.207 152.869 943.829 150.434 941.492 147.961C949.955 151.93 953.757 159.779 957.988 167.654C957.761 162.387 954.559 158.861 952.037 154.993C949.417 150.976 945.67 147.949 942.222 144.194C958.271 149.588 959.39 163.998 963.793 177.341C959.287 174.831 954.864 174.996 950.857 173.536C946.849 172.077 943.307 169.882 940.471 166.725C937.71 163.652 935.288 160.311 934.174 156.254C943.249 166.686 949.528 171.998 954.388 172.675C946.961 167.807 940.424 162.715 936.023 154.566C940.135 158.429 943.699 161.793 947.281 165.138C950.895 168.512 955.383 170.526 959.477 173.157C956.162 168.905 950.961 166.988 947.439 163.046C943.979 159.173 939.894 155.806 937.377 151.152C943.29 155.869 948.978 160.783 954.725 166.504C953.517 163.426 953.006 162.685 950.772 160.508ZM948.955 114.886C949.149 142.678 926.293 161.927 902.071 161.542C877.053 161.145 855.47 141.509 855.811 114.533C856.136 88.8289 877.191 68.5254 902.885 68.7293C928.167 68.9299 949.5 88.9594 948.955 114.886ZM851.29 110.098C840.427 108.111 829.957 108.648 820.244 114.671C830.396 111.14 840.582 108.557 851.793 113.525C838.022 111.042 825.722 114.566 813.412 118.067C826.144 116.793 838.67 112.667 852.377 115.823C840.48 117 829.261 118.109 818.042 119.218C828.72 121.195 839.232 117.94 849.883 118.958C840.774 120.596 831.84 123.57 822.354 122.164C832.458 125.116 842.521 122.971 853.534 121.754C845.682 124.88 838.506 126.738 830.965 127.289C833.382 128.859 835.983 128.242 838.45 128.105C840.99 127.963 843.508 127.335 846.021 126.841C848.365 126.38 850.688 125.816 853.02 125.298C844.236 129.458 835.39 131.953 826.08 126.95C820.403 123.9 814.478 121.308 808.28 118.325C813.367 115.65 818.043 113.456 822.453 110.818C831.938 105.144 841.521 105.728 851.29 110.098ZM956.103 112.477C963.125 109.628 970.178 110.22 977.262 111.984C969.642 107.845 961.642 108.828 953.58 110.051C957.002 107.455 960.899 106.592 964.954 106.296C976.45 105.457 984.129 113.685 994.124 118.038C986.452 121.973 979.626 125.806 972.52 129.02C966.023 131.958 959.729 129.414 952.638 127.198C960.238 126.355 967.015 130.121 973.64 126.606C965.712 127.591 958.901 123.171 951.368 122.29C956.217 121.495 960.877 122.808 965.592 123.297C970.398 123.795 975.143 124.376 979.647 122.067C975.134 121.839 970.645 122.145 966.179 121.199C961.837 120.278 957.432 119.657 952.396 118.792C963.73 117.449 974.225 120.713 984.901 119.369C975.469 117.783 965.95 116.827 956.406 115.995C966.808 113.181 976.834 116.152 987.001 117.324C977.089 113.256 966.699 112.225 956.103 112.477ZM865.079 79.5379C859.163 74.3288 853.67 68.6301 846.296 65.3406C852.168 70.6941 858.774 75.2976 863.233 82.0698C856.183 77.3201 848.841 72.9668 843.393 66.2226C846.97 74.6729 855.677 77.9712 862.158 84.7699C855.64 82.997 851.208 79.5314 846.979 75.6774C849.414 81.359 855.23 83.4301 859.923 87.781C854.991 86.3429 850.96 84.6189 848.22 81.27C842.257 73.9832 840.635 64.8207 837.571 55.7773C841.93 56.9527 845.613 58.2 849.547 58.7433C858.957 60.0429 866.096 64.6962 869.73 74.5888C865.379 70.045 861.946 65.1927 856.169 63.2632C860.901 66.6085 864.798 70.712 867.634 75.9754C860.27 68.9048 852.06 63.225 842.529 59.5996C850.685 65.5451 860.955 69.0268 865.079 79.5379ZM908.845 64.7247C910.312 56.0908 909.345 47.7143 906.399 39.4845C908.003 48.5922 905.964 57.1125 902.447 65.4268C903.687 54.5226 904.368 43.6252 902.615 32.6992C901.284 43.7389 901.504 54.8931 899.776 65.8905C898.509 57.9039 898.139 49.8782 898.699 41.785C898.305 41.7841 897.912 41.7832 897.519 41.7824C896.911 48.4399 896.303 55.0974 895.695 61.7549C893.466 55.9119 894.814 50.1436 895.638 44.3606C892.571 51.1218 893.01 58.1838 893.82 65.3064C891.382 60.6756 890.928 55.8096 891.67 50.7311C892.957 41.9271 899.453 35.6707 902.707 26.9435C905.409 33.5018 909.749 38.0681 912.769 43.4653C916.928 50.8958 915.151 58.2662 912.331 65.5773C912.721 58.9899 913.729 52.3766 910.982 46.002C911.455 52.3728 912.351 58.7445 908.845 64.7247ZM902.231 195.891C905.346 185.856 903.715 175.696 903.25 165.535C905.913 171.892 905.978 178.805 907.979 185.331C910.937 178.782 909.833 171.85 910.3 164.229C912.385 170.23 912.532 175.547 911.615 180.841C910.253 188.707 904.176 194.514 902.083 202.204C899.522 195.547 895.762 189.633 893.106 183.226C891.014 178.18 891.118 172.941 893.682 167.938C893.843 173.411 892.328 179.054 896.007 184.944C895 177.964 894.597 171.817 896.37 165.737C896.63 168.7 896.482 171.673 896.672 174.624C896.857 177.501 897.248 180.384 897.803 183.214C898.35 186.007 899.216 188.737 899.942 191.494C899.341 182.525 897.435 173.639 899.903 164.688C899.793 169.007 900.45 173.213 901.387 177.446C902.055 176.759 901.288 175.709 902.285 175.042C902.082 182.08 901.275 188.982 902.231 195.891ZM840.529 176.751C841.16 173.838 842.103 171.572 843.348 169.451C845.396 165.961 847.854 162.734 849.455 158.957C852.181 152.528 858.092 149.952 863.989 147.4C859.398 152.22 852.548 154.974 850.697 162.226C853.652 157.846 857.706 154.736 862.265 152.161C858.197 157.96 852.432 162.282 848.308 168.013C854.918 162.491 861.566 157.055 866.912 150.258C862.809 160.999 854.081 167.193 844.636 172.662C856.179 169.558 863.283 160.93 870.525 152.402C868.793 155.955 866.787 159.214 864.683 162.408C862.622 165.539 860.743 168.977 857.077 170.486C851.757 172.675 846.319 174.576 840.529 176.751ZM941.549 82.0283C947.463 75.9897 952.246 68.7844 959.408 63.8939C951.736 68.0752 945.326 73.7892 939.422 80.2351C940.496 75.979 943.138 72.7643 946.112 69.6988C952.172 63.4526 960.691 61.6864 968.147 57.0758C967.66 59.3555 967.299 61.1223 966.903 62.8811C965.883 67.4082 963.923 71.2493 959.842 73.9186C956.082 76.3776 952.599 79.2574 948.921 81.8476C947.226 83.0418 945.573 84.4127 943.273 84.6422C950.637 77.2754 959.561 71.4236 964.831 62.1076C957.586 69.3224 950.23 76.3794 941.549 82.0283ZM987.462 36.4658C984.397 36.567 982.168 37.0113 981.033 39.5981C979.458 43.191 981.173 46.4933 985.251 47.7214C986.075 47.9697 987.475 47.746 987.499 48.9958C987.52 50.1055 986.249 50.3748 985.384 50.6896C982.866 51.6051 980.317 52.4345 977.764 53.2505C976.833 53.5481 975.964 53.6314 975.121 52.764C972.257 49.8171 971.998 43.0443 974.688 39.1592C977.432 35.1954 982.222 34.0358 987.462 36.4658ZM893.761 3.59949C894.078 3.62293 894.975 3.41606 895.321 3.76127C897.06 5.49147 899.41 7.11136 900.131 9.24688C901.369 12.9183 898.061 16.8311 894.187 17.2126C890.171 17.6079 886.666 14.7016 886.395 10.7517C886.133 6.94836 889.413 3.6162 893.761 3.59949ZM821.518 191.234C820.743 186.244 825.769 183.178 829.269 182.853C832.479 182.555 835.195 184.863 836.268 188.646C837.152 191.764 835.734 197.731 831.572 198.966C831.108 191.701 828.576 189.716 821.518 191.234ZM961.485 193.873C961.599 192.262 961.826 190.67 962.714 189.278C964.006 187.251 965.684 184.892 968.075 185.305C970.341 185.697 970.616 188.68 971.329 190.737C971.557 191.395 971.888 192.423 970.643 192.849C968.268 193.663 968.489 194.641 970.31 196.081C971.301 196.864 972.563 198.066 971.621 199.616C970.642 201.226 968.988 201.701 967.169 201.402C963.888 200.862 961.501 197.666 961.485 193.873ZM828.93 39.7577C829.077 38.3188 829.488 36.2774 831.381 35.668C833.39 35.0212 834.729 36.7037 835.705 38.2728C837.495 41.1481 836.837 45.6595 834.523 48.1284C833.634 49.0769 832.967 49.2139 832.233 48.1241C830.607 45.7092 829.166 43.2092 828.93 39.7577ZM902.52 6.46778C909.165 9.41944 910.998 14.9343 907.413 21.3715C906.832 22.415 906.408 24.4437 905.155 24.0552C903.687 23.6001 904.006 21.539 903.91 20.1009C903.862 19.3779 904.148 18.6346 904.266 17.8979C904.716 15.1032 904.561 12.4282 903.28 9.79213C902.818 8.84233 902.126 7.72596 902.52 6.46778ZM944.462 88.39C950.782 83.0589 957.483 78.2436 963.765 71.834C960.884 79.2244 952.703 86.1381 944.462 88.39ZM987.295 46.3945C984.328 46.4617 981.945 44.501 981.872 42.4923C981.813 40.8403 984.187 38.448 985.959 38.6694C988.157 38.9441 989.919 40.2734 990.002 42.529C990.075 44.499 989.027 46.2194 987.295 46.3945ZM821.441 195.968C821.577 193.578 823.233 192.815 825.334 192.708C827.705 192.587 828.911 193.823 828.919 196.187C828.927 198.548 827.649 199.757 825.363 199.792C822.91 199.829 821.675 198.442 821.441 195.968ZM971.041 185.083C976.98 186.149 978.874 191.893 975.463 197.183C971.5 194.004 973.587 188.93 971.041 185.083ZM862.53 144.876C852.653 148.906 847.599 157.06 844.1 166.545C846.191 155.855 850.988 147.481 862.53 144.876ZM953.197 62.6952C950.952 63.7427 948.814 64.9795 946.943 66.5795C945.15 68.1118 943.538 69.8537 941.828 71.4842C940.176 73.0593 939.325 75.4752 936.646 76.7695C939.955 68.8501 944.827 63.6291 953.197 62.6952ZM929.097 157.041C931.258 160.652 932.651 164.718 936.081 166.726C939.47 168.709 942.42 171.276 945.907 173.054C938.485 171.657 929.596 165.13 929.097 157.041ZM862.082 169.881C865.685 165.657 867.8 160.384 871.744 156.43C869.693 161.744 867.866 167.212 862.082 169.881ZM912.962 183.676C913.942 177.834 912.888 171.815 913.549 165.432C915.919 172.217 915.762 177.791 912.962 183.676ZM907.655 183.834C907.293 177.634 906.931 171.435 906.57 165.235C909.418 171.242 909.101 177.463 907.655 183.834ZM843.708 79.743C847.337 84.0158 851.919 87.202 856.441 90.4562C850.773 88.5094 846.029 85.5079 843.708 79.743ZM906.4 65.327C906.428 59.8968 907.835 54.6083 907.712 49.181C908.703 54.6816 908.037 60.0522 906.4 65.327ZM932.281 157.264C934.383 160.135 935.998 163.316 938.086 166.195C934.455 164.305 933.353 160.795 932.281 157.264Z" fill="#4C3A41"/>
<path d="M846.323 141.193C844.619 141 842.23 142.232 841.925 139.079C841.914 138.968 841.385 138.777 841.154 138.837C837.57 139.768 833.64 139.944 831.179 143.366C830.712 144.015 830.326 144.715 830.843 145.385C831.306 145.986 832.03 145.62 832.618 145.385C833.89 144.878 835.151 144.343 836.917 143.612C835.367 145.849 834.125 147.618 832.913 149.406C832.539 149.958 832.344 150.7 832.767 151.197C833.358 151.892 834.15 151.546 834.77 151.092C835.455 150.591 836.193 150.092 836.702 149.434C839.338 146.025 842.24 142.944 846.247 141.114C846.25 141.116 846.323 141.193 846.323 141.193Z" fill="#4C3A41"/>
<path d="M876.973 172.08C875.642 172.244 875.791 173.372 875.547 174.08C874.822 176.182 874.438 178.41 873.61 180.464C873.058 181.833 871.88 182.898 870.543 183.661C869.793 184.089 868.854 184.442 869.547 185.558C870.091 186.435 870.991 186.384 871.85 186.138C873.772 185.588 875.291 184.457 876.471 182.848C878.779 179.704 878.198 176.191 877.773 172.702C877.714 172.218 877.338 172.011 876.973 172.08Z" fill="#4C3A41"/>
<path d="M877.183 57.4064C874.461 52.1329 868.603 49.6667 869.681 42.9854C865.362 48.637 868.174 53.9799 877.183 57.4064Z" fill="#4C3A41"/>
<path d="M845.359 94.3365C841.663 90.9057 836.8 89.6409 833.429 86.167C831.511 90.749 837.068 94.5899 845.359 94.3365Z" fill="#4C3A41"/>
<path d="M842.182 96.1478C838.469 94.233 835.182 92.4976 831.85 90.853C831.168 90.516 830.277 89.6947 829.555 90.6581C829.015 91.3781 829.737 92.0271 830.125 92.6591C832.636 96.7479 835.471 97.6286 842.182 96.1478Z" fill="#4C3A41"/>
<path d="M848.889 146.282C847.228 148.074 845.434 149.762 843.941 151.683C842.128 154.017 840.136 154.812 837.101 154.263C835.353 153.946 832.108 152.511 831.711 154.529C831.322 156.507 834.795 155.506 836.377 156.329C839.848 158.132 842.168 156.628 844.141 153.77C845.806 151.357 847.619 149.046 849.367 146.691C849.208 146.555 849.048 146.418 848.889 146.282Z" fill="#4C3A41"/>
<path d="M878.234 55.751C877.245 50.6618 876.407 46.5207 870.384 45.7393C872.044 49.8601 874.441 52.8299 878.234 55.751Z" fill="#4C3A41"/>
<path d="M945.429 114.203C945.359 91.3979 925.498 72.1437 902.195 72.2904C878.74 72.438 859.056 92.4708 859.203 116.044C859.34 137.992 879.708 157.473 902.506 157.463C926.022 157.452 945.501 137.82 945.429 114.203ZM906.574 129.533C898.003 138.06 882.896 137.545 875.027 128.807C867.182 120.096 866.149 106.988 872.526 96.8423C878.052 88.0501 886.122 84.0252 896.506 84.2222C890.214 87.1627 884.926 91.2343 881.897 97.5454C878.823 103.953 878.722 110.559 881.654 117.119C886.047 126.945 894.989 131.504 906.574 129.533Z" fill="#4C3A41"/>
</g>
</svg>
