<svg width="300" height="82" viewBox="0 0 300 82" fill="none" xmlns="http://www.w3.org/2000/svg">
<path d="M14.6088 55.1025C13.2849 54.9059 12.1115 54.1674 10.6514 54.0577C11.5568 55.0052 13.1054 55.1411 13.6298 56.7109C12.4865 56.2614 11.6041 55.6243 10.5415 55.382C12.0217 57.0222 13.4285 58.6581 14.9198 60.2131C16.5727 61.9366 18.6803 62.9726 20.8454 63.903C21.2609 64.0815 22.0147 64.1019 21.8044 64.8074C21.6191 65.4293 20.9275 65.2574 20.4812 65.1656C18.9091 64.8425 17.6634 63.9332 16.5874 62.7767C16.3103 62.4787 16.056 62.1596 15.6205 61.9354C16.3965 63.9447 17.1801 65.9511 17.9436 67.9651C18.1575 68.5294 18.5926 68.512 19.0685 68.5085C20.6212 68.4973 22.1746 68.4142 23.7208 68.6862C24.5158 68.826 25.2327 69.0779 25.8275 69.7051C23.8585 68.9994 21.8261 68.9631 19.7881 68.9807C18.788 68.9893 18.3854 69.4792 18.5804 70.4503C18.6525 70.8137 18.6932 71.1833 18.7651 71.6611C19.9851 70.8883 21.164 70.5513 22.5835 71.0176C25.2305 71.8871 26.0226 75.2505 25.5029 77.1255C25.0632 78.712 23.9487 79.4486 22.3243 79.3946C19.7479 79.309 17.0987 76.6839 17.8728 73.6487C18.0524 72.9446 17.9104 72.3949 17.3855 71.8296C15.8111 70.1341 13.7522 69.2758 11.6761 68.5025C8.20911 67.2113 5.18958 65.4684 3.78428 61.7874C3.72712 61.6377 3.60914 61.5111 3.36531 61.1376C4.14563 64.9128 6.16873 67.2417 9.71651 68.2531C8.8186 69.0193 8.08368 68.6238 7.34684 68.3327C7.08619 68.2297 6.70287 67.9844 6.61534 68.3908C6.47821 69.0273 6.16718 69.6757 6.46091 70.3591C6.6183 70.7252 6.85444 70.6337 7.17333 70.5928C9.75477 70.2613 11.6047 71.4456 12.018 73.6422C12.0895 74.0221 12.217 74.4198 11.7733 74.6356C11.3257 74.8533 10.9717 74.5439 10.8755 74.1975C10.3018 72.131 8.52843 71.5383 6.82193 71.0546C5.48562 70.6759 5.34591 69.9057 5.70147 68.8995C6.07139 67.8525 5.7437 67.2028 4.96988 66.5163C3.68563 65.3772 2.52018 64.1107 1.39402 62.3912C1.55146 63.9347 1.67575 65.1532 1.80003 66.3717C1.7485 66.3798 1.69696 66.388 1.64542 66.3962C1.26103 65.49 0.876663 64.5839 0.388771 63.4338C0.0416412 64.8815 1.04761 65.9413 0.702492 67.1797C-0.0550117 66.2682 -0.168846 65.0701 -0.766422 64.1901C-1.0391 64.1392 -1.07461 64.3074 -1.04565 64.3964C-0.546501 65.9298 -0.747574 67.4516 -1.09215 68.9752C-1.35659 70.1446 -1.0358 71.1055 -0.120605 71.909C0.539394 72.4884 1.19584 73.1013 1.6091 73.8925C1.90364 74.4564 2.13994 75.1758 1.41985 75.5301C0.741726 75.8637 0.525627 75.1601 0.274368 74.6854C0.0397568 74.242 -0.104885 73.6889 -0.460308 73.3825C-1.96538 72.0847 -2.17882 70.4328 -2.01887 68.6007C-1.89093 67.1351 -2.05794 65.6867 -2.6866 64.3108C-2.47457 65.9552 -2.5959 67.6123 -2.4727 69.2512C-2.33829 71.0393 -2.77831 72.6066 -3.54853 74.1986C-4.6604 76.4967 -5.58235 78.8864 -6.59735 81.2318C-6.72533 81.5275 -6.78028 81.9787 -7.16182 81.9992C-7.58496 82.022 -7.59795 81.531 -7.71567 81.2534C-9.23689 77.6665 -10.8888 74.1464 -13.0327 70.9008C-13.2344 71.9644 -13.8734 72.9573 -14.3763 74.0121C-14.8936 75.0973 -14.8709 76.2972 -15.0854 77.4467C-15.1309 77.6908 -15.1211 77.981 -15.4275 78.0538C-15.7782 78.1371 -15.9506 77.9054 -16.096 77.6223C-16.639 76.5647 -16.6367 75.4682 -16.0277 74.4966C-15.0952 73.009 -14.4553 71.3449 -13.3073 69.9931C-13.1538 69.8123 -13.1038 69.6404 -13.1127 69.4316C-13.1833 67.7659 -13.1199 66.1058 -12.8779 64.4458C-13.4568 65.2729 -13.671 66.2334 -14.094 67.1323C-14.2211 65.9921 -14.0644 64.8789 -13.9638 63.7305C-14.9029 64.7326 -15.0756 66.1234 -15.9113 67.2213C-15.7376 66.0391 -15.564 64.857 -15.3695 63.5329C-16.1295 64.0215 -16.1242 64.8612 -16.7582 65.3599C-17.2585 64.2147 -16.0709 63.3517 -16.3812 62.0766C-17.5914 64.1389 -19.0062 65.7516 -20.7119 67.0764C-21.3046 67.5368 -21.2823 67.9636 -21.1051 68.5763C-20.3512 71.1836 -20.4482 71.4172 -22.897 72.4671C-23.7014 72.8119 -24.0075 73.4248 -24.1793 74.1858C-24.2604 74.5451 -24.2473 75.0302 -24.7634 74.9943C-25.2842 74.9581 -25.4133 74.4713 -25.4073 74.0547C-25.3912 72.932 -24.9648 72.0605 -23.8792 71.5268C-21.8046 70.507 -21.8182 70.4792 -22.2586 68.1523C-25.7097 69.3031 -29.4868 69.4556 -32.806 71.5083C-31.282 72.1483 -30.2079 73.1329 -29.8289 74.7128C-29.4343 76.3578 -29.8285 77.8104 -31.0557 78.9637C-32.1399 79.9826 -33.4712 80.1496 -34.7993 79.5575C-36.6602 78.7279 -37.0715 76.9646 -37.2469 75.1849C-37.3872 73.7623 -36.3843 72.265 -34.918 71.7902C-33.7717 71.4191 -33.2134 70.642 -32.8172 69.65C-31.7974 67.0963 -31.3929 64.344 -30.1235 61.6976C-31.7936 62.0178 -32.9024 62.7636 -33.6084 64.1025C-33.9659 64.7804 -34.392 65.399 -35.1944 65.6216C-35.6777 65.7557 -36.1248 65.7742 -36.3645 65.2256C-36.5883 64.7136 -36.2716 64.3622 -35.8723 64.2318C-34.8198 63.8882 -34.2946 63.0629 -33.7553 62.201C-33.004 61.0006 -31.6203 61.2678 -30.5112 60.9167C-30.185 60.8134 -29.8563 60.7736 -29.6499 60.4945C-28.3211 58.6969 -26.6588 57.2276 -24.8421 55.7484C-25.8195 55.7493 -26.9735 56.3162 -27.8041 57.2031C-28.3481 57.784 -28.8659 58.399 -29.3235 59.0492C-30.3438 60.4987 -32.293 61.2815 -33.9036 60.8229C-34.0058 60.7938 -34.145 60.7018 -34.1621 60.6177C-34.1809 60.5249 -34.1057 60.3529 -34.0235 60.3123C-33.8463 60.2247 -33.6325 60.1389 -33.4439 60.1572C-31.0876 60.3864 -29.5983 59.1708 -28.4002 57.3035C-27.5065 55.9106 -26.1302 54.9723 -24.8317 53.8997C-26.0052 54.6171 -27.4066 54.1628 -28.7695 54.9996C-28.0429 53.5663 -26.6675 53.4653 -25.7909 52.6519C-27.0142 53.0339 -28.2241 52.4912 -29.4414 52.7423C-28.693 51.9591 -27.6363 51.9006 -26.7422 51.4257C-28.9389 51.6148 -31.1757 51.2847 -33.3345 51.8981C-34.7178 52.2911 -35.6776 53.3429 -36.6042 54.377C-37.2749 55.1257 -38.075 55.6157 -39.0526 55.8067C-39.5685 55.9075 -40.1292 55.8776 -40.312 55.3014C-40.5065 54.6884 -39.9341 54.4733 -39.5097 54.3933C-37.5322 54.0205 -36.301 52.277 -34.2491 51.6457C-37.4873 50.7091 -40.2265 49.05 -43.1459 47.7917C-43.9534 47.4437 -44.7296 47.0234 -45.5236 46.6435C-45.9269 46.4505 -46.262 46.1013 -45.7103 45.8604C-42.1448 44.3029 -38.9983 41.8577 -35.196 40.8332C-34.3206 40.5973 -33.3274 40.7984 -32.3633 40.6493C-34.4085 40.7024 -36.0317 39.8675 -37.4233 38.4763C-38.0802 37.8196 -39.0006 38.0109 -39.7933 37.7921C-40.2025 37.6792 -40.7013 37.684 -40.6751 37.1139C-40.6519 36.6069 -40.2385 36.4667 -39.7808 36.4097C-38.5307 36.254 -37.3885 36.5179 -36.6073 37.528C-35.0476 39.5446 -32.8818 40.1262 -30.511 40.2657C-29.5134 40.3244 -28.5407 40.5124 -27.2865 40.804C-28.2157 40.0406 -29.1601 39.7787 -29.8471 38.9378C-28.8939 38.6993 -28.171 39.325 -27.2344 39.2217C-28.065 38.5281 -29.257 38.5561 -29.8827 37.549C-28.7754 37.3668 -27.8531 38.1066 -26.6241 37.9244C-27.9318 37.2764 -29.0664 36.7143 -30.2009 36.1521C-30.1846 36.1158 -30.1683 36.0796 -30.152 36.0433C-28.6962 36.3413 -27.2403 36.6394 -25.7845 36.9375C-27.8316 36.1602 -29.1088 34.4129 -30.6723 33.0587C-31.9836 31.9229 -33.4804 32.2197 -35.0825 32.1364C-34.4755 31.2577 -33.3635 32.0828 -32.8324 31.1703C-34.0808 30.2261 -35.3491 29.2394 -36.8542 28.5755C-37.3166 28.3715 -38.1775 28.3062 -37.8176 27.4363C-37.4563 26.5633 -36.7391 26.9831 -36.1984 27.1972C-34.2824 27.956 -33.0351 29.5127 -31.8127 31.0641C-30.2207 33.0848 -28.1603 34.4322 -25.7292 35.2998C-26.2004 34.9642 -26.6821 34.6421 -27.14 34.2893C-27.6046 33.9312 -28.0364 33.5307 -28.499 33.1697C-30.8022 31.3725 -32.6036 29.2394 -33.3047 26.3087C-33.5076 25.4605 -33.8296 24.6265 -34.2035 23.8364C-35.0108 22.1304 -36.3739 21.5862 -38.1128 22.2551C-38.9888 22.5921 -39.8275 23.0261 -40.7427 23.2998C-39.7554 22.3383 -38.4922 21.8623 -36.9647 21.2298C-38.3775 21.0325 -39.4625 20.755 -40.4905 20.2508C-42.0817 19.4704 -42.9972 18.2112 -42.9402 16.4786C-42.8889 14.9163 -42.2963 13.5319 -40.627 12.9188C-39.0059 12.3234 -36.7435 12.7778 -35.6029 14.0257C-34.5089 15.2228 -33.902 16.6272 -34.2132 18.2794C-34.394 19.2391 -34.1896 19.8327 -33.311 20.4483C-31.6702 21.5979 -29.9447 22.5922 -28.0312 23.0325C-24.7224 23.794 -22.2469 25.5792 -20.4199 28.3751C-20.2775 28.5931 -20.1702 28.9015 -19.7147 28.9187C-20.5694 26.7793 -22.0093 25.2127 -23.8287 23.9614C-24.4682 23.5216 -25.0651 23.2612 -24.5434 22.1867C-24.0927 21.2587 -24.6146 20.2328 -25.2956 19.413C-25.5 19.167 -25.8032 18.8997 -25.5162 18.5353C-25.2202 18.1596 -24.8251 18.3027 -24.4781 18.4317C-23.5091 18.7918 -22.8315 20.525 -23.3025 21.8134C-23.5774 22.5655 -23.4069 22.9199 -22.8374 23.3939C-21.4815 24.5226 -20.3991 25.9205 -19.2714 27.283C-19.7636 25.5544 -21.0729 24.2969 -21.8874 22.7469C-20.3586 23.7232 -19.4433 25.234 -18.196 26.5535C-18.4423 25.6612 -18.6886 24.7689 -19.0088 23.6086C-17.8191 24.546 -17.6761 25.8456 -16.6677 26.9867C-17.0293 25.4227 -17.3167 24.1795 -17.6041 22.9363C-17.5498 22.9146 -17.4955 22.8929 -17.4412 22.8711C-16.8389 24.1138 -16.2365 25.3564 -15.5202 26.8341C-15.3712 25.3351 -16.2546 24.2644 -16.0842 22.9338C-15.1152 23.6882 -15.0565 24.9365 -14.1126 25.9606C-14.3308 23.8409 -14.5663 21.945 -14.0287 19.7914C-13.5472 21.9265 -13.7613 23.9011 -12.6199 25.7826C-12.8822 23.7894 -13.0991 22.011 -13.3569 20.2386C-13.4816 19.3817 -13.9743 18.6859 -14.5806 18.106C-15.6544 17.0788 -16.2005 15.7779 -16.6187 14.4046C-16.7437 13.9939 -17.0249 13.4651 -16.3248 13.278C-15.7317 13.1196 -15.365 13.4381 -15.1851 13.9873C-14.9376 14.743 -14.7315 15.5137 -14.4524 16.2572C-14.1465 17.0721 -13.388 17.6525 -13.2192 18.6732C-12.4289 15.8542 -10.6136 13.6977 -9.35932 11.2453C-8.94067 10.4267 -8.72531 9.84124 -9.51033 9.06058C-10.4212 8.15482 -10.8093 6.91817 -10.8724 5.62128C-10.9819 3.37272 -9.80758 1.82145 -7.60377 1.38912C-6.93214 1.25735 -6.37305 1.02561 -5.80781 0.633443C-4.37908 -0.357775 -2.27981 -0.151102 -1.0297 1.01173C0.293484 2.24252 0.609726 4.48978 -0.314301 6.09535C-1.20427 7.64173 -2.97651 8.29896 -4.77276 7.73051C-5.60844 7.46603 -6.24494 6.94414 -6.63088 6.1464C-6.85586 5.68138 -7.06213 5.20732 -7.36765 4.53843C-7.67009 5.78982 -7.63033 6.77214 -7.15041 7.75076C-5.96975 10.1583 -4.93552 12.646 -3.62362 14.9786C-1.8059 18.2105 -2.08237 21.567 -2.62064 24.9892C-2.6528 25.1936 -2.71983 25.3928 -2.74605 25.5976C-2.76136 25.7171 -2.72779 25.8428 -2.71406 25.9885C-1.83454 24.4249 -1.5555 22.6524 -1.91871 20.1106C-2.05025 19.1901 -1.9618 18.4498 -1.14717 17.918C0.398987 16.9087 0.814579 15.3959 0.779972 13.6693C0.771873 13.2651 0.674549 12.7221 1.22355 12.6337C1.84958 12.533 1.90134 13.1338 2.0339 13.5518C2.58752 15.2972 2.1729 16.7774 0.57753 17.8355C-0.81406 18.7583 -1.48802 19.7995 -1.03608 21.5042C-0.847115 22.217 -0.913795 23.0078 -0.93045 23.7616C-0.945835 24.4589 -1.04964 25.1543 -1.1203 25.9125C-0.121521 25.0893 -0.241146 23.6463 0.741997 22.7109C0.90807 24.0853 0.0688934 25.1939 0.357391 26.5397C1.12529 25.3117 1.27929 23.8202 2.53756 22.7873C2.29276 23.9604 1.6697 24.8764 1.53578 26.193C2.40344 25.2136 2.70532 24.1166 3.81557 23.2756C3.29483 24.4099 2.88773 25.2966 2.34891 26.4702C3.59085 25.8312 3.61118 24.6095 4.57072 23.9559C4.48856 25.5036 3.51128 26.6248 3.30804 27.9907C4.42727 26.179 5.67184 24.4856 7.14648 22.9563C7.84273 22.2343 7.92328 21.2077 8.05252 20.2698C8.15448 19.5297 8.4368 18.9637 9.07685 18.6582C10.2166 18.1143 10.6085 17.2016 10.5917 16.0145C10.5875 15.7182 10.4151 15.2698 10.9526 15.2435C11.3447 15.2243 11.497 15.5239 11.6322 15.8658C12.1858 17.2657 11.6111 18.9204 10.1771 19.5603C9.39883 19.9077 8.99725 20.3789 8.85386 21.185C8.60565 22.5804 7.56399 23.5027 6.73501 24.5349C5.78408 25.7189 5.1694 27.0577 4.64926 28.4598C5.75521 27.26 6.56987 25.8471 7.45016 24.5092C8.77436 22.4968 10.5588 21.7261 12.8246 21.6229C14.7395 21.5356 16.4795 20.8607 18.1781 19.9981C18.9296 19.6164 18.8901 19.3687 18.4469 18.7512C17.0654 16.8265 17.5317 14.2696 19.355 13.2683C20.3966 12.6963 21.4069 12.7082 22.2462 13.536C23.0864 14.3647 22.9558 15.2615 22.2854 16.2387C21.63 17.1943 21.1865 18.2939 20.6329 19.3212C20.4829 19.5995 20.3465 19.8742 20.6114 20.1206C21.7353 21.1662 22.9322 22.0639 24.5958 21.9449C26.1533 21.8335 27.3115 21.1283 27.9331 19.669C28.5286 18.2709 28.1451 16.8944 26.9824 16.1036C25.8337 15.3222 24.8622 15.4601 23.6163 16.5702C23.465 16.705 23.2807 16.803 23.0842 16.9368C23.012 15.2682 24.504 14.1799 26.3453 14.4937C28.1008 14.7928 29.3375 16.1146 29.5324 17.9002C29.754 19.9295 28.7203 21.9071 27.0699 22.5653C24.6368 23.5356 22.5511 22.7625 20.6999 21.168C20.0363 20.5965 19.8315 20.502 19.5238 21.461C18.5939 24.359 17.6457 27.255 16.2934 30.1276C18.0631 29.9325 19.595 29.6957 20.2411 27.8476C20.3998 27.3936 20.7632 26.9834 21.1107 26.6299C21.5503 26.1826 22.1663 26.1544 22.5734 26.5872C22.9886 27.0287 22.5323 27.3887 22.2098 27.738C20.7553 29.313 19.3575 30.9593 16.8822 31.0142C16.9265 31.1537 16.9707 31.2933 17.0149 31.4328C17.9254 31.4328 18.836 31.4285 19.7465 31.4356C19.9977 31.4376 20.3045 31.475 20.2736 31.7953C20.2605 31.9312 19.9732 32.1409 19.8055 32.1458C18.4987 32.1836 17.2562 32.4239 16.014 32.8766C15.3124 33.1323 16.295 32.2985 15.6355 32.2812C14.6466 33.7632 13.1676 34.9221 11.705 36.1451C12.3133 36.3558 12.7025 35.7132 13.3427 35.8085C13.304 37.2051 11.875 37.1593 11.0901 37.9148C12.2281 38.0137 13.112 37.5404 14.112 37.1574C14.0991 38.4167 12.6737 38.0656 12.3874 38.9149C13.3379 38.7931 14.2487 38.2532 15.3829 38.2525C14.6276 39.3451 13.6877 39.9631 12.5094 40.3241C14.6636 40.4517 16.799 40.7314 18.9272 40.3964C20.2911 40.1816 21.1718 39.1873 22.0402 38.1913C23.0116 37.0771 24.257 36.5653 25.7508 36.8428C26.1612 36.919 26.6575 37.0507 26.6416 37.5696C26.6264 38.0683 26.1066 38.0576 25.7605 38.0798C24.2617 38.1756 23.0351 38.8118 21.9695 39.836C21.5218 40.2665 20.9548 40.5096 20.3233 40.6778C24.8316 41.6807 28.5101 44.4388 33.0587 46.2717C28.7 48.1019 24.8048 50.0464 20.6219 51.5828C22.2646 52.6641 23.6047 54.1631 25.7104 54.2704C26.098 54.2901 26.3131 54.5041 26.263 54.9377C26.216 55.3442 25.9325 55.3431 25.6321 55.3838C24.4939 55.5381 23.3694 55.3898 22.5794 54.559C20.4913 52.3633 17.9255 51.3879 14.9643 51.2273C14.4821 51.2011 14.01 50.9905 13.4667 50.8476C13.6882 51.226 14.2381 51.0687 14.3388 51.5881C13.7631 51.9473 13.1466 51.3392 12.5235 51.6327C13.1705 52.1598 14.0766 52.2736 14.676 53.1456C13.8395 52.9664 13.1632 52.8215 12.1207 52.5982C13.0312 53.0913 13.6227 53.4117 14.2143 53.732C14.2004 53.7761 14.1865 53.8202 14.1725 53.8643C13.4048 53.6184 12.637 53.3724 11.8692 53.1264C12.7301 53.8849 13.8344 54.2552 14.5803 55.1326L14.6088 55.1025ZM-26.2046 62.6745C-24.637 61.872 -23.7102 60.3756 -22.4463 59.2391C-24.0312 59.8567 -25.0022 61.2237 -26.2298 62.2741C-26.2019 61.5834 -25.7247 61.1363 -25.3116 60.6782C-24.4221 59.6919 -23.4936 58.7407 -22.5811 57.7752C-25.8856 59.3249 -27.3703 62.3898 -29.0223 65.4648C-28.9337 63.4081 -27.6832 62.0313 -26.6984 60.5209C-25.6757 58.9524 -24.2125 57.7707 -22.8659 56.3043C-29.1328 58.4106 -29.5698 64.0374 -31.2892 69.2476C-29.5294 68.2673 -27.8026 68.3316 -26.2377 67.7617C-24.6726 67.1918 -23.2897 66.335 -22.1823 65.1023C-21.1042 63.9021 -20.1586 62.5976 -19.7234 61.0137C-23.2671 65.0868 -25.7187 67.161 -27.6166 67.4254C-24.7163 65.5245 -22.1639 63.5363 -20.4453 60.3544C-22.0511 61.8628 -23.4428 63.1765 -24.8416 64.4825C-26.2527 65.8001 -28.0052 66.5862 -29.6039 67.6136C-28.3094 65.9534 -26.2785 65.2048 -24.9033 63.6655C-23.5522 62.1531 -21.957 60.8386 -20.974 59.0211C-23.283 60.863 -25.5042 62.7819 -27.7482 65.0158C-27.2764 63.8138 -27.0771 63.5245 -26.2046 62.6745ZM-25.4951 44.8604C-25.5707 55.7125 -16.6463 63.2285 -7.18817 63.0783C2.58081 62.9231 11.0084 55.2558 10.8752 44.7224C10.7483 34.6856 2.52702 26.7576 -7.50583 26.8371C-17.3779 26.9155 -25.7078 34.7365 -25.4951 44.8604ZM12.6407 42.9906C16.8826 42.215 20.9708 42.4246 24.7633 44.7764C20.7994 43.3977 16.8221 42.3889 12.4442 44.3289C17.8214 43.3593 22.6246 44.7352 27.4312 46.1023C22.4595 45.605 17.5687 43.994 12.2162 45.2263C16.862 45.6857 21.2426 46.1188 25.6232 46.552C21.4538 47.3238 17.3489 46.0528 13.19 46.4503C16.747 47.09 20.2354 48.2511 23.9396 47.702C19.994 48.855 16.0649 48.0173 11.7647 47.5419C14.8306 48.7628 17.6325 49.4884 20.5774 49.7034C19.6336 50.3163 18.6177 50.0753 17.6546 50.0218C16.6628 49.9667 15.6793 49.7213 14.6982 49.5285C13.7831 49.3486 12.876 49.1282 11.9653 48.9257C15.3953 50.5502 18.8494 51.5244 22.4845 49.5711C24.7015 48.3798 27.0149 47.3678 29.4351 46.2031C27.4486 45.1586 25.6228 44.302 23.9009 43.2718C20.1974 41.0561 16.4552 41.2841 12.6407 42.9906ZM-28.2861 43.9198C-31.0283 42.8072 -33.782 43.0384 -36.5482 43.7272C-33.5728 42.1108 -30.4491 42.4948 -27.3012 42.9724C-28.6373 41.9585 -30.159 41.6215 -31.7423 41.506C-36.2313 41.1786 -39.2299 44.3914 -43.1327 46.091C-40.1367 47.6275 -37.4716 49.1244 -34.6969 50.3791C-32.1598 51.5264 -29.7019 50.533 -26.9331 49.6678C-29.9008 49.3385 -32.5472 50.8091 -35.134 49.4366C-32.0383 49.8212 -29.3788 48.0952 -26.4372 47.7513C-28.3308 47.4407 -30.1503 47.9538 -31.9913 48.1446C-33.8683 48.3391 -35.7211 48.5659 -37.4796 47.6644C-35.7175 47.5753 -33.9646 47.6949 -32.2206 47.3252C-30.5253 46.9659 -28.8053 46.7233 -26.8389 46.3853C-31.2644 45.8611 -35.3625 47.1355 -39.5313 46.6107C-35.8483 45.9916 -32.1313 45.618 -28.4045 45.2934C-32.4662 44.1943 -36.3813 45.3544 -40.3512 45.8124C-36.4808 44.2237 -32.4236 43.8212 -28.2861 43.9198ZM7.25629 31.0577C9.5666 29.0236 11.7114 26.7984 14.5906 25.5139C12.298 27.6044 9.71841 29.4019 7.97748 32.0463C10.7302 30.1917 13.5969 28.4918 15.7244 25.8583C14.3278 29.158 10.9277 30.4459 8.39695 33.1006C10.9421 32.4084 12.6728 31.0551 14.324 29.5502C13.3732 31.7688 11.1024 32.5775 9.26958 34.2764C11.1956 33.7148 12.7695 33.0416 13.8396 31.734C16.168 28.8887 16.8011 25.311 17.9978 21.7797C16.2957 22.2387 14.8574 22.7257 13.3215 22.9379C9.64713 23.4453 6.8592 25.2623 5.4404 29.1251C7.13948 27.3509 8.47966 25.4562 10.7356 24.7028C8.88773 26.009 7.36623 27.6113 6.25884 29.6666C9.13443 26.9057 12.3401 24.6879 16.0619 23.2722C12.8772 25.5938 8.86665 26.9533 7.25629 31.0577ZM-9.83323 25.2734C-10.406 21.9021 -10.0285 18.6313 -8.87813 15.4178C-9.50425 18.9741 -8.70815 22.3011 -7.33471 25.5476C-7.8191 21.2898 -8.08489 17.0346 -7.40044 12.7682C-6.88059 17.079 -6.96666 21.4345 -6.29195 25.7287C-5.79734 22.6101 -5.65254 19.4762 -5.87118 16.316C-5.71766 16.3157 -5.56413 16.3154 -5.4106 16.315C-5.17322 18.9146 -4.93585 21.5142 -4.69849 24.1138C-3.82804 21.8323 -4.35437 19.5799 -4.67616 17.3218C-3.47859 19.9619 -3.64973 22.7194 -3.96604 25.5006C-3.01435 23.6924 -2.8369 21.7923 -3.12669 19.8093C-3.62911 16.3715 -6.16595 13.9286 -7.43634 10.5208C-8.49142 13.0816 -10.1861 14.8647 -11.3655 16.9722C-12.9893 19.8736 -12.2956 22.7516 -11.1941 25.6064C-11.3466 23.0342 -11.7401 20.4518 -10.6677 17.9627C-10.8524 20.4503 -11.2022 22.9383 -9.83323 25.2734ZM-7.25053 76.4907C-8.46675 72.5722 -7.82979 68.6051 -7.64838 64.6374C-8.6882 67.1198 -8.71365 69.819 -9.49496 72.3674C-10.6498 69.8103 -10.2189 67.1035 -10.4012 64.1275C-11.2153 66.4709 -11.2727 68.5471 -10.9147 70.614C-10.3828 73.6855 -8.01014 75.953 -7.19275 78.9559C-6.19257 76.3564 -4.72446 74.0471 -3.68731 71.5453C-2.87053 69.5752 -2.91096 67.5293 -3.91251 65.5757C-3.97517 67.7131 -3.38362 69.9161 -4.82022 72.2162C-4.42707 69.4905 -4.26974 67.0905 -4.96176 64.7162C-5.06338 65.8734 -5.00581 67.0341 -5.07978 68.1865C-5.15192 69.31 -5.30468 70.4355 -5.52131 71.5407C-5.73503 72.6311 -6.07312 73.6971 -6.35665 74.7739C-6.12204 71.2715 -5.37796 67.8021 -6.34128 64.3066C-6.29869 65.9932 -6.55519 67.6355 -6.9208 69.2883C-7.18164 69.0203 -6.88242 68.6101 -7.27151 68.3497C-7.19213 71.0979 -6.87701 73.7929 -7.25053 76.4907ZM16.8428 69.017C16.5962 67.8795 16.2281 66.9947 15.742 66.1665C14.9424 64.804 13.9826 63.5438 13.3573 62.069C12.2928 59.5584 9.9848 58.5528 7.68207 57.556C9.47486 59.4385 12.1496 60.5135 12.8725 63.3455C11.7185 61.6352 10.1353 60.4208 8.35537 59.4153C9.94372 61.6797 12.1949 63.3672 13.8053 65.605C11.2239 63.449 8.62816 61.3262 6.54072 58.6723C8.14295 62.8663 11.5507 65.2847 15.2389 67.4205C10.7315 66.2082 7.95769 62.8395 5.13005 59.5092C5.80622 60.8968 6.58962 62.1692 7.41099 63.4166C8.21594 64.6391 8.94976 65.9817 10.3812 66.5707C12.4583 67.4255 14.5817 68.1677 16.8428 69.017ZM-22.6033 32.0301C-24.9126 29.6722 -26.7801 26.8587 -29.5768 24.9491C-26.5812 26.5818 -24.0781 28.8129 -21.7728 31.3299C-22.1922 29.668 -23.2237 28.4127 -24.385 27.2157C-26.7513 24.7767 -30.0776 24.0871 -32.9892 22.2867C-32.7989 23.1769 -32.6581 23.8668 -32.5034 24.5536C-32.1052 26.3213 -31.3398 27.8212 -29.7461 28.8634C-28.2779 29.8237 -26.9182 30.9481 -25.482 31.9596C-24.8199 32.4259 -24.1745 32.9611 -23.2765 33.0508C-26.152 30.1742 -29.6365 27.8892 -31.6943 24.2515C-28.8655 27.0687 -25.9928 29.8244 -22.6033 32.0301ZM-40.5313 14.239C-39.3343 14.2785 -38.464 14.452 -38.021 15.4621C-37.4056 16.8651 -38.0755 18.1545 -39.6678 18.6341C-39.9897 18.731 -40.5364 18.6437 -40.5456 19.1317C-40.5538 19.565 -40.0577 19.6701 -39.7196 19.7931C-38.7366 20.1506 -37.741 20.4744 -36.7445 20.793C-36.381 20.9092 -36.0414 20.9418 -35.7123 20.6031C-34.5941 19.4524 -34.493 16.8078 -35.5432 15.2907C-36.6146 13.743 -38.4852 13.2902 -40.5313 14.239ZM-3.94332 1.40552C-4.06681 1.41467 -4.41705 1.33389 -4.55249 1.46868C-5.23127 2.14429 -6.14914 2.77682 -6.43041 3.61069C-6.91397 5.04427 -5.62217 6.57213 -4.10934 6.7211C-2.54132 6.87548 -1.1727 5.74063 -1.06678 4.19828C-0.964787 2.71317 -2.24537 1.41204 -3.94332 1.40552ZM24.2659 74.6722C24.5686 72.7239 22.6062 71.5266 21.2394 71.3997C19.9861 71.2834 18.9255 72.1845 18.5065 73.662C18.1613 74.8791 18.7149 77.2094 20.3401 77.6916C20.5212 74.8548 21.5101 74.0794 24.2659 74.6722ZM-30.3879 75.7029C-30.4321 75.0737 -30.5209 74.452 -30.8675 73.9085C-31.3722 73.1172 -32.0273 72.1958 -32.9609 72.3573C-33.8458 72.5103 -33.9534 73.6749 -34.2315 74.4782C-34.3206 74.7352 -34.45 75.1366 -33.9638 75.3031C-33.0363 75.6208 -33.1225 76.0027 -33.8338 76.565C-34.2206 76.8707 -34.7135 77.34 -34.3457 77.9452C-33.9634 78.5741 -33.3177 78.7596 -32.6071 78.6426C-31.3261 78.4317 -30.3939 77.1839 -30.3879 75.7029ZM21.3716 15.5244C21.3143 14.9626 21.1538 14.1655 20.4148 13.9275C19.6304 13.675 19.1074 14.3319 18.7262 14.9446C18.0276 16.0673 18.2844 17.829 19.188 18.793C19.5351 19.1634 19.7955 19.2169 20.0821 18.7913C20.7171 17.8484 21.2795 16.8722 21.3716 15.5244ZM-7.36334 2.52551C-9.95808 3.67807 -10.6738 5.83148 -9.27388 8.34505C-9.04694 8.75251 -8.88132 9.54467 -8.39217 9.39297C-7.81918 9.21527 -7.94347 8.41046 -7.90601 7.84894C-7.88718 7.5666 -7.99891 7.27639 -8.04524 6.98871C-8.221 5.89744 -8.16028 4.85291 -7.65999 3.8236C-7.47971 3.45272 -7.20961 3.0168 -7.36334 2.52551ZM-23.7408 34.5142C-26.2087 32.4325 -28.8252 30.5523 -31.278 28.0495C-30.1531 30.9352 -26.9588 33.6349 -23.7408 34.5142ZM-40.4659 18.1159C-39.3073 18.1422 -38.3769 17.3766 -38.3486 16.5922C-38.3253 15.9472 -39.2524 15.013 -39.9443 15.0995C-40.8027 15.2067 -41.4904 15.7258 -41.5229 16.6066C-41.5513 17.3758 -41.1424 18.0476 -40.4659 18.1159ZM24.2963 76.5209C24.243 75.5877 23.5964 75.2897 22.776 75.2478C21.8501 75.2004 21.3794 75.6831 21.3762 76.6065C21.3731 77.5284 21.872 78.0005 22.7645 78.0139C23.7223 78.0284 24.2048 77.4868 24.2963 76.5209ZM-34.1191 72.2704C-36.4383 72.6868 -37.1777 74.9296 -35.8458 76.9952C-34.2982 75.754 -35.1133 73.7727 -34.1191 72.2704ZM8.25179 56.5705C12.1083 58.1441 14.0819 61.3282 15.4483 65.0317C14.6319 60.8578 12.7589 57.5877 8.25179 56.5705ZM-27.1516 24.481C-26.275 24.89 -25.4401 25.3729 -24.7093 25.9977C-24.0094 26.596 -23.3799 27.2762 -22.7122 27.9129C-22.067 28.5279 -21.7347 29.4713 -20.6887 29.9767C-21.9808 26.8843 -23.8833 24.8456 -27.1516 24.481ZM-17.741 61.3208C-18.5849 62.7309 -19.1286 64.3186 -20.4682 65.1024C-21.7915 65.8767 -22.9434 66.8791 -24.3049 67.5736C-21.4068 67.0279 -17.936 64.4795 -17.741 61.3208ZM8.42665 66.3343C7.01989 64.6852 6.1941 62.626 4.654 61.0822C5.45477 63.1571 6.16834 65.2923 8.42665 66.3343ZM-11.4406 71.7212C-11.8234 69.44 -11.4119 67.0895 -11.6698 64.5972C-12.5953 67.2465 -12.5339 69.4232 -11.4406 71.7212ZM-9.36839 71.7829C-9.22715 69.362 -9.08591 66.9412 -8.94466 64.5203C-10.057 66.866 -9.93317 69.2949 -9.36839 71.7829ZM15.6013 31.1378C14.1841 32.8062 12.3951 34.0503 10.6293 35.321C12.8427 34.5608 14.6949 33.3888 15.6013 31.1378ZM-8.87833 25.5086C-8.8895 23.3883 -9.43865 21.3232 -9.39069 19.204C-9.77764 21.3519 -9.51767 23.449 -8.87833 25.5086ZM-18.9844 61.408C-19.8049 62.5288 -20.4356 63.7712 -21.2511 64.8952C-19.8331 64.1573 -19.4028 62.7865 -18.9844 61.408Z" fill="#4C3A41"/>
<path d="M14.5803 55.1328C15.2456 55.0574 16.1783 55.5387 16.2976 54.3073C16.3018 54.264 16.5083 54.1895 16.5988 54.213C17.9982 54.5764 19.5327 54.6451 20.4938 55.9815C20.6758 56.2347 20.8267 56.5081 20.6249 56.7698C20.4439 57.0044 20.1615 56.8615 19.9316 56.7698C19.4351 56.5717 18.9429 56.3628 18.253 56.0773C18.8583 56.951 19.3433 57.6415 19.8165 58.3399C19.9625 58.5554 20.0389 58.8451 19.8737 59.0392C19.6428 59.3106 19.3335 59.1753 19.0913 58.9981C18.824 58.8025 18.5359 58.6079 18.3371 58.3508C17.3078 57.0197 16.1747 55.8165 14.6099 55.1021C14.6088 55.1028 14.5803 55.1328 14.5803 55.1328Z" fill="#4C3A41"/>
<path d="M2.61215 67.193C3.13196 67.257 3.07364 67.6975 3.16909 67.9741C3.45228 68.7947 3.60222 69.6649 3.92544 70.4669C4.14088 71.0015 4.60104 71.4173 5.12313 71.7153C5.41582 71.8823 5.78252 72.0203 5.51198 72.4561C5.29945 72.7985 4.9482 72.7784 4.6128 72.6825C3.86217 72.4678 3.269 72.0259 2.80805 71.3978C1.90712 70.1701 2.13378 68.7982 2.29989 67.436C2.32296 67.2468 2.46972 67.1662 2.61215 67.193Z" fill="#4C3A41"/>
<path d="M2.53012 22.4162C3.59312 20.357 5.88038 19.3941 5.45952 16.7852C7.14581 18.992 6.04783 21.0783 2.53012 22.4162Z" fill="#4C3A41"/>
<path d="M14.9565 36.836C16.3999 35.4963 18.2988 35.0025 19.6149 33.646C20.3638 35.4352 18.1939 36.9349 14.9565 36.836Z" fill="#4C3A41"/>
<path d="M16.1973 37.5436C17.6471 36.796 18.9305 36.1183 20.2315 35.4761C20.498 35.3446 20.8459 35.0238 21.1279 35.4C21.3387 35.6812 21.0566 35.9346 20.9051 36.1814C19.9249 37.7779 18.8175 38.1218 16.1973 37.5436Z" fill="#4C3A41"/>
<path d="M13.5783 57.1196C14.2268 57.8192 14.9274 58.4782 15.5104 59.2286C16.2184 60.14 16.9962 60.4504 18.1814 60.2358C18.864 60.1122 20.1311 59.552 20.286 60.3396C20.438 61.1123 19.0818 60.7214 18.4638 61.0425C17.1086 61.7466 16.2028 61.1595 15.4325 60.0433C14.7823 59.1011 14.0741 58.199 13.3916 57.2792C13.4538 57.226 13.516 57.1728 13.5783 57.1196Z" fill="#4C3A41"/>
<path d="M2.11972 21.7697C2.50611 19.7825 2.83303 18.1655 5.18515 17.8604C4.5367 19.4694 3.60067 20.6291 2.11972 21.7697Z" fill="#4C3A41"/>
<path d="M-24.1183 44.5937C-24.0911 35.6889 -16.3358 28.1706 -7.23647 28.2279C1.92215 28.2855 9.60833 36.1078 9.5508 45.3125C9.49723 53.8827 1.5442 61.4896 -7.3581 61.4856C-16.5404 61.4814 -24.1465 53.8156 -24.1183 44.5937ZM-8.94619 50.5799C-5.59943 53.9095 0.29915 53.7084 3.37197 50.2963C6.4354 46.8946 6.83854 41.7763 4.34863 37.8148C2.19081 34.3817 -0.960516 32.81 -5.01519 32.887C-2.55821 34.0351 -0.493168 35.625 0.689272 38.0893C1.8897 40.5912 1.92917 43.171 0.784184 45.7323C-0.93099 49.5691 -4.4227 51.3495 -8.94619 50.5799Z" fill="#4C3A41"/>
<path d="M284.879 55.1025C286.202 54.9059 287.376 54.1674 288.836 54.0577C287.93 55.0052 286.382 55.1411 285.857 56.7109C287.001 56.2614 287.883 55.6243 288.946 55.382C287.466 57.0222 286.059 58.6581 284.568 60.2131C282.915 61.9366 280.807 62.9726 278.642 63.903C278.226 64.0815 277.473 64.1019 277.683 64.8074C277.868 65.4293 278.56 65.2574 279.006 65.1656C280.578 64.8425 281.824 63.9332 282.9 62.7767C283.177 62.4787 283.431 62.1596 283.867 61.9354C283.091 63.9447 282.307 65.9511 281.544 67.9651C281.33 68.5294 280.895 68.512 280.419 68.5085C278.866 68.4973 277.313 68.4142 275.767 68.6862C274.972 68.826 274.255 69.0779 273.66 69.7051C275.629 68.9994 277.661 68.9631 279.699 68.9807C280.699 68.9893 281.102 69.4792 280.907 70.4503C280.835 70.8137 280.794 71.1833 280.722 71.6611C279.502 70.8883 278.323 70.5513 276.904 71.0176C274.257 71.8871 273.465 75.2505 273.984 77.1255C274.424 78.712 275.539 79.4486 277.163 79.3946C279.739 79.309 282.389 76.6839 281.614 73.6487C281.435 72.9446 281.577 72.3949 282.102 71.8296C283.676 70.1341 285.735 69.2758 287.811 68.5025C291.278 67.2113 294.298 65.4684 295.703 61.7874C295.76 61.6377 295.878 61.5111 296.122 61.1376C295.342 64.9128 293.319 67.2417 289.771 68.2531C290.669 69.0193 291.404 68.6238 292.14 68.3327C292.401 68.2297 292.784 67.9844 292.872 68.3908C293.009 69.0273 293.32 69.6757 293.026 70.3591C292.869 70.7252 292.633 70.6337 292.314 70.5928C289.733 70.2613 287.883 71.4456 287.469 73.6422C287.398 74.0221 287.27 74.4198 287.714 74.6356C288.162 74.8533 288.516 74.5439 288.612 74.1975C289.186 72.131 290.959 71.5383 292.665 71.0546C294.002 70.6759 294.141 69.9057 293.786 68.8995C293.416 67.8525 293.744 67.2028 294.517 66.5163C295.802 65.3772 296.967 64.1107 298.093 62.3912C297.936 63.9347 297.812 65.1532 297.687 66.3717C297.739 66.3798 297.79 66.388 297.842 66.3962C298.226 65.49 298.611 64.5839 299.099 63.4338C299.446 64.8815 298.44 65.9413 298.785 67.1797C299.542 66.2682 299.656 65.0701 300.254 64.1901C300.526 64.1392 300.562 64.3074 300.533 64.3964C300.034 65.9298 300.235 67.4516 300.579 68.9752C300.844 70.1446 300.523 71.1055 299.608 71.909C298.948 72.4884 298.291 73.1013 297.878 73.8925C297.584 74.4564 297.347 75.1758 298.067 75.5301C298.746 75.8637 298.962 75.1601 299.213 74.6854C299.448 74.242 299.592 73.6889 299.948 73.3825C301.453 72.0847 301.666 70.4328 301.506 68.6007C301.378 67.1351 301.545 65.6867 302.174 64.3108C301.962 65.9552 302.083 67.6123 301.96 69.2512C301.826 71.0393 302.266 72.6066 303.036 74.1986C304.148 76.4967 305.07 78.8864 306.085 81.2318C306.213 81.5275 306.268 81.9787 306.649 81.9992C307.072 82.022 307.085 81.531 307.203 81.2534C308.724 77.6665 310.376 74.1464 312.52 70.9008C312.722 71.9644 313.361 72.9573 313.864 74.0121C314.381 75.0973 314.358 76.2972 314.573 77.4467C314.618 77.6908 314.608 77.981 314.915 78.0538C315.265 78.1371 315.438 77.9054 315.583 77.6223C316.126 76.5647 316.124 75.4682 315.515 74.4966C314.583 73.009 313.943 71.3449 312.795 69.9931C312.641 69.8123 312.591 69.6404 312.6 69.4316C312.671 67.7659 312.607 66.1058 312.365 64.4458C312.944 65.2729 313.158 66.2334 313.581 67.1323C313.708 65.9921 313.552 64.8789 313.451 63.7305C314.39 64.7326 314.563 66.1234 315.399 67.2213C315.225 66.0391 315.051 64.857 314.857 63.5329C315.617 64.0215 315.611 64.8612 316.246 65.3599C316.746 64.2147 315.558 63.3517 315.869 62.0766C317.079 64.1389 318.493 65.7516 320.199 67.0764C320.792 67.5368 320.77 67.9636 320.592 68.5763C319.839 71.1836 319.936 71.4172 322.384 72.4671C323.189 72.8119 323.495 73.4248 323.667 74.1858C323.748 74.5451 323.735 75.0302 324.251 74.9943C324.772 74.9581 324.901 74.4713 324.895 74.0547C324.878 72.932 324.452 72.0605 323.367 71.5268C321.292 70.507 321.306 70.4792 321.746 68.1523C325.197 69.3031 328.974 69.4556 332.293 71.5083C330.769 72.1483 329.695 73.1329 329.316 74.7128C328.922 76.3578 329.316 77.8104 330.543 78.9637C331.627 79.9826 332.958 80.1496 334.287 79.5575C336.148 78.7279 336.559 76.9646 336.734 75.1849C336.874 73.7623 335.872 72.265 334.405 71.7902C333.259 71.4191 332.701 70.642 332.304 69.65C331.285 67.0963 330.88 64.344 329.611 61.6976C331.281 62.0178 332.39 62.7636 333.096 64.1025C333.453 64.7804 333.879 65.399 334.682 65.6216C335.165 65.7557 335.612 65.7742 335.852 65.2256C336.076 64.7136 335.759 64.3622 335.36 64.2318C334.307 63.8882 333.782 63.0629 333.243 62.201C332.491 61.0006 331.108 61.2678 329.999 60.9167C329.672 60.8134 329.344 60.7736 329.137 60.4945C327.808 58.6969 326.146 57.2276 324.329 55.7484C325.307 55.7493 326.461 56.3162 327.291 57.2031C327.835 57.784 328.353 58.399 328.811 59.0492C329.831 60.4987 331.78 61.2815 333.391 60.8229C333.493 60.7938 333.632 60.7018 333.649 60.6177C333.668 60.5249 333.593 60.3529 333.511 60.3123C333.334 60.2247 333.12 60.1389 332.931 60.1572C330.575 60.3864 329.086 59.1708 327.887 57.3035C326.994 55.9106 325.618 54.9723 324.319 53.8997C325.493 54.6171 326.894 54.1628 328.257 54.9996C327.53 53.5663 326.155 53.4653 325.278 52.6519C326.502 53.0339 327.711 52.4912 328.929 52.7423C328.18 51.9591 327.124 51.9006 326.229 51.4257C328.426 51.6148 330.663 51.2847 332.822 51.8981C334.205 52.2911 335.165 53.3429 336.091 54.377C336.762 55.1257 337.562 55.6157 338.54 55.8067C339.056 55.9075 339.616 55.8776 339.799 55.3014C339.994 54.6884 339.421 54.4733 338.997 54.3933C337.02 54.0205 335.788 52.277 333.736 51.6457C336.975 50.7091 339.714 49.05 342.633 47.7917C343.441 47.4437 344.217 47.0234 345.011 46.6435C345.414 46.4505 345.749 46.1013 345.198 45.8604C341.632 44.3029 338.486 41.8577 334.683 40.8332C333.808 40.5973 332.815 40.7984 331.851 40.6493C333.896 40.7024 335.519 39.8675 336.911 38.4763C337.568 37.8196 338.488 38.0109 339.281 37.7921C339.69 37.6792 340.189 37.684 340.162 37.1139C340.139 36.6069 339.726 36.4667 339.268 36.4097C338.018 36.254 336.876 36.5179 336.095 37.528C334.535 39.5446 332.369 40.1262 329.998 40.2657C329.001 40.3244 328.028 40.5124 326.774 40.804C327.703 40.0406 328.647 39.7787 329.334 38.9378C328.381 38.6993 327.658 39.325 326.722 39.2217C327.552 38.5281 328.744 38.5561 329.37 37.549C328.263 37.3668 327.34 38.1066 326.111 37.9244C327.419 37.2764 328.554 36.7143 329.688 36.1521C329.672 36.1158 329.656 36.0796 329.639 36.0433C328.183 36.3413 326.728 36.6394 325.272 36.9375C327.319 36.1602 328.596 34.4129 330.16 33.0587C331.471 31.9229 332.968 32.2197 334.57 32.1364C333.963 31.2577 332.851 32.0828 332.32 31.1703C333.568 30.2261 334.836 29.2394 336.341 28.5755C336.804 28.3715 337.665 28.3062 337.305 27.4363C336.944 26.5633 336.226 26.9831 335.686 27.1972C333.77 27.956 332.522 29.5127 331.3 31.0641C329.708 33.0848 327.648 34.4322 325.217 35.2998C325.688 34.9642 326.169 34.6421 326.627 34.2893C327.092 33.9312 327.524 33.5307 327.986 33.1697C330.29 31.3725 332.091 29.2394 332.792 26.3087C332.995 25.4605 333.317 24.6265 333.691 23.8364C334.498 22.1304 335.861 21.5862 337.6 22.2551C338.476 22.5921 339.315 23.0261 340.23 23.2998C339.243 22.3383 337.98 21.8623 336.452 21.2298C337.865 21.0325 338.95 20.755 339.978 20.2508C341.569 19.4704 342.484 18.2112 342.428 16.4786C342.376 14.9163 341.784 13.5319 340.114 12.9188C338.493 12.3234 336.231 12.7778 335.09 14.0257C333.996 15.2228 333.389 16.6272 333.701 18.2794C333.881 19.2391 333.677 19.8327 332.798 20.4483C331.158 21.5979 329.432 22.5922 327.519 23.0325C324.21 23.794 321.734 25.5792 319.907 28.3751C319.765 28.5931 319.657 28.9015 319.202 28.9187C320.057 26.7793 321.497 25.2127 323.316 23.9614C323.956 23.5216 324.552 23.2612 324.031 22.1867C323.58 21.2587 324.102 20.2328 324.783 19.413C324.987 19.167 325.291 18.8997 325.003 18.5353C324.707 18.1596 324.312 18.3027 323.965 18.4317C322.996 18.7918 322.319 20.525 322.79 21.8134C323.065 22.5655 322.894 22.9199 322.325 23.3939C320.969 24.5226 319.886 25.9205 318.759 27.283C319.251 25.5544 320.56 24.2969 321.375 22.7469C319.846 23.7232 318.931 25.234 317.683 26.5535C317.93 25.6612 318.176 24.7689 318.496 23.6086C317.306 24.546 317.163 25.8456 316.155 26.9867C316.517 25.4227 316.804 24.1795 317.091 22.9363C317.037 22.9146 316.983 22.8929 316.929 22.8711C316.326 24.1138 315.724 25.3564 315.008 26.8341C314.858 25.3351 315.742 24.2644 315.572 22.9338C314.602 23.6882 314.544 24.9365 313.6 25.9606C313.818 23.8409 314.054 21.945 313.516 19.7914C313.034 21.9265 313.249 23.9011 312.107 25.7826C312.37 23.7894 312.586 22.011 312.844 20.2386C312.969 19.3817 313.462 18.6859 314.068 18.106C315.142 17.0788 315.688 15.7779 316.106 14.4046C316.231 13.9939 316.512 13.4651 315.812 13.278C315.219 13.1196 314.852 13.4381 314.672 13.9873C314.425 14.743 314.219 15.5137 313.94 16.2572C313.634 17.0721 312.875 17.6525 312.706 18.6732C311.916 15.8542 310.101 13.6977 308.847 11.2453C308.428 10.4267 308.213 9.84124 308.998 9.06058C309.908 8.15482 310.297 6.91817 310.36 5.62128C310.469 3.37272 309.295 1.82145 307.091 1.38912C306.419 1.25735 305.86 1.02561 305.295 0.633443C303.866 -0.357775 301.767 -0.151102 300.517 1.01173C299.194 2.24252 298.878 4.48978 299.802 6.09535C300.692 7.64173 302.464 8.29896 304.26 7.73051C305.096 7.46603 305.732 6.94414 306.118 6.1464C306.343 5.68138 306.549 5.20732 306.855 4.53843C307.157 5.78982 307.118 6.77214 306.638 7.75076C305.457 10.1583 304.423 12.646 303.111 14.9786C301.293 18.2105 301.57 21.567 302.108 24.9892C302.14 25.1936 302.207 25.3928 302.233 25.5976C302.249 25.7171 302.215 25.8428 302.201 25.9885C301.322 24.4249 301.043 22.6524 301.406 20.1106C301.538 19.1901 301.449 18.4498 300.634 17.918C299.088 16.9087 298.673 15.3959 298.707 13.6693C298.715 13.2651 298.813 12.7221 298.264 12.6337C297.638 12.533 297.586 13.1338 297.453 13.5518C296.9 15.2972 297.314 16.7774 298.91 17.8355C300.301 18.7583 300.975 19.7995 300.523 21.5042C300.334 22.217 300.401 23.0078 300.418 23.7616C300.433 24.4589 300.537 25.1543 300.608 25.9125C299.609 25.0893 299.728 23.6463 298.745 22.7109C298.579 24.0853 299.418 25.1939 299.13 26.5397C298.362 25.3117 298.208 23.8202 296.95 22.7873C297.195 23.9604 297.818 24.8764 297.952 26.193C297.084 25.2136 296.782 24.1166 295.672 23.2756C296.192 24.4099 296.6 25.2966 297.138 26.4702C295.896 25.8312 295.876 24.6095 294.917 23.9559C294.999 25.5036 295.976 26.6248 296.179 27.9907C295.06 26.179 293.815 24.4856 292.341 22.9563C291.645 22.2343 291.564 21.2077 291.435 20.2698C291.333 19.5297 291.051 18.9637 290.41 18.6582C289.271 18.1143 288.879 17.2016 288.896 16.0145C288.9 15.7182 289.072 15.2698 288.535 15.2435C288.143 15.2243 287.99 15.5239 287.855 15.8658C287.301 17.2657 287.876 18.9204 289.31 19.5603C290.088 19.9077 290.49 20.3789 290.633 21.185C290.882 22.5804 291.923 23.5027 292.752 24.5349C293.703 25.7189 294.318 27.0577 294.838 28.4598C293.732 27.26 292.917 25.8471 292.037 24.5092C290.713 22.4968 288.929 21.7261 286.663 21.6229C284.748 21.5356 283.008 20.8607 281.309 19.9981C280.558 19.6164 280.597 19.3687 281.04 18.7512C282.422 16.8265 281.956 14.2696 280.132 13.2683C279.091 12.6963 278.08 12.7082 277.241 13.536C276.401 14.3647 276.531 15.2615 277.202 16.2387C277.857 17.1943 278.301 18.2939 278.854 19.3212C279.004 19.5995 279.141 19.8742 278.876 20.1206C277.752 21.1662 276.555 22.0639 274.892 21.9449C273.334 21.8335 272.176 21.1283 271.554 19.669C270.959 18.2709 271.342 16.8944 272.505 16.1036C273.654 15.3222 274.625 15.4601 275.871 16.5702C276.022 16.705 276.207 16.803 276.403 16.9368C276.475 15.2682 274.983 14.1799 273.142 14.4937C271.386 14.7928 270.15 16.1146 269.955 17.9002C269.733 19.9295 270.767 21.9071 272.417 22.5653C274.851 23.5356 276.936 22.7625 278.787 21.168C279.451 20.5965 279.656 20.502 279.963 21.461C280.893 24.359 281.842 27.255 283.194 30.1276C281.424 29.9325 279.892 29.6957 279.246 27.8476C279.087 27.3936 278.724 26.9834 278.377 26.6299C277.937 26.1826 277.321 26.1544 276.914 26.5872C276.499 27.0287 276.955 27.3887 277.278 27.738C278.732 29.313 280.13 30.9593 282.605 31.0142C282.561 31.1537 282.517 31.2933 282.472 31.4328C281.562 31.4328 280.651 31.4285 279.741 31.4356C279.49 31.4376 279.183 31.475 279.214 31.7953C279.227 31.9312 279.514 32.1409 279.682 32.1458C280.989 32.1836 282.231 32.4239 283.473 32.8766C284.175 33.1323 283.192 32.2985 283.852 32.2812C284.841 33.7632 286.32 34.9221 287.782 36.1451C287.174 36.3558 286.785 35.7132 286.145 35.8085C286.183 37.2051 287.612 37.1593 288.397 37.9148C287.259 38.0137 286.375 37.5404 285.375 37.1574C285.388 38.4167 286.814 38.0656 287.1 38.9149C286.149 38.7931 285.239 38.2532 284.104 38.2525C284.86 39.3451 285.8 39.9631 286.978 40.3241C284.824 40.4517 282.688 40.7314 280.56 40.3964C279.196 40.1816 278.315 39.1873 277.447 38.1913C276.476 37.0771 275.23 36.5653 273.736 36.8428C273.326 36.919 272.83 37.0507 272.846 37.5696C272.861 38.0683 273.381 38.0576 273.727 38.0798C275.226 38.1756 276.452 38.8118 277.518 39.836C277.966 40.2665 278.532 40.5096 279.164 40.6778C274.656 41.6807 270.977 44.4388 266.429 46.2717C270.787 48.1019 274.682 50.0464 278.865 51.5828C277.223 52.6641 275.883 54.1631 273.777 54.2704C273.389 54.2901 273.174 54.5041 273.224 54.9377C273.271 55.3442 273.555 55.3431 273.855 55.3838C274.993 55.5381 276.118 55.3898 276.908 54.559C278.996 52.3633 281.562 51.3879 284.523 51.2273C285.005 51.2011 285.477 50.9905 286.021 50.8476C285.799 51.226 285.249 51.0687 285.148 51.5881C285.724 51.9473 286.341 51.3392 286.964 51.6327C286.317 52.1598 285.411 52.2736 284.811 53.1456C285.648 52.9664 286.324 52.8215 287.367 52.5982C286.456 53.0913 285.865 53.4117 285.273 53.732C285.287 53.7761 285.301 53.8202 285.315 53.8643C286.083 53.6184 286.85 53.3724 287.618 53.1264C286.757 53.8849 285.653 54.2552 284.907 55.1326L284.879 55.1025ZM325.692 62.6745C324.124 61.872 323.198 60.3756 321.934 59.2391C323.519 59.8567 324.49 61.2237 325.717 62.2741C325.689 61.5834 325.212 61.1363 324.799 60.6782C323.909 59.6919 322.981 58.7407 322.068 57.7752C325.373 59.3249 326.858 62.3898 328.51 65.4648C328.421 63.4081 327.171 62.0313 326.186 60.5209C325.163 58.9524 323.7 57.7707 322.353 56.3043C328.62 58.4106 329.057 64.0374 330.776 69.2476C329.017 68.2673 327.29 68.3316 325.725 67.7617C324.16 67.1918 322.777 66.335 321.67 65.1023C320.592 63.9021 319.646 62.5976 319.211 61.0137C322.754 65.0868 325.206 67.161 327.104 67.4254C324.204 65.5245 321.651 63.5363 319.933 60.3544C321.538 61.8628 322.93 63.1765 324.329 64.4825C325.74 65.8001 327.493 66.5862 329.091 67.6136C327.797 65.9534 325.766 65.2048 324.391 63.6655C323.04 62.1531 321.444 60.8386 320.461 59.0211C322.77 60.863 324.991 62.7819 327.235 65.0158C326.764 63.8138 326.564 63.5245 325.692 62.6745ZM324.982 44.8604C325.058 55.7125 316.134 63.2285 306.675 63.0783C296.906 62.9231 288.479 55.2558 288.612 44.7224C288.739 34.6856 296.96 26.7576 306.993 26.8371C316.865 26.9155 325.195 34.7365 324.982 44.8604ZM286.847 42.9906C282.605 42.215 278.516 42.4246 274.724 44.7764C278.688 43.3977 282.665 42.3889 287.043 44.3289C281.666 43.3593 276.863 44.7352 272.056 46.1023C277.028 45.605 281.919 43.994 287.271 45.2263C282.625 45.6857 278.245 46.1188 273.864 46.552C278.033 47.3238 282.138 46.0528 286.297 46.4503C282.74 47.09 279.252 48.2511 275.548 47.702C279.493 48.855 283.422 48.0173 287.723 47.5419C284.657 48.7628 281.855 49.4884 278.91 49.7034C279.854 50.3163 280.87 50.0753 281.833 50.0218C282.824 49.9667 283.808 49.7213 284.789 49.5285C285.704 49.3486 286.611 49.1282 287.522 48.9257C284.092 50.5502 280.638 51.5244 277.003 49.5711C274.786 48.3798 272.472 47.3678 270.052 46.2031C272.039 45.1586 273.864 44.302 275.586 43.2718C279.29 41.0561 283.032 41.2841 286.847 42.9906ZM327.773 43.9198C330.516 42.8072 333.269 43.0384 336.036 43.7272C333.06 42.1108 329.936 42.4948 326.788 42.9724C328.125 41.9585 329.646 41.6215 331.23 41.506C335.719 41.1786 338.717 44.3914 342.62 46.091C339.624 47.6275 336.959 49.1244 334.184 50.3791C331.647 51.5264 329.189 50.533 326.42 49.6678C329.388 49.3385 332.035 50.8091 334.621 49.4366C331.526 49.8212 328.866 48.0952 325.925 47.7513C327.818 47.4407 329.638 47.9538 331.479 48.1446C333.356 48.3391 335.208 48.5659 336.967 47.6644C335.205 47.5753 333.452 47.6949 331.708 47.3252C330.013 46.9659 328.293 46.7233 326.326 46.3853C330.752 45.8611 334.85 47.1355 339.019 46.6107C335.336 45.9916 331.619 45.618 327.892 45.2934C331.954 44.1943 335.869 45.3544 339.839 45.8124C335.968 44.2237 331.911 43.8212 327.773 43.9198ZM292.231 31.0577C289.921 29.0236 287.776 26.7984 284.897 25.5139C287.189 27.6044 289.769 29.4019 291.51 32.0463C288.757 30.1917 285.89 28.4918 283.763 25.8583C285.16 29.158 288.56 30.4459 291.09 33.1006C288.545 32.4084 286.815 31.0551 285.163 29.5502C286.114 31.7688 288.385 32.5775 290.218 34.2764C288.292 33.7148 286.718 33.0416 285.648 31.734C283.319 28.8887 282.686 25.311 281.49 21.7797C283.192 22.2387 284.63 22.7257 286.166 22.9379C289.84 23.4453 292.628 25.2623 294.047 29.1251C292.348 27.3509 291.008 25.4562 288.752 24.7028C290.6 26.009 292.121 27.6113 293.228 29.6666C290.353 26.9057 287.147 24.6879 283.425 23.2722C286.61 25.5938 290.621 26.9533 292.231 31.0577ZM309.321 25.2734C309.893 21.9021 309.516 18.6313 308.365 15.4178C308.992 18.9741 308.195 22.3011 306.822 25.5476C307.306 21.2898 307.572 17.0346 306.888 12.7682C306.368 17.079 306.454 21.4345 305.779 25.7287C305.285 22.6101 305.14 19.4762 305.358 16.316C305.205 16.3157 305.051 16.3154 304.898 16.315C304.661 18.9146 304.423 21.5142 304.186 24.1138C303.315 21.8323 303.842 19.5799 304.163 17.3218C302.966 19.9619 303.137 22.7194 303.453 25.5006C302.502 23.6924 302.324 21.7923 302.614 19.8093C303.116 16.3715 305.653 13.9286 306.924 10.5208C307.979 13.0816 309.673 14.8647 310.853 16.9722C312.477 19.8736 311.783 22.7516 310.681 25.6064C310.834 23.0342 311.227 20.4518 310.155 17.9627C310.34 20.4503 310.69 22.9383 309.321 25.2734ZM306.738 76.4907C307.954 72.5722 307.317 68.6051 307.136 64.6374C308.176 67.1198 308.201 69.819 308.982 72.3674C310.137 69.8103 309.706 67.1035 309.889 64.1275C310.703 66.4709 310.76 68.5471 310.402 70.614C309.87 73.6855 307.497 75.953 306.68 78.9559C305.68 76.3564 304.212 74.0471 303.175 71.5453C302.358 69.5752 302.398 67.5293 303.4 65.5757C303.462 67.7131 302.871 69.9161 304.308 72.2162C303.914 69.4905 303.757 67.0905 304.449 64.7162C304.551 65.8734 304.493 67.0341 304.567 68.1865C304.639 69.31 304.792 70.4355 305.009 71.5407C305.222 72.6311 305.56 73.6971 305.844 74.7739C305.609 71.2715 304.865 67.8021 305.829 64.3066C305.786 65.9932 306.042 67.6355 306.408 69.2883C306.669 69.0203 306.37 68.6101 306.759 68.3497C306.679 71.0979 306.364 73.7929 306.738 76.4907ZM282.644 69.017C282.891 67.8795 283.259 66.9947 283.745 66.1665C284.545 64.804 285.505 63.5438 286.13 62.069C287.195 59.5584 289.503 58.5528 291.805 57.556C290.012 59.4385 287.338 60.5135 286.615 63.3455C287.769 61.6352 289.352 60.4208 291.132 59.4153C289.544 61.6797 287.292 63.3672 285.682 65.605C288.263 63.449 290.859 61.3262 292.947 58.6723C291.344 62.8663 287.937 65.2847 284.248 67.4205C288.756 66.2082 291.53 62.8395 294.357 59.5092C293.681 60.8968 292.898 62.1692 292.076 63.4166C291.271 64.6391 290.538 65.9817 289.106 66.5707C287.029 67.4255 284.906 68.1677 282.644 69.017ZM322.091 32.0301C324.4 29.6722 326.267 26.8587 329.064 24.9491C326.068 26.5818 323.565 28.8129 321.26 31.3299C321.679 29.668 322.711 28.4127 323.872 27.2157C326.239 24.7767 329.565 24.0871 332.476 22.2867C332.286 23.1769 332.145 23.8668 331.991 24.5536C331.593 26.3213 330.827 27.8212 329.233 28.8634C327.765 29.8237 326.405 30.9481 324.969 31.9596C324.307 32.4259 323.662 32.9611 322.764 33.0508C325.639 30.1742 329.124 27.8892 331.182 24.2515C328.353 27.0687 325.48 29.8244 322.091 32.0301ZM340.019 14.239C338.822 14.2785 337.951 14.452 337.508 15.4621C336.893 16.8651 337.563 18.1545 339.155 18.6341C339.477 18.731 340.024 18.6437 340.033 19.1317C340.041 19.565 339.545 19.6701 339.207 19.7931C338.224 20.1506 337.228 20.4744 336.232 20.793C335.868 20.9092 335.529 20.9418 335.2 20.6031C334.081 19.4524 333.98 16.8078 335.03 15.2907C336.102 13.743 337.973 13.2902 340.019 14.239ZM303.431 1.40552C303.554 1.41467 303.904 1.33389 304.04 1.46868C304.719 2.14429 305.636 2.77682 305.918 3.61069C306.401 5.04427 305.109 6.57213 303.597 6.7211C302.029 6.87548 300.66 5.74063 300.554 4.19828C300.452 2.71317 301.733 1.41204 303.431 1.40552ZM275.221 74.6722C274.919 72.7239 276.881 71.5266 278.248 71.3997C279.501 71.2834 280.562 72.1845 280.981 73.662C281.326 74.8791 280.772 77.2094 279.147 77.6916C278.966 74.8548 277.977 74.0794 275.221 74.6722ZM329.875 75.7029C329.919 75.0737 330.008 74.452 330.355 73.9085C330.86 73.1172 331.515 72.1958 332.448 72.3573C333.333 72.5103 333.441 73.6749 333.719 74.4782C333.808 74.7352 333.937 75.1366 333.451 75.3031C332.524 75.6208 332.61 76.0027 333.321 76.565C333.708 76.8707 334.201 77.34 333.833 77.9452C333.451 78.5741 332.805 78.7596 332.094 78.6426C330.813 78.4317 329.881 77.1839 329.875 75.7029ZM278.116 15.5244C278.173 14.9626 278.333 14.1655 279.072 13.9275C279.857 13.675 280.38 14.3319 280.761 14.9446C281.46 16.0673 281.203 17.829 280.299 18.793C279.952 19.1634 279.692 19.2169 279.405 18.7913C278.77 17.8484 278.208 16.8722 278.116 15.5244ZM306.851 2.52551C309.445 3.67807 310.161 5.83148 308.761 8.34505C308.534 8.75251 308.369 9.54467 307.879 9.39297C307.306 9.21527 307.431 8.41046 307.393 7.84894C307.374 7.5666 307.486 7.27639 307.533 6.98871C307.708 5.89744 307.648 4.85291 307.147 3.8236C306.967 3.45272 306.697 3.0168 306.851 2.52551ZM323.228 34.5142C325.696 32.4325 328.313 30.5523 330.765 28.0495C329.64 30.9352 326.446 33.6349 323.228 34.5142ZM339.953 18.1159C338.795 18.1422 337.864 17.3766 337.836 16.5922C337.813 15.9472 338.74 15.013 339.432 15.0995C340.29 15.2067 340.978 15.7258 341.01 16.6066C341.039 17.3758 340.63 18.0476 339.953 18.1159ZM275.191 76.5209C275.244 75.5877 275.891 75.2897 276.711 75.2478C277.637 75.2004 278.108 75.6831 278.111 76.6065C278.114 77.5284 277.615 78.0005 276.723 78.0139C275.765 78.0284 275.282 77.4868 275.191 76.5209ZM333.606 72.2704C335.926 72.6868 336.665 74.9296 335.333 76.9952C333.786 75.754 334.601 73.7727 333.606 72.2704ZM291.236 56.5705C287.379 58.1441 285.405 61.3282 284.039 65.0317C284.855 60.8578 286.728 57.5877 291.236 56.5705ZM326.639 24.481C325.762 24.89 324.927 25.3729 324.197 25.9977C323.497 26.596 322.867 27.2762 322.199 27.9129C321.554 28.5279 321.222 29.4713 320.176 29.9767C321.468 26.8843 323.371 24.8456 326.639 24.481ZM317.228 61.3208C318.072 62.7309 318.616 64.3186 319.955 65.1024C321.279 65.8767 322.431 66.8791 323.792 67.5736C320.894 67.0279 317.423 64.4795 317.228 61.3208ZM291.061 66.3343C292.467 64.6852 293.293 62.626 294.833 61.0822C294.033 63.1571 293.319 65.2923 291.061 66.3343ZM310.928 71.7212C311.311 69.44 310.899 67.0895 311.157 64.5972C312.083 67.2465 312.021 69.4232 310.928 71.7212ZM308.856 71.7829C308.714 69.362 308.573 66.9412 308.432 64.5203C309.544 66.866 309.42 69.2949 308.856 71.7829ZM283.886 31.1378C285.303 32.8062 287.092 34.0503 288.858 35.321C286.645 34.5608 284.792 33.3888 283.886 31.1378ZM308.366 25.5086C308.377 23.3883 308.926 21.3232 308.878 19.204C309.265 21.3519 309.005 23.449 308.366 25.5086ZM318.472 61.408C319.292 62.5288 319.923 63.7712 320.738 64.8952C319.32 64.1573 318.89 62.7865 318.472 61.408Z" fill="#4C3A41"/>
<path d="M284.907 55.1328C284.242 55.0574 283.309 55.5387 283.19 54.3073C283.185 54.264 282.979 54.1895 282.889 54.213C281.489 54.5764 279.955 54.6451 278.994 55.9815C278.811 56.2347 278.661 56.5081 278.862 56.7698C279.043 57.0044 279.326 56.8615 279.556 56.7698C280.052 56.5717 280.544 56.3628 281.234 56.0773C280.629 56.951 280.144 57.6415 279.671 58.3399C279.525 58.5554 279.448 58.8451 279.614 59.0392C279.845 59.3106 280.154 59.1753 280.396 58.9981C280.663 58.8025 280.951 58.6079 281.15 58.3508C282.18 57.0197 283.313 55.8165 284.877 55.1021C284.879 55.1028 284.907 55.1328 284.907 55.1328Z" fill="#4C3A41"/>
<path d="M296.875 67.193C296.355 67.257 296.414 67.6975 296.318 67.9741C296.035 68.7947 295.885 69.6649 295.562 70.4669C295.346 71.0015 294.886 71.4173 294.364 71.7153C294.072 71.8823 293.705 72.0203 293.975 72.4561C294.188 72.7985 294.539 72.7784 294.875 72.6825C295.625 72.4678 296.218 72.0259 296.679 71.3978C297.58 70.1701 297.354 68.7982 297.187 67.436C297.164 67.2468 297.018 67.1662 296.875 67.193Z" fill="#4C3A41"/>
<path d="M296.957 22.4162C295.894 20.357 293.607 19.3941 294.028 16.7852C292.341 18.992 293.439 21.0783 296.957 22.4162Z" fill="#4C3A41"/>
<path d="M284.531 36.836C283.087 35.4963 281.188 35.0025 279.872 33.646C279.123 35.4352 281.293 36.9349 284.531 36.836Z" fill="#4C3A41"/>
<path d="M283.29 37.5436C281.84 36.796 280.557 36.1183 279.256 35.4761C278.989 35.3446 278.641 35.0238 278.359 35.4C278.149 35.6812 278.431 35.9346 278.582 36.1814C279.562 37.7779 280.67 38.1218 283.29 37.5436Z" fill="#4C3A41"/>
<path d="M285.909 57.1196C285.261 57.8192 284.56 58.4782 283.977 59.2286C283.269 60.14 282.491 60.4504 281.306 60.2358C280.623 60.1122 279.356 59.552 279.201 60.3396C279.049 61.1123 280.406 60.7214 281.024 61.0425C282.379 61.7466 283.285 61.1595 284.055 60.0433C284.705 59.1011 285.413 58.199 286.096 57.2792C286.034 57.226 285.971 57.1728 285.909 57.1196Z" fill="#4C3A41"/>
<path d="M297.368 21.7697C296.981 19.7825 296.654 18.1655 294.302 17.8604C294.951 19.4694 295.887 20.6291 297.368 21.7697Z" fill="#4C3A41"/>
<path d="M323.606 44.5937C323.578 35.6889 315.823 28.1706 306.724 28.2279C297.565 28.2855 289.879 36.1078 289.936 45.3125C289.99 53.8827 297.943 61.4896 306.845 61.4856C316.028 61.4814 323.634 53.8156 323.606 44.5937ZM308.433 50.5799C305.087 53.9095 299.188 53.7084 296.115 50.2963C293.052 46.8946 292.649 41.7763 295.139 37.8148C297.296 34.3817 300.448 32.81 304.502 32.887C302.045 34.0351 299.98 35.625 298.798 38.0893C297.598 40.5912 297.558 43.171 298.703 45.7323C300.418 49.5691 303.91 51.3495 308.433 50.5799Z" fill="#4C3A41"/>
</svg>
