<svg width="50" height="50" viewBox="0 0 50 50" fill="none" xmlns="http://www.w3.org/2000/svg">
<path d="M35.966 33.001C35.2532 32.8951 34.6214 32.4975 33.8353 32.4385C34.3228 32.9486 35.1566 33.0218 35.439 33.867C34.8234 33.6249 34.3483 33.2819 33.7761 33.1515C34.5731 34.0346 35.3305 34.9154 36.1335 35.7526C37.0234 36.6806 38.1582 37.2384 39.3239 37.7393C39.5476 37.8354 39.9535 37.8464 39.8403 38.2262C39.7405 38.5611 39.3681 38.4685 39.1278 38.4191C38.2814 38.2452 37.6107 37.7556 37.0314 37.1329C36.8821 36.9725 36.7452 36.8006 36.5108 36.6799C36.9286 37.7618 37.3505 38.842 37.7615 39.9264C37.8767 40.2302 38.111 40.2209 38.3672 40.219C39.2032 40.213 40.0396 40.1682 40.8721 40.3146C41.3001 40.3899 41.6861 40.5256 42.0064 40.8632C40.9462 40.4833 39.852 40.4637 38.7546 40.4732C38.2162 40.4778 37.9994 40.7416 38.1044 41.2645C38.1432 41.4602 38.1652 41.6591 38.2038 41.9164C38.8607 41.5003 39.4954 41.3189 40.2597 41.5699C41.6849 42.0381 42.1114 43.849 41.8316 44.8585C41.5948 45.7127 40.9948 46.1093 40.1202 46.0802C38.733 46.0341 37.3066 44.6208 37.7234 42.9865C37.8201 42.6074 37.7437 42.3115 37.4611 42.0071C36.6134 41.0942 35.5048 40.6321 34.387 40.2158C32.5203 39.5205 30.8946 38.5821 30.138 36.6002C30.1072 36.5196 30.0437 36.4515 29.9124 36.2504C30.3325 38.283 31.4218 39.5369 33.332 40.0815C32.8485 40.494 32.4528 40.2811 32.0561 40.1243C31.9158 40.0689 31.7094 39.9368 31.6622 40.1556C31.5884 40.4983 31.4209 40.8474 31.5791 41.2154C31.6638 41.4125 31.791 41.3632 31.9627 41.3412C33.3526 41.1627 34.3486 41.8004 34.5711 42.9831C34.6096 43.1876 34.6783 43.4017 34.4394 43.5179C34.1984 43.6351 34.0078 43.4685 33.956 43.282C33.6471 42.1694 32.6923 41.8503 31.7735 41.5899C31.054 41.3859 30.9788 40.9713 31.1702 40.4295C31.3694 39.8658 31.1929 39.516 30.7763 39.1464C30.0848 38.533 29.4573 37.8512 28.851 36.9253C28.9358 37.7564 29.0027 38.4124 29.0696 39.0685C29.0419 39.0729 29.0141 39.0773 28.9864 39.0817C28.7794 38.5938 28.5725 38.1059 28.3098 37.4867C28.1229 38.2662 28.6645 38.8368 28.4787 39.5035C28.0708 39.0128 28.0095 38.3677 27.6878 37.8939C27.541 37.8665 27.5219 37.9571 27.5374 38.0049C27.8062 38.8306 27.6979 39.6499 27.5124 40.4703C27.37 41.0999 27.5428 41.6172 28.0355 42.0498C28.3909 42.3618 28.7443 42.6918 28.9668 43.1178C29.1254 43.4214 29.2526 43.8088 28.8649 43.9995C28.4998 44.1792 28.3834 43.8003 28.2482 43.5447C28.1219 43.306 28.044 43.0082 27.8526 42.8432C27.0423 42.1445 26.9273 41.255 27.0135 40.2686C27.0823 39.4795 26.9924 38.6997 26.6539 37.9589C26.7681 38.8442 26.7028 39.7365 26.7691 40.6189C26.8415 41.5816 26.6046 42.4255 26.1899 43.2826C25.5912 44.5199 25.0948 45.8066 24.5483 47.0694C24.4794 47.2286 24.4498 47.4715 24.2444 47.4826C24.0166 47.4949 24.0096 47.2305 23.9462 47.0811C23.1272 45.1498 22.2378 43.2545 21.0834 41.507C20.9748 42.0797 20.6308 42.6143 20.36 43.1822C20.0815 43.7665 20.0937 44.4126 19.9783 45.0315C19.9537 45.1629 19.959 45.3191 19.794 45.3583C19.6052 45.4031 19.5124 45.2784 19.4341 45.126C19.1418 44.5565 19.143 43.9662 19.4709 43.4431C19.973 42.6421 20.3175 41.7461 20.9356 41.0183C21.0182 40.921 21.0451 40.8284 21.0404 40.716C21.0023 39.8192 21.0365 38.9253 21.1668 38.0316C20.8551 38.4769 20.7398 38.994 20.512 39.478C20.4436 38.8641 20.528 38.2647 20.5821 37.6464C20.0765 38.186 19.9835 38.9348 19.5336 39.5259C19.6271 38.8894 19.7206 38.253 19.8253 37.54C19.4161 37.8031 19.419 38.2552 19.0776 38.5237C18.8082 37.9072 19.4476 37.4425 19.2805 36.756C18.629 37.8663 17.8672 38.7346 16.9489 39.4479C16.6297 39.6958 16.6418 39.9256 16.7372 40.2555C17.1431 41.6593 17.0908 41.7851 15.7724 42.3503C15.3393 42.536 15.1744 42.866 15.082 43.2757C15.0383 43.4692 15.0453 43.7303 14.7675 43.711C14.4871 43.6915 14.4176 43.4294 14.4208 43.2051C14.4295 42.6007 14.659 42.1314 15.2435 41.8441C16.3605 41.295 16.3532 41.2801 16.1161 40.0272C14.258 40.6468 12.2243 40.7289 10.4372 41.8341C11.2578 42.1787 11.8361 42.7088 12.0401 43.5595C12.2526 44.4451 12.0403 45.2273 11.3796 45.8482C10.7958 46.3968 10.0791 46.4867 9.36399 46.1679C8.36204 45.7213 8.14062 44.7719 8.04615 43.8136C7.97064 43.0477 8.5106 42.2415 9.30006 41.9859C9.91729 41.7861 10.2179 41.3677 10.4312 40.8336C10.9803 39.4586 11.1981 37.9768 11.8815 36.5519C10.9823 36.7243 10.3853 37.1258 10.0052 37.8467C9.81273 38.2117 9.58332 38.5448 9.15129 38.6646C8.89103 38.7369 8.65034 38.7468 8.52124 38.4514C8.40077 38.1758 8.57127 37.9866 8.7863 37.9164C9.35294 37.7314 9.63571 37.287 9.9261 36.8229C10.3306 36.1766 11.0756 36.3205 11.6728 36.1315C11.8484 36.0759 12.0254 36.0544 12.1365 35.9041C12.8519 34.9363 13.747 34.1452 14.7251 33.3488C14.1989 33.3492 13.5775 33.6545 13.1303 34.132C12.8374 34.4447 12.5586 34.7759 12.3122 35.126C11.7629 35.9064 10.7134 36.3278 9.84628 36.081C9.79121 36.0653 9.71629 36.0157 9.7071 35.9705C9.69696 35.9205 9.73745 35.8279 9.7817 35.806C9.87713 35.7589 9.99223 35.7127 10.0938 35.7225C11.3624 35.8459 12.1643 35.1915 12.8094 34.186C13.2906 33.4361 14.0316 32.9309 14.7307 32.3534C14.0988 32.7397 13.3443 32.4951 12.6105 32.9456C13.0018 32.1739 13.7423 32.1195 14.2142 31.6816C13.5556 31.8873 12.9042 31.595 12.2488 31.7302C12.6517 31.3085 13.2207 31.2771 13.7021 31.0214C12.5193 31.1232 11.315 30.9454 10.1527 31.2757C9.40789 31.4873 8.89109 32.0536 8.39222 32.6104C8.03108 33.0135 7.60031 33.2773 7.07398 33.3802C6.79617 33.4344 6.49431 33.4183 6.39587 33.1081C6.29114 32.778 6.59932 32.6622 6.82783 32.6191C7.89254 32.4184 8.55547 31.4797 9.66023 31.1398C7.91676 30.6356 6.44192 29.7423 4.87007 29.0648C4.4353 28.8774 4.01739 28.6511 3.58989 28.4465C3.37272 28.3426 3.19233 28.1546 3.48936 28.0249C5.40906 27.1863 7.10321 25.8698 9.1504 25.3182C9.62172 25.1912 10.1565 25.2994 10.6756 25.2192C9.57441 25.2478 8.70045 24.7982 7.95119 24.0492C7.59749 23.6956 7.10194 23.7986 6.67516 23.6808C6.45486 23.62 6.18629 23.6226 6.20037 23.3157C6.21289 23.0427 6.43547 22.9672 6.68189 22.9365C7.35494 22.8527 7.96991 22.9948 8.39054 23.5386C9.23033 24.6244 10.3964 24.9375 11.6729 25.0127C12.21 25.0442 12.7337 25.1455 13.409 25.3025C12.9087 24.8914 12.4002 24.7505 12.0303 24.2977C12.5436 24.1693 12.9328 24.5062 13.4371 24.4506C12.9898 24.0771 12.3481 24.0922 12.0111 23.55C12.6074 23.4518 13.1039 23.8501 13.7657 23.7521C13.0615 23.4032 12.4507 23.1005 11.8399 22.7978C11.8486 22.7783 11.8574 22.7588 11.8661 22.7392C12.65 22.8997 13.4339 23.0602 14.2177 23.2207C13.1155 22.8022 12.4278 21.8614 11.586 21.1323C10.88 20.5208 10.0741 20.6806 9.21151 20.6357C9.53831 20.1626 10.137 20.6069 10.423 20.1156C9.75085 19.6072 9.06797 19.0759 8.25763 18.7185C8.00865 18.6086 7.54512 18.5735 7.73892 18.1051C7.93342 17.6351 8.31959 17.8611 8.61069 17.9764C9.64231 18.3849 10.3139 19.2231 10.972 20.0584C11.8292 21.1463 12.9386 21.8718 14.2474 22.3389C13.9937 22.1583 13.7344 21.9848 13.4879 21.7949C13.2377 21.6021 13.0052 21.3864 12.7562 21.1921C11.5161 20.2244 10.5462 19.0759 10.1687 17.498C10.0595 17.0413 9.88608 16.5923 9.68477 16.1669C9.25009 15.2483 8.51621 14.9553 7.57994 15.3155C7.10829 15.4969 6.65676 15.7306 6.164 15.878C6.69557 15.3603 7.37567 15.104 8.19812 14.7635C7.43745 14.6572 6.85327 14.5078 6.29979 14.2364C5.44302 13.8162 4.95015 13.1382 4.98081 12.2053C5.00846 11.3642 5.32749 10.6188 6.22629 10.2887C7.09908 9.96812 8.31723 10.2128 8.93133 10.8847C9.52036 11.5292 9.84714 12.2854 9.67955 13.1749C9.5822 13.6916 9.69227 14.0112 10.1653 14.3427C11.0487 14.9616 11.9778 15.497 13.008 15.734C14.7895 16.144 16.1224 17.1052 17.1061 18.6106C17.1827 18.728 17.2405 18.894 17.4858 18.9032C17.0256 17.7514 16.2503 16.9079 15.2707 16.2342C14.9264 15.9974 14.605 15.8572 14.8859 15.2787C15.1286 14.779 14.8476 14.2266 14.4809 13.7852C14.3709 13.6528 14.2076 13.5089 14.3622 13.3127C14.5215 13.1104 14.7342 13.1875 14.9211 13.2569C15.4428 13.4508 15.8076 14.384 15.5541 15.0777C15.406 15.4826 15.4979 15.6734 15.8044 15.9286C16.5345 16.5363 17.1173 17.289 17.7244 18.0226C17.4594 17.0919 16.7545 16.4148 16.3159 15.5803C17.1391 16.1059 17.6319 16.9193 18.3034 17.6298C18.1708 17.1494 18.0382 16.6689 17.8658 16.0442C18.5064 16.5489 18.5834 17.2487 19.1263 17.863C18.9316 17.021 18.7769 16.3516 18.6222 15.6823C18.6514 15.6706 18.6806 15.6589 18.7098 15.6472C19.0341 16.3162 19.3585 16.9853 19.7441 17.7809C19.8244 16.9738 19.3488 16.3973 19.4405 15.6809C19.9622 16.0871 19.9938 16.7592 20.502 17.3106C20.3845 16.1693 20.2578 15.1485 20.5472 13.989C20.8064 15.1386 20.6911 16.2017 21.3057 17.2147C21.1645 16.1416 21.0477 15.1841 20.9089 14.2298C20.8418 13.7684 20.5765 13.3938 20.2501 13.0815C19.6719 12.5285 19.3779 11.8281 19.1527 11.0886C19.0854 10.8675 18.934 10.5828 19.311 10.4821C19.6303 10.3968 19.8277 10.5683 19.9246 10.864C20.0578 11.2708 20.1688 11.6858 20.3191 12.0861C20.4838 12.5249 20.8922 12.8374 20.983 13.3869C21.4085 11.8692 22.3859 10.708 23.0612 9.38765C23.2867 8.94692 23.4026 8.63168 22.9799 8.21136C22.4895 7.72368 22.2806 7.05785 22.2466 6.35959C22.1876 5.14893 22.8199 4.31371 24.0065 4.08093C24.3681 4.00998 24.6691 3.88521 24.9734 3.67406C25.7427 3.14038 26.873 3.25165 27.546 3.87774C28.2585 4.54041 28.4287 5.75037 27.9312 6.61483C27.452 7.44743 26.4978 7.80129 25.5307 7.49523C25.0808 7.35283 24.7381 7.07183 24.5303 6.64232C24.4092 6.39194 24.2981 6.13671 24.1336 5.77656C23.9708 6.45033 23.9922 6.97923 24.2506 7.50613C24.8862 8.80237 25.4431 10.1418 26.1494 11.3977C27.1281 13.1378 26.9793 14.945 26.6895 16.7875C26.6721 16.8976 26.636 17.0049 26.6219 17.1152C26.6137 17.1795 26.6318 17.2472 26.6392 17.3256C27.1127 16.4837 27.2629 15.5294 27.0674 14.1608C26.9966 13.6652 27.0442 13.2667 27.4828 12.9803C28.3153 12.4369 28.539 11.6224 28.5204 10.6928C28.516 10.4751 28.4636 10.1828 28.7592 10.1352C29.0963 10.081 29.1242 10.4045 29.1955 10.6295C29.4936 11.5693 29.2704 12.3662 28.4114 12.9359C27.6621 13.4328 27.2993 13.9933 27.5426 14.9112C27.6443 15.295 27.6084 15.7207 27.5995 16.1266C27.5912 16.5021 27.5353 16.8764 27.4973 17.2847C28.035 16.8415 27.9706 16.0645 28.4999 15.5609C28.5894 16.3009 28.1375 16.8978 28.2929 17.6223C28.7063 16.9612 28.7892 16.1582 29.4667 15.602C29.3349 16.2337 28.9994 16.7268 28.9273 17.4357C29.3945 16.9084 29.557 16.3177 30.1548 15.8649C29.8744 16.4756 29.6552 16.9531 29.3651 17.5849C30.0338 17.2409 30.0448 16.5831 30.5614 16.2312C30.5171 17.0645 29.991 17.6682 29.8815 18.4036C30.4841 17.4282 31.1542 16.5164 31.9482 15.693C32.3231 15.3043 32.3665 14.7515 32.436 14.2466C32.4909 13.8481 32.6429 13.5433 32.9876 13.3789C33.6012 13.086 33.8122 12.5946 33.8032 11.9554C33.8009 11.7959 33.7081 11.5545 33.9975 11.5403C34.2086 11.53 34.2906 11.6913 34.3634 11.8754C34.6615 12.6291 34.352 13.52 33.5799 13.8646C33.1609 14.0516 32.9447 14.3053 32.8675 14.7393C32.7339 15.4906 32.173 15.9872 31.7267 16.543C31.2147 17.1805 30.8837 17.9013 30.6037 18.6562C31.1991 18.0102 31.6378 17.2494 32.1117 16.5291C32.8247 15.4456 33.7854 15.0307 35.0054 14.9751C36.0364 14.9281 36.9732 14.5647 37.8878 14.1003C38.2924 13.8948 38.2711 13.7614 38.0325 13.4289C37.2887 12.3927 37.5398 11.016 38.5215 10.4769C39.0823 10.1689 39.6262 10.1753 40.0781 10.621C40.5305 11.0672 40.4602 11.55 40.0993 12.0762C39.7463 12.5907 39.5075 13.1827 39.2095 13.7358C39.1287 13.8857 39.0553 14.0335 39.1979 14.1662C39.8031 14.7292 40.4475 15.2125 41.3432 15.1485C42.1817 15.0885 42.8053 14.7088 43.14 13.9231C43.4607 13.1703 43.2541 12.4292 42.6282 12.0034C42.0097 11.5827 41.4866 11.6569 40.8158 12.2546C40.7343 12.3272 40.6351 12.38 40.5293 12.452C40.4904 11.5536 41.2938 10.9677 42.2851 11.1366C43.2303 11.2977 43.8962 12.0094 44.0011 12.9707C44.1204 14.0633 43.5639 15.1281 42.6753 15.4825C41.3653 16.0049 40.2423 15.5887 39.2455 14.7301C38.8883 14.4224 38.778 14.3716 38.6124 14.8879C38.1117 16.4483 37.6012 18.0075 36.873 19.5541C37.8259 19.4491 38.6507 19.3216 38.9985 18.3266C39.084 18.0821 39.2796 17.8613 39.4667 17.6709C39.7034 17.4301 40.0351 17.4149 40.2543 17.648C40.4778 17.8856 40.2322 18.0795 40.0585 18.2675C39.2754 19.1155 38.5228 20.0019 37.1901 20.0315C37.2139 20.1066 37.2377 20.1818 37.2615 20.2569C37.7518 20.2569 38.242 20.2546 38.7322 20.2584C38.8675 20.2595 39.0327 20.2796 39.0161 20.452C39.009 20.5252 38.8543 20.6381 38.764 20.6408C38.0604 20.6611 37.3914 20.7905 36.7226 21.0343C36.3449 21.1719 36.8739 20.723 36.5188 20.7137C35.9864 21.5116 35.1901 22.1356 34.4026 22.7941C34.7301 22.9075 34.9397 22.5615 35.2843 22.6129C35.2635 23.3648 34.4941 23.3401 34.0715 23.7469C34.6842 23.8002 35.1601 23.5453 35.6986 23.3391C35.6916 24.0171 34.9241 23.8281 34.77 24.2854C35.2818 24.2198 35.7722 23.9291 36.3828 23.9287C35.9762 24.517 35.4701 24.8497 34.8357 25.0441C35.9955 25.1128 37.1453 25.2634 38.2911 25.083C39.0254 24.9674 39.4997 24.432 39.9672 23.8958C40.4902 23.2959 41.1608 23.0203 41.9651 23.1697C42.186 23.2108 42.4532 23.2817 42.4447 23.561C42.4365 23.8296 42.1566 23.8238 41.9703 23.8357C41.1633 23.8873 40.5029 24.2299 39.9292 24.7813C39.6881 25.0131 39.3828 25.1439 39.0428 25.2345C41.4701 25.7745 43.4507 27.2595 45.8997 28.2464C43.5529 29.2318 41.4557 30.2787 39.2036 31.1059C40.088 31.6881 40.8095 32.4952 41.9433 32.553C42.152 32.5636 42.2678 32.6788 42.2408 32.9123C42.2155 33.1311 42.0629 33.1306 41.9011 33.1525C41.2883 33.2355 40.6829 33.1557 40.2575 32.7084C39.1333 31.5262 37.7518 31.001 36.1574 30.9145C35.8978 30.9004 35.6436 30.787 35.3511 30.7101C35.4704 30.9138 35.7665 30.8291 35.8207 31.1088C35.5107 31.3022 35.1788 30.9748 34.8433 31.1328C35.1917 31.4166 35.6795 31.4779 36.0022 31.9474C35.5519 31.8509 35.1877 31.7729 34.6264 31.6526C35.1166 31.9181 35.4351 32.0906 35.7536 32.2631C35.7461 32.2869 35.7386 32.3106 35.7311 32.3343C35.3178 32.2019 34.9044 32.0695 34.491 31.9371C34.9545 32.3454 35.5491 32.5448 35.9507 33.0172L35.966 33.001ZM13.9915 37.0779C14.8355 36.6458 15.3345 35.8401 16.015 35.2282C15.1617 35.5607 14.6389 36.2967 13.9779 36.8623C13.993 36.4904 14.2499 36.2497 14.4723 36.003C14.9512 35.472 15.4512 34.9599 15.9425 34.44C14.1633 35.2744 13.3639 36.9246 12.4744 38.5802C12.5221 37.4728 13.1954 36.7316 13.7256 35.9184C14.2763 35.0739 15.0641 34.4376 15.7891 33.6481C12.4149 34.7821 12.1796 37.8117 11.2539 40.6169C12.2014 40.0891 13.1311 40.1237 13.9737 39.8169C14.8163 39.5101 15.561 39.0488 16.1572 38.385C16.7376 37.7388 17.2467 37.0365 17.4811 36.1837C15.5731 38.3767 14.2531 39.4935 13.2313 39.6358C14.7928 38.6123 16.1671 37.5419 17.0924 35.8287C16.2278 36.6409 15.4785 37.3481 14.7254 38.0513C13.9656 38.7607 13.022 39.184 12.1613 39.7372C12.8583 38.8433 13.9517 38.4402 14.6921 37.6114C15.4196 36.7971 16.2785 36.0894 16.8077 35.1108C15.5646 36.1025 14.3686 37.1357 13.1604 38.3385C13.4144 37.6913 13.5218 37.5355 13.9915 37.0779ZM14.3735 27.4865C14.3328 33.3294 19.1379 37.3761 24.2302 37.2953C29.49 37.2117 34.0275 33.0835 33.9558 27.4122C33.8875 22.0082 29.461 17.7397 24.0592 17.7825C18.7439 17.8247 14.259 22.0357 14.3735 27.4865ZM34.9064 26.4798C37.1903 26.0622 39.3914 26.1751 41.4334 27.4413C39.2992 26.6989 37.1577 26.1558 34.8006 27.2003C37.6958 26.6783 40.2818 27.4191 42.8698 28.1551C40.193 27.8874 37.5597 27.02 34.6778 27.6835C37.1792 27.9308 39.5378 28.1641 41.8964 28.3973C39.6515 28.8129 37.4414 28.1285 35.2021 28.3425C37.1173 28.687 38.9955 29.3121 40.9899 29.0164C38.8655 29.6372 36.75 29.1862 34.4347 28.9303C36.0854 29.5876 37.5941 29.9783 39.1796 30.094C38.6714 30.424 38.1245 30.2943 37.6059 30.2655C37.072 30.2358 36.5424 30.1037 36.0142 29.9999C35.5215 29.903 35.033 29.7844 34.5427 29.6753C36.3895 30.55 38.2492 31.0745 40.2064 30.0228C41.4001 29.3814 42.6457 28.8365 43.9487 28.2094C42.8792 27.647 41.8961 27.1859 40.9691 26.6312C38.975 25.4382 36.9602 25.561 34.9064 26.4798ZM12.8708 26.9801C11.3944 26.381 9.91172 26.5055 8.42235 26.8764C10.0244 26.0061 11.7062 26.2128 13.4011 26.47C12.6817 25.9241 11.8624 25.7426 11.0099 25.6804C8.59299 25.5042 6.97852 27.234 4.87719 28.1491C6.49026 28.9764 7.9252 29.7823 9.41915 30.4579C10.7851 31.0756 12.1085 30.5407 13.5993 30.0749C12.0014 29.8976 10.5765 30.6894 9.1838 29.9504C10.8505 30.1575 12.2825 29.2281 13.8663 29.043C12.8467 28.8758 11.8671 29.152 10.8759 29.2547C9.86528 29.3595 8.86769 29.4816 7.92087 28.9962C8.8696 28.9482 9.81342 29.0126 10.7524 28.8136C11.6652 28.6201 12.5913 28.4895 13.65 28.3075C11.2673 28.0253 9.06077 28.7115 6.81621 28.4289C8.79918 28.0956 10.8005 27.8944 12.807 27.7196C10.6201 27.1279 8.5122 27.7525 6.37476 27.9991C8.45865 27.1437 10.6431 26.927 12.8708 26.9801ZM32.0073 20.0549C33.2512 18.9598 34.406 17.7617 35.9562 17.0701C34.7219 18.1956 33.333 19.1634 32.3956 20.5872C33.8777 19.5886 35.4212 18.6734 36.5667 17.2555C35.8147 19.0321 33.9841 19.7255 32.6215 21.1549C33.9918 20.7821 34.9237 20.0535 35.8127 19.2433C35.3008 20.4378 34.0781 20.8732 33.0913 21.7879C34.1283 21.4856 34.9757 21.1231 35.5519 20.4191C36.8055 18.8871 37.1464 16.9608 37.7907 15.0595C36.8743 15.3066 36.0999 15.5689 35.2729 15.6831C33.2946 15.9563 31.7935 16.9346 31.0296 19.0144C31.9444 18.0591 32.666 17.039 33.8806 16.6333C32.8857 17.3366 32.0665 18.1994 31.4703 19.3059C33.0186 17.8194 34.7445 16.6253 36.7484 15.8631C35.0337 17.1131 32.8744 17.8451 32.0073 20.0549ZM22.8061 16.9406C22.4977 15.1254 22.701 13.3644 23.3203 11.6342C22.9832 13.5489 23.4118 15.3402 24.1513 17.0882C23.8905 14.7957 23.7474 12.5047 24.1159 10.2076C24.3958 12.5286 24.3495 14.8736 24.7128 17.1857C24.9791 15.5066 25.057 13.8193 24.9393 12.1178C25.022 12.1176 25.1046 12.1174 25.1873 12.1172C25.3151 13.5169 25.4429 14.9166 25.5707 16.3162C26.0394 15.0878 25.756 13.8751 25.5827 12.6593C26.2275 14.0808 26.1354 15.5655 25.9651 17.0629C26.4775 16.0893 26.573 15.0663 26.417 13.9986C26.1465 12.1477 24.7806 10.8324 24.0966 8.99755C23.5285 10.3764 22.6161 11.3364 21.9811 12.4711C21.1068 14.0332 21.4803 15.5828 22.0734 17.1198C21.9913 15.7349 21.7794 14.3446 22.3568 13.0044C22.2573 14.3438 22.069 15.6833 22.8061 16.9406ZM24.1967 44.5167C23.5418 42.4069 23.8848 40.271 23.9824 38.1347C23.4226 39.4713 23.4089 40.9246 22.9882 42.2967C22.3664 40.9199 22.5985 39.4625 22.5003 37.8602C22.062 39.1219 22.0311 40.2398 22.2238 41.3526C22.5102 43.0064 23.7877 44.2272 24.2278 45.844C24.7663 44.4444 25.5567 43.2011 26.1151 41.8541C26.5549 40.7933 26.5331 39.6917 25.9939 38.6399C25.9602 39.7907 26.2787 40.9769 25.5052 42.2153C25.7168 40.7477 25.8016 39.4555 25.429 38.1772C25.3742 38.8002 25.4052 39.4252 25.3654 40.0456C25.3266 40.6505 25.2443 41.2565 25.1277 41.8516C25.0126 42.4387 24.8306 43.0126 24.6779 43.5924C24.8042 41.7066 25.2049 39.8386 24.6862 37.9566C24.7091 38.8647 24.571 39.749 24.3742 40.6388C24.2337 40.4945 24.3948 40.2737 24.1854 40.1335C24.2281 41.6132 24.3978 43.0642 24.1967 44.5167ZM37.1689 40.4928C37.0361 39.8803 36.8379 39.4039 36.5762 38.958C36.1456 38.2244 35.6289 37.5459 35.2922 36.7519C34.7191 35.4001 33.4764 34.8587 32.2366 34.322C33.2018 35.3355 34.6419 35.9144 35.0312 37.4391C34.4099 36.5183 33.5575 35.8644 32.5991 35.3231C33.4543 36.5422 34.6663 37.4509 35.5334 38.6557C34.1436 37.4949 32.746 36.3519 31.6221 34.923C32.4847 37.1811 34.3195 38.4833 36.3053 39.6332C33.8785 38.9805 32.385 37.1667 30.8625 35.3737C31.2266 36.1207 31.6484 36.8058 32.0906 37.4774C32.524 38.1356 32.9191 38.8585 33.6898 39.1757C34.8082 39.6359 35.9515 40.0355 37.1689 40.4928ZM15.9305 20.5785C14.6871 19.3089 13.6817 17.7941 12.1758 16.7659C13.7887 17.645 15.1364 18.8463 16.3777 20.2015C16.1518 19.3067 15.5965 18.6308 14.9712 17.9863C13.6972 16.6732 11.9062 16.3018 10.3386 15.3325C10.441 15.8118 10.5169 16.1832 10.6001 16.553C10.8145 17.5048 11.2266 18.3123 12.0847 18.8735C12.8752 19.3905 13.6073 19.9959 14.3806 20.5405C14.737 20.7916 15.0846 21.0798 15.568 21.128C14.0199 19.5792 12.1437 18.349 11.0358 16.3904C12.5589 17.9072 14.1055 19.3909 15.9305 20.5785ZM6.27782 10.9995C6.9223 11.0208 7.39085 11.1142 7.6294 11.658C7.96071 12.4134 7.60005 13.1077 6.74273 13.3659C6.56943 13.4181 6.27504 13.371 6.27008 13.6338C6.26568 13.8671 6.5328 13.9237 6.71482 13.9899C7.24407 14.1824 7.78012 14.3567 8.31668 14.5283C8.51241 14.5908 8.69522 14.6084 8.87243 14.426C9.47449 13.8065 9.52891 12.3826 8.96349 11.5658C8.38659 10.7324 7.37943 10.4886 6.27782 10.9995ZM25.9773 4.08976C25.9108 4.09469 25.7222 4.05119 25.6493 4.12377C25.2839 4.48752 24.7897 4.82809 24.6382 5.27705C24.3779 6.04892 25.0734 6.87154 25.8879 6.95175C26.7322 7.03486 27.469 6.42385 27.5261 5.59342C27.581 4.79382 26.8915 4.09327 25.9773 4.08976ZM41.1656 43.5376C41.3285 42.4886 40.272 41.844 39.5361 41.7757C38.8613 41.713 38.2902 42.1982 38.0646 42.9937C37.8788 43.649 38.1768 44.9037 39.0518 45.1633C39.1494 43.6359 39.6818 43.2184 41.1656 43.5376ZM11.7392 44.0926C11.7154 43.7538 11.6675 43.419 11.4809 43.1264C11.2092 42.7004 10.8565 42.2043 10.3538 42.2912C9.87738 42.3736 9.81944 43.0007 9.66968 43.4331C9.62176 43.5715 9.55207 43.7877 9.81386 43.8773C10.3132 44.0484 10.2668 44.254 9.88383 44.5567C9.6756 44.7213 9.41019 44.974 9.60823 45.2998C9.81405 45.6384 10.1617 45.7383 10.5443 45.6753C11.234 45.5618 11.7359 44.8899 11.7392 44.0926ZM39.6072 11.6916C39.5764 11.3891 39.49 10.9599 39.0921 10.8318C38.6698 10.6958 38.3882 11.0495 38.1829 11.3794C37.8067 11.9839 37.9451 12.9324 38.4315 13.4514C38.6184 13.6508 38.7586 13.6796 38.9129 13.4505C39.2548 12.9428 39.5576 12.4172 39.6072 11.6916ZM24.1359 4.69278C22.7389 5.31333 22.3535 6.47276 23.1073 7.82611C23.2294 8.04549 23.3186 8.472 23.582 8.39032C23.8905 8.29464 23.8236 7.86132 23.8437 7.55899C23.8539 7.40698 23.7937 7.25072 23.7688 7.09583C23.6741 6.50828 23.7068 5.94588 23.9762 5.39169C24.0733 5.192 24.2187 4.9573 24.1359 4.69278ZM15.3181 21.916C13.9893 20.7952 12.5805 19.7828 11.2599 18.4353C11.8656 19.989 13.5855 21.4425 15.3181 21.916ZM6.31304 13.0869C6.9368 13.101 7.43777 12.6888 7.45302 12.2665C7.46557 11.9192 6.9664 11.4162 6.59386 11.4628C6.13165 11.5205 5.76139 11.8 5.74389 12.2742C5.72862 12.6884 5.94877 13.0501 6.31304 13.0869ZM41.1819 44.533C41.1532 44.0305 40.8051 43.8701 40.3634 43.8475C39.8649 43.822 39.6114 44.0819 39.6097 44.5791C39.608 45.0755 39.8766 45.3296 40.3572 45.3368C40.8729 45.3446 41.1327 45.0531 41.1819 44.533ZM9.73021 42.2444C8.48152 42.4686 8.08342 43.6762 8.80054 44.7883C9.63377 44.1201 9.19493 43.0533 9.73021 42.2444ZM32.5433 33.7914C34.6197 34.6386 35.6824 36.353 36.418 38.347C35.9785 36.0997 34.97 34.3391 32.5433 33.7914ZM13.4816 16.5139C13.9536 16.7342 14.4031 16.9942 14.7966 17.3306C15.1734 17.6527 15.5124 18.0189 15.8719 18.3617C16.2192 18.6929 16.3982 19.2008 16.9613 19.4729C16.2656 17.8079 15.2413 16.7103 13.4816 16.5139ZM18.5484 36.349C18.0941 37.1083 17.8013 37.9631 17.0801 38.3851C16.3676 38.802 15.7474 39.3417 15.0143 39.7156C16.5747 39.4218 18.4434 38.0497 18.5484 36.349ZM32.6375 39.0484C31.8801 38.1605 31.4354 37.0517 30.6062 36.2206C31.0374 37.3377 31.4216 38.4873 32.6375 39.0484ZM21.9407 41.9487C21.7346 40.7205 21.9561 39.455 21.8173 38.1131C21.3189 39.5395 21.352 40.7115 21.9407 41.9487ZM23.0564 41.982C23.1324 40.6785 23.2085 39.3751 23.2845 38.0717C22.6856 39.3346 22.7523 40.6424 23.0564 41.982ZM36.5004 20.098C35.7374 20.9963 34.7742 21.6662 33.8234 22.3503C35.0151 21.9411 36.0124 21.31 36.5004 20.098ZM23.3202 17.0672C23.3142 15.9256 23.0185 14.8137 23.0444 13.6727C22.836 14.8292 22.976 15.9583 23.3202 17.0672ZM17.879 36.396C17.4372 36.9994 17.0976 37.6683 16.6585 38.2735C17.422 37.8762 17.6537 37.1382 17.879 36.396Z" fill="#F4F4F4"/>
<path d="M35.9507 33.0191C36.3089 32.9785 36.8111 33.2377 36.8753 32.5747C36.8776 32.5514 36.9888 32.5112 37.0375 32.5239C37.7909 32.7196 38.6171 32.7566 39.1346 33.4761C39.2326 33.6124 39.3139 33.7596 39.2052 33.9005C39.1078 34.0269 38.9557 33.9499 38.8319 33.9005C38.5646 33.7938 38.2996 33.6814 37.9282 33.5277C38.254 33.9981 38.5152 34.3699 38.7699 34.7459C38.8486 34.8619 38.8897 35.0179 38.8008 35.1224C38.6764 35.2685 38.5099 35.1957 38.3795 35.1003C38.2356 34.995 38.0805 34.8902 37.9734 34.7518C37.4192 34.0351 36.8091 33.3873 35.9666 33.0026C35.966 33.003 35.9507 33.0191 35.9507 33.0191Z" fill="#F4F4F4"/>
<path d="M9.72667 35.1873C9.77875 34.5405 10.0641 34.0485 10.5292 33.4209C10.1798 33.6272 9.98215 33.7355 9.79353 33.8577C9.6133 33.9745 9.41124 34.0839 9.24468 33.9012C9.07374 33.7137 9.23478 33.525 9.34649 33.3566C9.87231 32.5641 10.7295 32.639 11.5087 32.459C11.5528 32.7792 11.2466 32.7319 11.1686 32.9921C11.5193 33.0178 11.8579 33.0427 12.1965 33.0675C11.3679 33.7608 10.4708 34.3733 9.72667 35.1873Z" fill="#F4F4F4"/>
<path d="M17.9892 13.9945C17.7536 13.5015 17.518 13.0085 17.2736 12.4971C18.4037 12.5984 19.2043 14.1908 18.6151 15.0606C18.537 15.1758 18.509 15.1955 18.3748 15.1741C17.9597 15.1077 16.8648 13.8973 16.8677 13.466C16.8682 13.3893 16.9151 13.2868 16.9749 13.2423C17.0774 13.1661 17.1993 13.2114 17.2779 13.2999C17.494 13.543 17.6997 13.7953 17.9095 14.0439C17.936 14.0274 17.9626 14.0109 17.9892 13.9945Z" fill="#F4F4F4"/>
<path d="M29.5067 39.5105C29.7866 39.545 29.7552 39.7821 29.8066 39.9311C29.959 40.3729 30.0398 40.8414 30.2138 41.2732C30.3298 41.5611 30.5776 41.7849 30.8587 41.9454C31.0162 42.0353 31.2137 42.1096 31.068 42.3442C30.9536 42.5286 30.7645 42.5178 30.5839 42.4661C30.1797 42.3505 29.8604 42.1126 29.6122 41.7744C29.1271 41.1134 29.2491 40.3748 29.3386 39.6414C29.351 39.5395 29.43 39.4961 29.5067 39.5105Z" fill="#F4F4F4"/>
<path d="M29.4626 15.403C30.035 14.2943 31.2665 13.7758 31.0399 12.3711C31.9478 13.5593 31.3566 14.6826 29.4626 15.403Z" fill="#F4F4F4"/>
<path d="M36.1532 23.1658C36.9303 22.4445 37.9527 22.1786 38.6613 21.4482C39.0646 22.4116 37.8963 23.2191 36.1532 23.1658Z" fill="#F4F4F4"/>
<path d="M36.821 23.5453C37.6016 23.1427 38.2926 22.7779 38.9931 22.4321C39.1366 22.3613 39.3239 22.1886 39.4757 22.3911C39.5892 22.5425 39.4374 22.679 39.3558 22.8118C38.828 23.6714 38.2318 23.8566 36.821 23.5453Z" fill="#F4F4F4"/>
<path d="M10.512 22.7161C10.677 22.965 11.2061 23.151 10.9898 23.4192C10.7837 23.6747 10.2941 23.5391 9.92973 23.3632C9.54601 23.1779 9.2986 22.8617 9.0371 22.5546C8.93729 22.4373 8.81786 22.2884 8.9166 22.1307C9.03568 21.9405 9.19889 22.0812 9.33591 22.133C9.58698 22.2278 9.83308 22.3358 10.0812 22.4384C10.2248 22.5309 10.3684 22.6235 10.512 22.7161Z" fill="#F4F4F4"/>
<path d="M35.4113 34.0889C35.7604 34.4655 36.1377 34.8203 36.4516 35.2244C36.8328 35.7151 37.2515 35.8822 37.8897 35.7667C38.2572 35.7001 38.9394 35.3985 39.0228 35.8225C39.1047 36.2386 38.3745 36.0281 38.0417 36.201C37.3121 36.5801 36.8244 36.264 36.4096 35.663C36.0596 35.1557 35.6783 34.67 35.3108 34.1748C35.3443 34.1461 35.3778 34.1175 35.4113 34.0889Z" fill="#F4F4F4"/>
<path d="M18.7584 39.4639C18.3959 40.5781 18.0721 41.5735 17.7024 42.7099C17.2888 41.4698 17.6838 40.2923 18.7584 39.4639Z" fill="#F4F4F4"/>
<path d="M18.075 42.1742C18.3946 41.3015 18.5121 40.4622 19.0114 39.7148C19.461 41.0384 19.1824 41.8381 18.075 42.1742Z" fill="#F4F4F4"/>
<path d="M10.5122 22.715C10.3686 22.6224 10.225 22.5298 10.0814 22.4372C9.787 22.0007 9.1351 21.7761 9.28018 20.9404C9.96469 21.682 10.8151 22.0699 11.5655 22.7596C11.133 22.9054 10.8214 22.854 10.5122 22.715Z" fill="#F4F4F4"/>
<path d="M29.2417 15.0531C29.4497 13.9832 29.6258 13.1125 30.8922 12.9482C30.543 13.8146 30.0391 14.439 29.2417 15.0531Z" fill="#F4F4F4"/>
<path d="M15.1147 27.3401C15.1293 22.5456 19.3049 18.4977 24.2041 18.5285C29.1352 18.5595 33.2736 22.7712 33.2426 27.7271C33.2138 32.3414 28.9317 36.4371 24.1386 36.4349C19.1947 36.4327 15.0995 32.3053 15.1147 27.3401ZM23.2836 30.5632C25.0855 32.3559 28.2614 32.2476 29.9158 30.4105C31.5652 28.579 31.7823 25.8232 30.4417 23.6902C29.2799 21.8418 27.5832 20.9956 25.4001 21.037C26.7229 21.6552 27.8348 22.5112 28.4714 23.8381C29.1178 25.1851 29.139 26.5741 28.5225 27.9532C27.599 30.0189 25.7191 30.9775 23.2836 30.5632Z" fill="#F4F4F4"/>
</svg>
