<svg width="23" height="23" viewBox="0 0 23 23" fill="none" xmlns="http://www.w3.org/2000/svg">
<path d="M8.10228 1.76386C8.10228 1.36734 7.75123 1.0459 7.31818 1.0459C6.88514 1.0459 6.53409 1.36734 6.53409 1.76386V3.19979H6.27273C3.96318 3.19979 2.09091 4.91415 2.09091 7.02892V7.74688H20.9091V7.02892C20.9091 4.91415 19.0368 3.19979 16.7273 3.19979H16.4659V1.76386C16.4659 1.36734 16.1149 1.0459 15.6818 1.0459C15.2488 1.0459 14.8977 1.36734 14.8977 1.76386V3.19979H8.10228V1.76386Z" fill="#F4F4F4"/>
<path fill-rule="evenodd" clip-rule="evenodd" d="M2.09091 9.18281H20.9091V17.0804C20.9091 19.1952 19.0368 20.9095 16.7273 20.9095H6.27273C3.96318 20.9095 2.09091 19.1952 2.09091 17.0804V9.18281ZM11.5 15.1658C12.0774 15.1658 12.5455 14.7372 12.5455 14.2085C12.5455 13.6799 12.0774 13.2513 11.5 13.2513C10.9226 13.2513 10.4545 13.6799 10.4545 14.2085C10.4545 14.7372 10.9226 15.1658 11.5 15.1658ZM16.7273 14.2085C16.7273 14.7372 16.2592 15.1658 15.6818 15.1658C15.1044 15.1658 14.6364 14.7372 14.6364 14.2085C14.6364 13.6799 15.1044 13.2513 15.6818 13.2513C16.2592 13.2513 16.7273 13.6799 16.7273 14.2085ZM7.31818 15.1658C7.89557 15.1658 8.36364 14.7372 8.36364 14.2085C8.36364 13.6799 7.89557 13.2513 7.31818 13.2513C6.7408 13.2513 6.27273 13.6799 6.27273 14.2085C6.27273 14.7372 6.7408 15.1658 7.31818 15.1658Z" fill="#F4F4F4"/>
</svg>
