<svg width="300" height="208" viewBox="0 0 300 208" fill="none" xmlns="http://www.w3.org/2000/svg">
<mask id="mask0_2088_3117" style="mask-type:alpha" maskUnits="userSpaceOnUse" x="0" y="0" width="300" height="208">
<rect width="300" height="208" rx="20" fill="#A67C8C"/>
</mask>
<g mask="url(#mask0_2088_3117)">
<path d="M-56 30.0557C-54.9628 31.9299 -53.9635 33.8263 -52.8801 35.6733C-50.9035 39.0433 -48.2479 41.7423 -44.4892 43.8312C-45.5502 41.0462 -46.5631 38.5566 -47.1 35.9231C-48.1403 30.8217 -47.5485 25.8907 -45.3326 21.2082C-44.7725 20.0247 -44.8424 19.2873 -45.7083 18.3917C-46.9158 17.1426 -47.4704 15.5433 -47.7414 13.858C-47.9778 12.3882 -47.6046 11.0539 -46.6382 9.90795C-46.0241 9.17973 -45.2522 8.82222 -44.3078 9.13997C-43.4577 9.42601 -43.0551 10.0411 -42.9993 10.9671C-42.9232 12.2304 -42.7597 13.4934 -41.8853 14.8142C-40.1982 11.9119 -39.8909 8.80869 -39.4395 5.75309C-39.263 4.55808 -39.2592 3.33338 -39.0249 2.15229C-38.7935 0.985398 -38.2402 -0.0868003 -36.8042 0.00556269C-35.2602 0.10488 -34.8603 1.2676 -34.8107 2.57034C-34.6172 7.65543 -36.013 12.3965 -38.0004 17.0033C-39.1697 19.714 -40.4353 22.3745 -41.161 25.2691C-43.5982 34.9905 -39.355 45.5653 -30.8054 50.7223C-28.3329 52.2137 -25.6778 53.039 -22.7292 52.3293C-21.5878 52.0546 -21.1459 51.5941 -21.6455 50.3493C-22.2421 48.8629 -22.9159 47.388 -23.1141 45.7572C-23.2857 44.3464 -23.0791 43.0924 -21.5296 42.7289C-20.0973 42.3929 -19.5274 43.4683 -19.1608 44.6422C-18.6211 46.3709 -18.0755 48.0978 -17.5261 49.8234C-17.0441 51.3371 -16.0846 52.1177 -14.4136 52.1509C-12.9258 52.1805 -11.4613 52.0869 -9.99554 51.8945C-8.11202 51.6473 -7.43897 50.7778 -7.70779 48.8692C-8.08757 46.1727 -9.23959 43.7332 -10.303 41.2655C-12.2387 36.7738 -13.4264 32.1458 -12.7892 27.2014C-12.5821 25.5945 -12.1243 24.0479 -11.4086 22.5974C-11.073 21.9174 -10.5302 21.3733 -9.6514 21.5079C-8.7967 21.6389 -8.7232 22.326 -8.59075 23.0091C-8.11849 25.4451 -8.09878 27.9308 -7.61225 30.3786C-6.92398 33.8413 -5.78888 37.1243 -4.12695 40.1895C-0.300854 47.2465 1.40367 54.9655 3.33703 62.6641C3.76879 59.2923 4.96235 55.9471 3.14935 52.5357C1.28931 49.0359 0.0916252 45.3592 0.971989 41.3006C1.20233 40.2386 1.49495 39.1949 2.20526 38.3606C2.79037 37.6734 3.50443 37.2372 4.51788 37.5766C5.45279 37.8897 5.70188 38.6076 5.81146 39.4281C5.88231 39.9586 5.81807 40.5057 5.86497 41.0409C5.9764 42.3122 6.01221 43.6029 6.27201 44.8453C6.66297 46.715 7.31195 48.8367 9.22963 49.3163C10.897 49.7333 11.9214 47.8101 12.8732 46.5893C18.4722 39.408 18.8996 31.6178 15.3273 23.4574C13.1716 18.5332 10.2482 13.9712 8.42329 8.885C7.71804 6.91936 7.11585 4.93031 6.70981 2.88524C6.46349 1.64465 6.71101 0.534325 8.07111 0.132927C9.42197 -0.265739 10.27 0.489874 10.7191 1.68805C11.8045 4.58418 11.9828 7.72959 13.1523 10.6088C13.7013 11.9605 14.1095 13.3784 15.4408 14.7551C15.307 13.4411 15.1883 12.4994 15.1215 11.554C15.0594 10.6744 14.9565 9.71678 16.1607 9.49011C17.2372 9.28749 18.1631 9.52568 18.7459 10.5722C19.7524 12.3792 19.8909 14.3212 19.3138 16.23C18.792 17.9561 19.0348 19.3807 19.9006 20.9552C23.7376 27.9333 24.7685 35.2152 22.0333 42.8732C21.2257 45.1342 21.4279 45.3206 23.7861 44.9646C27.2626 44.4399 30.5949 43.4754 33.6573 41.665C38.4302 38.8434 40.5982 34.3522 41.7401 29.2048C41.9996 28.0349 42.0833 26.8223 42.1949 25.6245C42.284 24.667 42.2785 23.6284 43.5176 23.4693C44.7773 23.3076 45.2717 24.2135 45.5796 25.2434C46.4066 28.0092 46.4575 30.8056 45.7837 33.5985C44.2393 40.0006 40.5789 44.7162 34.5475 47.5057C31.1286 49.087 27.4972 50.1101 24.0063 51.496C18.7191 53.5952 14.2274 56.6234 12.3471 62.3822C12.1481 62.9917 11.4499 63.7902 12.4915 64.3103C13.2631 64.6956 14.0564 65.1056 14.9036 64.3325C19.3251 60.298 24.7173 59.0438 30.5052 58.9613C32.6745 58.9304 34.7561 58.4795 36.8095 57.7992C39.2364 56.9952 40.1805 57.6806 39.8098 60.2453C39.1479 64.8241 36.7048 68.4845 33.3616 71.5704C32.327 72.5254 31.165 73.3426 29.9239 74.3325C33.3298 76.7301 34.9747 80.1007 35.8961 84.1146C36.7335 87.7623 39.8556 89.9521 42.597 92.2098C45.7611 94.8155 48.9673 97.3979 52.3518 99.7018C57.2124 103.011 55.9067 107.485 52.2418 111.261C51.5305 111.994 50.8514 112.697 50.3924 113.613C47.6754 119.035 40.7656 121.317 35.2519 118.553C32.7147 117.281 30.159 116.113 27.3125 115.762C24.9371 115.468 24.6972 115.728 24.3798 118.087C24.1015 120.156 23.95 122.174 24.2654 124.285C24.8179 127.984 26.8276 130.54 29.8529 132.475C31.4999 133.528 33.2786 134.322 35.0445 135.151C44.9016 139.778 49.0409 149.692 45.5476 160.042C44.1313 164.237 41.8924 167.965 39.3619 171.541C38.7837 172.358 38.4073 173.151 38.5823 174.147C40.2036 183.374 36.4787 190.8 30.236 197.017C23.8699 203.357 15.696 206.282 6.91728 207.397C-9.05172 209.425 -24.0987 206.284 -38.2577 198.784C-46.0468 194.657 -52.0499 188.794 -55.3198 180.427C-55.4538 180.083 -55.5102 179.619 -56 179.514V152.854C-55.3197 152.308 -55.6095 151.473 -55.4145 150.786C-53.8028 145.109 -50.6513 140.331 -46.9228 135.86C-42.6842 130.777 -37.3077 126.834 -32.9587 121.868C-27.4297 115.554 -25.0309 108.044 -24.6066 99.7749C-26.3574 111.779 -32.3867 121.272 -41.527 128.991C-46.0332 132.796 -49.7981 137.249 -52.7455 142.377C-53.0207 142.855 -53.2161 143.507 -53.9417 143.551C-54.002 143.475 -54.0858 143.41 -54.0746 143.377C-53.9881 143.126 -53.9046 142.87 -53.7809 142.637C-50.8191 137.043 -46.9117 132.21 -42.0669 128.136C-31.2377 119.03 -26.6608 107.018 -25.8551 93.0434C-27.4243 97.3528 -27.9494 101.749 -29.6549 105.834C-32.6804 113.081 -36.4941 119.649 -42.9983 124.387C-46.4833 126.926 -49.7118 129.788 -52.3211 133.267C-53.5697 134.932 -54.775 136.629 -56 138.312V135.888C-55.7599 135.681 -55.4421 135.52 -55.2911 135.261C-52.7107 130.833 -49.075 127.353 -45.083 124.275C-33.1335 115.064 -29.5262 103.297 -27.5225 90.32C-28.3482 92.4596 -28.8614 94.515 -29.3266 96.5957C-31.1966 104.959 -34.6712 112.466 -41.3912 118.09C-46.5341 122.394 -51.9058 126.439 -56 131.849C-56 130.637 -56 129.425 -56 128.213C-55.3925 127.521 -54.7802 126.832 -54.1783 126.134C-51.2555 122.747 -47.5961 120.191 -44.1363 117.434C-38.9403 113.294 -36.1727 108.204 -36.4827 101.423C-36.654 97.6766 -36.0541 93.9494 -34.8787 90.3423C-33.732 86.8234 -31.9197 83.6485 -29.8257 80.6008C-38.2748 78.8466 -44.1769 73.9097 -48.2601 66.7106C-49.6211 64.3111 -48.6256 62.7999 -46.0664 63.2647C-41.4113 64.1101 -37.0067 62.9555 -32.5353 62.1296C-25.2876 60.7908 -18.0523 60.096 -10.8407 62.4157C-9.29921 62.9116 -7.8015 63.6572 -6.09044 63.7677C-6.65609 60.1641 -9.02037 58.1003 -12.5776 57.9392C-15.2115 57.8198 -17.8362 58.0671 -20.4162 58.4647C-27.9179 59.6208 -34.7943 58.2157 -41.158 54.0463C-46.7406 50.3888 -51.8775 46.2587 -56 40.9621V36.1148C-54.8101 37.2532 -54.2979 38.9556 -52.7657 39.8296C-53.8438 38.1874 -54.9219 36.5452 -56 34.903C-56 33.2872 -56 31.6715 -56 30.0557ZM-41.9719 67.6697C-39.9153 67.5986 -38.1291 67.6223 -36.3484 67.3763C-31.5145 66.7086 -26.6929 66.5392 -22.3472 69.3756C-18.6908 71.7623 -15.0384 74.1567 -11.4337 76.6201C-9.99958 77.6002 -8.77525 78.8316 -8.24982 80.9404C-10.1068 80.0556 -11.8254 79.585 -13.634 79.7659C-15.0265 79.9052 -16.5245 80.3162 -16.657 81.9067C-16.9107 84.9525 -17.2982 88.0194 -16.9638 91.082C-16.4191 96.0713 -15.6051 101.038 -15.235 106.038C-14.6251 114.279 -14.7983 122.498 -16.7502 130.607C-18.4926 137.846 -21.9614 144.04 -27.3439 149.214C-31.8159 153.513 -37.1969 156.655 -41.7633 160.845C-45.8113 164.559 -49.0327 168.687 -50.5398 174.052C-52.2434 180.117 -51.2669 185.372 -46.5628 189.898C-42.5647 193.744 -37.8936 196.446 -32.9741 198.822C-29.6582 200.423 -26.2785 201.864 -22.4999 202.674C-22.4692 198.701 -23.042 194.75 -20.7199 191.305C-20.6651 192.926 -20.9103 194.511 -20.9737 196.103C-21.0508 198.041 -21.0549 199.99 -20.9337 201.925C-20.8659 203.006 -18.6825 204.384 -17.7346 203.947C-16.6537 203.448 -17.6075 202.559 -17.6224 201.863C-17.6901 198.681 -18.5568 195.443 -16.7212 191.908C-16.1981 194.29 -16.4654 196.233 -16.3923 198.151C-16.3209 200.025 -16.1535 201.88 -15.6077 203.693C-15.236 204.927 -14.0505 204.916 -13.3079 204.825C-12.1595 204.684 -13.089 203.772 -13.1555 203.235C-13.5019 200.436 -13.9483 197.648 -13.9501 194.816C-13.9509 193.579 -13.7444 192.4 -13.0587 191.297C-12.8305 191.927 -12.7719 192.55 -12.7492 193.174C-12.615 196.866 -12.0772 200.497 -11.2262 204.093C-11.0214 204.959 -10.7154 205.327 -9.80743 205.416C-3.96396 205.993 1.85798 206.015 7.67463 205.079C9.76582 204.743 12.1364 205.132 12.9621 202.414C13.8217 202.892 12.6108 203.843 13.5092 203.946C14.2745 204.033 14.8596 203.435 15.0577 202.634C15.1375 202.311 15.1194 201.966 15.1557 201.631C15.9407 194.412 16.6991 187.192 16.206 179.91C16.1911 179.691 16.1829 179.346 16.8911 179.37C17.8056 182.798 18.1045 186.313 17.7247 189.926C17.3244 193.735 17.0349 197.556 16.7226 201.373C16.6887 201.789 16.4843 202.442 17.1814 202.494C17.8868 202.546 18.5431 202.237 18.6461 201.437C18.7573 200.573 18.7552 199.692 18.7732 198.817C18.7983 197.594 18.9855 196.423 19.7724 194.917C20.2042 197.418 19.8436 199.402 19.3149 201.437C33.0264 195.999 36.4405 185.702 33.504 172.221C35.6405 175.237 36.0214 178.561 36.236 182.262C37.5933 177.614 36.3555 173.573 35.0904 169.543C33.1177 163.259 28.8425 158.465 24.6424 153.65C21.4967 150.044 19.1673 146.049 17.8744 141.424C15.9286 134.463 14.9815 127.388 15.0984 120.161C15.1096 119.471 15.5604 118.572 14.3754 118.147C8.2021 115.934 3.80973 111.328 -0.460033 106.683C-2.61954 104.333 -3.91781 101.374 -4.23693 97.9906C-3.88083 98.0657 -3.68758 98.0512 -3.64493 98.1244C-3.37701 98.5842 -3.13779 99.0611 -2.89786 99.5367C-0.466484 104.357 3.14123 107.875 8.27485 109.761C11.8412 111.071 15.5694 111.554 19.297 112.052C25.1515 112.836 30.9999 113.462 36.3233 116.481C39.7446 118.421 43.2289 117.439 46.4624 115.558C47.1128 115.179 47.5405 114.558 47.8777 113.882C48.0236 113.59 48.3309 113.252 48.032 112.999C47.8319 112.83 47.3988 112.843 47.0964 112.905C46.1104 113.106 45.1462 113.422 44.1563 113.595C39.9019 114.34 35.8369 112.403 34.7292 109.158C34.5719 108.697 34.3243 108.13 34.7491 107.859C35.2273 107.554 35.5113 108.087 35.814 108.47C38.0462 111.297 40.9322 112.178 44.4217 111.364C48.2444 110.473 48.6171 109.461 46.1855 106.469C45.1186 105.157 44.8974 103.688 45.7073 102.15C46.5059 100.634 47.7758 100.697 49.1678 101.145C49.5929 101.281 50.0505 101.317 50.9152 101.478C48.0863 99.3203 45.5715 97.431 43.0878 95.5018C38.3244 91.802 33.6797 88.0259 32.6218 81.5207C32.3913 80.1034 31.4196 78.9827 30.3771 77.9942C28.9605 76.651 27.5691 75.2789 26.11 73.9831C20.3008 68.8241 13.4158 66.3586 5.73069 65.8929C4.39009 65.8117 4.06618 66.3182 4.42059 67.5544C4.72419 68.6134 4.53931 69.6876 4.24463 70.7379C3.6459 72.8719 1.2228 74.7022 -1.14571 74.4787C-3.43332 74.2627 -2.36949 72.1922 -2.67381 70.9753C-3.24883 68.676 -4.10117 66.8611 -6.69751 66.3225C-7.86702 66.0798 -8.98029 65.5309 -10.0941 65.0616C-15.4787 62.7933 -21.0664 62.8906 -26.7529 63.3736C-31.3949 63.7679 -35.8228 65.1792 -40.4028 65.843C-42.2591 66.112 -44.068 65.4064 -45.9662 65.7383C-40.929 75.0885 -29.9564 81.2534 -18.92 76.051C-19.5736 75.0078 -20.6901 75.3716 -21.7446 75.1551C-20.8191 74.2942 -21.0814 73.5802 -21.887 72.9326C-24.4523 70.8705 -27.1679 69.3124 -30.6691 69.5848C-33.3379 69.7924 -36.0221 70.0516 -38.7088 69.6446C-39.9779 69.4524 -41.1527 69.1918 -41.9719 67.6697ZM-24.422 110.907C-24.5837 111.263 -24.7689 111.611 -24.9036 111.977C-26.9142 117.444 -30.1754 122.061 -34.4647 125.967C-37.1467 128.409 -39.8986 130.775 -42.5623 133.236C-51.5534 141.546 -55.8419 151.748 -54.7657 164.035C-54.5606 166.377 -53.9298 168.648 -52.6175 170.675C-52.3012 168.223 -53.0723 165.893 -53.164 163.507C-53.6352 151.259 -48.5032 141.61 -39.3703 133.813C-35.852 130.81 -32.1061 128.053 -29.245 124.34C-26.1846 120.369 -24.352 115.949 -24.422 110.907ZM-20.1389 102.732C-20.2759 103.051 -20.3211 103.11 -20.3241 103.17C-20.3821 104.379 -20.4129 105.589 -20.4931 106.796C-21.0899 115.776 -24.5272 123.403 -31.3617 129.374C-33.8394 131.539 -36.404 133.604 -38.9135 135.733C-47.5474 143.057 -50.8226 152.502 -49.9221 163.592C-49.8602 164.354 -49.6979 165.086 -49.1325 165.783C-48.0158 164.336 -48.311 162.809 -48.3111 161.373C-48.3112 157.776 -47.6611 154.328 -46.5052 150.917C-44.0395 143.64 -38.9113 138.564 -33.0629 133.973C-27.8227 129.858 -23.3224 125.178 -21.493 118.43C-20.1104 113.331 -19.4291 108.238 -20.1389 102.732ZM31.9668 66.4351C31.6172 68.7959 29.759 69.859 28.1347 71.2672C31.7345 71.8165 37.2929 64.914 37.4365 60.0364C30.5141 61.8833 22.5308 59.9244 16.6666 65.7714C17.8245 66.2702 19.0711 66.5416 19.9795 67.2477C22.798 69.4387 24.9798 68.9116 27.3113 66.3568C29.0344 64.4688 31.4979 63.5563 34.4682 62.8357C32.8976 65.8227 29.354 65.9026 28.344 68.7612C29.5516 67.9858 30.7592 67.2105 31.9668 66.4351ZM23.4055 133.586C23.5824 133.826 23.7549 134.069 23.9368 134.305C25.8042 136.724 28.5067 138.012 31.0864 139.404C38.6808 143.501 41.6286 151.468 41.0872 159.598C40.9049 162.337 39.8976 164.844 39.2292 167.475C39.7776 166.936 40.287 166.385 40.6007 165.739C41.5064 163.872 42.4473 162.009 43.172 160.069C46.7848 150.4 42.9327 140.863 34.2702 137.059C31.8258 135.986 29.304 134.936 27.2327 133.193C23.756 130.266 22.582 126.244 22.1374 121.923C21.7635 127.018 23.4184 131.235 27.5312 134.411C29.4061 135.86 31.5558 136.825 33.6513 137.857C39.1147 140.545 41.9784 145.043 42.9625 150.873C43.1501 151.985 43.3237 153.265 42.0296 154.123C41.9476 153.84 41.8625 153.659 41.8451 153.471C41.2236 146.765 38.2511 141.67 31.9239 138.8C28.8879 137.422 25.8738 135.977 23.4055 133.586ZM24.0637 138.638C35.3791 143.904 40.0568 152.597 37.6963 164.942C41.0998 157.049 40.0426 144.025 24.0637 138.638ZM1.34444 71.5437C1.85124 70.6112 2.15102 69.641 1.97358 68.5681C1.71134 66.9826 1.46003 65.395 1.17416 63.8136C-0.797375 52.9075 -4.86909 42.7145 -9.65345 32.5157C-8.78824 39.5856 -4.05234 44.9811 -2.54182 51.6025C-1.03902 58.1901 0.951252 64.6662 1.34444 71.5437ZM-17.9279 103.856C-17.3517 116.351 -20.2985 127.289 -31.679 134.512C-19.6264 127.769 -16.7892 118.985 -17.9279 103.856ZM32.3476 45.5485C15.6086 48.8618 9.83741 56.6143 9.32348 63.7013C9.49431 63.4965 9.68598 63.369 9.72539 63.2048C11.662 55.1415 17.3164 50.898 24.7871 48.485C27.2479 47.6902 29.6967 46.847 32.3476 45.5485ZM-39.4633 51.145C-35.2876 54.5578 -30.6565 56.5021 -25.213 56.2406C-19.5164 55.967 -13.847 55.409 -8.1717 54.8722C-11.8376 54.3905 -15.4579 55.1088 -19.0965 55.3193C-25.017 55.6619 -30.9148 55.9184 -36.3116 52.7385C-37.3237 52.1421 -38.4108 51.6729 -39.4633 51.145ZM-45.916 161.932C-43.8239 159.178 -45.2269 155.779 -44.2579 152.769C-43.2638 149.68 -41.9412 146.73 -40.8444 143.698C-44.2569 149.273 -46.9835 155.055 -45.916 161.932ZM-42.5239 158.827C-41.2608 153.489 -40.4681 147.99 -37.14 143.372C-41.3393 147.659 -43.3577 152.732 -42.5239 158.827ZM49.9862 110.248C50.598 110.305 50.8854 109.997 51.1284 109.694C52.5463 107.924 52.1003 105.442 53.7512 103.593C52.7162 103.593 52.0022 103.607 51.289 103.589C50.4853 103.569 49.6793 103.552 48.8803 103.472C48.4138 103.426 47.797 102.756 47.5427 103.501C47.2597 104.331 48.189 104.367 48.6901 104.582C50.813 105.496 51.1638 106.159 50.5715 108.384C50.4066 109.003 50.1889 109.607 49.9862 110.248ZM18.4643 42.922C22.1639 36.3069 21.8525 29.6867 18.5095 23.0726C21.0096 29.6957 21.067 36.3082 18.4643 42.922ZM-30.926 86.8714C-33.9161 92.1931 -34.5432 97.9779 -34.3508 103.923C-33.6726 98.1485 -32.6223 92.4467 -30.926 86.8714ZM-42.2619 40.5602C-42.7318 38.7583 -43.2756 36.9716 -43.6509 35.1502C-44.0284 33.3183 -44.4541 31.4688 -44.2952 29.5771C-44.1465 27.8069 -43.9038 26.0446 -43.7025 24.2788C-46.2161 29.9682 -44.9424 35.3631 -42.2619 40.5602ZM-39.1575 155.417C-37.6797 152.218 -37.8796 148.499 -36.1283 145.384C-38.2802 148.375 -39.2472 151.732 -39.1575 155.417ZM7.90486 51.9697C5.50014 49.72 3.92509 47.0533 3.56626 43.2164C2.50158 46.9999 4.18689 50.1949 7.90486 51.9697ZM-31.115 97.428C-30.5012 94.6589 -29.8874 91.8897 -29.2736 89.1205C-30.7471 91.7231 -31.4543 94.4904 -31.115 97.428ZM-42.9279 17.2477C-43.8849 15.7858 -44.9086 14.367 -45.6397 12.7592C-45.5924 14.7678 -44.8217 16.3435 -42.9279 17.2477ZM33.2091 148.921C34.3154 151.17 35.1548 153.527 36.0196 155.874C35.7253 153.297 34.8645 150.948 33.2091 148.921ZM34.3681 159.186C34.5593 156.732 33.7277 154.529 32.7218 152.367C33.1791 154.662 34.0501 156.862 34.3681 159.186ZM-0.0240211 71.2329C0.290157 69.0786 0.0169144 66.9606 -0.884777 64.9282C-0.581486 67.014 -0.0316086 69.0686 -0.0240211 71.2329ZM-35.2161 152.029C-34.7918 150.32 -34.3676 148.61 -33.8038 146.338C-34.9028 148.462 -35.6862 150.074 -35.2161 152.029Z" fill="#4C3A41"/>
<path d="M23.6378 94.8053C22.4901 94.9551 22.0257 94.5163 21.5541 94.1944C20.1229 93.2179 18.6608 93.0758 16.9828 93.5578C12.2735 94.9105 7.45071 92.6596 6.2925 88.5489C5.90906 87.188 4.67453 86.835 3.62492 86.2947C1.80011 85.3553 0.414533 84.0855 -0.0775757 81.8885C3.31753 84.261 6.41541 82.4581 9.52028 81.4425C14.5387 79.801 18.2827 81.4212 20.2103 86.2629C21.3293 89.0733 21.9278 92.0686 23.6378 94.8053ZM8.85531 89.4615C9.61882 91.653 11.8562 92.749 15.4497 92.4519C12.5374 92.2037 10.5549 91.2255 8.85531 89.4615Z" fill="#4C3A41"/>
<path d="M17.5215 150.318C12.4467 140.591 13.0364 130.004 12.9935 119.509C14.0908 129.834 14.5085 140.263 17.5215 150.318Z" fill="#4C3A41"/>
<path d="M23.3419 181.618C22.9209 180.059 22.5678 178.949 22.3239 177.815C21.2461 172.807 19.2184 168.145 17.1726 163.486C16.7964 162.63 16.5035 161.736 16.1754 160.859C16.057 160.542 15.9033 160.2 16.3987 160.063C16.7079 159.978 16.9216 160.173 17.0403 160.411C20.2408 166.825 23.7327 173.146 23.6513 180.631C23.6495 180.798 23.5515 180.963 23.3419 181.618Z" fill="#4C3A41"/>
<path d="M24.031 169.775C21.7199 164.4 19.6076 159.518 17.5388 154.617C17.376 154.231 16.7463 153.613 17.5937 153.29C18.1932 153.062 18.3574 153.663 18.5378 154.085C20.3779 158.38 22.7265 162.455 24.116 166.948C24.3533 167.716 24.5734 168.441 24.031 169.775Z" fill="#4C3A41"/>
<path d="M19.7292 189.896C20.5923 184.522 19.0841 179.374 18.0815 173.826C21.2325 176.734 22.1684 186.215 19.7292 189.896Z" fill="#4C3A41"/>
<path d="M29.4458 193.558C29.219 192.269 29.6337 191.098 29.931 189.905C30.5304 187.499 31.1434 185.094 31.2876 182.603C31.3104 182.209 31.2877 181.724 31.8633 181.751C32.2334 181.769 32.4404 182.079 32.4295 182.457C32.3151 186.396 31.6296 190.181 29.4458 193.558Z" fill="#4C3A41"/>
<path d="M11.244 133.692C10.469 130.344 10.3147 126.966 10.7585 123.561C11.6894 126.902 11.5181 130.295 11.244 133.692Z" fill="#4C3A41"/>
<path d="M24.4922 89.4366C21.9239 87.9912 21.6483 85.2634 20.6892 82.9179C20.8632 82.8173 21.0373 82.7168 21.2113 82.6162C22.4618 84.7813 23.7124 86.9464 24.9629 89.1115C24.806 89.2199 24.6491 89.3283 24.4922 89.4366Z" fill="#4C3A41"/>
<path d="M13.8306 191.564C13.8656 194.06 13.5069 196.531 13.0675 198.994C13.0024 199.359 12.7388 199.574 12.3517 199.553C11.9852 199.532 11.9352 199.216 11.9737 198.969C12.3622 196.473 12.773 193.981 13.1775 191.487C13.3952 191.513 13.6129 191.538 13.8306 191.564Z" fill="#4C3A41"/>
<path d="M27.3762 64.3613C25.9716 65.3588 24.5671 66.3563 23.0269 67.4501C23.5597 65.7895 24.4575 65.1322 27.3762 64.3613Z" fill="#4C3A41"/>
</g>
</svg>
