<svg width="900" height="550" viewBox="0 0 900 550" fill="none" xmlns="http://www.w3.org/2000/svg">
<mask id="mask0_2062_143" style="mask-type:alpha" maskUnits="userSpaceOnUse" x="0" y="0" width="900" height="550">
<rect width="900" height="550" rx="30" fill="#A67C8C"/>
</mask>
<g mask="url(#mask0_2062_143)">
<path d="M-53 85.0964C-50.3394 89.9038 -47.7761 94.7683 -44.9971 99.5063C-39.9268 108.151 -33.1149 115.074 -23.4734 120.432C-26.1949 113.288 -28.7931 106.902 -30.1706 100.147C-32.8389 87.0613 -31.3208 74.4128 -25.6368 62.4014C-24.2001 59.3656 -24.3796 57.4742 -26.6005 55.1768C-29.6979 51.9729 -31.1206 47.8704 -31.8158 43.5475C-32.4221 39.7773 -31.4647 36.3545 -28.9859 33.4151C-27.4106 31.5471 -25.4307 30.63 -23.0082 31.4451C-20.8274 32.1788 -19.7948 33.7567 -19.6517 36.132C-19.4564 39.3725 -19.0371 42.6121 -16.7941 46.0001C-12.4665 38.5554 -11.6783 30.5953 -10.5204 22.7574C-10.0675 19.692 -10.0578 16.5505 -9.45688 13.5209C-8.86322 10.5277 -7.4439 7.77735 -3.76046 8.01427C0.200111 8.26903 1.22591 11.2515 1.35306 14.5932C1.84939 27.6371 -1.73106 39.7985 -6.82885 51.6156C-9.82834 58.5686 -13.0747 65.3932 -14.9362 72.8183C-21.1879 97.7549 -10.3037 124.88 11.627 138.109C17.9693 141.934 24.7801 144.051 32.3435 142.231C35.2714 141.526 36.4048 140.345 35.1233 137.152C33.5929 133.339 31.8647 129.556 31.3561 125.373C30.9161 121.754 31.4461 118.537 35.4207 117.605C39.0948 116.743 40.5566 119.501 41.4968 122.512C42.8813 126.947 44.2808 131.376 45.6902 135.803C46.9265 139.686 49.3877 141.688 53.674 141.773C57.4904 141.849 61.247 141.609 65.0069 141.115C69.8383 140.481 71.5648 138.251 70.8752 133.355C69.901 126.438 66.946 120.181 64.2181 113.851C59.2529 102.329 56.2063 90.4578 57.8409 77.7747C58.3721 73.653 59.5462 69.6856 61.3823 65.9649C62.243 64.2206 63.6355 62.8251 65.8896 63.1704C68.082 63.5062 68.2706 65.2688 68.6103 67.0212C69.8217 73.2697 69.8723 79.6459 71.1203 85.9246C72.8858 94.8069 75.7974 103.228 80.0605 111.091C89.8749 129.193 94.2472 148.993 99.2065 168.741C100.314 160.092 103.376 151.511 98.7251 142.76C93.9538 133.783 90.8816 124.352 93.1399 113.941C93.7307 111.217 94.4813 108.54 96.3033 106.4C97.8042 104.637 99.6359 103.518 102.235 104.388C104.634 105.192 105.273 107.033 105.554 109.138C105.735 110.498 105.571 111.902 105.691 113.275C105.977 116.536 106.069 119.847 106.735 123.034C107.738 127.83 109.403 133.272 114.322 134.502C118.599 135.572 121.226 130.639 123.668 127.507C138.03 109.086 139.126 89.1033 129.963 68.1711C124.433 55.5399 116.934 43.8378 112.253 30.7911C110.444 25.749 108.9 20.6468 107.858 15.401C107.226 12.2187 107.861 9.37061 111.35 8.34097C114.815 7.31835 116.99 9.25658 118.142 12.3301C120.927 19.759 121.384 27.8273 124.384 35.2127C125.792 38.68 126.839 42.3172 130.254 45.8487C129.911 42.478 129.606 40.0623 129.435 37.6372C129.276 35.381 129.012 32.9247 132.101 32.3432C134.862 31.8235 137.237 32.4345 138.732 35.1188C141.314 39.754 141.669 44.7356 140.189 49.6318C138.85 54.0594 139.473 57.7137 141.694 61.7526C151.536 79.6521 154.181 98.3312 147.165 117.975C145.093 123.775 145.612 124.253 151.661 123.34C160.578 121.993 169.126 119.519 176.982 114.876C189.225 107.638 194.786 96.1175 197.715 82.9137C198.381 79.9127 198.595 76.8024 198.881 73.7298C199.11 71.2738 199.096 68.6097 202.274 68.2016C205.506 67.7867 206.774 70.1106 207.564 72.7523C209.685 79.8469 209.815 87.02 208.087 94.1842C204.126 110.606 194.736 122.702 179.265 129.858C170.495 133.914 161.18 136.538 152.226 140.093C138.663 145.478 127.142 153.246 122.318 168.018C121.808 169.581 120.017 171.629 122.689 172.964C124.668 173.952 126.703 175.003 128.876 173.02C140.218 162.671 154.05 159.454 168.896 159.243C174.46 159.163 179.8 158.007 185.067 156.262C191.293 154.199 193.714 155.958 192.763 162.536C191.065 174.281 184.799 183.671 176.223 191.586C173.569 194.036 170.589 196.132 167.405 198.672C176.141 204.822 180.361 213.468 182.724 223.764C184.872 233.121 192.881 238.738 199.913 244.529C208.029 251.213 216.253 257.837 224.935 263.747C237.403 272.234 234.054 283.711 224.653 293.399C222.828 295.279 221.086 297.081 219.909 299.431C212.94 313.34 195.215 319.193 181.072 312.102C174.564 308.838 168.008 305.845 160.706 304.943C154.613 304.19 153.998 304.856 153.184 310.908C152.47 316.215 152.081 321.39 152.89 326.807C154.307 336.294 159.463 342.851 167.223 347.813C171.447 350.514 176.01 352.552 180.54 354.678C205.824 366.546 216.442 391.979 207.481 418.525C203.849 429.288 198.106 438.851 191.615 448.023C190.131 450.119 189.166 452.153 189.615 454.708C193.774 478.375 184.219 497.426 168.206 513.373C151.876 529.635 130.909 537.139 108.39 539.998C67.4279 545.199 28.8307 537.144 -7.48895 517.904C-27.4689 507.319 -42.8677 492.278 -51.2551 470.815C-51.599 469.935 -51.7435 468.745 -53 468.474V400.088C-51.2548 398.689 -51.9984 396.545 -51.4981 394.784C-47.364 380.222 -39.28 367.966 -29.716 356.496C-18.8434 343.458 -5.05194 333.344 6.10361 320.606C20.2863 304.411 26.4393 285.146 27.5277 263.935C23.0368 294.725 7.57097 319.076 -15.875 338.876C-27.434 348.638 -37.0913 360.059 -44.6519 373.213C-45.3576 374.441 -45.8591 376.111 -47.7203 376.225C-47.8749 376.03 -48.0898 375.863 -48.0611 375.78C-47.8392 375.136 -47.625 374.479 -47.3077 373.88C-39.7105 359.531 -29.6876 347.135 -17.2601 336.685C10.5182 313.327 22.2586 282.514 24.3251 246.667C20.3 257.721 18.9531 268.998 14.5784 279.476C6.81753 298.065 -2.96518 314.914 -19.6492 327.067C-28.5887 333.579 -36.8699 340.922 -43.5632 349.846C-46.766 354.117 -49.8579 358.47 -53 362.786V356.569C-52.384 356.038 -51.5688 355.624 -51.1817 354.959C-44.5626 343.603 -35.2365 334.675 -24.9966 326.781C5.65527 303.152 14.9083 272.968 20.0482 239.681C17.93 245.17 16.6138 250.442 15.4204 255.779C10.6237 277.232 1.71096 296.489 -15.5267 310.914C-28.7188 321.954 -42.498 332.331 -53 346.208C-53 343.099 -53 339.991 -53 336.882C-51.4417 335.105 -49.8711 333.339 -48.3271 331.549C-40.8297 322.859 -31.4431 316.304 -22.5683 309.233C-9.23985 298.613 -2.14069 285.555 -2.93587 268.163C-3.37526 258.552 -1.8364 248.991 1.17868 239.739C4.12008 230.712 8.76884 222.568 14.1401 214.751C-7.53281 210.251 -22.6724 197.587 -33.1464 179.12C-36.6374 172.966 -34.0839 169.089 -27.5191 170.281C-15.5783 172.45 -4.28003 169.488 7.18976 167.37C25.7808 163.936 44.3404 162.153 62.8389 168.104C66.793 169.376 70.6348 171.288 75.0239 171.572C73.5729 162.328 67.5083 157.034 58.3835 156.621C51.6274 156.315 44.8946 156.949 38.2767 157.969C19.0339 160.935 1.39523 157.33 -14.9286 146.635C-29.2485 137.253 -42.4254 126.659 -53 113.073V100.639C-49.9478 103.559 -48.634 107.926 -44.7038 110.168C-47.4692 105.955 -50.2346 101.743 -53 97.5303C-53 93.3856 -53 89.241 -53 85.0964ZM-17.0163 181.581C-11.7407 181.398 -7.15914 181.459 -2.59121 180.828C9.80824 179.115 22.1761 178.681 33.3233 185.957C42.7025 192.079 52.0714 198.221 61.3178 204.54C64.9965 207.054 68.137 210.212 69.4848 215.622C64.7214 213.352 60.3132 212.145 55.6738 212.609C52.1019 212.966 48.2593 214.021 47.9195 218.1C47.2687 225.913 46.2747 233.78 47.1324 241.636C48.5298 254.434 50.6176 267.174 51.567 280C53.1316 301.139 52.6873 322.222 47.6804 343.022C43.2109 361.59 34.313 377.48 20.5064 390.753C9.03511 401.78 -4.76784 409.839 -16.4811 420.586C-26.8649 430.113 -35.1282 440.702 -38.9939 454.464C-43.3639 470.02 -40.859 483.5 -28.7925 495.11C-18.5368 504.977 -6.55493 511.908 6.06406 518.002C14.5699 522.11 23.2392 525.805 32.9317 527.883C33.0105 517.692 31.5412 507.556 37.4975 498.72C37.6382 502.878 37.0092 506.943 36.8467 511.027C36.6489 515.998 36.6384 520.998 36.9492 525.96C37.123 528.736 42.7238 532.269 45.1552 531.147C47.928 529.868 45.4812 527.589 45.4432 525.802C45.2694 517.64 43.0463 509.334 47.7547 500.267C49.0965 506.376 48.4108 511.361 48.5983 516.28C48.7816 521.089 49.2109 525.847 50.6109 530.496C51.5646 533.662 54.6054 533.634 56.5103 533.4C59.4561 533.038 57.0717 530.699 56.9013 529.322C56.0125 522.141 54.8677 514.991 54.863 507.727C54.861 504.553 55.3905 501.529 57.1494 498.698C57.7349 500.316 57.8852 501.913 57.9434 503.514C58.2878 512.985 59.6672 522.298 61.8501 531.523C62.3753 533.743 63.1604 534.688 65.4894 534.917C80.4786 536.396 95.4126 536.452 110.333 534.052C115.697 533.19 121.778 534.188 123.896 527.216C126.101 528.442 122.995 530.881 125.299 531.144C127.262 531.368 128.763 529.834 129.271 527.78C129.476 526.953 129.43 526.065 129.523 525.208C131.536 506.69 133.482 488.17 132.217 469.492C132.179 468.928 132.158 468.045 133.974 468.106C136.32 476.899 137.087 485.915 136.113 495.183C135.086 504.953 134.343 514.754 133.542 524.547C133.455 525.612 132.931 527.287 134.719 527.421C136.528 527.556 138.212 526.763 138.476 524.71C138.761 522.492 138.756 520.233 138.802 517.99C138.866 514.852 139.347 511.847 141.365 507.986C142.473 514.4 141.548 519.489 140.192 524.71C175.363 510.76 184.121 484.348 176.588 449.766C182.069 457.503 183.046 466.029 183.596 475.524C187.078 463.601 183.903 453.234 180.658 442.897C175.598 426.78 164.631 414.481 153.857 402.131C145.788 392.88 139.813 382.632 136.497 370.768C131.505 352.913 129.076 334.766 129.376 316.228C129.405 314.457 130.561 312.152 127.521 311.062C111.686 305.383 100.419 293.57 89.4666 281.654C83.9272 275.627 80.597 268.036 79.7784 259.357C80.6918 259.55 81.1875 259.513 81.2969 259.701C81.9842 260.88 82.5978 262.103 83.2133 263.323C89.45 275.687 98.7042 284.712 111.873 289.55C121.021 292.911 130.584 294.148 140.146 295.427C155.163 297.437 170.165 299.043 183.82 306.787C192.596 311.764 201.534 309.245 209.828 304.419C211.497 303.448 212.594 301.855 213.458 300.121C213.833 299.371 214.621 298.504 213.854 297.856C213.341 297.422 212.23 297.456 211.454 297.614C208.925 298.13 206.452 298.94 203.913 299.385C193 301.295 182.572 296.327 179.731 288.003C179.328 286.821 178.692 285.366 179.782 284.672C181.009 283.89 181.737 285.255 182.514 286.238C188.239 293.491 195.642 295.75 204.594 293.663C214.399 291.377 215.355 288.781 209.118 281.106C206.381 277.739 205.814 273.972 207.891 270.028C209.94 266.139 213.197 266.299 216.768 267.448C217.858 267.799 219.032 267.891 221.25 268.303C213.994 262.768 207.543 257.922 201.172 252.973C188.953 243.483 177.039 233.797 174.325 217.11C173.734 213.475 171.242 210.6 168.567 208.064C164.934 204.619 161.364 201.099 157.622 197.775C142.721 184.542 125.06 178.218 105.347 177.023C101.908 176.815 101.077 178.114 101.986 181.285C102.765 184.002 102.29 186.757 101.535 189.451C99.9988 194.925 93.7832 199.62 87.7077 199.047C81.8397 198.493 84.5686 193.181 83.788 190.06C82.313 184.162 80.1266 179.507 73.4667 178.125C70.4668 177.503 67.6111 176.094 64.754 174.891C50.9419 169.072 36.6088 169.322 22.0222 170.561C10.1149 171.572 -1.24319 175.192 -12.9914 176.895C-17.7529 177.585 -22.3931 175.775 -27.2622 176.627C-14.3412 200.611 13.805 216.425 42.1147 203.08C40.438 200.404 37.5741 201.337 34.8692 200.782C37.2431 198.573 36.5704 196.742 34.5039 195.081C27.9236 189.791 20.9577 185.794 11.9768 186.493C5.13091 187.026 -1.75437 187.691 -8.64602 186.647C-11.9014 186.154 -14.915 185.485 -17.0163 181.581ZM28.0013 292.489C27.5865 293.403 27.1113 294.295 26.7658 295.235C21.6085 309.259 13.2432 321.101 2.24062 331.119C-4.63914 337.384 -11.698 343.453 -18.5307 349.767C-41.5939 371.082 -52.5945 397.252 -49.8339 428.768C-49.3076 434.776 -47.6898 440.602 -44.3234 445.801C-43.5122 439.511 -45.49 433.535 -45.7254 427.416C-46.934 395.998 -33.7697 371.245 -10.3429 351.247C-1.31788 343.543 8.29063 336.471 15.6297 326.947C23.4799 316.76 28.1808 305.424 28.0013 292.489ZM38.988 271.519C38.6366 272.339 38.5205 272.489 38.513 272.644C38.364 275.744 38.2851 278.848 38.0793 281.944C36.5485 304.978 27.7315 324.542 10.2001 339.86C3.84454 345.413 -2.73401 350.71 -9.17115 356.17C-31.3181 374.957 -39.7193 399.186 -37.4096 427.632C-37.2508 429.587 -36.8343 431.466 -35.3841 433.254C-32.5195 429.54 -33.2768 425.624 -33.277 421.94C-33.2772 412.713 -31.6098 403.871 -28.6446 395.12C-22.3199 376.453 -9.16549 363.434 5.8363 351.655C19.2781 341.102 30.8219 329.096 35.5145 311.788C39.0611 298.707 40.8086 285.643 38.988 271.519ZM172.645 178.414C171.749 184.47 166.982 187.196 162.815 190.809C172.049 192.218 186.307 174.512 186.676 162.001C168.919 166.738 148.441 161.713 133.398 176.711C136.368 177.991 139.566 178.687 141.896 180.498C149.126 186.118 154.723 184.766 160.703 178.213C165.123 173.37 171.442 171.029 179.062 169.181C175.033 176.843 165.943 177.048 163.352 184.381C166.45 182.392 169.548 180.403 172.645 178.414ZM150.685 350.665C151.138 351.28 151.581 351.903 152.047 352.507C156.837 358.713 163.77 362.017 170.387 365.587C189.867 376.097 197.429 396.534 196.04 417.388C195.572 424.412 192.989 430.844 191.274 437.592C192.681 436.212 193.988 434.797 194.792 433.139C197.116 428.35 199.529 423.572 201.388 418.597C210.655 393.793 200.774 369.329 178.554 359.573C172.283 356.82 165.815 354.128 160.502 349.655C151.584 342.147 148.572 331.832 147.432 320.747C146.472 333.817 150.718 344.632 161.267 352.781C166.077 356.496 171.591 358.973 176.966 361.618C190.98 368.515 198.326 380.052 200.851 395.007C201.332 397.858 201.777 401.142 198.458 403.344C198.247 402.618 198.029 402.153 197.984 401.671C196.39 384.47 188.765 371.401 172.535 364.038C164.747 360.504 157.016 356.797 150.685 350.665ZM152.373 363.622C181.398 377.13 193.397 399.428 187.342 431.096C196.072 410.849 193.361 377.441 152.373 363.622ZM94.0953 191.518C95.3953 189.126 96.1642 186.637 95.7091 183.885C95.0364 179.818 94.3918 175.746 93.6585 171.69C88.6012 143.714 78.1568 117.568 65.8844 91.4065C68.1037 109.542 80.2519 123.382 84.1265 140.367C87.9814 157.265 93.0867 173.876 94.0953 191.518ZM44.6593 274.403C46.1373 306.454 38.5786 334.511 9.38631 353.039C40.3027 335.741 47.5802 313.21 44.6593 274.403ZM173.622 124.837C130.685 133.336 115.881 153.222 114.562 171.401C115.001 170.876 115.492 170.549 115.593 170.128C120.561 149.444 135.065 138.559 154.228 132.37C160.541 130.331 166.822 128.168 173.622 124.837ZM-10.5814 139.193C0.12986 147.947 12.0092 152.934 25.9723 152.264C40.5847 151.562 55.1273 150.13 69.6852 148.754C60.2817 147.518 50.9954 149.361 41.6618 149.901C26.4751 150.779 11.3465 151.437 -2.49684 143.281C-5.09309 141.751 -7.88163 140.547 -10.5814 139.193ZM-27.1334 423.375C-21.767 416.311 -25.3656 407.592 -22.8801 399.869C-20.3301 391.946 -16.9376 384.379 -14.1242 376.602C-22.8777 390.903 -29.8717 405.735 -27.1334 423.375ZM-18.4323 415.409C-15.1922 401.718 -13.1589 387.613 -4.62185 375.766C-15.3936 386.763 -20.571 399.776 -18.4323 415.409ZM218.867 290.798C220.436 290.945 221.174 290.155 221.797 289.377C225.434 284.838 224.29 278.47 228.525 273.728C225.87 273.728 224.038 273.764 222.209 273.718C220.147 273.667 218.08 273.622 216.03 273.419C214.834 273.299 213.252 271.581 212.599 273.493C211.873 275.62 214.257 275.713 215.543 276.266C220.988 278.609 221.888 280.311 220.368 286.017C219.946 287.605 219.387 289.156 218.867 290.798ZM138.01 118.1C147.5 101.131 146.701 84.1499 138.126 67.184C144.539 84.1731 144.686 101.135 138.01 118.1ZM11.3177 230.835C3.64788 244.486 2.0392 259.325 2.5327 274.576C4.27247 259.763 6.96667 245.137 11.3177 230.835ZM-17.7601 112.042C-18.9655 107.42 -20.3604 102.836 -21.3232 98.1643C-22.2915 93.4653 -23.3833 88.7211 -22.9758 83.8687C-22.5945 79.328 -21.9719 74.8075 -21.4554 70.2781C-27.9031 84.872 -24.636 98.7106 -17.7601 112.042ZM-9.79704 406.663C-6.00633 398.456 -6.51904 388.918 -2.02662 380.928C-7.54651 388.6 -10.0271 397.212 -9.79704 406.663ZM110.924 141.308C104.755 135.538 100.715 128.697 99.7945 118.855C97.0634 128.56 101.386 136.756 110.924 141.308ZM10.8329 257.914C12.4074 250.811 13.9818 243.708 15.5563 236.605C11.7768 243.28 9.96254 250.379 10.8329 257.914ZM-19.4684 52.2424C-21.9234 48.4924 -24.5493 44.8531 -26.4247 40.7288C-26.3033 45.8812 -24.3263 49.9229 -19.4684 52.2424ZM175.832 390C178.67 395.77 180.823 401.816 183.041 407.836C182.286 401.224 180.078 395.2 175.832 390ZM178.805 416.332C179.295 410.036 177.162 404.384 174.582 398.839C175.755 404.727 177.989 410.369 178.805 416.332ZM90.585 190.721C91.3909 185.195 90.69 179.762 88.377 174.548C89.155 179.899 90.5655 185.169 90.585 190.721ZM0.313221 397.972C1.40145 393.587 2.48967 389.202 3.93596 383.375C1.1168 388.823 -0.892593 392.956 0.313221 397.972Z" fill="#4C3A41"/>
<path d="M151.28 251.188C148.336 251.572 147.145 250.447 145.935 249.621C142.264 247.116 138.514 246.752 134.21 247.988C122.13 251.458 109.759 245.684 106.788 235.139C105.804 231.649 102.637 230.743 99.945 229.357C95.2641 226.948 91.7099 223.69 90.4476 218.055C99.1565 224.141 107.103 219.516 115.067 216.911C127.94 212.7 137.544 216.856 142.489 229.276C145.359 236.485 146.894 244.168 151.28 251.188ZM113.362 237.48C115.32 243.102 121.059 245.913 130.277 245.151C122.807 244.515 117.721 242.005 113.362 237.48Z" fill="#4C3A41"/>
<path d="M-25.6321 439.196C-28.6714 443.807 -30.2418 448.901 -31.6279 454.111C-35.4747 468.571 -29.9317 483.84 -18.1216 489.866C-11.0934 493.452 -3.83129 493.794 2.97855 489.344C8.91933 485.461 11.5658 479.615 11.2418 472.564C10.8978 465.078 5.53474 459.505 -0.925716 459.658C-5.84263 459.774 -8.73889 463.424 -6.97524 467.41C-6.44442 468.609 -5.89772 470.162 -4.25701 470.21C-2.79035 470.253 -2.60889 468.736 -1.91603 467.803C-1.05445 466.642 -1.18353 463.879 1.52462 465.224C3.88821 466.397 3.10685 468.474 2.54268 470.173C1.65786 472.838 -0.319176 474.614 -3.23167 474.525C-6.67776 474.42 -9.6197 472.958 -11.3624 469.844C-14.1192 464.918 -11.6013 458.521 -6.08979 456.138C1.08176 453.037 9.27215 456.132 13.136 463.592C17.8521 472.698 16.372 481.266 10.2932 489.16C4.98562 496.052 -5.0781 498.717 -14.608 496.02C-33.424 490.695 -42.2826 468.209 -32.9602 449.286C-31.1699 445.652 -29.0976 442.156 -27.1555 438.597C-26.6477 438.797 -26.1399 438.996 -25.6321 439.196Z" fill="#4C3A41"/>
<path d="M135.591 393.584C122.574 368.632 124.086 341.475 123.976 314.555C126.791 341.041 127.863 367.79 135.591 393.584Z" fill="#4C3A41"/>
<path d="M150.521 473.869C149.441 469.871 148.536 467.024 147.91 464.116C145.145 451.269 139.944 439.311 134.696 427.36C133.731 425.163 132.98 422.871 132.138 420.62C131.835 419.808 131.44 418.931 132.711 418.58C133.504 418.36 134.052 418.861 134.357 419.471C142.567 435.925 151.524 452.139 151.315 471.339C151.31 471.766 151.059 472.191 150.521 473.869Z" fill="#4C3A41"/>
<path d="M152.289 443.492C146.361 429.705 140.942 417.181 135.636 404.611C135.218 403.622 133.603 402.036 135.777 401.208C137.314 400.622 137.736 402.165 138.198 403.245C142.918 414.264 148.943 424.716 152.507 436.242C153.116 438.211 153.68 440.071 152.289 443.492Z" fill="#4C3A41"/>
<path d="M141.254 495.107C143.468 481.322 139.599 468.116 137.028 453.884C145.11 461.344 147.511 485.665 141.254 495.107Z" fill="#4C3A41"/>
<path d="M166.179 504.502C165.597 501.194 166.661 498.191 167.423 495.129C168.961 488.958 170.533 482.79 170.903 476.4C170.962 475.388 170.903 474.145 172.38 474.214C173.329 474.259 173.86 475.056 173.832 476.024C173.538 486.13 171.78 495.837 166.179 504.502Z" fill="#4C3A41"/>
<path d="M-8.65552 191.214C-1.69929 190.739 5.28547 191.416 12.1488 189.851C12.9919 189.659 14.3779 189.42 14.6346 190.89C14.7964 191.816 14.2406 192.523 13.29 192.773C5.79647 194.74 -1.63345 195.82 -8.65552 191.214Z" fill="#4C3A41"/>
<path d="M119.489 350.937C117.501 342.347 117.105 333.683 118.244 324.948C120.631 333.519 120.192 342.222 119.489 350.937Z" fill="#4C3A41"/>
<path d="M153.472 237.415C146.884 233.707 146.177 226.71 143.717 220.693C144.163 220.435 144.61 220.177 145.056 219.919C148.264 225.473 151.472 231.027 154.679 236.581C154.277 236.859 153.875 237.137 153.472 237.415Z" fill="#4C3A41"/>
<path d="M126.124 499.384C126.213 505.787 125.293 512.124 124.166 518.443C123.999 519.379 123.323 519.932 122.33 519.876C121.39 519.823 121.262 519.014 121.361 518.379C122.357 511.977 123.411 505.584 124.448 499.188C125.007 499.253 125.565 499.319 126.124 499.384Z" fill="#4C3A41"/>
<path d="M21.2432 198.702C15.2977 200.823 9.31359 202.085 3.13391 199.482C9.16364 199.03 15.1041 197.432 21.2432 198.702Z" fill="#4C3A41"/>
<path d="M58.6296 258.062C59.2719 262.818 59.9143 267.574 60.5567 272.329C58.254 267.811 56.9028 263.154 57.3379 258.204C57.7684 258.157 58.199 258.11 58.6296 258.062Z" fill="#4C3A41"/>
<path d="M54.6385 275.324C54.9989 270.532 53.5875 265.968 53.2607 261.309C55.3728 265.833 56.8745 270.42 54.6385 275.324Z" fill="#4C3A41"/>
<path d="M160.87 173.095C157.267 175.653 153.664 178.212 149.713 181.018C151.08 176.758 153.383 175.072 160.87 173.095Z" fill="#4C3A41"/>
</g>
</svg>
