<svg width="90" height="90" viewBox="0 0 90 90" fill="none" xmlns="http://www.w3.org/2000/svg">
<path d="M45 0C20.1472 0 0 20.1472 0 45C0 69.8528 20.1472 90 45 90C69.8528 90 90 69.8528 90 45C90 20.1472 69.8529 0 45 0ZM77.2047 40.2521L77.7021 37.6941L78.3378 40.2368C78.5908 41.2488 79.383 42.0377 80.3959 42.2871C80.9681 42.428 81.4682 42.5471 81.4682 42.5471C81.4682 42.5471 80.9601 42.6942 80.3824 42.8657C79.3767 43.1643 78.6201 43.9971 78.4199 45.0268L77.9323 47.5345L77.3187 45.0801C77.0579 44.0368 76.225 43.2333 75.1732 43.0097C74.5854 42.8847 74.0735 42.7773 74.0735 42.7773C74.0735 42.7773 74.6559 42.5995 75.2918 42.3981C76.2741 42.0869 77.008 41.2637 77.2047 40.2521ZM69.3496 25.6893C70.332 25.3781 71.0659 24.5549 71.2626 23.5433L71.76 20.9853L72.3957 23.528C72.6487 24.54 73.441 25.3289 74.4538 25.5783C75.026 25.7192 75.5261 25.8383 75.5261 25.8383C75.5261 25.8383 75.0181 25.9854 74.4403 26.1569C73.4346 26.4555 72.678 27.2882 72.4778 28.318L71.9902 30.8257L71.3766 28.3713C71.1158 27.328 70.283 26.5245 69.2311 26.3009C68.6433 26.1759 68.1314 26.0685 68.1314 26.0685C68.1314 26.0685 68.7139 25.8907 69.3496 25.6893ZM61.6402 15.6331C62.2032 15.4548 62.6237 14.9831 62.7364 14.4035L63.0215 12.9376L63.3857 14.3946C63.5306 14.9745 63.9846 15.4266 64.565 15.5696C64.8929 15.6503 65.1795 15.7185 65.1795 15.7185C65.1795 15.7185 64.8884 15.8028 64.5573 15.9011C63.9811 16.0722 63.5475 16.5494 63.4328 17.1394L63.1534 18.5764L62.8017 17.17C62.6522 16.5722 62.1751 16.1117 61.5723 15.9836C61.2355 15.912 60.9422 15.8504 60.9422 15.8504C60.9422 15.8504 61.2759 15.7485 61.6402 15.6331ZM61.4258 36.6045C61.9887 36.4262 62.4092 35.9545 62.5219 35.3748L62.8069 33.909L63.1712 35.366C63.3162 35.9459 63.7701 36.398 64.3506 36.5409C64.6784 36.6217 64.965 36.6899 64.965 36.6899C64.965 36.6899 64.6739 36.7742 64.3428 36.8725C63.7666 37.0436 63.333 37.5207 63.2183 38.1108L62.9389 39.5478L62.5872 38.1413C62.4377 37.5435 61.9606 37.0831 61.3578 36.955C61.021 36.8833 60.7277 36.8218 60.7277 36.8218C60.7277 36.8218 61.0614 36.7199 61.4258 36.6045ZM62.585 53.6276L63.3914 49.4807L64.4219 53.6027C64.832 55.2432 66.1164 56.5222 67.7583 56.9266C68.6858 57.155 69.4966 57.3481 69.4966 57.3481C69.4966 57.3481 68.6731 57.5865 67.7365 57.8645C66.1061 58.3486 64.8796 59.6985 64.555 61.3679L63.7645 65.4332L62.7698 61.4543C62.347 59.763 60.9969 58.4605 59.2918 58.0979C58.3388 57.8953 57.5089 57.7212 57.5089 57.7212C57.5089 57.7212 58.4532 57.4329 59.4838 57.1064C61.0763 56.6019 62.2662 55.2674 62.585 53.6276ZM56.2358 47.2824L55.9069 48.974L55.493 47.3183C55.3171 46.6145 54.7552 46.0725 54.0457 45.9217C53.6492 45.8374 53.3039 45.7649 53.3039 45.7649C53.3039 45.7649 53.6968 45.645 54.1257 45.5091C54.7884 45.2991 55.2834 44.7439 55.4161 44.0615L55.7516 42.3359L56.1804 44.0511C56.3511 44.7338 56.8855 45.266 57.5688 45.4343C57.9548 45.5293 58.2921 45.6096 58.2921 45.6096C58.2921 45.6096 57.9495 45.7088 57.5597 45.8245C56.8813 46.0259 56.3709 46.5877 56.2358 47.2824ZM58.6547 4.777C41.1691 5.76596 27.2965 20.2575 27.2965 37.9894C27.2965 56.3633 42.189 71.2558 60.5629 71.2558C65.3221 71.2558 69.8479 70.2578 73.943 68.4514C77.8422 66.7378 81.3493 64.2982 84.2905 61.3029C83.919 62.1902 83.5176 63.0617 83.0887 63.9171C74.637 77.2126 59.1557 84.6425 43.4257 82.5287C32.8936 81.2281 23.0323 75.5334 16.5781 67.1219C16.1122 66.5605 15.4518 65.5744 15.0215 64.9827C14.7626 64.5677 14.2049 63.726 13.9545 63.3096C13.6434 62.746 13.2702 62.1533 12.9697 61.5868L12.3655 60.4099C11.995 59.7098 11.6547 58.8793 11.3188 58.1615C10.9817 57.2873 10.6066 56.4267 10.3241 55.5326C10.2058 55.158 10.0088 54.6526 9.90769 54.2769C9.69617 53.5265 9.37747 52.4766 9.22326 51.7215C9.1434 51.348 8.99697 50.8027 8.93235 50.4308C8.85888 49.977 8.64666 48.9172 8.58796 48.4762C8.51583 47.8399 8.40303 47.1402 8.33987 46.5068C8.30733 46.0778 8.21915 44.9404 8.18792 44.5274C8.18157 44.0963 8.14007 42.991 8.13412 42.5427C8.13978 40.4481 8.28803 38.3509 8.588 36.2767C8.66397 35.842 8.85771 34.7553 8.93304 34.3209C9.06684 33.7289 9.24097 32.9767 9.37528 32.3846C9.54248 31.7937 9.82586 30.7344 10.0163 30.158C10.215 29.5835 10.4436 28.842 10.6632 28.2799C11.9848 24.7194 13.8166 21.3451 16.0764 18.2882C13.934 21.2161 12.1814 24.4314 10.8977 27.8191C10.6714 28.3805 10.4446 29.1308 10.2405 29.701C10.0412 30.2817 9.76185 31.342 9.58745 31.9333C9.44868 32.5261 9.27297 33.2824 9.13518 33.8754C9.05622 34.3142 8.85879 35.3983 8.78023 35.8378C8.46942 37.9195 8.31193 40.0254 8.29728 42.1295C8.3208 42.8828 8.31969 44.0432 8.39401 44.7869L8.49398 46.1132C8.56615 46.7499 8.66178 47.4535 8.74052 48.093C8.80734 48.5413 9.00261 49.5972 9.08391 50.0585C9.15317 50.4332 9.28986 50.9795 9.37441 51.3566C9.53197 52.1184 9.8435 53.1676 10.0591 53.927C10.1681 54.3023 10.3487 54.8131 10.4759 55.1903C10.759 56.0898 11.1345 56.9557 11.4725 57.8353C11.8088 58.5578 12.1497 59.3944 12.5219 60.098L13.1279 61.2826C13.4396 61.8473 13.7939 62.4515 14.1181 63.0152C14.3752 63.4089 14.915 64.2908 15.1936 64.6963C15.4326 65.0444 16.124 65.9904 16.3503 66.3225C34.025 89.66 69.4152 87.467 83.9011 61.9658C75.7401 75.9492 59.9198 83.8666 43.8377 81.7048C33.4162 80.4185 23.6509 74.7791 17.2653 66.4554C16.8042 65.8997 16.1505 64.9237 15.7247 64.3381C15.4685 63.9273 14.9165 63.0943 14.6686 62.6821C14.3608 62.1243 13.9914 61.5376 13.6939 60.977L13.0959 59.8121C12.7291 59.1192 12.3925 58.2972 12.0599 57.5867C11.7263 56.7215 11.3551 55.8698 11.0754 54.9848C10.9583 54.6141 10.7633 54.1139 10.6632 53.7421C10.4539 52.9993 10.1384 51.9601 9.9858 51.2128C9.90668 50.8431 9.76191 50.3035 9.69783 49.9354C9.62512 49.4862 9.41516 48.4372 9.35699 48.0007C9.28555 47.371 9.17397 46.6785 9.11142 46.0516C9.07921 45.6269 8.99192 44.5012 8.96099 44.0925C8.95473 43.6658 8.91363 42.5717 8.90781 42.1281C8.91327 40.0549 9.05996 37.9792 9.35682 35.9263C9.43194 35.496 9.62369 34.4204 9.69834 33.9905C9.83064 33.4045 10.0031 32.66 10.136 32.074C10.3015 31.4892 10.5819 30.4407 10.7704 29.8701C10.9671 29.3016 11.1932 28.5676 11.4106 28.0113C13.5396 22.2747 17.0048 17.0251 21.4615 12.8273C25.429 9.05705 30.1985 6.11899 35.3336 4.22873C35.7778 4.07857 36.4481 3.83851 36.889 3.69071C37.3131 3.5646 38.3605 3.25611 38.785 3.13598C38.9719 3.09104 39.1667 3.04344 39.3651 2.99507C41.2741 2.73182 43.2236 2.59536 45.2049 2.59536C47.9746 2.59536 50.6836 2.86094 53.3049 3.37286C55.1333 3.72616 56.9192 4.19679 58.6547 4.777ZM42.7523 22.3285C41.7994 22.1259 40.9696 21.9518 40.9696 21.9518C40.9696 21.9518 41.9138 21.6635 42.9445 21.337C44.537 20.8325 45.7267 19.498 46.0457 17.8582L46.852 13.7112L47.8825 17.8333C48.2926 19.4738 49.577 20.7528 51.2189 21.1571C52.1464 21.3856 52.9572 21.5786 52.9572 21.5786C52.9572 21.5786 52.1337 21.817 51.1971 22.0951C49.5668 22.5791 48.3402 23.9291 48.0156 25.5985L47.2251 29.6637L46.2304 25.6848C45.8076 23.9936 44.4575 22.691 42.7523 22.3285ZM43.7985 53.141C43.7985 53.141 43.5312 53.2183 43.2273 53.3086C42.6982 53.4656 42.3003 53.9037 42.195 54.4454L41.9385 55.7645L41.6157 54.4734C41.4784 53.9246 41.0404 53.502 40.487 53.3843C40.1778 53.3185 39.9085 53.2621 39.9085 53.2621C39.9085 53.2621 40.215 53.1685 40.5494 53.0625C41.0661 52.8988 41.4522 52.4658 41.5557 51.9337L41.8173 50.588L42.1518 51.9256C42.2848 52.458 42.7016 52.873 43.2344 53.0042C43.5354 53.0783 43.7985 53.141 43.7985 53.141ZM37.1656 33.8984C37.1656 33.8984 36.8983 33.9758 36.5944 34.066C36.0653 34.2231 35.6673 34.6611 35.562 35.2028L35.3055 36.522L34.9827 35.2309C34.8455 34.682 34.4075 34.2594 33.8541 34.1418C33.5449 34.076 33.2756 34.0195 33.2756 34.0195C33.2756 34.0195 33.582 33.926 33.9164 33.82C34.4332 33.6563 34.8193 33.2233 34.9228 32.6912L35.1844 31.3455L35.5188 32.6831C35.6519 33.2154 36.0687 33.6304 36.6014 33.7617C36.9025 33.8358 37.1656 33.8984 37.1656 33.8984ZM31.7503 85.0922C31.6397 85.0533 31.532 85.0065 31.4227 84.964L30.1157 84.4423C29.7618 84.3171 29.1662 84.019 28.8285 83.8743C28.4488 83.6945 27.9287 83.4789 27.5563 83.2737C15.2147 77.1501 6.42501 65.268 4.21056 51.669C4.1951 51.5695 4.13066 51.2381 4.11815 51.1496C4.10842 51.0409 4.0163 50.39 4.00755 50.2773C3.84866 49.2008 3.75381 47.8666 3.67738 46.7764C3.58014 44.2147 3.62515 41.5928 3.97184 39.052C3.99497 38.8392 4.08159 38.2025 4.10303 38.0045C4.15134 37.7591 4.351 36.5498 4.40704 36.2715C5.83308 28.7618 9.33318 21.6784 14.3564 15.9274C16.3261 13.8347 18.5063 11.9425 20.8633 10.2846C18.4443 12.2014 16.2271 14.3885 14.2601 16.814C12.602 18.7721 11.1079 20.8913 9.80579 23.1559C9.63289 23.4604 9.46926 23.7327 9.27926 24.0701C9.06361 24.5004 8.52908 25.5127 8.31627 25.9478C8.0517 26.5402 7.70527 27.2761 7.44612 27.8707C7.27416 28.3196 6.83895 29.3811 6.67349 29.8352C6.46962 30.4512 6.19719 31.2182 5.99954 31.8359C5.8727 32.2988 5.54659 33.4009 5.42435 33.8675C5.27857 34.4955 5.09338 35.2967 4.94912 35.925C4.86649 36.3906 4.65818 37.537 4.57593 38.0036C4.18583 40.6595 4.0047 43.3885 4.09898 46.0742C4.55964 61.4112 13.2493 75.4147 26.7783 82.6559C26.9358 82.7313 28.2415 83.4138 28.3448 83.4591C28.9358 83.7232 29.6782 84.0683 30.2699 84.3286C30.8732 84.5643 31.9635 85.0098 32.569 85.2141C33.1823 85.4175 33.9578 85.6993 34.5758 85.8713L35.9302 86.2554C36.0434 86.2862 36.1553 86.3221 36.2695 86.3487C36.3999 86.3755 36.6402 86.4338 36.8662 86.4876C35.574 86.2296 34.3027 85.9133 33.0558 85.5406C32.6114 85.3875 32.148 85.2242 31.7503 85.0922ZM49.2955 87.1134C46.729 87.2473 44.1286 87.1444 41.5226 86.7861C41.0984 86.7234 40.5778 86.6777 40.1475 86.5886C39.6682 86.4976 38.9758 86.3809 38.4389 86.278C38.3253 86.2555 38.2132 86.2262 38.1003 86.2007L37.424 86.0421L36.7478 85.8836C36.7478 85.8836 36.4096 85.8044 36.4096 85.8045C35.9561 85.6782 34.8591 85.3628 34.4068 85.2306C33.8005 85.0336 33.0402 84.7587 32.4351 84.5578C31.9968 84.3865 30.9362 83.9643 30.4996 83.7879C29.9171 83.5284 29.1866 83.1838 28.6047 82.9228L28.2965 82.7632C28.2965 82.7632 27.0635 82.1246 27.0636 82.1246C15.3946 75.8466 7.2434 64.3215 5.19814 51.2339C5.17967 51.1484 5.15704 50.9777 5.14601 50.8909C5.0734 50.2245 4.94887 49.4875 4.88952 48.8243C4.85314 48.3802 4.76673 47.1726 4.73283 46.7475C4.6594 44.8135 4.66866 42.8449 4.82993 40.9038C4.73688 42.3158 4.70945 43.7328 4.75877 45.1379C5.2147 60.3468 13.8348 74.2383 27.2512 81.4182C27.4075 81.4929 28.7024 82.1697 28.8048 82.2147C29.391 82.4766 30.1273 82.8188 30.7141 83.0769C31.3125 83.3107 32.3937 83.7525 32.9943 83.9552C33.6025 84.1568 34.3716 84.4363 34.9845 84.6069L36.3278 84.9878C36.4401 85.0183 36.551 85.0539 36.6643 85.0803C36.8906 85.1268 37.4506 85.2691 37.6847 85.3152C37.876 85.3629 38.5409 85.5079 38.7055 85.548C38.9449 85.5847 40.1554 85.8135 40.4236 85.8531C40.8214 85.9342 41.3954 85.9856 41.8062 86.0429C42.1897 86.0913 42.8184 86.1735 43.1927 86.1988C51.092 86.952 58.8719 85.4068 65.7264 82.0104C64.5955 82.6375 63.4332 83.2149 62.2418 83.7385C58.2156 85.515 53.8616 86.6764 49.2955 87.1134ZM70.7301 78.7544C62.4 84.3349 52.1808 86.927 41.8746 85.5096C41.454 85.4474 40.9377 85.4021 40.5111 85.3137C40.0358 85.2235 39.349 85.1077 38.8167 85.0057C38.7041 84.9833 38.5929 84.9544 38.481 84.929L37.8103 84.7717L37.1397 84.6146C37.1397 84.6146 36.8044 84.536 36.8044 84.536C36.3546 84.4109 35.2668 84.0981 34.8183 83.967C34.217 83.7716 33.4632 83.499 32.8631 83.2998C32.4284 83.1299 31.3768 82.7112 30.9438 82.5362C30.3662 82.2789 29.6417 81.9372 29.0648 81.6784L28.7591 81.5201C28.7591 81.5201 27.5365 80.8868 27.5365 80.8868C15.9652 74.661 7.88229 63.2326 5.85394 50.2543C5.83559 50.1696 5.81314 50.0003 5.80223 49.9142C5.73015 49.2533 5.60679 48.5225 5.54788 47.8649C5.49248 47.0939 5.37893 45.8804 5.37455 45.1172C5.25105 41.9216 5.50699 38.6671 6.10604 35.5259C7.40828 28.667 10.4783 22.1713 14.8779 16.7596C16.5929 14.7393 18.4955 12.8788 20.5623 11.2168C20.3786 11.3756 20.2312 11.503 20.2312 11.503C19.5465 12.0891 18.8747 12.7482 18.2276 13.375C14.4414 17.1856 11.3819 21.7281 9.27578 26.673C9.04597 27.2881 8.60782 28.2882 8.41125 28.9159C8.30011 29.2335 8.08233 29.9022 7.9707 30.2173C7.7678 30.817 7.47955 31.917 7.30188 32.5266C7.15952 33.1396 6.97878 33.9217 6.83791 34.535C6.75718 34.9895 6.55375 36.1085 6.47354 36.564C6.4419 36.7589 6.37282 37.3937 6.34098 37.5862C5.9772 40.2934 5.89634 43.0883 6.07367 45.8149C6.12659 46.6278 6.22269 47.7528 6.34188 48.5507L6.42757 49.2329L6.44904 49.4034L6.47875 49.5727L6.53849 49.9112C8.59708 62.7275 16.6922 74.0429 28.1462 80.1517C28.3008 80.2263 29.5735 80.8902 29.6755 80.9357C30.2524 81.1935 30.9772 81.5302 31.5547 81.7844C32.1438 82.0144 33.2079 82.4493 33.7991 82.6487C34.3978 82.8472 35.1548 83.1222 35.758 83.2901L37.0802 83.665C37.1907 83.695 37.2999 83.73 37.4114 83.756C37.6342 83.802 38.1852 83.9415 38.4158 83.9872C38.6044 84.0341 39.2581 84.177 39.4205 84.2163C39.6563 84.2525 40.8474 84.4776 41.1116 84.5166C41.5031 84.5964 42.0682 84.647 42.4724 84.7033C42.8499 84.7508 43.4687 84.8318 43.8371 84.8566C56.6097 86.0736 69.0665 81.1895 77.6837 72.1422C75.6241 74.5993 73.2907 76.8189 70.7301 78.7544ZM42.5408 84.17C42.1272 84.1089 41.6184 84.064 41.199 83.9772C40.7331 83.8887 40.0531 83.7739 39.5317 83.674C39.4209 83.652 39.3115 83.6234 39.2013 83.5985L38.5414 83.4437L37.8815 83.2891C37.8815 83.2891 37.5516 83.2118 37.5516 83.2118C37.1089 83.0886 36.0384 82.7807 35.5971 82.6517C35.0055 82.4595 34.2636 82.1912 33.6731 81.9951C33.2454 81.8279 32.2105 81.4158 31.7844 81.2437C31.2161 80.9905 30.5032 80.6541 29.9355 80.3994L29.6346 80.2437L28.4315 79.6204C23.3525 76.8875 18.9574 73.1356 15.4685 68.6847C18.9881 73.1505 23.4165 76.9094 28.5158 79.6289C28.6694 79.703 29.9337 80.3625 30.0349 80.4077C30.6081 80.6638 31.328 80.9983 31.9018 81.2507C32.4869 81.4792 33.5441 81.9113 34.1314 82.1094C34.7261 82.3065 35.4781 82.5798 36.0774 82.7465L37.3908 83.1189C37.5006 83.1487 37.609 83.1835 37.7198 83.2093C37.9412 83.255 38.4884 83.3936 38.7176 83.4389C38.9049 83.4855 39.5544 83.6275 39.7158 83.6665C39.9499 83.7024 41.1332 83.926 41.3956 83.9648C41.7845 84.0441 42.3459 84.0943 42.7474 84.1502C43.1225 84.1974 43.7371 84.2779 44.1031 84.3025C58.0794 85.6339 71.6746 79.6112 80.2105 68.8076C79.8371 69.3545 79.451 69.8921 79.0531 70.4202C70.037 80.6401 56.3685 86.0726 42.5408 84.17ZM42.8159 83.6169C42.405 83.5563 41.8996 83.5116 41.483 83.4254C41.0202 83.3375 40.3448 83.2235 39.8269 83.1242C39.7168 83.1024 39.6081 83.074 39.4987 83.0492L38.8432 82.8955L38.1878 82.7419L37.86 82.6651C37.4203 82.5427 36.357 82.2369 35.9186 82.1087C35.331 81.9178 34.5941 81.6513 34.0076 81.4565C33.9017 81.4192 33.7987 81.3745 33.6942 81.3338C33.6942 81.3338 32.444 80.8348 32.444 80.8347C32.1064 80.7156 31.5348 80.4288 31.2129 80.2913C30.8491 80.1189 30.3532 79.9137 29.9961 79.7167C18.1944 73.8613 9.78333 62.4908 7.66651 49.4867C7.65034 49.3909 7.5919 49.0758 7.57813 48.9899C7.5651 48.8841 7.48588 48.2666 7.4723 48.1556C7.32021 47.1259 7.22944 45.8497 7.15636 44.807C7.06317 42.3567 7.106 39.8489 7.43736 37.4186C7.45934 37.2149 7.54232 36.6062 7.56275 36.4166C7.60916 36.1817 7.79955 35.0255 7.8534 34.759C9.78206 24.5985 15.6777 15.2519 24.054 9.17453C26.2827 7.536 28.6828 6.12427 31.1995 4.9659C32.8912 4.37337 34.6323 3.88562 36.4145 3.50947C35.8594 3.67727 35.3082 3.85714 34.7614 4.04936C29.5032 5.89377 24.616 8.8407 20.5476 12.6505C15.9627 16.8994 12.3658 22.2401 10.1503 28.0877C9.92163 28.6548 9.69273 29.4128 9.48639 29.9888C9.28504 30.5754 9.00301 31.6466 8.82681 32.2438C8.6866 32.8427 8.50918 33.6067 8.36987 34.2058C8.29023 34.6491 8.09075 35.7443 8.01137 36.1882C7.69743 38.2912 7.53843 40.4185 7.52364 42.544C7.54737 43.3051 7.54645 44.4773 7.62137 45.2286L7.72243 46.5684C7.79539 47.2116 7.89184 47.9224 7.97153 48.5685C8.03896 49.0213 8.23623 50.0879 8.31839 50.554C8.3884 50.9324 8.52643 51.4843 8.61185 51.8652C8.77102 52.6348 9.08574 53.6948 9.3035 54.4619C9.41361 54.841 9.59605 55.357 9.72462 55.738C10.0106 56.6467 10.39 57.5215 10.7314 58.41C11.0711 59.1399 11.4155 59.9849 11.7915 60.6958C11.7915 60.6958 12.4037 61.8924 12.4036 61.8924C12.7187 62.4629 13.0764 63.0733 13.404 63.6427C13.6636 64.0404 14.209 64.9313 14.4905 65.3409C14.7318 65.6926 15.4303 66.6482 15.6589 66.9837C33.1568 90.0873 67.8383 88.422 82.9951 64.1035C82.3657 65.3433 81.6767 66.5476 80.9326 67.7133C72.0683 79.304 57.5324 85.6423 42.8159 83.6169ZM4.94452 31.7564C4.76491 32.4161 4.43912 33.4413 4.30538 34.0733C4.19093 34.5787 4.01624 35.3048 3.90441 35.8106C3.8709 36.0283 3.62425 37.3269 3.5893 37.5656C3.19813 39.9097 3.03648 42.2928 3.01033 44.6673C3.0367 45.4792 3.03328 46.7154 3.11196 47.5185C3.11196 47.5185 3.21858 48.9415 3.21864 48.9415C3.29059 49.6866 3.42219 50.4966 3.50167 51.2431C4.6773 58.9408 7.85305 66.0615 12.5876 71.9763C6.50508 64.643 2.84821 55.2251 2.84821 44.9521C2.84821 40.3446 3.58431 35.9091 4.94452 31.7564Z" fill="#A67C8C"/>
</svg>
