<svg width="108" height="188" viewBox="0 0 108 188" fill="none" xmlns="http://www.w3.org/2000/svg">
<rect x="2" y="2" width="104" height="104" rx="52" fill="#A67C8C" stroke="#232323" stroke-width="4"/>
<path d="M56.7255 44.8754C59.6943 47.3405 62.5139 49.7257 65.3891 52.0418C66.2486 52.7343 66.7095 53.4045 66.3469 54.5475C66.1527 55.1596 66.0629 55.8682 66.1574 56.4986C67.0682 62.5743 64.8155 67.6333 61.3968 72.4579C59.0263 75.8033 56.9747 79.38 54.8813 82.913C54.1112 84.2126 53.668 84.4535 52.7314 83.0495C49.0847 77.5825 45.5243 72.063 42.157 66.4192C41.5965 65.4798 41.3107 64.4983 41.2923 63.3906C41.2393 60.1923 41.1598 56.9932 41.0025 53.7988C40.9559 52.853 41.5797 52.5153 42.1189 52.0441C44.8832 49.629 47.6519 47.2188 50.4245 44.8021C47.2395 41.6697 47.1305 41.0031 49.4025 36.5225C49.9048 35.532 48.9862 35.4078 48.6761 34.992C46.6811 32.3164 46.6018 28.5966 48.5803 26.3488C50.7789 23.8508 54.3636 23.2792 57.3334 24.953C60.7719 26.8909 61.5826 31.5953 58.8327 34.7121C57.9463 35.7167 58.0103 36.2039 58.6632 37.2515C60.3236 39.9156 59.7514 41.9339 56.7255 44.8754ZM48.6355 59.17C47.4157 60.8252 46.3596 62.273 45.2855 63.7073C44.9351 64.1753 44.5188 64.6285 44.8953 65.2433C47.026 68.7228 48.9381 72.3606 52.249 75.8302C51.1339 69.8739 50.5879 64.5132 48.6355 59.17ZM55.6766 75.2098C55.8305 75.2728 55.9844 75.3358 56.1383 75.3988C58.2279 72.0253 60.3154 68.6505 62.4105 65.2804C62.6147 64.9521 62.5925 64.6198 62.3576 64.3824C60.9773 62.9877 60.1902 61.0362 58.2709 59.8325C57.3789 65.1196 56.5278 70.1647 55.6766 75.2098ZM56.4402 33.532C57.4918 33.068 57.7529 32.0651 57.879 31.1103C58.1172 29.308 57.4046 27.8187 55.7076 27.1264C53.9368 26.4039 52.0623 26.4341 50.7794 28.0893C49.6818 29.5056 49.1663 31.1744 50.3621 32.8613C50.7749 33.4438 51.1022 34.1611 51.9152 32.9806C53.6032 30.5293 54.85 30.7401 56.4402 33.532ZM50.537 54.9587C52.543 54.9587 54.17 54.9531 55.7968 54.9614C56.4832 54.9649 57.261 55.0173 56.781 53.9637C55.8138 51.8414 54.7875 49.7459 53.5623 47.1697C52.4546 50.0217 51.5784 52.2776 50.537 54.9587ZM53.385 42.8852C55.396 42.8774 57.2266 41.4895 57.0574 40.1197C56.7626 37.7336 54.8478 38.1822 53.2651 38.1021C51.7492 38.0252 50.2501 38.2694 50.3444 40.1526C50.4359 41.9816 51.9086 42.671 53.385 42.8852ZM53.8731 76.37C54.9858 72.5985 54.7391 69.0037 55.4753 65.5478C55.5934 64.993 55.6785 64.4217 54.6348 64.7671C54.0437 64.9627 53.2527 64.555 52.3866 64.387C52.1061 68.4642 53.0104 72.2427 53.8731 76.37ZM56.7085 48.3379C57.1582 49.6762 57.4681 50.5737 57.7619 51.4764C58.7242 54.4331 60.5088 55.0396 63.1157 53.2959C63.1567 53.2685 63.1466 53.1647 63.1949 52.925C61.0366 51.8702 59.217 50.23 56.7085 48.3379ZM43.1843 63.4231C45.1159 61.4455 46.8585 59.8804 46.7878 57.9153C46.7455 56.7417 44.6211 56.0497 43.1843 55.4923V63.4231ZM44.4589 53.2313C45.4777 54.3152 46.526 54.7148 47.6093 55.1093C48.5237 55.4423 49.0287 55.2405 49.2117 54.2995C49.5479 52.5706 49.8669 50.8385 50.2833 48.6287C48.0691 50.2909 46.5815 52.0431 44.4589 53.2313ZM63.9617 63.3795V55.4549C62.8654 56.1062 61.9754 56.6677 61.054 57.172C60.3318 57.5671 60.1784 58.0315 60.6066 58.7563C61.5054 60.2779 62.2963 61.8732 63.9617 63.3795Z" fill="#F4F4F4"/>
<rect x="2" y="82" width="104" height="104" rx="52" fill="#4B6359" stroke="#232323" stroke-width="4"/>
<path d="M52.5413 114.313C52.1404 114.314 51.7395 114.323 51.3389 114.341C50.4782 114.494 50.0807 114.871 49.8649 115.302C49.6271 115.777 49.6364 116.417 49.9015 116.986C50.1668 117.556 50.6535 118.021 51.3328 118.195C52.0123 118.369 52.9477 118.279 54.1771 117.493L55.1598 119.031C53.6151 120.019 52.1203 120.279 50.8812 119.962C49.6421 119.645 48.7227 118.778 48.2476 117.759C47.7999 116.798 47.7177 115.671 48.147 114.67C43.9559 115.348 40.161 116.955 37.246 119.217C36.288 120.261 36.1943 121.474 36.6142 122.303C37.0859 123.233 38.1972 123.912 40.4199 123.209L40.9722 124.948C38.1812 125.831 35.8807 124.891 34.9878 123.13C34.7701 122.7 34.637 122.235 34.5848 121.756C34.1147 122.314 33.6903 122.895 33.3153 123.499L33.3276 123.505C32.4864 125.42 32.4672 126.747 32.8026 127.609C33.1381 128.472 33.8411 129.02 34.9237 129.321C37.0885 129.925 40.5941 129.197 43.0626 127.353C44.1193 126.564 45.1209 124.65 45.2081 123.166C45.2516 122.424 45.0944 121.838 44.7838 121.463C44.4733 121.089 43.976 120.809 42.9466 120.819L42.9284 118.994C44.3431 118.98 45.4918 119.459 46.1876 120.298C46.8833 121.136 47.0919 122.217 47.0299 123.273C46.9059 125.386 45.7999 127.587 44.1551 128.815C41.2375 130.994 37.384 131.901 34.4354 131.079C33.0694 130.699 31.8602 129.87 31.2371 128.586C30.3049 133.024 31.6593 137.147 34.2369 140C34.5739 140.373 34.9325 140.725 35.3082 141.052C35.0393 140.282 34.916 139.48 34.945 138.7C34.9967 137.301 35.5389 135.931 36.6266 134.986C37.5186 134.21 38.7508 133.762 40.2245 133.765C40.3228 133.765 40.4232 133.767 40.5236 133.771C40.7531 133.781 40.9887 133.801 41.2286 133.832L40.9904 135.642C39.4681 135.442 38.4801 135.79 37.8228 136.362C37.1656 136.934 36.803 137.789 36.7668 138.767C36.6946 140.722 37.9455 143.006 40.6428 143.668L40.6397 143.686C43.2951 144.193 46.2584 143.723 49.2334 141.907C49.2352 141.906 49.2376 141.905 49.2395 141.904C49.8586 141.47 50.1921 141.044 50.3565 140.677C50.5503 140.244 50.5462 139.867 50.4082 139.463C50.1325 138.653 49.1446 137.821 48.2385 137.589C46.7735 137.214 45.8428 137.729 45.4065 138.343C44.9701 138.956 44.9436 139.559 45.617 140.082L44.4969 141.522C43.1115 140.445 43.0231 138.545 43.9202 137.284C44.5933 136.338 45.7743 135.689 47.198 135.648C47.258 135.646 47.318 135.645 47.3781 135.645C47.7986 135.648 48.2365 135.706 48.6903 135.822C50.2044 136.209 51.6043 137.314 52.1356 138.874C52.2773 139.292 52.3394 139.733 52.3188 140.174C53.9506 139.34 55.6715 138.6 57.4244 138.043C60.3694 136.698 61.6461 134.339 61.5963 132.352C61.546 130.351 60.3085 128.667 57.458 128.385L57.6381 126.569C61.2188 126.923 63.3473 129.484 63.4182 132.306C63.4594 133.951 62.8563 135.662 61.642 137.119C63.2116 136.943 64.7713 136.973 66.2836 137.278C65.9758 136.646 65.8266 135.961 65.8474 135.282C65.9135 133.13 67.7439 131.122 70.6203 131.092C70.8169 131.09 71.0133 131.097 71.2092 131.113L71.0627 132.932C68.6284 132.737 67.7131 134.014 67.6723 135.34C67.6321 136.65 68.5068 138.117 71.0141 138.312C73.7778 138.336 75.759 136.837 76.7299 134.61C78.0297 131.628 77.4132 127.157 73.3272 123.068C73.2498 122.991 73.1731 122.913 73.0952 122.836C73.0524 123.201 72.959 123.557 72.8177 123.895C72.1097 125.594 70.4512 126.74 68.7284 127.06C66.3519 127.502 64.4032 126.538 63.5037 125.067C62.6043 123.597 62.8405 121.517 64.4588 120.423L65.4813 121.936C64.6109 122.525 64.575 123.322 65.0601 124.115C65.5452 124.908 66.6392 125.595 68.3956 125.269C69.4997 125.064 70.7292 124.162 71.1329 123.194C71.3351 122.709 71.3742 122.231 71.1728 121.683C71.0092 121.238 70.6662 120.729 70.0283 120.194L70.01 120.179C67.3424 118.168 64.5082 116.722 61.636 115.769C61.6377 115.772 61.6404 115.775 61.6421 115.778C62.2949 116.971 62.3433 118.325 61.9412 119.522C61.1372 121.917 58.6141 123.804 55.4928 123.7C54.8143 123.678 54.1686 124.005 53.6192 124.643C53.0697 125.281 52.6685 126.217 52.5754 127.213C52.3894 129.205 53.2515 131.401 56.6129 132.486L56.0508 134.223C52.0388 132.927 50.501 129.775 50.7559 127.045C50.8835 125.68 51.4108 124.412 52.2361 123.453C53.0614 122.494 54.2356 121.832 55.5535 121.875C57.9011 121.954 59.6866 120.5 60.2104 118.94C60.4723 118.159 60.4384 117.383 60.0395 116.654C59.652 115.946 58.8842 115.245 57.5096 114.734C55.869 114.449 54.2065 114.308 52.5413 114.313ZM62.4258 138.916C58.3326 139.249 53.894 141.202 50.1914 143.463C44.7246 146.803 38.9717 146.074 34.8899 143.046C36.4957 148.792 42.186 149.958 48.1223 148.505C48.7163 148.282 49.3 147.867 49.7978 147.33C50.4869 146.587 50.9863 145.624 51.1435 144.828L52.9349 145.182C52.6961 146.391 52.0484 147.591 51.1374 148.572C50.2634 149.514 49.1247 150.267 47.8079 150.464C47.1472 151.936 46.6034 153.363 46.3827 154.361C46.0361 155.93 47.7701 156.532 48.5464 154.95C50.404 151.167 53.0259 147.799 56.3009 144.895C58.8462 143.22 61.0281 141.154 62.4259 138.916H62.4258Z" fill="#F4F4F4"/>
</svg>
