<svg width="120" height="205" viewBox="0 0 120 205" fill="none" xmlns="http://www.w3.org/2000/svg">
<g clip-path="url(#clip0_2079_2672)">
<path d="M92.7946 63.9743C93.5394 64.2908 94.0897 64.9196 94.3049 65.6995L94.3204 65.7553C94.4857 66.3548 94.4331 66.9961 94.1718 67.5606L91.321 73.7236L88.333 78.2979C87.7614 79.1731 86.8387 79.755 85.8021 79.8942C84.7817 80.0315 83.7601 79.7216 82.9961 79.0443L82.9478 79.0012C82.6249 78.7099 82.3273 78.3876 82.0632 78.0441C81.1053 76.7971 81.0715 75.0985 81.9791 73.8176C83.0067 72.3666 84.1156 70.9468 85.2751 69.5974C86.5285 68.1387 87.8641 66.7379 89.2646 65.4073C89.271 65.4782 89.2786 65.5512 89.2849 65.6219L89.7602 64.9429C90.1327 64.5972 90.5081 64.255 90.8892 63.9197C91.5051 63.6995 92.18 63.7132 92.7946 63.9743Z" fill="#A67C8C"/>
<path d="M80.1279 31.4987C79.2033 29.9453 78.7953 28.1286 78.9478 26.2447L79.0878 24.5176C79.2294 24.6881 79.3637 24.861 79.4943 25.0348C80.9295 26.945 81.7116 29.0272 82.1374 30.7268C82.138 30.7291 82.1385 30.7313 82.1391 30.7336C82.1769 30.8846 82.2118 31.0326 82.2442 31.1772C82.2448 31.1799 82.2455 31.1828 82.2461 31.1856C82.278 31.3281 82.3071 31.4671 82.3341 31.6026C82.3364 31.6144 82.3386 31.6258 82.3409 31.6376C82.3664 31.7665 82.3898 31.8923 82.4112 32.0141C82.4119 32.0184 82.4127 32.0228 82.4135 32.027C82.4353 32.1519 82.4549 32.2724 82.4728 32.3889C82.4749 32.4028 82.4769 32.4163 82.479 32.4301C82.496 32.5432 82.5118 32.6531 82.5256 32.7575C82.5256 32.7576 82.5255 32.7575 82.5256 32.7575C82.5852 33.2099 82.6156 33.5779 82.6309 33.8327C81.6687 33.4584 80.8281 32.6752 80.1279 31.4987Z" fill="#A67C8C"/>
<path d="M114.263 13.1638C113.039 12.4627 112.085 11.2243 111.426 9.47621C110.586 7.24932 110.476 4.80069 111.109 2.39558L111.738 0C111.834 0.162625 111.925 0.325827 112.014 0.489356C112.043 0.543156 112.07 0.597128 112.099 0.651016C112.157 0.761269 112.215 0.871576 112.271 0.982091C112.303 1.04554 112.333 1.10903 112.364 1.17253C112.414 1.27398 112.463 1.37546 112.51 1.47703C112.541 1.54363 112.571 1.6102 112.601 1.6768C112.646 1.77641 112.69 1.87602 112.733 1.97564C112.761 2.04203 112.789 2.10836 112.817 2.17473C112.859 2.27638 112.9 2.37798 112.941 2.47955C112.966 2.54282 112.991 2.6061 113.015 2.66931C113.057 2.77881 113.097 2.88817 113.137 2.99743C113.157 3.05193 113.177 3.10652 113.196 3.16091C113.246 3.30118 113.293 3.44113 113.339 3.58082C113.346 3.60384 113.355 3.62699 113.362 3.65001C113.415 3.81433 113.466 3.97812 113.514 4.14133C113.526 4.18207 113.537 4.22252 113.549 4.26318C113.584 4.38445 113.618 4.50553 113.65 4.62599C113.666 4.68226 113.68 4.73816 113.694 4.79423C113.722 4.89909 113.748 5.00382 113.774 5.10798C113.788 5.1679 113.802 5.22749 113.816 5.28718C113.84 5.38749 113.863 5.48752 113.884 5.58702C113.898 5.64673 113.91 5.70634 113.923 5.76579C113.944 5.86561 113.964 5.96495 113.983 6.06392C113.995 6.12084 114.006 6.17788 114.016 6.23451C114.036 6.33847 114.054 6.4416 114.072 6.54442C114.081 6.59423 114.09 6.64433 114.098 6.69388C114.118 6.81494 114.137 6.93488 114.155 7.0542C114.159 7.08421 114.164 7.11462 114.169 7.14452C114.19 7.29543 114.211 7.4449 114.229 7.59272C114.232 7.61405 114.234 7.63483 114.237 7.65608C114.252 7.78018 114.266 7.9034 114.279 8.02508C114.284 8.07189 114.289 8.11779 114.293 8.16422C114.303 8.25935 114.312 8.35408 114.32 8.44752C114.325 8.50033 114.329 8.55243 114.334 8.60466C114.341 8.69026 114.347 8.77538 114.353 8.85949C114.357 8.91361 114.361 8.96735 114.364 9.02083C114.369 9.10162 114.374 9.1816 114.378 9.2609C114.381 9.314 114.384 9.36714 114.387 9.41954C114.39 9.49855 114.394 9.57639 114.396 9.65374C114.398 9.70326 114.4 9.75317 114.402 9.80195C114.405 9.88327 114.406 9.96287 114.408 10.0422C114.409 10.0849 114.41 10.1284 114.411 10.1705C114.413 10.2771 114.414 10.3815 114.414 10.4841C114.414 10.5265 114.414 10.5676 114.414 10.6092C114.414 10.6907 114.414 10.7719 114.413 10.8507C114.412 10.9015 114.411 10.9503 114.41 10.9999C114.409 11.0565 114.408 11.1134 114.406 11.1686C114.405 11.2221 114.403 11.274 114.402 11.3261C114.4 11.3744 114.399 11.4227 114.397 11.4697C114.395 11.5226 114.392 11.5744 114.39 11.6256C114.388 11.6681 114.386 11.7102 114.384 11.7515C114.381 11.8042 114.379 11.8563 114.376 11.9069C114.374 11.9416 114.372 11.9753 114.369 12.0091C114.366 12.0629 114.363 12.1166 114.359 12.1679C114.357 12.192 114.356 12.2148 114.354 12.2383C114.35 12.2955 114.345 12.3526 114.341 12.4064C114.315 12.7178 114.287 12.9741 114.263 13.1638Z" fill="#A67C8C"/>
<path d="M95.8959 12.7573C95.8958 12.7665 95.8958 12.7757 95.8956 12.7847C95.8949 12.8404 95.894 12.8941 95.8929 12.9444C95.8909 13.0328 95.8885 13.1154 95.8857 13.1865C94.7647 12.6496 93.8396 11.6265 93.1323 10.1397C92.219 8.22039 91.9393 6.04896 92.3232 3.86048L92.6942 1.74609C92.7922 1.88695 92.887 2.02851 92.9792 2.17059C93.0095 2.21722 93.0378 2.26415 93.0674 2.31087C93.1282 2.40679 93.1892 2.50268 93.2475 2.59897C93.281 2.65443 93.3126 2.71018 93.3454 2.76579C93.397 2.85363 93.4491 2.94138 93.4988 3.02948C93.5323 3.08891 93.564 3.14854 93.5967 3.20811C93.643 3.29286 93.6897 3.37756 93.7343 3.46249C93.7662 3.52325 93.7966 3.58413 93.8276 3.64496C93.8704 3.72892 93.9133 3.81285 93.9543 3.89684C93.9842 3.95798 94.0128 4.01909 94.0418 4.0802C94.0815 4.16399 94.1212 4.24778 94.1593 4.33151C94.1871 4.39266 94.2138 4.45371 94.2407 4.51477C94.2777 4.59856 94.3144 4.6823 94.3497 4.76594C94.3753 4.82662 94.4001 4.88714 94.4249 4.9477C94.4593 5.03164 94.4933 5.11553 94.5261 5.19923C94.5496 5.25912 94.5724 5.31885 94.595 5.37857C94.6271 5.46285 94.6586 5.54703 94.6891 5.63102C94.7103 5.68951 94.7311 5.74788 94.7516 5.8062C94.7815 5.8911 94.8107 5.9758 94.8391 6.06029C94.8583 6.11732 94.8771 6.17422 94.8956 6.23105C94.9234 6.31633 94.9503 6.40131 94.9766 6.48603C94.9937 6.54132 95.0107 6.59655 95.0273 6.65161C95.053 6.73744 95.0779 6.82292 95.1022 6.90811C95.1173 6.96127 95.1326 7.01442 95.1472 7.06732C95.1711 7.15393 95.194 7.24002 95.2165 7.32582C95.2297 7.37641 95.2431 7.42708 95.2559 7.47741C95.2781 7.56534 95.2993 7.65258 95.3201 7.73957C95.3314 7.78655 95.3429 7.83373 95.3537 7.88042C95.3745 7.97036 95.3942 8.0594 95.4135 8.14817C95.4229 8.1911 95.4326 8.23435 95.4416 8.27699C95.4611 8.3695 95.4794 8.46094 95.4973 8.55207C95.5048 8.58978 95.5126 8.6279 95.5198 8.66538C95.5384 8.76278 95.5557 8.85879 95.5726 8.95444C95.5779 8.98452 95.5837 9.01512 95.5889 9.04502C95.607 9.14985 95.6237 9.25317 95.6398 9.35567C95.6429 9.3757 95.6464 9.39621 95.6495 9.41612C95.7065 9.78544 95.751 10.1388 95.7857 10.4725C95.7877 10.492 95.7893 10.5106 95.7913 10.5299C95.8002 10.6191 95.8089 10.7076 95.8165 10.7939C95.8197 10.8304 95.8224 10.8655 95.8253 10.9015C95.831 10.9686 95.8366 11.0358 95.8414 11.1008C95.8446 11.1444 95.8472 11.1864 95.8502 11.2291C95.8539 11.2845 95.8577 11.3402 95.861 11.394C95.8638 11.4408 95.8661 11.486 95.8685 11.5316C95.871 11.5782 95.8736 11.6251 95.8756 11.6705C95.878 11.7197 95.8798 11.7672 95.8817 11.8148C95.8832 11.8537 95.8848 11.8929 95.8861 11.9306C95.8878 11.9815 95.8891 12.0309 95.8904 12.0797C95.8912 12.1108 95.892 12.1422 95.8927 12.1725C95.8938 12.2243 95.8946 12.2746 95.8952 12.3239C95.8956 12.3486 95.8959 12.3733 95.8961 12.3973C95.8966 12.4501 95.8969 12.5013 95.8969 12.5509C95.897 12.5677 95.897 12.5844 95.8969 12.6008C95.8968 12.6548 95.8965 12.7072 95.8959 12.7573Z" fill="#A67C8C"/>
<path d="M26.3452 114.377C29.7178 112.364 33.0902 110.352 36.4627 108.339C40.8082 107.335 44.959 105.727 48.8598 103.526C58.1267 98.2971 63.6393 90.9818 66.6321 85.7656C67.5206 84.2169 68.5736 82.6971 69.7619 81.2484C73.0579 77.2294 76.8022 73.5754 80.8908 70.3882C83.1873 68.598 85.6116 66.9427 88.1227 65.4464C86.9272 66.6164 85.7805 67.8359 84.6953 69.0988C83.5202 70.4664 82.3966 71.9052 81.3552 73.3754C80.2527 74.9318 80.2936 76.9948 81.457 78.5094C81.749 78.8897 82.0784 79.2462 82.4359 79.5686L82.4902 79.6172C83.2752 80.3129 84.2853 80.6902 85.3272 80.6902C85.5187 80.6902 85.7113 80.6775 85.9036 80.6516C87.1609 80.4827 88.2795 79.7771 88.973 78.7156L89.105 78.5134L84.2644 88.9777C82.7735 92.2006 80.7241 95.1122 78.1731 97.6315C75.563 100.209 73.1288 103.006 70.9379 105.945C68.1536 109.681 65.7156 113.706 63.6918 117.91C63.5983 118.105 63.5208 118.302 63.4546 118.513C61.5608 124.525 58.9194 130.286 55.6043 135.632C51.7762 141.806 42.9108 153.666 42.9108 153.666C48.4864 148.698 53.3035 142.97 57.2283 136.639C60.6275 131.157 63.3355 125.251 65.2774 119.086C65.3163 118.963 65.3607 118.849 65.4138 118.739C65.5598 118.436 65.7125 118.135 65.863 117.834C65.9073 118.695 65.9202 119.556 65.8874 120.415C65.8155 122.241 65.5775 124.056 65.1524 125.828C64.9425 126.715 64.6867 127.59 64.3868 128.451C64.0947 129.315 63.745 130.159 63.3679 130.991C62.6013 132.65 61.6754 134.238 60.6204 135.754C61.863 134.386 62.9143 132.838 63.7698 131.187C64.2022 130.363 64.5691 129.506 64.8977 128.634C65.22 127.76 65.4859 126.866 65.7097 125.961C65.9123 125.051 66.0879 124.135 66.1898 123.208C66.2856 122.282 66.3453 121.351 66.333 120.421C66.3255 119.398 66.2452 118.376 66.0951 117.366C66.4782 116.613 66.8775 115.867 67.2875 115.127C67.8623 122.989 66.0355 130.993 61.7669 137.665C66.7361 131.31 68.6991 122.783 67.448 114.839C67.5849 114.595 67.7201 114.349 67.8599 114.107C67.8951 114.244 67.9321 114.38 67.9648 114.518C68.245 115.671 68.4633 116.839 68.5988 118.014C68.8711 120.364 68.8738 122.743 68.5315 125.078C68.3781 126.248 68.1327 127.405 67.8172 128.542C67.5079 129.681 67.1088 130.796 66.6532 131.887C66.1909 132.975 65.6627 134.038 65.0685 135.066C64.475 136.095 63.8134 137.085 63.1046 138.047C64.7142 136.281 66.049 134.251 67.062 132.068C67.5749 130.979 67.9923 129.846 68.339 128.691C68.6773 127.535 68.9327 126.352 69.099 125.158C69.2765 123.964 69.3341 122.756 69.337 121.551L69.3116 120.648C69.3024 120.346 69.2705 120.047 69.251 119.746L69.2168 119.296L69.1625 118.848C69.1208 118.55 69.0958 118.249 69.0402 117.953C68.8642 116.763 68.5817 115.591 68.2347 114.444C68.1702 114.234 68.1003 114.026 68.03 113.818C69.3841 111.491 70.8663 109.239 72.47 107.087C74.1268 104.865 75.928 102.727 77.8398 100.706L77.8545 100.729C82.112 98.0187 85.9733 94.8953 89.0211 91.6965L89.0618 91.651C89.1905 91.4974 91.6922 88.4967 93.5825 85.2704C95.4001 88.3299 98.0855 90.9514 101.161 92.6896C100.398 92.0053 99.639 91.3327 98.901 90.64C97.037 88.9037 95.3259 87.0061 93.7276 85.0198C93.8703 84.7711 94.0087 84.5217 94.1419 84.2723C95.9056 86.5777 98.2899 88.4724 100.883 89.7129C98.6101 87.8718 96.4005 85.9982 94.2945 83.9812C94.3706 83.8341 94.4448 83.6872 94.5165 83.5409C94.8569 83.8205 95.2075 84.088 95.5651 84.3436C96.7314 85.1591 97.9741 85.8706 99.3173 86.3555C98.354 85.5853 96.9078 84.6013 95.8958 83.8755C95.5459 83.6312 95.1517 83.3508 94.7439 83.0605C94.8744 82.7717 94.9771 82.4686 95.0525 82.1577C95.1057 82.1915 95.1579 82.2271 95.2114 82.2605C96.4267 83.0009 97.7116 83.6328 99.0828 84.0322C98.0729 83.3241 96.5676 82.433 95.5119 81.7724C95.4062 81.7081 95.2957 81.6405 95.1829 81.5711C95.9316 78.0452 96.7638 74.4983 97.6626 71.0203C98.5723 67.4994 99.5717 63.9614 100.639 60.4736C102.942 61.9015 105.608 62.8309 108.229 63.0819C106.623 62.4243 104.357 61.5163 102.817 60.7793C102.149 60.4694 101.494 60.143 100.843 59.8075C100.908 59.5964 100.974 59.3861 101.04 59.1754C103.65 60.4587 106.633 61.1223 109.47 61.0167C107.791 60.578 105.424 59.9787 103.8 59.4526C102.931 59.1826 102.077 58.8861 101.227 58.5765C101.245 58.5191 101.263 58.4614 101.281 58.404C101.41 57.9937 101.484 57.5699 101.508 57.1412C103.287 57.9431 105.294 58.3158 107.177 58.1503C105.787 57.7021 104.416 57.3464 103.038 56.9038C102.528 56.7461 102.025 56.5783 101.524 56.4081C101.575 50.9775 101.827 45.4919 102.276 40.0941C102.428 38.2666 102.606 36.4155 102.803 34.5921C102.839 34.2668 102.843 33.937 102.816 33.6124C102.779 33.171 102.742 32.7394 102.706 32.3131C102.827 32.6626 102.95 33.0114 103.07 33.3614C103.07 33.3614 103.004 32.8455 102.914 31.9454C104.28 32.3058 105.756 32.2847 107.092 31.8622C106.227 31.7516 105.029 31.6689 104.157 31.5817C103.723 31.5412 103.294 31.4916 102.865 31.4416C102.827 31.0336 102.786 30.5693 102.744 30.0555C104.256 30.5838 105.956 30.6225 107.474 30.1423C106.609 30.0317 105.411 29.949 104.539 29.8618C103.925 29.8045 103.322 29.7295 102.713 29.6603C102.088 21.4833 101.597 2.4884 110.352 1.10547L110.051 2.24947C109.388 4.77045 109.504 7.33946 110.386 9.67832C111.161 11.7328 112.331 13.141 113.864 13.8634C113.903 13.8817 113.944 13.8908 113.986 13.8908C114.031 13.8908 114.076 13.8802 114.117 13.8591C114.141 13.8467 114.162 13.8303 114.181 13.8122L114.701 15.9367C115.184 23.4869 115.923 31.4672 116.994 39.8237C117.792 46.056 118.716 52.0367 119.729 57.752C120.184 60.3193 120.065 62.9539 119.376 65.4685C115.716 78.8326 112.055 92.1966 108.394 105.561L107.505 113.383C106.927 118.474 103.679 122.878 98.9748 124.906C95.0486 126.599 89.7276 129.369 83.3608 133.843C69.2197 143.78 47.0526 157.73 43.4218 167.476C39.791 177.222 44.7595 194.802 44.7595 194.802C39.6731 197.029 33.595 199.28 26.6053 201.109C18.519 203.225 11.1808 204.261 5.01151 204.739C3.42612 192.542 1.8407 180.344 0.255386 168.146C-2.54182 146.625 7.70934 125.498 26.3452 114.377ZM75.1128 87.9801C76.7083 89.6444 78.9015 90.7693 81.1852 91.0887C79.0516 90.2551 77.0356 89.2255 75.1128 87.9801ZM79.5694 92.6316C77.0341 91.6983 74.7135 90.3229 72.6737 88.5519C74.3347 90.709 76.8798 92.2125 79.5694 92.6316ZM72.5165 91.424C72.9385 92.266 73.8749 92.8476 74.8161 92.8578C74.4855 92.6145 74.0208 92.343 73.6765 92.1244C73.3274 91.9105 72.883 91.6142 72.5165 91.424ZM75.8776 93.152C76.3904 93.8727 77.2105 94.3728 78.0848 94.5041C77.4463 93.9035 76.7036 93.4461 75.8776 93.152ZM76.418 96.8085C74.7196 95.8707 73.3051 94.6537 71.9907 93.2349C72.6203 95.1139 74.4266 96.6365 76.418 96.8085Z" fill="#A67C8C"/>
<path d="M85.9989 89.7801L95.9062 68.3628C96.3569 67.3883 96.4479 66.2815 96.1624 65.2465L96.1469 65.1909C95.7759 63.8458 94.8264 62.7612 93.5419 62.2153C92.65 61.8361 91.6833 61.755 90.7656 61.9644L91.4679 53.3972C92.887 54.1947 94.4736 54.7028 96.082 54.8539C94.5561 54.223 93.0195 53.5336 91.5176 52.7899L91.5585 52.292C93.0942 52.9171 94.7654 53.2219 96.4097 53.1571C94.7859 52.7268 93.1432 52.2376 91.5293 51.6883L88.5204 29.1223C88.5175 29.1162 88.5137 29.1082 88.5106 29.1017C89.8598 29.1498 91.2298 28.8388 92.4023 28.1928C91.5325 28.2539 90.3411 28.4077 89.4696 28.493C89.07 28.5348 88.6739 28.5674 88.2778 28.5995C88.1888 28.4027 88.0837 28.1649 87.9661 27.8891C88.9982 27.7977 90.0128 27.4997 90.9112 27.0047C90.0414 27.0658 88.85 27.2196 87.9785 27.3049C87.8959 27.3135 87.8142 27.3201 87.7319 27.3281C85.8837 22.8063 82.1247 11.3414 87.9472 3.89769C88.7069 2.92637 89.6972 1.93743 91.0047 1.03125C91.1955 1.55066 91.3893 2.06912 91.5821 2.58783L91.3762 3.76108C90.9717 6.06727 91.2678 8.35801 92.2324 10.3856C93.0808 12.1689 94.2358 13.3437 95.6655 13.8772C95.6979 13.8894 95.7319 13.8953 95.7657 13.8953C95.8006 13.8953 95.8346 13.8866 95.8675 13.874C97.3308 17.684 98.7916 21.4949 100.204 25.3224C100.394 27.6175 100.63 30.4336 100.911 33.7724C100.928 33.9751 100.926 34.1815 100.904 34.3855C100.704 36.2251 100.525 38.0922 100.372 39.9354C99.9048 45.5431 99.6477 51.245 99.6075 56.8829C99.6053 57.2045 99.5551 57.5228 99.4586 57.8292C98.1377 62.013 96.9111 66.2905 95.8125 70.5421C94.8697 74.1905 93.9973 77.9145 93.2193 81.611C93.17 81.8448 93.0954 82.0719 92.9976 82.2858C91.3757 85.8297 87.902 90.0558 87.6154 90.4016C86.3564 91.7209 84.9517 93.0276 83.4343 94.2969C84.4105 92.8669 85.2684 91.3592 85.9989 89.7801Z" fill="#A67C8C"/>
<path d="M66.5444 81.4831C67.5064 79.2542 68.6414 76.8812 69.9841 74.4125C71.4861 71.651 73.0339 69.1654 74.5495 66.9461C75.6628 67.9574 76.9694 68.7588 78.3709 69.2708C77.1942 68.3788 76.0212 67.439 74.8822 66.4631C74.9839 66.3163 75.0855 66.17 75.1869 66.0257C76.3837 66.8232 77.7254 67.4053 79.1186 67.7127C77.8475 66.9924 76.574 66.2252 75.3284 65.4184C75.3258 65.2632 75.3228 65.1089 75.3212 64.9516C76.3454 65.8095 77.6006 66.4026 78.9079 66.6177C78.1865 66.1278 77.1551 65.5119 76.4174 65.04C76.045 64.8053 75.6817 64.565 75.3182 64.3243C75.3158 62.5758 75.3759 60.7112 75.5259 58.7427C75.677 56.7598 75.9027 54.8907 76.1744 53.1429C77.7193 53.6667 79.376 53.874 80.988 53.7249C79.4199 53.397 77.832 53.0158 76.2651 52.5794C76.2915 52.4179 76.3179 52.2562 76.345 52.0968C77.8854 52.3721 79.4832 52.3436 80.9966 51.9968C79.4919 51.8866 77.9636 51.7311 76.4452 51.5259C76.4758 51.3545 76.5068 51.1845 76.5382 51.0156C77.7625 51.2919 79.06 51.2677 80.2554 50.9247C79.3938 50.7909 78.1979 50.676 77.3293 50.5654C77.0982 50.5376 76.8691 50.5068 76.6407 50.475C76.6508 50.4224 76.6606 50.3679 76.6709 50.3156C75.693 47.4607 75.117 44.9753 74.7615 43.0729C73.7847 37.8444 72.9237 33.2356 74.9526 28.5495C75.9389 26.2717 77.3207 24.6391 78.3924 23.5811C78.4135 23.6286 78.4346 23.677 78.4558 23.7247C78.4308 23.7263 78.4057 23.7303 78.3814 23.7388C78.2737 23.7757 78.1981 23.8731 78.1889 23.9866L77.9941 26.39C77.832 28.3932 78.2673 30.3273 79.253 31.9837C80.1219 33.4434 81.2063 34.358 82.4759 34.7018C82.5006 34.7083 82.5257 34.7116 82.5507 34.7116C82.6129 34.7116 82.6739 34.6915 82.7245 34.6531C82.7278 34.6505 82.7302 34.6472 82.7334 34.6445C83.0771 35.6518 83.4147 36.6761 83.743 37.7221C86.621 46.8895 88.1806 55.3797 88.9962 62.7418C85.7549 64.5451 82.6346 66.6062 79.7158 68.8816C75.5159 72.1556 71.6699 75.9088 68.2842 80.037C67.0293 81.5672 65.9157 83.175 64.9746 84.8152C62.1011 89.8236 56.8097 96.8467 47.9208 101.863C46.4371 102.7 44.9147 103.445 43.3589 104.103L66.5444 81.4831Z" fill="#A67C8C"/>
</g>
<defs>
<clipPath id="clip0_2079_2672">
<rect width="120" height="205" fill="white" transform="matrix(-1 0 0 1 120 0)"/>
</clipPath>
</defs>
</svg>
