<svg width="35" height="40" viewBox="0 0 35 40" fill="none" xmlns="http://www.w3.org/2000/svg">
<path opacity="0.5" d="M13.8158 2.49981C14.985 2.49963 16.1105 2.94418 16.964 3.7433C17.8175 4.54242 18.3351 5.63627 18.4118 6.80297L18.4211 7.10507V15.588L28.4458 16.7024C30.1838 16.8956 31.7965 17.7006 32.9956 18.9735C34.1946 20.2465 34.9018 21.9044 34.9908 23.6509L35 24.0248V24.6051C35 28.4338 33.5098 32.1121 30.8452 34.8614C28.1805 37.6106 24.5505 39.2149 20.7237 39.3345L20.2632 39.3419H19.0216C16.3735 39.3419 13.7744 38.6283 11.4975 37.2762C9.22058 35.9241 7.35007 33.9836 6.08263 31.6585L5.84132 31.1961L0.606053 20.7256C-0.0571053 19.3993 0.434737 17.6253 1.98211 16.9898C3.90342 16.2032 5.72895 16.0559 7.60974 17.0119C8.01868 17.2201 8.42026 17.4761 8.81447 17.7745L9.21053 18.0877V7.10507C9.21053 5.88368 9.69572 4.71231 10.5594 3.84866C11.423 2.985 12.5944 2.49981 13.8158 2.49981ZM3.68421 9.86823C4.17277 9.86823 4.64131 10.0623 4.98678 10.4078C5.33224 10.7532 5.52632 11.2218 5.52632 11.7103C5.52632 12.1989 5.33224 12.6674 4.98678 13.0129C4.64131 13.3584 4.17277 13.5524 3.68421 13.5524H1.84211C1.35355 13.5524 0.885002 13.3584 0.53954 13.0129C0.194078 12.6674 0 12.1989 0 11.7103C0 11.2218 0.194078 10.7532 0.53954 10.4078C0.885002 10.0623 1.35355 9.86823 1.84211 9.86823H3.68421ZM25.7895 8.02612C26.259 8.02664 26.7106 8.20643 27.052 8.52874C27.3934 8.85105 27.5989 9.29156 27.6264 9.76027C27.6539 10.229 27.5014 10.6905 27.2 11.0506C26.8987 11.4106 26.4712 11.642 26.005 11.6974L25.7895 11.7103H23.9474C23.4779 11.7098 23.0263 11.53 22.6848 11.2077C22.3434 10.8854 22.138 10.4449 22.1105 9.97618C22.083 9.50748 22.2355 9.04595 22.5368 8.68591C22.8382 8.32586 23.2656 8.09447 23.7318 8.03902L23.9474 8.02612H25.7895ZM4.98658 1.19744L6.82868 3.03954C7.16424 3.38697 7.34991 3.85229 7.34572 4.33528C7.34152 4.81828 7.14779 5.2803 6.80624 5.62184C6.4647 5.96338 6.00268 6.15712 5.51969 6.16131C5.03669 6.16551 4.57137 5.97984 4.22395 5.64428L2.38184 3.80218C2.04629 3.45475 1.86061 2.98943 1.86481 2.50644C1.86901 2.02344 2.06274 1.56142 2.40428 1.21988C2.74582 0.878338 3.20785 0.684606 3.69084 0.680409C4.17383 0.676212 4.63915 0.861885 4.98658 1.19744ZM25.2497 1.19744C25.5951 1.54289 25.7891 2.01135 25.7891 2.49981C25.7891 2.98827 25.5951 3.45673 25.2497 3.80218L23.4076 5.64428C23.2377 5.82022 23.0344 5.96056 22.8097 6.0571C22.5849 6.15364 22.3432 6.20446 22.0986 6.20658C21.854 6.20871 21.6115 6.1621 21.3851 6.06948C21.1587 5.97686 20.953 5.84007 20.7801 5.66711C20.6071 5.49415 20.4703 5.28848 20.3777 5.06209C20.2851 4.8357 20.2385 4.59314 20.2406 4.34854C20.2427 4.10395 20.2935 3.86223 20.3901 3.63748C20.4866 3.41274 20.627 3.20947 20.8029 3.03954L22.645 1.19744C22.9904 0.852098 23.4589 0.658096 23.9474 0.658096C24.4358 0.658096 24.9043 0.852098 25.2497 1.19744Z" fill="#F4F4F4"/>
</svg>
