<svg width="120" height="205" viewBox="0 0 120 205" fill="none" xmlns="http://www.w3.org/2000/svg">
<g clip-path="url(#clip0_2079_2663)">
<path d="M27.2053 63.9743C26.4605 64.2908 25.9102 64.9196 25.695 65.6995L25.6795 65.7553C25.5142 66.3548 25.5668 66.9961 25.8281 67.5606L28.679 73.7236L31.667 78.2979C32.2386 79.1731 33.1612 79.755 34.1978 79.8942C35.2183 80.0315 36.2398 79.7216 37.0038 79.0443L37.0522 79.0012C37.375 78.7099 37.6727 78.3876 37.9367 78.0441C38.8946 76.7971 38.9284 75.0985 38.0209 73.8176C36.9932 72.3666 35.8843 70.9468 34.7249 69.5974C33.4715 68.1387 32.1358 66.7379 30.7354 65.4073C30.7289 65.4782 30.7213 65.5512 30.715 65.6219L30.2397 64.9429C29.8672 64.5972 29.4918 64.255 29.1108 63.9197C28.4948 63.6995 27.8199 63.7132 27.2053 63.9743Z" fill="#A67C8C"/>
<path d="M39.8721 31.4987C40.7967 29.9453 41.2047 28.1286 41.0522 26.2447L40.9122 24.5176C40.7706 24.6881 40.6363 24.861 40.5057 25.0348C39.0705 26.945 38.2884 29.0272 37.8626 30.7268C37.862 30.7291 37.8615 30.7313 37.8609 30.7336C37.8231 30.8846 37.7882 31.0326 37.7558 31.1772C37.7552 31.1799 37.7545 31.1828 37.7539 31.1856C37.722 31.3281 37.6929 31.4671 37.6659 31.6026C37.6636 31.6144 37.6614 31.6258 37.6591 31.6376C37.6336 31.7665 37.6102 31.8923 37.5888 32.0141C37.5881 32.0184 37.5873 32.0228 37.5865 32.027C37.5647 32.1519 37.5451 32.2724 37.5272 32.3889C37.5251 32.4028 37.5231 32.4163 37.521 32.4301C37.504 32.5432 37.4882 32.6531 37.4744 32.7575C37.4744 32.7576 37.4745 32.7575 37.4744 32.7575C37.4148 33.2099 37.3844 33.5779 37.3691 33.8327C38.3313 33.4584 39.1719 32.6752 39.8721 31.4987Z" fill="#A67C8C"/>
<path d="M5.73682 13.1638C6.9614 12.4627 7.91483 11.2243 8.57434 9.47621C9.4141 7.24932 9.52366 4.80069 8.89119 2.39558L8.26156 0C8.16649 0.162625 8.07518 0.325827 7.98644 0.489356C7.95729 0.543156 7.92981 0.597128 7.90131 0.651016C7.84293 0.761269 7.78505 0.871576 7.72941 0.982091C7.6975 1.04554 7.66699 1.10903 7.63604 1.17253C7.58649 1.27398 7.5375 1.37546 7.49022 1.47703C7.45924 1.54363 7.42905 1.6102 7.399 1.6768C7.35415 1.77641 7.31014 1.87602 7.26736 1.97564C7.2388 2.04203 7.21053 2.10836 7.18293 2.17473C7.14061 2.27638 7.09969 2.37798 7.05947 2.47955C7.03447 2.54282 7.00908 2.6061 6.98486 2.66931C6.94284 2.77881 6.90271 2.88817 6.86304 2.99743C6.84331 3.05193 6.82273 3.10652 6.80353 3.16091C6.75407 3.30118 6.70686 3.44113 6.6611 3.58082C6.65352 3.60384 6.64528 3.62699 6.63781 3.65001C6.58468 3.81433 6.53418 3.97812 6.48594 4.14133C6.47391 4.18207 6.46303 4.22252 6.45129 4.26318C6.41628 4.38445 6.38195 4.50553 6.34951 4.62599C6.33442 4.68226 6.32032 4.73816 6.30577 4.79423C6.27846 4.89909 6.25171 5.00382 6.22632 5.10798C6.21172 5.1679 6.19776 5.22749 6.18377 5.28718C6.16025 5.38749 6.13743 5.48752 6.1156 5.58702C6.10249 5.64673 6.08967 5.70634 6.07711 5.76579C6.05612 5.86561 6.03607 5.96495 6.01666 6.06392C6.00549 6.12084 5.99422 6.17788 5.98358 6.23451C5.96402 6.33847 5.94578 6.4416 5.92797 6.54442C5.91932 6.59423 5.91022 6.64433 5.90203 6.69388C5.88192 6.81494 5.86324 6.93488 5.84543 7.0542C5.84092 7.08421 5.83582 7.11462 5.83148 7.14452C5.8095 7.29543 5.78922 7.4449 5.77066 7.59272C5.768 7.61405 5.76578 7.63483 5.76319 7.65608C5.74792 7.78018 5.73361 7.9034 5.72064 8.02508C5.71563 8.07189 5.71134 8.11779 5.70668 8.16422C5.69712 8.25935 5.68782 8.35408 5.67951 8.44752C5.67485 8.50033 5.67066 8.55243 5.66643 8.60466C5.65938 8.69026 5.65276 8.77538 5.64673 8.85949C5.64291 8.91361 5.6393 8.96735 5.63586 9.02083C5.63067 9.10162 5.62598 9.1816 5.62164 9.2609C5.61878 9.314 5.6159 9.36714 5.61336 9.41954C5.60963 9.49855 5.60648 9.57639 5.60357 9.65374C5.60167 9.70326 5.59958 9.75317 5.59806 9.80195C5.59546 9.88327 5.59363 9.96287 5.59191 10.0422C5.59097 10.0849 5.58967 10.1284 5.58903 10.1705C5.58725 10.2771 5.58631 10.3815 5.58599 10.4841C5.58585 10.5265 5.58602 10.5676 5.58614 10.6092C5.58626 10.6907 5.58649 10.7719 5.58748 10.8507C5.58809 10.9015 5.5892 10.9503 5.5901 10.9999C5.59115 11.0565 5.59214 11.1134 5.59354 11.1686C5.59491 11.2221 5.59657 11.274 5.59829 11.3261C5.59984 11.3744 5.60144 11.4227 5.60325 11.4697C5.60532 11.5226 5.6075 11.5744 5.60983 11.6256C5.61179 11.6681 5.6138 11.7102 5.6159 11.7515C5.6186 11.8042 5.6214 11.8563 5.62435 11.9069C5.62633 11.9416 5.62846 11.9753 5.63058 12.0091C5.63394 12.0629 5.63735 12.1166 5.64099 12.1679C5.64268 12.192 5.64446 12.2148 5.64621 12.2383C5.6504 12.2955 5.65466 12.3526 5.65908 12.4064C5.68464 12.7178 5.71283 12.9741 5.73682 13.1638Z" fill="#A67C8C"/>
<path d="M24.1041 12.7573C24.1042 12.7665 24.1042 12.7757 24.1044 12.7847C24.1051 12.8404 24.106 12.8941 24.1071 12.9444C24.1091 13.0328 24.1115 13.1154 24.1143 13.1865C25.2353 12.6496 26.1604 11.6265 26.8677 10.1397C27.781 8.22039 28.0607 6.04896 27.6768 3.86048L27.3058 1.74609C27.2078 1.88695 27.113 2.02851 27.0208 2.17059C26.9905 2.21722 26.9622 2.26415 26.9326 2.31087C26.8718 2.40679 26.8108 2.50268 26.7525 2.59897C26.719 2.65443 26.6874 2.71018 26.6546 2.76579C26.603 2.85363 26.5509 2.94138 26.5012 3.02948C26.4677 3.08891 26.436 3.14854 26.4033 3.20811C26.357 3.29286 26.3103 3.37756 26.2657 3.46249C26.2338 3.52325 26.2034 3.58413 26.1724 3.64496C26.1296 3.72892 26.0867 3.81285 26.0457 3.89684C26.0158 3.95798 25.9872 4.01909 25.9582 4.0802C25.9185 4.16399 25.8788 4.24778 25.8407 4.33151C25.8129 4.39266 25.7862 4.45371 25.7593 4.51477C25.7223 4.59856 25.6856 4.6823 25.6503 4.76594C25.6247 4.82662 25.5999 4.88714 25.5751 4.9477C25.5407 5.03164 25.5067 5.11553 25.4739 5.19923C25.4504 5.25912 25.4276 5.31885 25.405 5.37857C25.3729 5.46285 25.3414 5.54703 25.3109 5.63102C25.2897 5.68951 25.2689 5.74788 25.2484 5.8062C25.2185 5.8911 25.1893 5.9758 25.1609 6.06029C25.1417 6.11732 25.1229 6.17422 25.1044 6.23105C25.0766 6.31633 25.0497 6.40131 25.0234 6.48603C25.0063 6.54132 24.9893 6.59655 24.9727 6.65161C24.947 6.73744 24.9221 6.82292 24.8978 6.90811C24.8827 6.96127 24.8674 7.01442 24.8528 7.06732C24.8289 7.15393 24.806 7.24002 24.7835 7.32582C24.7703 7.37641 24.7569 7.42708 24.7441 7.47741C24.7219 7.56534 24.7007 7.65258 24.6799 7.73957C24.6686 7.78655 24.6571 7.83373 24.6463 7.88042C24.6255 7.97036 24.6058 8.0594 24.5865 8.14817C24.5771 8.1911 24.5674 8.23435 24.5584 8.27699C24.5389 8.3695 24.5206 8.46094 24.5027 8.55207C24.4952 8.58978 24.4874 8.6279 24.4802 8.66538C24.4616 8.76278 24.4443 8.85879 24.4274 8.95444C24.4221 8.98452 24.4163 9.01512 24.4111 9.04502C24.393 9.14985 24.3763 9.25317 24.3602 9.35567C24.3571 9.3757 24.3536 9.39621 24.3505 9.41612C24.2935 9.78544 24.249 10.1388 24.2143 10.4725C24.2123 10.492 24.2107 10.5106 24.2087 10.5299C24.1998 10.6191 24.1911 10.7076 24.1835 10.7939C24.1803 10.8304 24.1776 10.8655 24.1747 10.9015C24.169 10.9686 24.1634 11.0358 24.1586 11.1008C24.1554 11.1444 24.1528 11.1864 24.1498 11.2291C24.1461 11.2845 24.1423 11.3402 24.139 11.394C24.1362 11.4408 24.1339 11.486 24.1315 11.5316C24.129 11.5782 24.1264 11.6251 24.1244 11.6705C24.122 11.7197 24.1202 11.7672 24.1183 11.8148C24.1168 11.8537 24.1152 11.8929 24.1139 11.9306C24.1122 11.9815 24.1109 12.0309 24.1096 12.0797C24.1088 12.1108 24.108 12.1422 24.1073 12.1725C24.1062 12.2243 24.1054 12.2746 24.1048 12.3239C24.1044 12.3486 24.1041 12.3733 24.1039 12.3973C24.1034 12.4501 24.1031 12.5013 24.1031 12.5509C24.103 12.5677 24.103 12.5844 24.1031 12.6008C24.1032 12.6548 24.1035 12.7072 24.1041 12.7573Z" fill="#A67C8C"/>
<path d="M93.6547 114.377C90.2822 112.364 86.9098 110.352 83.5372 108.339C79.1917 107.335 75.0409 105.727 71.1401 103.526C61.8733 98.2971 56.3606 90.9818 53.3678 85.7656C52.4794 84.2169 51.4263 82.6971 50.2381 81.2484C46.9421 77.2294 43.1978 73.5754 39.1092 70.3882C36.8127 68.598 34.3884 66.9427 31.8772 65.4464C33.0727 66.6164 34.2195 67.8359 35.3046 69.0988C36.4797 70.4664 37.6034 71.9052 38.6447 73.3754C39.7472 74.9318 39.7064 76.9948 38.543 78.5094C38.2509 78.8897 37.9215 79.2462 37.564 79.5686L37.5097 79.6172C36.7248 80.3129 35.7146 80.6902 34.6727 80.6902C34.4813 80.6902 34.2887 80.6775 34.0963 80.6516C32.839 80.4827 31.7204 79.7771 31.027 78.7156L30.8949 78.5134L35.7355 88.9777C37.2264 92.2006 39.2758 95.1122 41.8269 97.6315C44.4369 100.209 46.8712 103.006 49.062 105.945C51.8464 109.681 54.2843 113.706 56.3082 117.91C56.4017 118.105 56.4791 118.302 56.5454 118.513C58.4391 124.525 61.0805 130.286 64.3956 135.632C68.2237 141.806 77.0891 153.666 77.0891 153.666C71.5136 148.698 66.6964 142.97 62.7717 136.639C59.3724 131.157 56.6644 125.251 54.7225 119.086C54.6837 118.963 54.6393 118.849 54.5861 118.739C54.4401 118.436 54.2874 118.135 54.137 117.834C54.0926 118.695 54.0797 119.556 54.1125 120.415C54.1844 122.241 54.4224 124.056 54.8476 125.828C55.0575 126.715 55.3132 127.59 55.6132 128.451C55.9052 129.315 56.255 130.159 56.632 130.991C57.3986 132.65 58.3245 134.238 59.3795 135.754C58.1369 134.386 57.0856 132.838 56.2301 131.187C55.7977 130.363 55.4308 129.506 55.1022 128.634C54.78 127.76 54.514 126.866 54.2902 125.961C54.0877 125.051 53.9121 124.135 53.8101 123.208C53.7143 122.282 53.6547 121.351 53.6669 120.421C53.6745 119.398 53.7548 118.376 53.9048 117.366C53.5217 116.613 53.1224 115.867 52.7124 115.127C52.1376 122.989 53.9644 130.993 58.233 137.665C53.2638 131.31 51.3009 122.783 52.552 114.839C52.415 114.595 52.2799 114.349 52.14 114.107C52.1048 114.244 52.0678 114.38 52.0351 114.518C51.7549 115.671 51.5367 116.839 51.4012 118.014C51.1288 120.364 51.1261 122.743 51.4684 125.078C51.6218 126.248 51.8672 127.405 52.1828 128.542C52.492 129.681 52.8912 130.796 53.3468 131.887C53.809 132.975 54.3373 134.038 54.9314 135.066C55.525 136.095 56.1865 137.085 56.8953 138.047C55.2857 136.281 53.951 134.251 52.9379 132.068C52.425 130.979 52.0076 129.846 51.6609 128.691C51.3226 127.535 51.0673 126.352 50.9009 125.158C50.7234 123.964 50.6659 122.756 50.6629 121.551L50.6883 120.648C50.6975 120.346 50.7294 120.047 50.7489 119.746L50.7831 119.296L50.8374 118.848C50.8792 118.55 50.9041 118.249 50.9597 117.953C51.1358 116.763 51.4183 115.591 51.7652 114.444C51.8297 114.234 51.8996 114.026 51.9699 113.818C50.6159 111.491 49.1336 109.239 47.5299 107.087C45.8732 104.865 44.0719 102.727 42.1601 100.706L42.1454 100.729C37.888 98.0187 34.0267 94.8953 30.9788 91.6965L30.9382 91.651C30.8095 91.4974 28.3078 88.4967 26.4175 85.2704C24.5998 88.3299 21.9145 90.9514 18.8385 92.6896C19.6018 92.0053 20.3609 91.3327 21.099 90.64C22.963 88.9037 24.674 87.0061 26.2724 85.0198C26.1297 84.7711 25.9913 84.5217 25.8581 84.2723C24.0943 86.5777 21.71 88.4724 19.1168 89.7129C21.3899 87.8718 23.5994 85.9982 25.7054 83.9812C25.6293 83.8341 25.5551 83.6872 25.4835 83.5409C25.143 83.8205 24.7925 84.088 24.4348 84.3436C23.2685 85.1591 22.0259 85.8706 20.6826 86.3555C21.6459 85.5853 23.0921 84.6013 24.1042 83.8755C24.4541 83.6312 24.8483 83.3508 25.256 83.0605C25.1255 82.7717 25.0228 82.4686 24.9475 82.1577C24.8943 82.1915 24.842 82.2271 24.7886 82.2605C23.5733 83.0009 22.2883 83.6328 20.9171 84.0322C21.9271 83.3241 23.4323 82.433 24.4881 81.7724C24.5938 81.7081 24.7042 81.6405 24.817 81.5711C24.0683 78.0452 23.2361 74.4983 22.3373 71.0203C21.4276 67.4994 20.4283 63.9614 19.361 60.4736C17.0577 61.9015 14.392 62.8309 11.771 63.0819C13.3769 62.4243 15.6429 61.5163 17.1828 60.7793C17.8509 60.4694 18.5064 60.143 19.1569 59.8075C19.0917 59.5964 19.0255 59.3861 18.9597 59.1754C16.3502 60.4587 13.3669 61.1223 10.5302 61.0167C12.2091 60.578 14.5757 59.9787 16.1997 59.4526C17.069 59.1826 17.9228 58.8861 18.7728 58.5765C18.7548 58.5191 18.7371 58.4614 18.719 58.404C18.5897 57.9937 18.5159 57.5699 18.4924 57.1412C16.7132 57.9431 14.7062 58.3158 12.8234 58.1503C14.2134 57.7021 15.5844 57.3464 16.9618 56.9038C17.4721 56.7461 17.9745 56.5783 18.4757 56.4081C18.4249 50.9775 18.1734 45.4919 17.724 40.0941C17.5717 38.2666 17.3944 36.4155 17.1966 34.5921C17.1612 34.2668 17.1571 33.937 17.1843 33.6124C17.2214 33.171 17.2577 32.7394 17.2936 32.3131C17.1726 32.6626 17.0495 33.0114 16.9298 33.3614C16.9298 33.3614 16.9957 32.8455 17.0858 31.9454C15.7203 32.3058 14.244 32.2847 12.908 31.8622C13.7729 31.7516 14.9713 31.6689 15.8427 31.5817C16.2771 31.5412 16.7059 31.4916 17.1347 31.4416C17.1732 31.0336 17.2143 30.5693 17.2556 30.0555C15.7436 30.5838 14.0443 30.6225 12.5258 30.1423C13.3907 30.0317 14.5891 29.949 15.4605 29.8618C16.0749 29.8045 16.6782 29.7295 17.2865 29.6603C17.9118 21.4833 18.403 2.4884 9.64804 1.10547L9.94878 2.24947C10.6115 4.77045 10.4958 7.33946 9.61362 9.67832C8.83859 11.7328 7.6687 13.141 6.13619 13.8634C6.09739 13.8817 6.05577 13.8908 6.01395 13.8908C5.96898 13.8908 5.92401 13.8802 5.88294 13.8591C5.85884 13.8467 5.8378 13.8303 5.81854 13.8122L5.29939 15.9367C4.81568 23.4869 4.07701 31.4672 3.00625 39.8237C2.20767 46.056 1.2835 52.0367 0.270622 57.752C-0.184345 60.3193 -0.0650068 62.9539 0.62379 65.4685C4.28438 78.8326 7.94496 92.1966 11.6056 105.561L12.4945 113.383C13.073 118.474 16.3207 122.878 21.0252 124.906C24.9514 126.599 30.2723 129.369 36.6391 133.843C50.7802 143.78 72.9473 157.73 76.5781 167.476C80.209 177.222 75.2405 194.802 75.2405 194.802C80.3268 197.029 86.405 199.28 93.3946 201.109C101.481 203.225 108.819 204.261 114.988 204.739C116.574 192.542 118.159 180.344 119.745 168.146C122.542 146.625 112.291 125.498 93.6547 114.377ZM44.8871 87.9801C43.2916 89.6444 41.0985 90.7693 38.8148 91.0887C40.9484 90.2551 42.9644 89.2255 44.8871 87.9801ZM40.4305 92.6316C42.9658 91.6983 45.2864 90.3229 47.3262 88.5519C45.6652 90.709 43.1201 92.2125 40.4305 92.6316ZM47.4835 91.424C47.0614 92.266 46.1251 92.8476 45.1838 92.8578C45.5145 92.6145 45.9792 92.343 46.3234 92.1244C46.6725 91.9105 47.1169 91.6142 47.4835 91.424ZM44.1224 93.152C43.6096 93.8727 42.7894 94.3728 41.9151 94.5041C42.5536 93.9035 43.2964 93.4461 44.1224 93.152ZM43.5819 96.8085C45.2804 95.8707 46.6948 94.6537 48.0093 93.2349C47.3797 95.1139 45.5734 96.6365 43.5819 96.8085Z" fill="#A67C8C"/>
<path d="M34.0011 89.7801L24.0938 68.3628C23.6431 67.3883 23.5521 66.2815 23.8376 65.2465L23.8531 65.1909C24.2241 63.8458 25.1736 62.7612 26.4581 62.2153C27.35 61.8361 28.3167 61.755 29.2344 61.9644L28.5321 53.3972C27.113 54.1947 25.5264 54.7028 23.918 54.8539C25.4439 54.223 26.9805 53.5336 28.4824 52.7899L28.4415 52.292C26.9058 52.9171 25.2346 53.2219 23.5903 53.1571C25.2141 52.7268 26.8568 52.2376 28.4707 51.6883L31.4796 29.1223C31.4825 29.1162 31.4863 29.1082 31.4894 29.1017C30.1402 29.1498 28.7702 28.8388 27.5977 28.1928C28.4675 28.2539 29.6589 28.4077 30.5304 28.493C30.93 28.5348 31.3261 28.5674 31.7222 28.5995C31.8112 28.4027 31.9163 28.1649 32.0339 27.8891C31.0018 27.7977 29.9872 27.4997 29.0888 27.0047C29.9586 27.0658 31.15 27.2196 32.0215 27.3049C32.1041 27.3135 32.1858 27.3201 32.2681 27.3281C34.1163 22.8063 37.8753 11.3414 32.0528 3.89769C31.2931 2.92637 30.3028 1.93743 28.9953 1.03125C28.8045 1.55066 28.6107 2.06912 28.4179 2.58783L28.6238 3.76108C29.0283 6.06727 28.7322 8.35801 27.7676 10.3856C26.9192 12.1689 25.7642 13.3437 24.3345 13.8772C24.3021 13.8894 24.2681 13.8953 24.2343 13.8953C24.1994 13.8953 24.1654 13.8866 24.1325 13.874C22.6692 17.684 21.2084 21.4949 19.7965 25.3224C19.6056 27.6175 19.3697 30.4336 19.0886 33.7724C19.0716 33.9751 19.0742 34.1815 19.0964 34.3855C19.2959 36.2251 19.4749 38.0922 19.6283 39.9354C20.0952 45.5431 20.3523 51.245 20.3925 56.8829C20.3947 57.2045 20.4449 57.5228 20.5414 57.8292C21.8623 62.013 23.0889 66.2905 24.1875 70.5421C25.1303 74.1905 26.0027 77.9145 26.7807 81.611C26.83 81.8448 26.9046 82.0719 27.0024 82.2858C28.6243 85.8297 32.098 90.0558 32.3846 90.4016C33.6436 91.7209 35.0483 93.0276 36.5657 94.2969C35.5895 92.8669 34.7316 91.3592 34.0011 89.7801Z" fill="#A67C8C"/>
<path d="M53.4556 81.4831C52.4936 79.2542 51.3586 76.8812 50.0159 74.4125C48.5139 71.651 46.9661 69.1654 45.4505 66.9461C44.3372 67.9574 43.0306 68.7588 41.6291 69.2708C42.8058 68.3788 43.9788 67.439 45.1178 66.4631C45.0161 66.3163 44.9145 66.17 44.8131 66.0257C43.6163 66.8232 42.2746 67.4053 40.8814 67.7127C42.1525 66.9924 43.426 66.2252 44.6716 65.4184C44.6742 65.2632 44.6772 65.1089 44.6788 64.9516C43.6546 65.8095 42.3994 66.4026 41.0921 66.6177C41.8135 66.1278 42.8449 65.5119 43.5826 65.04C43.955 64.8053 44.3183 64.565 44.6818 64.3243C44.6842 62.5758 44.6241 60.7112 44.4741 58.7427C44.323 56.7598 44.0973 54.8907 43.8256 53.1429C42.2807 53.6667 40.624 53.874 39.012 53.7249C40.5801 53.397 42.168 53.0158 43.7349 52.5794C43.7085 52.4179 43.6821 52.2562 43.655 52.0968C42.1146 52.3721 40.5168 52.3436 39.0034 51.9968C40.5081 51.8866 42.0364 51.7311 43.5548 51.5259C43.5242 51.3545 43.4932 51.1845 43.4618 51.0156C42.2375 51.2919 40.94 51.2677 39.7446 50.9247C40.6062 50.7909 41.8021 50.676 42.6707 50.5654C42.9018 50.5376 43.1309 50.5068 43.3593 50.475C43.3492 50.4224 43.3394 50.3679 43.3291 50.3156C44.307 47.4607 44.883 44.9753 45.2385 43.0729C46.2153 37.8444 47.0763 33.2356 45.0474 28.5495C44.0611 26.2717 42.6793 24.6391 41.6076 23.5811C41.5865 23.6286 41.5654 23.677 41.5442 23.7247C41.5692 23.7263 41.5943 23.7303 41.6186 23.7388C41.7263 23.7757 41.8019 23.8731 41.8111 23.9866L42.0059 26.39C42.168 28.3932 41.7327 30.3273 40.747 31.9837C39.8781 33.4434 38.7937 34.358 37.5241 34.7018C37.4994 34.7083 37.4743 34.7116 37.4493 34.7116C37.3871 34.7116 37.3261 34.6915 37.2755 34.6531C37.2722 34.6505 37.2698 34.6472 37.2666 34.6445C36.9229 35.6518 36.5853 36.6761 36.257 37.7221C33.379 46.8895 31.8194 55.3797 31.0038 62.7418C34.2451 64.5451 37.3654 66.6062 40.2842 68.8816C44.4841 72.1556 48.3301 75.9088 51.7158 80.037C52.9707 81.5672 54.0843 83.175 55.0254 84.8152C57.8989 89.8236 63.1903 96.8467 72.0792 101.863C73.5629 102.7 75.0853 103.445 76.6411 104.103L53.4556 81.4831Z" fill="#A67C8C"/>
</g>
<defs>
<clipPath id="clip0_2079_2663">
<rect width="120" height="205" fill="white"/>
</clipPath>
</defs>
</svg>
