<svg width="30" height="73" viewBox="0 0 30 73" fill="none" xmlns="http://www.w3.org/2000/svg">
<path d="M18.5211 25.3984C22.0178 28.3976 25.3386 31.2996 28.725 34.1176C29.7374 34.9601 30.2802 35.7755 29.8531 37.1661C29.6244 37.9109 29.5186 38.773 29.6299 39.54C30.7026 46.932 28.0495 53.0871 24.0229 58.9571C21.231 63.0274 18.8147 67.3791 16.3491 71.6774C15.4421 73.2586 14.9201 73.5518 13.8171 71.8436C9.52195 65.1921 5.32865 58.4767 1.36273 51.6101C0.702592 50.4671 0.365918 49.2729 0.344286 47.9252C0.281882 44.034 0.188157 40.1417 0.00289574 36.2552C-0.0519462 35.1045 0.682701 34.6936 1.31779 34.1204C4.57357 31.182 7.83443 28.2495 11.1 25.3092C7.34876 21.4981 7.22036 20.6872 9.89631 15.2358C10.4879 14.0306 9.40602 13.8795 9.0408 13.3736C6.69108 10.1183 6.5977 5.59254 8.92789 2.85769C11.5174 -0.18151 15.7394 -0.876995 19.2372 1.15947C23.2869 3.51725 24.2418 9.24094 21.003 13.0331C19.9591 14.2554 20.0344 14.8481 20.8034 16.1226C22.7589 19.364 22.0851 21.8195 18.5211 25.3984ZM8.99299 42.7901C7.55629 44.804 6.31246 46.5655 5.04742 48.3105C4.63464 48.8799 4.14441 49.4314 4.58785 50.1794C7.09733 54.4127 9.3493 58.8388 13.2489 63.06C11.9355 55.8133 11.2925 49.291 8.99299 42.7901ZM17.2859 62.3053C17.4671 62.382 17.6484 62.4586 17.8296 62.5353C20.2907 58.4308 22.7493 54.3247 25.2169 50.2245C25.4574 49.825 25.4312 49.4207 25.1546 49.132C23.5289 47.435 22.6018 45.0607 20.3413 43.5962C19.2908 50.0289 18.2883 56.1671 17.2859 62.3053ZM18.1852 11.5972C19.4238 11.0327 19.7313 9.81249 19.8798 8.65092C20.1603 6.45809 19.321 4.64614 17.3223 3.80377C15.2367 2.92477 13.0289 2.96152 11.518 4.97535C10.2253 6.69848 9.61806 8.72881 11.0265 10.7813C11.5127 11.49 11.8982 12.3626 12.8557 10.9264C14.8438 7.94394 16.3122 8.20043 18.1852 11.5972ZM11.2325 37.6665C13.5951 37.6665 15.5113 37.6596 17.4274 37.6697C18.2358 37.6739 19.1519 37.7377 18.5865 36.4559C17.4474 33.8737 16.2387 31.3242 14.7956 28.1898C13.491 31.6598 12.459 34.4044 11.2325 37.6665ZM14.5869 22.9769C16.9553 22.9675 19.1113 21.2789 18.9121 19.6123C18.5649 16.7093 16.3097 17.2551 14.4456 17.1575C12.6602 17.064 10.8946 17.3611 11.0056 19.6523C11.1134 21.8776 12.848 22.7164 14.5869 22.9769ZM15.1617 63.7168C16.4722 59.1281 16.1817 54.7545 17.0487 50.5498C17.1879 49.8748 17.2881 49.1797 16.0588 49.5999C15.3626 49.8379 14.431 49.3419 13.411 49.1375C13.0806 54.0981 14.1457 58.6953 15.1617 63.7168ZM18.5012 29.6111C19.0309 31.2394 19.3958 32.3313 19.7419 33.4296C20.8752 37.0269 22.9771 37.7648 26.0474 35.6434C26.0957 35.61 26.0838 35.4837 26.1408 35.1921C23.5988 33.9088 21.4557 31.9132 18.5012 29.6111ZM2.57265 47.9648C4.8476 45.5588 6.90007 43.6545 6.81674 41.2637C6.76695 39.8358 4.2649 38.9938 2.57265 38.3157L2.57265 47.9648ZM4.07383 35.5647C5.2737 36.8835 6.50841 37.3697 7.78429 37.8496C8.86133 38.2548 9.45604 38.0093 9.6716 36.8643C10.0676 34.7609 10.4432 32.6535 10.9336 29.9649C8.32589 31.9873 6.57376 34.1191 4.07383 35.5647ZM27.0438 47.9117L27.0438 38.2702C25.7527 39.0626 24.7044 39.7457 23.6192 40.3592C22.7686 40.84 22.588 41.405 23.0923 42.2868C24.1509 44.1381 25.0824 46.079 27.0438 47.9117Z" fill="#F4F4F4"/>
</svg>
