<svg width="1920" height="1050" viewBox="0 0 1920 1050" fill="none" xmlns="http://www.w3.org/2000/svg">
<path fill-rule="evenodd" clip-rule="evenodd" d="M1920 0H0V890V1022.83C0.865211 1022.85 1.66745 1022.65 2.42396 1022.46C3.70291 1022.14 4.85114 1021.86 5.95195 1022.76C9.23995 1025.45 13.944 1029.21 18.144 1029.29C20.0357 1029.31 21.9274 1029.6 23.8191 1029.89C25.7914 1030.2 27.7637 1030.5 29.736 1030.5C30.2206 1030.5 30.7437 1030.51 31.2836 1030.52C32.6956 1030.55 34.2219 1030.59 35.472 1030.43C38.5048 1030.04 40.2799 1028.75 42.3223 1027.28C42.6234 1027.06 42.9304 1026.84 43.248 1026.62C47.856 1023.35 52.152 1024.81 55.296 1028.43C55.7052 1028.89 56.1011 1029.38 56.5007 1029.88C57.6248 1031.28 58.7779 1032.71 60.336 1033.62C60.9812 1034 62.0092 1033.73 63.0254 1033.46C64.0127 1033.21 64.9888 1032.95 65.592 1033.29C66.2519 1033.66 66.8088 1034.07 67.357 1034.46C68.1048 1035 68.8365 1035.53 69.792 1035.96C74.5696 1038.14 76.6721 1036.99 79.8851 1035.23C80.6749 1034.8 81.5318 1034.33 82.512 1033.86C88.008 1031.24 93.168 1030.76 99.24 1030.76C100.983 1030.76 102.763 1031.2 104.536 1031.63C107.232 1032.28 109.911 1032.93 112.416 1032.05C114.588 1031.29 116.746 1031.05 118.992 1030.8C119.624 1030.73 120.263 1030.66 120.912 1030.57C122.031 1030.43 123.149 1030.16 124.271 1029.9C125.917 1029.5 127.57 1029.11 129.24 1029.1C130.237 1029.08 131.206 1029.19 132.148 1029.29C134.063 1029.51 135.871 1029.71 137.592 1028.83C139.449 1027.9 140.942 1026.41 142.409 1024.95C144.355 1023.02 146.255 1021.12 148.896 1020.63C149.814 1020.46 150.555 1020.38 151.215 1020.32C152.762 1020.17 153.866 1020.06 155.784 1018.73C158.112 1017.08 161.472 1015.82 164.304 1015.18C168.029 1014.36 170.987 1016.98 173.918 1019.58C175.596 1021.07 177.265 1022.55 179.064 1023.38C181.797 1024.64 184.366 1023.59 187.087 1022.48C189.026 1021.69 191.041 1020.86 193.248 1020.83C195.749 1020.78 197.814 1021.25 199.754 1021.7C202.524 1022.34 205.038 1022.92 208.2 1021.83C213.584 1019.97 219.32 1019.52 225.062 1019.07C229.275 1018.73 233.492 1018.4 237.576 1017.51C239.271 1017.15 240.859 1017.06 242.47 1016.97C243.71 1016.9 244.962 1016.83 246.288 1016.63C247.405 1016.46 248.701 1016.36 250.05 1016.26C252.845 1016.05 255.871 1015.82 258.024 1014.89C259.225 1014.36 259.801 1012.93 260.376 1011.51C260.869 1010.28 261.361 1009.06 262.248 1008.41C263.579 1007.42 265.317 1006.85 267.049 1006.28C268.378 1005.84 269.704 1005.41 270.84 1004.78C272.623 1003.82 274.543 1003.01 276.465 1002.2C279.174 1001.07 281.888 999.929 284.232 998.326C285.95 997.15 287.444 994.859 288.959 992.536C291.19 989.116 293.466 985.626 296.568 985.527C298.346 985.468 300.32 985.642 302.343 985.821C306.026 986.147 309.87 986.486 312.984 985.456C314.523 984.951 316.032 984.45 317.518 983.956C330.629 979.598 341.964 975.831 356.688 975.66C363.528 975.612 380.328 980.45 385.32 985.503C385.895 986.096 386.191 986.893 386.486 987.691C386.844 988.656 387.201 989.622 388.056 990.222C388.57 990.587 389.701 990.152 390.833 989.718C391.921 989.3 393.011 988.882 393.552 989.174C395.98 990.543 398.471 993.248 401.04 996.037C404.818 1000.14 408.762 1004.42 412.92 1004.9C413.95 1005.03 414.945 1005.01 415.93 1005C417.377 1004.98 418.803 1004.96 420.288 1005.38C421.528 1005.74 422.843 1005.81 424.155 1005.87C425.713 1005.95 427.268 1006.03 428.688 1006.6C430.864 1007.47 432.749 1009.03 434.643 1010.6C437.135 1012.66 439.643 1014.73 442.848 1015.27C448.526 1016.24 454.387 1015.62 460.199 1015.02C463.551 1014.66 466.886 1014.31 470.16 1014.27C471.102 1014.25 472.227 1014.78 473.362 1015.31C474.656 1015.92 475.963 1016.53 477.024 1016.34C478.123 1016.15 478.853 1014.87 479.587 1013.59C480.376 1012.2 481.168 1010.82 482.424 1010.77C486.79 1010.58 491.253 1011.45 495.713 1012.32C499.563 1013.07 503.411 1013.82 507.192 1013.89C509.614 1013.94 511.951 1013.29 514.297 1012.64C516.601 1011.99 518.914 1011.35 521.328 1011.36C522.185 1011.36 523.051 1011.67 523.907 1011.98C525.089 1012.41 526.253 1012.83 527.352 1012.41C528.54 1011.95 529.708 1012.42 530.846 1012.88C531.893 1013.31 532.915 1013.72 533.904 1013.39C535.236 1012.93 536.468 1012.71 537.665 1012.49C539.984 1012.07 542.172 1011.67 544.704 1009.67C545.594 1008.97 545.751 1008.79 545.851 1008.81C545.997 1008.85 546.026 1009.34 548.016 1009.34C551.014 1009.34 553.926 1009.55 556.811 1009.76C558.476 1009.88 560.133 1010 561.792 1010.08C563.02 1010.13 564.02 1009.26 565.014 1008.39C565.789 1007.71 566.56 1007.04 567.432 1006.81C569.755 1006.19 572.548 1006.31 575.145 1006.42C576.117 1006.46 577.062 1006.5 577.944 1006.5C580.767 1006.5 583.59 1006.97 586.41 1007.43C589.224 1007.9 592.035 1008.36 594.84 1008.36C595.944 1008.36 597.277 1008.46 598.684 1008.56C601.591 1008.78 604.809 1009.02 606.96 1008.46C608.142 1008.13 608.485 1006.78 608.823 1005.44C609.136 1004.2 609.445 1002.98 610.416 1002.64C611.91 1002.11 613.947 1002.7 615.971 1003.29C617.751 1003.81 619.522 1004.33 620.904 1004.07C622.762 1003.73 624.866 1003.96 626.935 1004.18C629.062 1004.41 631.152 1004.64 632.904 1004.24C633.899 1004.01 634.775 1003.03 635.672 1002.02C636.743 1000.82 637.844 999.591 639.216 999.565C642.407 999.479 645.12 998.812 647.914 998.126C649.722 997.681 651.564 997.229 653.592 996.92C655.946 996.571 658.333 996.449 660.722 996.327C663.229 996.199 665.738 996.071 668.208 995.68C669.384 995.489 670.235 996.161 671.02 996.78C671.9 997.475 672.697 998.104 673.776 997.373C674.246 997.048 674.687 996.731 675.11 996.426C677.452 994.741 679.248 993.447 682.44 993.488C684.959 993.512 687.477 993.28 689.999 993.048C692.404 992.827 694.811 992.606 697.224 992.606C700.044 992.606 702.723 991.688 705.385 990.777C707.978 989.889 710.555 989.006 713.232 988.983C715.28 988.967 717.618 988.741 720.05 988.506C725.027 988.024 730.401 987.504 734.496 988.673C737.796 989.623 739.182 993.063 740.522 996.392C741.502 998.825 742.458 1001.2 744.12 1002.5C744.751 1002.99 745.436 1003.58 746.149 1004.19C747.823 1005.62 749.654 1007.19 751.32 1007.98C752.686 1008.63 753.644 1009.31 754.636 1010.02C755.613 1010.72 756.623 1011.44 758.088 1012.17C760.939 1013.62 764.053 1014.47 767.188 1015.33C769.331 1015.92 771.483 1016.51 773.568 1017.3C774.641 1017.69 775.851 1017.44 777.048 1017.19C778.153 1016.96 779.248 1016.73 780.216 1017.01C781.324 1017.35 782.186 1017.86 783.011 1018.35C784.278 1019.1 785.46 1019.8 787.32 1019.75C788.273 1019.73 789.33 1020.08 790.412 1020.45C791.593 1020.84 792.805 1021.24 793.944 1021.18C795.913 1021.07 797.859 1020.74 799.788 1020.42C803.738 1019.77 807.618 1019.12 811.488 1020.28C813.665 1020.92 815.698 1021.7 817.692 1022.48C821.942 1024.12 826.019 1025.7 830.952 1025.64C832.376 1025.63 834.094 1025.2 835.858 1024.75C838.761 1024.02 841.785 1023.25 843.816 1024.31C844.89 1024.86 845.167 1025.06 845.313 1024.99C845.523 1024.89 845.463 1024.23 847.104 1023.3C850.32 1021.49 852.792 1020.9 857.04 1021.54C858.363 1021.74 859.534 1022.98 860.692 1024.2C861.887 1025.46 863.067 1026.71 864.384 1026.78C866.19 1026.88 867.118 1025.25 867.968 1023.75C868.53 1022.76 869.058 1021.82 869.784 1021.49C872.41 1020.28 876.056 1020.11 879.577 1019.95C881.237 1019.87 882.868 1019.79 884.352 1019.61C886.987 1019.3 889.708 1019.33 892.432 1019.36C896.109 1019.4 899.789 1019.44 903.264 1018.63C911.688 1016.68 921.72 1015.01 930.456 1015.06C936.096 1015.09 941.35 1016.01 946.747 1016.95C949.55 1017.44 952.391 1017.94 955.344 1018.32C957.027 1018.53 958.86 1017.09 960.585 1015.73C961.443 1015.06 962.275 1014.4 963.048 1013.98C963.556 1013.71 964.62 1014.02 965.705 1014.34C966.874 1014.68 968.068 1015.02 968.616 1014.65C969.161 1014.27 969.219 1012.84 969.276 1011.4C969.338 1009.87 969.399 1008.33 970.056 1008.07C971.256 1007.61 972.868 1008.29 974.418 1008.94C975.906 1009.57 977.336 1010.17 978.288 1009.72C982.272 1007.86 985.104 1006.55 989.064 1005.71C989.866 1005.54 990.477 1004.85 991.093 1004.16C991.73 1003.44 992.373 1002.71 993.24 1002.54C995.737 1002.08 999.003 1002.16 1001.93 1002.23C1002.95 1002.26 1003.92 1002.28 1004.81 1002.28C1006.9 1002.28 1008.99 1002.83 1011.08 1003.37C1013.11 1003.89 1015.13 1004.42 1017.14 1004.45C1018.81 1004.49 1020.29 1005.1 1021.76 1005.7C1022.87 1006.16 1023.99 1006.62 1025.18 1006.83C1026.84 1007.14 1028.74 1006.52 1030.65 1005.89C1032.76 1005.2 1034.88 1004.51 1036.66 1005.07C1038.16 1005.53 1039.31 1007.08 1040.46 1008.64C1041.53 1010.09 1042.6 1011.55 1043.98 1012.15C1045.13 1012.66 1046.57 1012.67 1047.96 1012.68C1048.6 1012.69 1049.22 1012.69 1049.81 1012.75C1054.94 1013.2 1059.65 1014.41 1064.62 1015.77C1067.06 1016.45 1069.53 1017.18 1072.02 1017.91C1078.99 1019.97 1086.09 1022.06 1093.13 1023.18C1098.67 1024.09 1105.44 1023.21 1110.96 1021.37C1113.71 1020.45 1117.02 1020.7 1120.34 1020.95C1124.33 1021.25 1128.33 1021.55 1131.36 1019.82C1132.52 1019.14 1133.11 1019.1 1133.86 1019.06C1134.34 1019.03 1134.87 1019 1135.66 1018.8C1137.07 1018.44 1137.95 1016.61 1138.84 1014.8C1139.69 1013.03 1140.55 1011.27 1141.87 1010.89C1143.41 1010.43 1145.11 1010.85 1146.8 1011.26C1148.32 1011.63 1149.84 1012 1151.23 1011.74C1153.75 1011.27 1155.51 1009.83 1157.39 1008.28C1157.68 1008.05 1157.97 1007.81 1158.26 1007.57C1162.99 1003.78 1166.92 1004.21 1171.9 1004.74C1173.99 1004.96 1176.28 1005.21 1178.88 1005.17C1181.27 1005.13 1183.68 1005.04 1186.1 1004.95C1194.66 1004.63 1203.32 1004.3 1211.42 1006.62C1213.72 1007.27 1217.73 1009.3 1221.82 1011.37C1227.23 1014.11 1232.78 1016.93 1234.78 1016.75C1236.43 1016.62 1237.55 1016.91 1238.78 1017.23C1239.95 1017.53 1241.21 1017.86 1243.1 1017.87C1245.82 1017.9 1248.74 1017.55 1251.69 1017.19C1255.78 1016.69 1259.94 1016.19 1263.65 1016.7C1264.46 1016.83 1265.25 1017.52 1266 1018.17C1266.54 1018.64 1267.05 1019.08 1267.54 1019.3C1269.63 1020.21 1271.93 1020.61 1274.24 1021.01C1276.15 1021.34 1278.07 1021.67 1279.87 1022.3C1281.73 1022.95 1283.85 1025 1286.02 1027.12C1288.75 1029.77 1291.58 1032.52 1294.13 1032.69C1295.78 1032.82 1296.45 1031.37 1297.17 1029.84C1297.72 1028.65 1298.3 1027.41 1299.38 1026.81L1299.63 1026.67C1303.19 1024.71 1308.64 1021.71 1312.42 1020.92C1318.03 1019.73 1327.58 1016.56 1332.62 1014.46C1336.27 1012.95 1341.25 1014.49 1345.43 1015.79C1346.4 1016.09 1347.32 1016.37 1348.18 1016.61C1351.15 1017.42 1354.21 1016.4 1357.31 1015.38C1358.6 1014.95 1359.89 1014.52 1361.18 1014.22C1363.4 1013.7 1366.11 1014.01 1368.85 1014.32C1372.08 1014.68 1375.34 1015.05 1377.84 1014.06C1378.5 1013.79 1379.15 1013.49 1379.8 1013.19C1381.24 1012.54 1382.67 1011.88 1384.18 1011.55C1384.86 1011.41 1385.55 1010.39 1386.23 1009.37C1386.99 1008.26 1387.74 1007.13 1388.52 1007.12C1391.62 1007.08 1392.95 1008.76 1394.45 1010.66C1395.33 1011.78 1396.27 1012.98 1397.66 1013.94C1400.7 1016.03 1403.39 1015.8 1406.46 1015.53C1407.85 1015.41 1409.32 1015.29 1410.94 1015.37C1412.01 1015.42 1413.12 1015.44 1414.22 1015.45C1416.43 1015.49 1418.62 1015.52 1420.42 1015.87C1423.63 1016.49 1427.9 1017.56 1430.86 1018.92C1431.25 1019.1 1432.23 1019.26 1433.32 1019.44C1434.94 1019.7 1436.8 1020.01 1437.43 1020.49C1443.14 1024.81 1449.79 1026.58 1456.96 1028.5C1459.61 1029.2 1462.33 1029.93 1465.1 1030.81C1467.84 1031.69 1470.54 1032.71 1473.25 1033.74C1482.86 1037.37 1492.48 1041.01 1503.36 1038.03C1505.49 1037.46 1507.54 1036.47 1509.58 1035.49C1512.22 1034.21 1514.87 1032.93 1517.71 1032.55C1528.34 1031.17 1559.42 1042.85 1569.14 1048.19C1571.17 1049.29 1574.04 1049.39 1576.85 1049.49C1578.43 1049.54 1579.99 1049.6 1581.38 1049.83C1583.89 1050.25 1585.84 1049.81 1588.1 1049.3C1588.65 1049.18 1589.23 1049.05 1589.83 1048.93C1592.3 1048.43 1593.22 1048.04 1595.38 1047.02C1596.66 1046.42 1597.81 1046.75 1599.04 1047.11C1599.91 1047.37 1600.81 1047.63 1601.83 1047.59C1604.19 1047.51 1606.58 1047.9 1608.96 1048.29C1611.89 1048.78 1614.82 1049.26 1617.7 1048.85C1619.47 1048.61 1621.32 1048.55 1623.17 1048.48C1626.07 1048.38 1628.99 1048.28 1631.69 1047.5C1632.1 1047.38 1632.5 1047.26 1632.89 1047.14C1637.75 1045.71 1641.08 1044.73 1646.88 1044.73C1651.08 1044.73 1655.42 1043.06 1659.17 1040.58C1659.84 1040.15 1660.83 1040.04 1661.76 1039.94C1662.46 1039.86 1663.13 1039.79 1663.61 1039.58C1665.86 1038.61 1669.95 1039.27 1673.71 1039.88C1676.05 1040.25 1678.26 1040.61 1679.81 1040.54C1684.08 1040.34 1688.17 1038.71 1692.27 1037.07C1696.14 1035.53 1700 1033.98 1704.02 1033.65C1705.65 1033.51 1707.64 1034.62 1709.63 1035.72C1711.76 1036.91 1713.89 1038.09 1715.57 1037.75C1716.62 1037.52 1717.42 1036.95 1718.23 1036.38C1718.96 1035.85 1719.69 1035.33 1720.61 1035.08C1721.87 1034.73 1723.24 1035.02 1724.6 1035.31C1725.58 1035.52 1726.55 1035.73 1727.47 1035.7C1732.13 1035.54 1736.55 1032.2 1740.9 1028.92C1743.93 1026.64 1746.92 1024.38 1749.91 1023.26C1751.57 1022.64 1754.95 1021.75 1756.8 1021.66C1760.06 1021.49 1763.26 1024.69 1765.2 1026.74C1766.18 1027.77 1767.23 1029.87 1768.38 1032.15C1770.38 1036.16 1772.67 1040.73 1775.38 1041.11C1777.66 1041.43 1780.12 1040 1782.62 1038.55C1785.17 1037.07 1787.77 1035.56 1790.26 1035.89C1791.76 1036.09 1793.3 1036.7 1794.85 1037.31C1797.86 1038.49 1800.86 1039.68 1803.53 1037.87C1805.55 1036.49 1807.09 1034.53 1808.6 1032.58C1810.05 1030.73 1811.49 1028.89 1813.34 1027.57C1815.8 1025.84 1818.4 1025.17 1821.07 1024.49C1822.35 1024.17 1823.65 1023.83 1824.96 1023.38C1826.5 1022.83 1828.25 1021.8 1829.62 1020.71C1836.38 1015.41 1847.21 1014.27 1855.56 1014.25C1862.52 1014.25 1867.87 1015.22 1873.78 1018.37C1877.36 1020.28 1881.04 1023.18 1884.48 1025.88C1885.68 1026.81 1886.84 1027.73 1887.96 1028.57C1889.39 1029.64 1890.75 1030.87 1892.12 1032.11C1895.32 1035 1898.56 1037.92 1902.74 1038.87C1905.27 1039.44 1908 1039.41 1910.74 1039.37C1913.92 1039.33 1917.11 1039.29 1920 1040.2L1920 890V0Z" fill="#F4F4F4"/>
</svg>
