<svg width="48" height="48" viewBox="0 0 48 48" fill="none" xmlns="http://www.w3.org/2000/svg">
<path d="M23.8991 16.0264C19.561 16.0264 16.0208 19.5667 16.0208 23.9048C16.0208 28.2429 19.561 31.7831 23.8991 31.7831C28.2372 31.7831 31.7775 28.2429 31.7775 23.9048C31.7775 19.5667 28.2372 16.0264 23.8991 16.0264ZM47.5283 23.9048C47.5283 20.6423 47.5578 17.4094 47.3746 14.1529C47.1914 10.3703 46.3285 7.01331 43.5625 4.24732C40.7906 1.47541 37.4395 0.618427 33.6569 0.435209C30.3945 0.251992 27.1616 0.281543 23.905 0.281543C20.6426 0.281543 17.4097 0.251992 14.1531 0.435209C10.3706 0.618427 7.01356 1.48132 4.24756 4.24732C1.47566 7.01922 0.618671 10.3703 0.435454 14.1529C0.252236 17.4153 0.281787 20.6482 0.281787 23.9048C0.281787 27.1613 0.252236 30.4002 0.435454 33.6567C0.618671 37.4393 1.48157 40.7963 4.24756 43.5623C7.01947 46.3342 10.3706 47.1912 14.1531 47.3744C17.4156 47.5576 20.6485 47.528 23.905 47.528C27.1675 47.528 30.4004 47.5576 33.6569 47.3744C37.4395 47.1912 40.7965 46.3283 43.5625 43.5623C46.3344 40.7904 47.1914 37.4393 47.3746 33.6567C47.5637 30.4002 47.5283 27.1672 47.5283 23.9048ZM23.8991 36.0267C17.191 36.0267 11.7772 30.6129 11.7772 23.9048C11.7772 17.1967 17.191 11.7829 23.8991 11.7829C30.6072 11.7829 36.021 17.1967 36.021 23.9048C36.021 30.6129 30.6072 36.0267 23.8991 36.0267ZM36.5175 14.1174C34.9513 14.1174 33.6865 12.8526 33.6865 11.2864C33.6865 9.7202 34.9513 8.45541 36.5175 8.45541C38.0837 8.45541 39.3485 9.7202 39.3485 11.2864C39.349 11.6583 39.2761 12.0267 39.134 12.3704C38.9918 12.714 38.7833 13.0263 38.5204 13.2893C38.2574 13.5523 37.9451 13.7608 37.6014 13.9029C37.2577 14.045 36.8894 14.1179 36.5175 14.1174Z" fill="#F4F4F4"/>
</svg>
