<svg width="69" height="33" viewBox="0 0 69 33" fill="none" xmlns="http://www.w3.org/2000/svg">
<path d="M53.2566 26.7587C52.0651 25.1868 45.555 17.3375 34.369 17.1803C29.3656 17.1076 24.6589 18.5816 20.3766 21.5539C17.1891 23.7663 15.3045 26.097 14.8028 26.7586C14.7178 26.8707 14.6842 27.0135 14.7103 27.1518C14.7363 27.29 14.8196 27.4108 14.9395 27.4844C18.9697 29.9532 25.5329 32.8735 34.0247 32.8735C34.1381 32.8735 34.2523 32.8729 34.3665 32.8719C42.7239 32.7948 49.1775 29.8996 53.1199 27.4844C53.2398 27.4108 53.3231 27.29 53.3492 27.1519C53.3752 27.0136 53.3416 26.8708 53.2566 26.7587ZM33.9883 31.7511C30.2802 31.7511 27.2633 28.7343 27.2633 25.0261C27.2633 21.318 30.2802 18.3011 33.9883 18.3011C37.6964 18.3011 40.7133 21.318 40.7133 25.0261C40.7133 28.7343 37.6964 31.7511 33.9883 31.7511ZM29.7135 18.5995C27.6374 19.985 26.267 22.3484 26.267 25.0261C26.267 27.8362 27.7762 30.3001 30.0263 31.6509C23.9968 30.9684 19.2035 28.8511 15.9431 26.9254C17.3195 25.2616 22.1048 20.1156 29.7135 18.5995ZM37.9303 31.6627C40.1915 30.3145 41.7096 27.8444 41.7096 25.0261C41.7096 22.3233 40.3133 19.9407 38.2044 18.5608C45.8537 19.9988 50.597 25.0584 52.1186 26.924C48.8624 28.8474 44.029 30.9897 37.9303 31.6627Z" fill="#4B6359"/>
<circle cx="34" cy="25" r="3" fill="#4B6359"/>
<path d="M34.0505 21.5391C32.1621 21.5391 30.6257 23.0755 30.6257 24.9638C30.6257 26.8522 32.1621 28.3886 34.0505 28.3886C35.9389 28.3886 37.4753 26.8522 37.4753 24.9638C37.4753 23.0755 35.9389 21.5391 34.0505 21.5391ZM34.0505 27.3923C32.7115 27.3923 31.622 26.3028 31.622 24.9638C31.622 23.6248 32.7115 22.5354 34.0505 22.5354C35.3895 22.5354 36.479 23.6248 36.479 24.9638C36.479 26.3028 35.3895 27.3923 34.0505 27.3923Z" fill="#4B6359"/>
<path d="M33.6232 8.55892C35.9867 8.55892 37.9027 6.64294 37.9027 4.27946C37.9027 1.91598 35.9867 0 33.6232 0C31.2597 0 29.3438 1.91598 29.3438 4.27946C29.3438 6.64294 31.2597 8.55892 33.6232 8.55892Z" fill="#4B6359"/>
<path d="M21.5737 2.19922C20.398 2.19922 19.3331 2.67351 18.5596 3.44105C20.1304 4.07473 21.239 5.61332 21.239 7.41107C21.239 8.59877 20.7551 9.67336 19.9737 10.4487C20.468 10.6481 21.008 10.7581 21.5737 10.7581C23.9372 10.7581 25.8532 8.84214 25.8532 6.47867C25.8532 4.11519 23.9372 2.19922 21.5737 2.19922Z" fill="#4B6359"/>
<path d="M10.8524 8.24805C9.50721 8.24805 8.30723 8.86887 7.52271 9.83942C7.63882 9.82996 7.75618 9.82492 7.87473 9.82492C10.2382 9.82492 12.1542 11.7409 12.1542 14.1044C12.1542 15.1227 11.7983 16.0577 11.2044 16.7924C13.4032 16.6134 15.1318 14.7724 15.1318 12.5275C15.1318 10.164 13.2158 8.24805 10.8524 8.24805Z" fill="#4B6359"/>
<path d="M3.0932 15.3242C1.87688 15.3242 0.779124 15.8317 0 16.6464C0.332099 16.5637 0.679449 16.5196 1.03714 16.5196C3.40062 16.5196 5.31659 18.4356 5.31659 20.799C5.31659 21.9462 4.86517 22.9879 4.13034 23.7563C5.99262 23.2927 7.37264 21.6095 7.37264 19.6037C7.37264 17.2402 5.45667 15.3242 3.0932 15.3242Z" fill="#4B6359"/>
<path d="M46.4854 2.19922C47.6612 2.19922 48.7261 2.67351 49.4996 3.44105C47.9288 4.07473 46.8201 5.61332 46.8201 7.41107C46.8201 8.59877 47.3041 9.67336 48.0854 10.4487C47.5911 10.6481 47.0511 10.7581 46.4854 10.7581C44.1219 10.7581 42.2059 8.84214 42.2059 6.47867C42.2059 4.11519 44.1219 2.19922 46.4854 2.19922Z" fill="#4B6359"/>
<path d="M57.2068 8.24805C58.552 8.24805 59.752 8.86887 60.5365 9.83942C60.4204 9.82996 60.303 9.82492 60.1845 9.82492C57.821 9.82492 55.905 11.7409 55.905 14.1044C55.905 15.1227 56.2609 16.0577 56.8548 16.7924C54.656 16.6134 52.9274 14.7724 52.9274 12.5275C52.9274 10.164 54.8434 8.24805 57.2068 8.24805Z" fill="#4B6359"/>
<path d="M64.966 15.3242C66.1823 15.3242 67.28 15.8317 68.0592 16.6464C67.7271 16.5637 67.3797 16.5196 67.022 16.5196C64.6586 16.5196 62.7426 18.4356 62.7426 20.799C62.7426 21.9462 63.194 22.9879 63.9288 23.7563C62.0666 23.2927 60.6865 21.6095 60.6865 19.6037C60.6865 17.2402 62.6025 15.3242 64.966 15.3242Z" fill="#4B6359"/>
</svg>
