<svg width="600" height="711" viewBox="0 0 600 711" fill="none" xmlns="http://www.w3.org/2000/svg">
<mask id="mask0_2062_37" style="mask-type:alpha" maskUnits="userSpaceOnUse" x="0" y="0" width="600" height="711">
<rect width="600" height="711" rx="30" fill="#A67C8C"/>
</mask>
<g mask="url(#mask0_2062_37)">
<path d="M277.639 576.527C287.589 579.985 295.104 588.258 297.592 598.494L302.255 617.672V617.745L302.264 617.709L302.273 617.745V617.672L306.936 598.494C309.424 588.258 316.938 579.985 326.889 576.527L335.939 573.381L325.993 569.916C315.509 566.264 307.778 557.286 305.72 546.377L302.273 528.094V528L302.264 528.047L302.255 528V528.094L298.807 546.377C296.75 557.286 289.018 566.264 278.534 569.916L268.589 573.381L277.639 576.527Z" fill="#4C3A41"/>
<path d="M269.967 659.73C263.642 642.166 257.182 625.135 250.638 608.644C241.343 585.219 215.897 572.519 191.611 579.237C185.737 580.861 179.586 582.38 173.165 583.753C162.836 585.959 153.006 587.529 143.777 588.613C142.527 588.759 141.285 588.898 140.055 589.029C140.041 589.031 140.027 589.032 140.013 589.034C137.294 589.32 134.544 589.179 131.871 588.598C117.9 585.56 104.301 581.058 91.3106 575.164C82.5945 571.211 74.079 566.587 65.9992 561.419C61.6566 558.643 56.2689 558.392 51.7912 560.501C50.5224 561.099 49.3269 561.886 48.247 562.862L48.004 563.078C44.6564 566.101 42.9093 570.421 43.2179 574.925C43.5264 579.445 45.8559 583.51 49.6084 586.067C63.9899 595.875 79.2547 604.606 94.9822 612.019C119.815 623.72 146.087 632.313 173.095 637.558C173.433 637.628 173.774 637.695 174.111 637.758C174.692 637.867 175.134 638.384 175.093 638.973C175.049 639.606 174.526 640.061 173.936 640.061C173.867 640.061 173.793 640.053 173.72 640.042C146.149 634.773 119.325 626.049 93.9948 614.109C78.1593 606.646 62.7867 597.853 48.3048 587.98C43.9622 585.018 41.2664 580.317 40.9077 575.083C40.5529 569.866 42.5739 564.863 46.4575 561.358L46.6966 561.142C47.8729 560.077 49.1726 559.206 50.5533 558.531L37.7954 538.245L24.432 499.261C21.4277 490.507 12.7154 485.038 3.52885 486.141L0 486.565C8.66595 514.915 17.3319 543.266 25.9978 571.616C26.6496 573.745 27.7912 575.693 29.3338 577.301C38.9177 587.309 48.972 598.81 59.0071 611.907C64.1674 618.637 68.9072 625.251 73.2575 631.68C78.3715 639.232 86.5669 644.122 95.6339 645.074C115.461 647.169 135.288 649.259 155.115 651.349C175.108 653.459 192.151 666.772 199.028 685.666C202.579 695.427 206.058 705.555 209.417 716.037C214.948 733.296 219.645 749.922 223.649 765.788H304.292C294.584 732.069 283.246 696.603 269.967 659.73ZM220.727 674.437L216.787 673.064L220.372 671.818C224.315 670.447 227.292 667.17 228.278 663.115L230.125 655.516V655.487L230.129 655.502L230.132 655.487V655.516L231.979 663.115C232.965 667.17 235.942 670.447 239.885 671.818L243.47 673.064L239.53 674.437C235.376 675.884 232.313 679.441 231.498 683.763L230.132 691.006V691.043L230.129 691.025L230.125 691.043V691.006L228.759 683.763C227.944 679.441 224.881 675.884 220.727 674.437ZM253.913 681.282L251.597 680.475L253.704 679.742C256.022 678.937 257.772 677.01 258.351 674.626L259.437 670.16V670.143L259.439 670.151L259.441 670.143V670.16L260.527 674.626C261.107 677.01 262.857 678.937 265.174 679.742L267.282 680.475L264.966 681.282C262.524 682.132 260.723 684.223 260.244 686.764L259.441 691.022V691.043L259.439 691.033L259.437 691.043V691.022L258.634 686.764C258.155 684.223 256.354 682.132 253.913 681.282ZM258.526 710.17C252.795 712.166 248.569 717.074 247.445 723.036L245.56 733.03V733.081L245.555 733.056L245.55 733.081V733.03L243.666 723.036C242.541 717.074 238.315 712.166 232.585 710.17L227.148 708.276L232.095 706.557C237.534 704.666 241.641 700.144 243.002 694.549L245.55 684.067V684.027L245.555 684.047L245.56 684.027V684.067L248.109 694.549C249.469 700.144 253.576 704.666 259.015 706.557L263.962 708.276L258.526 710.17Z" fill="#4C3A41"/>
<path d="M295.708 765.788H376.351C380.355 749.922 385.052 733.296 390.583 716.037C393.942 705.555 397.42 695.427 400.972 685.666C407.849 666.772 424.892 653.459 444.885 651.349C464.712 649.259 484.539 647.169 504.366 645.074C513.433 644.122 521.628 639.232 526.742 631.68C531.093 625.251 535.833 618.637 540.993 611.907C551.028 598.81 561.082 587.309 570.666 577.301C572.209 575.693 573.35 573.745 574.002 571.616C582.668 543.266 591.334 514.915 600 486.565L596.471 486.141C587.285 485.038 578.572 490.507 575.568 499.261L562.205 538.245L549.447 558.531C550.827 559.206 552.127 560.077 553.303 561.142L553.543 561.358C557.426 564.863 559.447 569.866 559.092 575.083C558.734 580.317 556.038 585.018 551.695 587.98C537.213 597.853 521.841 606.646 506.005 614.109C480.674 626.049 453.851 634.773 426.28 640.042C426.207 640.053 426.133 640.061 426.064 640.061C425.474 640.061 424.951 639.606 424.907 638.973C424.866 638.384 425.308 637.867 425.889 637.758C426.226 637.695 426.567 637.628 426.905 637.558C453.913 632.313 480.185 623.72 505.018 612.019C520.745 604.606 536.01 595.875 550.392 586.067C554.144 583.51 556.474 579.445 556.782 574.925C557.091 570.421 555.344 566.101 551.996 563.078L551.753 562.862C550.673 561.886 549.478 561.099 548.209 560.501C543.731 558.392 538.343 558.643 534.001 561.419C525.921 566.587 517.405 571.211 508.689 575.164C495.699 581.058 482.1 585.56 468.129 588.598C465.456 589.179 462.706 589.32 459.987 589.034C459.973 589.032 459.959 589.031 459.945 589.029C458.715 588.898 457.473 588.759 456.223 588.613C446.994 587.529 437.164 585.959 426.835 583.753C420.414 582.38 414.263 580.861 408.389 579.237C384.103 572.519 358.657 585.219 349.362 608.644C342.818 625.135 336.358 642.166 330.033 659.73C316.754 696.603 305.416 732.069 295.708 765.788ZM371.241 683.763L369.875 691.006V691.043L369.871 691.025L369.868 691.043V691.006L368.502 683.763C367.687 679.441 364.624 675.884 360.47 674.437L356.53 673.064L360.115 671.818C364.058 670.447 367.035 667.17 368.021 663.115L369.868 655.516V655.487L369.871 655.502L369.875 655.487V655.516L371.722 663.115C372.708 667.17 375.685 670.447 379.627 671.818L383.213 673.064L379.273 674.437C375.119 675.884 372.056 679.441 371.241 683.763ZM341.366 686.764L340.563 691.022V691.043L340.561 691.033L340.559 691.043V691.022L339.756 686.764C339.277 684.223 337.476 682.132 335.034 681.282L332.718 680.475L334.826 679.742C337.143 678.937 338.893 677.01 339.473 674.626L340.559 670.16V670.143L340.561 670.151L340.563 670.143V670.16L341.649 674.626C342.228 677.01 343.978 678.937 346.296 679.742L348.403 680.475L346.087 681.282C343.645 682.132 341.845 684.223 341.366 686.764ZM336.038 708.276L340.985 706.557C346.424 704.666 350.531 700.144 351.891 694.549L354.44 684.067V684.027L354.445 684.047L354.45 684.027V684.067L356.998 694.549C358.359 700.144 362.466 704.666 367.905 706.557L372.852 708.276L367.415 710.17C361.685 712.166 357.459 717.074 356.334 723.036L354.45 733.03V733.081L354.445 733.056L354.44 733.081V733.03L352.555 723.036C351.431 717.074 347.205 712.166 341.474 710.17L336.038 708.276Z" fill="#4C3A41"/>
</g>
</svg>
