<svg width="101" height="100" viewBox="0 0 101 100" fill="none" xmlns="http://www.w3.org/2000/svg">
<path d="M72.716 66.0021C71.2904 65.7904 70.0269 64.9952 68.4546 64.877C69.4296 65.8973 71.0972 66.0436 71.6619 67.7341C70.4307 67.25 69.4805 66.564 68.3363 66.3031C69.9302 68.0693 71.4451 69.8309 73.0509 71.5053C74.8309 73.3612 77.1003 74.4769 79.4318 75.4787C79.8792 75.671 80.6909 75.6929 80.4645 76.4526C80.2649 77.1224 79.5203 76.9372 79.0396 76.8384C77.3467 76.4904 76.0053 75.5113 74.8467 74.2659C74.5482 73.9451 74.2745 73.6014 73.8055 73.36C74.6411 75.5237 75.485 77.6842 76.3071 79.8529C76.5374 80.4606 77.006 80.4418 77.5184 80.4381C79.1904 80.426 80.8632 80.3366 82.5281 80.6294C83.3842 80.78 84.1562 81.0513 84.7967 81.7266C82.6764 80.9667 80.4879 80.9276 78.2932 80.9465C77.2163 80.9558 76.7828 81.4833 76.9928 82.5291C77.0704 82.9204 77.1143 83.3184 77.1917 83.833C78.5054 83.0007 79.7749 82.6379 81.3034 83.14C84.1538 84.0763 85.0068 87.698 84.4472 89.7171C83.9736 91.4255 82.7736 92.2187 81.0243 92.1606C78.25 92.0683 75.3972 89.2416 76.2309 85.9732C76.4243 85.215 76.2713 84.6231 75.7061 84.0144C74.0108 82.1886 71.7936 81.2643 69.558 80.4317C65.8247 79.0412 62.5732 77.1644 61.0599 73.2006C60.9984 73.0394 60.8713 72.9031 60.6087 72.5008C61.449 76.5661 63.6275 79.074 67.4479 80.163C66.481 80.9881 65.6896 80.5623 64.8962 80.2487C64.6155 80.1379 64.2027 79.8737 64.1085 80.3113C63.9608 80.9968 63.6259 81.695 63.9422 82.4308C64.1117 82.8251 64.3659 82.7266 64.7093 82.6825C67.4891 82.3256 69.4811 83.6009 69.9263 85.9663C70.0032 86.3753 70.1405 86.8036 69.6628 87.0359C69.1808 87.2704 68.7995 86.9372 68.696 86.5642C68.0782 84.3389 66.1685 83.7007 64.3309 83.1798C62.892 82.772 62.7415 81.9427 63.1244 80.8591C63.5227 79.7317 63.1699 79.032 62.3366 78.2929C60.9537 77.0662 59.6987 75.7024 58.486 73.8508C58.6555 75.5129 58.7894 76.825 58.9232 78.1371C58.8677 78.1459 58.8122 78.1547 58.7567 78.1635C58.3428 77.1877 57.9289 76.2119 57.4035 74.9735C57.0297 76.5325 58.113 77.6737 57.7413 79.0072C56.9256 78.0257 56.8031 76.7355 56.1596 75.788C55.8659 75.7331 55.8277 75.9143 55.8589 76.01C56.3964 77.6613 56.1799 79.3 55.8088 80.9407C55.5241 82.1999 55.8695 83.2346 56.855 84.0998C57.5657 84.7238 58.2726 85.3838 58.7176 86.2357C59.0348 86.8429 59.2892 87.6177 58.5138 87.9992C57.7836 88.3584 57.5509 87.6008 57.2803 87.0895C57.0277 86.6121 56.8719 86.0165 56.4892 85.6866C54.8685 84.2891 54.6387 82.5102 54.8109 80.5374C54.9487 78.9592 54.7688 77.3995 54.0919 75.9179C54.3202 77.6886 54.1895 79.4731 54.3222 81.2379C54.4669 83.1633 53.9931 84.8511 53.1637 86.5653C51.9664 89.04 50.9736 91.6133 49.8807 94.1389C49.7428 94.4574 49.6837 94.9432 49.2728 94.9653C48.8172 94.9899 48.8032 94.4611 48.6764 94.1622C47.0383 90.2997 45.2596 86.5092 42.9508 83.0142C42.7337 84.1596 42.0456 85.2286 41.5041 86.3645C40.9471 87.5331 40.9714 88.8252 40.7405 90.0631C40.6914 90.3259 40.7021 90.6384 40.3721 90.7168C39.9945 90.8064 39.8088 90.557 39.6522 90.2521C39.0675 89.1132 39.07 87.9325 39.7258 86.8862C40.7299 85.2844 41.419 83.4924 42.6552 82.0367C42.8205 81.8421 42.8743 81.6569 42.8647 81.4321C42.7887 79.6385 42.857 77.8507 43.1176 76.0633C42.4942 76.9539 42.2636 77.9882 41.808 78.9561C41.6712 77.7283 41.8399 76.5296 41.9482 75.293C40.937 76.3721 40.751 77.8698 39.8512 79.052C40.0381 77.779 40.2251 76.506 40.4345 75.0802C39.6161 75.6063 39.6219 76.5106 38.9391 77.0476C38.4004 75.8144 39.6793 74.8851 39.3451 73.512C38.0419 75.7328 36.5185 77.4693 34.6817 78.896C34.0435 79.3918 34.0675 79.8513 34.2583 80.5111C35.0701 83.3188 34.9656 83.5703 32.3287 84.7008C31.4626 85.0721 31.1329 85.7321 30.9479 86.5516C30.8606 86.9385 30.8747 87.4608 30.319 87.4222C29.7581 87.3832 29.6191 86.859 29.6256 86.4104C29.6429 85.2015 30.102 84.263 31.2711 83.6883C33.5051 82.5901 33.4904 82.5602 33.0162 80.0546C29.3 81.2937 25.2326 81.4579 21.6584 83.6684C23.2995 84.3576 24.4561 85.4178 24.8643 87.1191C25.2892 88.8904 24.8647 90.4547 23.5432 91.6965C22.3757 92.7938 20.9422 92.9736 19.512 92.336C17.5081 91.4427 17.0652 89.5439 16.8763 87.6274C16.7253 86.0955 17.8052 84.4832 19.3841 83.972C20.6186 83.5723 21.2198 82.7355 21.6464 81.6673C22.7446 78.9174 23.1801 75.9536 24.547 73.1039C22.7487 73.4487 21.5546 74.2518 20.7943 75.6936C20.4095 76.4235 19.9506 77.0897 19.0866 77.3294C18.5661 77.4738 18.0847 77.4937 17.8265 76.9029C17.5855 76.3516 17.9265 75.9733 18.3566 75.8328C19.4899 75.4628 20.0554 74.5741 20.6362 73.646C21.4452 72.3533 22.9352 72.6411 24.1295 72.263C24.4808 72.1518 24.8347 72.109 25.057 71.8083C26.4879 69.8727 28.2779 68.2905 30.2342 66.6977C29.1817 66.6986 27.9391 67.3091 27.0446 68.2641C26.4588 68.8896 25.9013 69.5519 25.4084 70.2521C24.3098 71.8129 22.2109 72.6558 20.4766 72.1621C20.3664 72.1307 20.2166 72.0316 20.1982 71.941C20.1779 71.8412 20.2589 71.6559 20.3474 71.6122C20.5383 71.5178 20.7685 71.4254 20.9715 71.4452C23.5088 71.692 25.1126 70.383 26.4028 68.3722C27.3651 66.8723 28.8471 65.8619 30.2453 64.7069C28.9817 65.4794 27.4726 64.9903 26.0051 65.8913C26.7875 64.3479 28.2686 64.2392 29.2125 63.3633C27.8952 63.7746 26.5923 63.1902 25.2816 63.4605C26.0875 62.6172 27.2253 62.5542 28.1882 62.0428C25.8226 62.2465 23.414 61.891 21.0894 62.5515C19.5998 62.9747 18.5662 64.1073 17.5684 65.2209C16.8462 66.0271 15.9846 66.5548 14.932 66.7605C14.3763 66.869 13.7726 66.8368 13.5757 66.2163C13.3663 65.5562 13.9826 65.3246 14.4396 65.2384C16.5691 64.837 17.8949 62.9595 20.1045 62.2798C16.6175 61.2712 13.6678 59.4846 10.5241 58.1297C9.6546 57.7549 8.81877 57.3023 7.96377 56.8932C7.52943 56.6854 7.16866 56.3094 7.76272 56.0499C11.6021 54.3728 14.9904 51.7397 19.0848 50.6365C20.0274 50.3825 21.097 50.599 22.1351 50.4385C19.9328 50.4956 18.1849 49.5966 16.6864 48.0986C15.979 47.3914 14.9879 47.5973 14.1343 47.3618C13.6937 47.2402 13.1566 47.2453 13.1847 46.6315C13.2098 46.0855 13.6549 45.9345 14.1478 45.8732C15.4939 45.7055 16.7238 45.9897 17.5651 47.0774C19.2447 49.2489 21.5769 49.8752 24.1298 50.0254C25.2039 50.0886 26.2514 50.2911 27.602 50.6051C26.6014 49.783 25.5845 49.501 24.8447 48.5955C25.8711 48.3387 26.6495 49.0124 27.6581 48.9012C26.7636 48.1544 25.4801 48.1845 24.8063 47.1C25.9987 46.9038 26.9919 47.7004 28.3153 47.5043C26.9071 46.8065 25.6854 46.2011 24.4637 45.5958C24.4812 45.5567 24.4988 45.5177 24.5163 45.4786C26.084 45.7996 27.6517 46.1205 29.2194 46.4415C27.015 45.6045 25.6397 43.7229 23.956 42.2647C22.544 41.0417 20.9322 41.3613 19.207 41.2716C19.8606 40.3254 21.0581 41.2139 21.63 40.2312C20.2857 39.2145 18.9199 38.1519 17.2993 37.437C16.8013 37.2174 15.8742 37.147 16.2618 36.2104C16.6508 35.2703 17.4232 35.7224 18.0054 35.9529C20.0686 36.7699 21.4118 38.4463 22.728 40.1169C24.4424 42.2928 26.6611 43.7438 29.2789 44.678C28.7715 44.3166 28.2528 43.9698 27.7598 43.5898C27.2594 43.2043 26.7944 42.7729 26.2963 42.3842C23.8162 40.449 21.8764 38.152 21.1214 34.9961C20.9029 34.0828 20.5562 33.1847 20.1535 32.3339C19.2842 30.4968 17.8164 29.9108 15.9439 30.6311C15.0006 30.994 14.0975 31.4613 13.112 31.7561C14.1751 30.7206 15.5353 30.2081 17.1802 29.5271C15.6589 29.3145 14.4905 29.0157 13.3836 28.4728C11.67 27.6325 10.6843 26.2765 10.7456 24.4108C10.8009 22.7285 11.439 21.2377 13.2366 20.5775C14.9821 19.9364 17.4185 20.4257 18.6467 21.7695C19.8247 23.0585 20.4783 24.5708 20.1431 26.35C19.9484 27.3834 20.1685 28.0226 21.1146 28.6855C22.8814 29.9234 24.7396 30.994 26.8 31.4682C30.363 32.2882 33.0288 34.2105 34.9961 37.2213C35.1495 37.456 35.265 37.7881 35.7555 37.8066C34.8352 35.5029 33.2847 33.8159 31.3254 32.4685C30.6368 31.9949 29.9941 31.7144 30.5559 30.5575C31.0411 29.5581 30.4792 28.4534 29.7458 27.5706C29.5257 27.3057 29.1992 27.0179 29.5083 26.6255C29.8271 26.221 30.2524 26.3751 30.6261 26.5139C31.6696 26.9017 32.3992 28.7681 31.8921 30.1555C31.5961 30.9654 31.7797 31.347 32.3929 31.8574C33.853 33.0727 35.0185 34.5781 36.2329 36.0453C35.7028 34.1839 34.2929 32.8297 33.4158 31.1607C35.0621 32.212 36.0477 33.8388 37.3909 35.2597C37.1257 34.2989 36.8605 33.338 36.5156 32.0885C37.7967 33.098 37.9507 34.4974 39.0366 35.7262C38.6473 34.0421 38.3378 32.7034 38.0283 31.3647C38.0868 31.3412 38.1452 31.3179 38.2036 31.2944C38.8523 32.6325 39.5009 33.9707 40.2722 35.5619C40.4327 33.9477 39.4815 32.7948 39.6649 31.3619C40.7084 32.1743 40.7716 33.5185 41.7881 34.6213C41.5531 32.3387 41.2995 30.2971 41.8784 27.9781C42.3969 30.2773 42.1663 32.4035 43.3954 34.4295C43.1129 32.2833 42.8794 30.3683 42.6018 28.4597C42.4675 27.5369 41.937 26.7877 41.2841 26.1632C40.1278 25.0571 39.5397 23.6563 39.0894 22.1774C38.9548 21.7351 38.6519 21.1657 39.4059 20.9643C40.0446 20.7937 40.4394 21.1366 40.6331 21.728C40.8996 22.5418 41.1216 23.3717 41.4221 24.1724C41.7515 25.0499 42.5683 25.6749 42.7501 26.774C43.6011 23.7384 45.5559 21.4162 46.9065 18.7754C47.3573 17.894 47.5892 17.2635 46.7439 16.4228C45.7631 15.4475 45.3451 14.1158 45.2771 12.7193C45.1593 10.298 46.4238 8.62753 48.7969 8.16198C49.5202 8.02009 50.1222 7.77054 50.7309 7.34825C52.2694 6.28087 54.5299 6.50343 55.8761 7.7556C57.3009 9.08095 57.6415 11.5009 56.6464 13.2298C55.6881 14.895 53.7797 15.6027 51.8454 14.9906C50.9456 14.7058 50.2602 14.1438 49.8446 13.2848C49.6023 12.784 49.3802 12.2735 49.0512 11.5533C48.7255 12.9008 48.7683 13.9586 49.2851 15.0124C50.5565 17.6049 51.6702 20.2838 53.0829 22.7955C55.0402 26.2758 54.7425 29.8901 54.1629 33.5752C54.1283 33.7953 54.0561 34.0099 54.0279 34.2304C54.0114 34.3591 54.0475 34.4944 54.0623 34.6513C55.0094 32.9676 55.3099 31.0589 54.9188 28.3218C54.7771 27.3306 54.8724 26.5334 55.7496 25.9608C57.4145 24.8739 57.862 23.2449 57.8248 21.3857C57.8161 20.9503 57.7113 20.3656 58.3024 20.2705C58.9766 20.162 59.0323 20.809 59.175 21.2591C59.7712 23.1386 59.3247 24.7325 57.6068 25.8719C56.1083 26.8657 55.3825 27.9868 55.8692 29.8225C56.0727 30.5901 56.0009 31.4416 55.9829 32.2533C55.9664 33.0042 55.8546 33.753 55.7785 34.5694C56.854 33.6831 56.7252 32.1291 57.7839 31.122C57.9627 32.6019 57.0591 33.7957 57.3697 35.2448C58.1966 33.9225 58.3625 32.3165 59.7174 31.2042C59.4538 32.4674 58.7829 33.4538 58.6387 34.8715C59.573 33.8169 59.8981 32.6356 61.0936 31.73C60.5329 32.9514 60.0945 33.9062 59.5143 35.17C60.8516 34.4819 60.8735 33.1664 61.9068 32.4626C61.8183 34.1292 60.7659 35.3365 60.5471 36.8074C61.7523 34.8565 63.0925 33.033 64.6804 31.3862C65.4302 30.6087 65.5169 29.5032 65.6561 28.4932C65.7659 27.6963 66.0699 27.0868 66.7591 26.7579C67.9865 26.1721 68.4085 25.1893 68.3903 23.911C68.3858 23.5919 68.2002 23.1092 68.779 23.0808C69.2012 23.0601 69.3652 23.3828 69.5108 23.7509C70.1069 25.2584 69.4881 27.0401 67.9439 27.7293C67.1058 28.1033 66.6734 28.6108 66.519 29.4788C66.2517 30.9814 65.13 31.9745 64.2373 33.086C63.2134 34.361 62.5514 35.8027 61.9913 37.3125C63.1823 36.0205 64.0595 34.499 65.0074 33.0584C66.4334 30.8913 68.3549 30.0615 70.7948 29.9503C72.8568 29.8563 74.7305 29.1295 76.5596 28.2007C77.3689 27.7897 77.3263 27.5229 76.849 26.858C75.3614 24.7854 75.8636 22.0321 77.827 20.9538C78.9485 20.3379 80.0364 20.3507 80.9403 21.2421C81.845 22.1344 81.7044 23.1001 80.9825 24.1525C80.2767 25.1814 79.7991 26.3656 79.203 27.4718C79.0415 27.7715 78.8946 28.0672 79.1798 28.3325C80.3901 29.4585 81.6789 30.4252 83.4703 30.2971C85.1475 30.177 86.3947 29.4177 87.064 27.8463C87.7053 26.3408 87.2923 24.8585 86.0403 24.0069C84.8033 23.1656 83.7573 23.314 82.4156 24.5094C82.2527 24.6546 82.0542 24.7601 81.8426 24.9041C81.7648 23.1074 83.3715 21.9355 85.3543 22.2734C87.2447 22.5955 88.5764 24.0188 88.7863 25.9416C89.0249 28.1268 87.9118 30.2563 86.1346 30.9651C83.5145 32.01 81.2686 31.1774 79.2751 29.4604C78.5606 28.845 78.34 28.7433 78.0087 29.776C77.0074 32.8966 75.9863 36.0151 74.53 39.1084C76.4358 38.8983 78.0854 38.6433 78.7811 36.6533C78.952 36.1644 79.3433 35.7227 79.7175 35.342C80.1909 34.8604 80.8542 34.8299 81.2925 35.296C81.7397 35.7714 81.2483 36.1591 80.901 36.5352C79.3348 38.2312 77.8296 40.004 75.1642 40.0631C75.2118 40.2134 75.2594 40.3637 75.307 40.5139C76.2875 40.5139 77.268 40.5093 78.2485 40.517C78.5189 40.5191 78.8494 40.5594 78.8161 40.9042C78.802 41.0505 78.4926 41.2764 78.312 41.2816C76.9048 41.3223 75.5669 41.5811 74.2292 42.0686C73.4737 42.344 74.5318 41.4461 73.8216 41.4275C72.7568 43.0234 71.1641 44.2713 69.5892 45.5882C70.2443 45.8151 70.6633 45.1231 71.3527 45.2258C71.311 46.7297 69.7722 46.6804 68.927 47.4939C70.1524 47.6004 71.1042 47.0907 72.1811 46.6783C72.1672 48.0344 70.6323 47.6563 70.324 48.5708C71.3475 48.4397 72.3284 47.8583 73.5496 47.8576C72.7363 49.0341 71.7242 49.6996 70.4554 50.0883C72.7751 50.2257 75.0746 50.5269 77.3662 50.1661C78.8349 49.9349 79.7833 48.8642 80.7184 47.7917C81.7645 46.5919 83.1055 46.0407 84.7141 46.3395C85.156 46.4216 85.6905 46.5635 85.6734 47.1222C85.6569 47.6592 85.0972 47.6477 84.7246 47.6715C83.1106 47.7747 81.7897 48.4598 80.6423 49.5627C80.1602 50.0263 79.5497 50.288 78.8696 50.4692C83.7242 51.5491 87.6854 54.5191 92.5835 56.4929C87.8899 58.4637 83.6954 60.5576 79.1912 62.212C80.96 63.3763 82.4031 64.9905 84.6706 65.1061C85.088 65.1274 85.3196 65.3578 85.2656 65.8247C85.2151 66.2624 84.9098 66.2612 84.5863 66.3051C83.3606 66.4712 82.1497 66.3115 81.299 65.4169C79.0505 63.0524 76.2876 62.0021 73.0989 61.8291C72.5797 61.801 72.0712 61.5742 71.4862 61.4203C71.7248 61.8277 72.3169 61.6584 72.4254 62.2178C71.8054 62.6045 71.1416 61.9496 70.4706 62.2658C71.1673 62.8334 72.143 62.9558 72.7884 63.8949C71.8877 63.7019 71.1594 63.5459 70.0369 63.3054C71.0173 63.8364 71.6543 64.1814 72.2912 64.5264C72.2762 64.5738 72.2613 64.6213 72.2463 64.6688C71.4195 64.4039 70.5928 64.1391 69.766 63.8742C70.6931 64.6909 71.8821 65.0897 72.6853 66.0345L72.716 66.0021ZM28.767 74.1558C30.455 73.2917 31.4531 71.6803 32.8141 70.4565C31.1073 71.1216 30.0618 72.5936 28.7399 73.7247C28.77 72.9809 29.2838 72.4995 29.7287 72.0062C30.6864 70.9441 31.6863 69.9199 32.6689 68.8801C29.1105 70.5489 27.5118 73.8493 25.7329 77.1605C25.8283 74.9458 27.1748 73.4633 28.2353 71.8369C29.3366 70.1478 30.9122 68.8753 32.3622 67.2963C25.6138 69.5644 25.1433 75.6235 23.2918 81.2339C25.1868 80.1783 27.0463 80.2476 28.7314 79.6339C30.4167 79.0202 31.9059 78.0977 33.0983 76.7702C34.2592 75.4778 35.2775 74.0731 35.7461 72.3674C31.9302 76.7535 29.2902 78.9871 27.2465 79.2718C30.3696 77.2248 33.1182 75.0839 34.9688 71.6575C33.2396 73.2819 31.741 74.6964 30.2348 76.1028C28.7153 77.5216 26.8281 78.3681 25.1066 79.4745C26.5005 77.6867 28.6874 76.8806 30.1683 75.223C31.6231 73.5944 33.341 72.1789 34.3995 70.2218C31.9131 72.2052 29.5212 74.2715 27.1049 76.677C27.6128 75.3827 27.8275 75.0712 28.767 74.1558ZM29.531 54.9731C29.4496 66.6589 39.0597 74.7524 49.2445 74.5907C59.764 74.4236 68.8391 66.1672 68.6957 54.8245C68.559 44.0166 59.7061 35.4795 48.9024 35.5652C38.2718 35.6495 29.302 44.0715 29.531 54.9731ZM70.5967 52.9596C75.1646 52.1244 79.5669 52.3502 83.6508 54.8827C79.3823 53.398 75.0994 52.3118 70.3851 54.4008C76.1755 53.3567 81.3477 54.8383 86.5236 56.3104C81.17 55.7749 75.9034 54.0401 70.1396 55.3671C75.1423 55.8618 79.8595 56.3282 84.5767 56.7947C80.087 57.6258 75.6667 56.2572 71.1882 56.6852C75.0185 57.3741 78.7749 58.6243 82.7637 58.033C78.515 59.2746 74.284 58.3725 69.6534 57.8606C72.9549 59.1754 75.9721 59.9566 79.1432 60.1882C78.1269 60.8482 77.0329 60.5887 75.9959 60.5311C74.9279 60.4717 73.8688 60.2075 72.8123 59.9999C71.8269 59.8061 70.8501 59.5689 69.8694 59.3508C73.563 61.1 77.2824 62.1491 81.1968 60.0457C83.5842 58.7629 86.0753 57.6732 88.6815 56.4189C86.5424 55.2942 84.5763 54.3718 82.7221 53.2625C78.734 50.8766 74.7043 51.122 70.5967 52.9596ZM26.5256 53.9602C23.5727 52.7622 20.6074 53.0111 17.6287 53.7529C20.8327 52.0123 24.1964 52.4258 27.5862 52.9401C26.1474 51.8482 24.5088 51.4853 22.8039 51.361C17.97 51.0085 14.741 54.4681 10.5384 56.2983C13.7645 57.9528 16.6344 59.5647 19.6223 60.9159C22.3543 62.1512 25.001 61.0816 27.9825 60.1499C24.7868 59.7952 21.9371 61.3789 19.1516 59.901C22.4851 60.3151 25.3489 58.4564 28.5165 58.0861C26.4774 57.7517 24.5182 58.3042 22.5357 58.5096C20.5145 58.7191 18.5194 58.9633 16.6257 57.9926C18.5232 57.8966 20.4108 58.0254 22.2888 57.6273C24.1143 57.2403 25.9665 56.9792 28.084 56.6152C23.3185 56.0507 18.9055 57.423 14.4164 56.8579C18.3823 56.1913 22.3849 55.7889 26.3981 55.4394C22.0243 54.2559 17.8084 55.5051 13.5335 55.9982C17.7013 54.2875 22.0702 53.8541 26.5256 53.9602ZM64.7987 40.1099C67.2865 37.9196 69.5961 35.5235 72.6965 34.1403C70.2277 36.3913 67.45 38.327 65.5753 41.1745C68.5394 39.1774 71.6264 37.3469 73.9173 34.5111C72.4135 38.0643 68.7522 39.4511 66.027 42.3099C68.7677 41.5644 70.6313 40.1072 72.4093 38.4867C71.3855 40.8757 68.9402 41.7465 66.9666 43.576C69.0406 42.9713 70.7355 42.2463 71.8878 40.8382C74.395 37.7743 75.0768 33.9217 76.3654 30.1192C74.5325 30.6134 72.9838 31.1379 71.3299 31.3663C67.3732 31.9128 64.3711 33.8694 62.8433 38.0289C64.6729 36.1184 66.116 34.0781 68.5452 33.2668C66.5554 34.6734 64.9171 36.3988 63.7246 38.612C66.8211 35.6389 70.273 33.2508 74.2808 31.7264C70.8514 34.2263 66.5327 35.6903 64.7987 40.1099ZM46.3962 33.8813C45.7794 30.251 46.186 26.7289 47.4247 23.2684C46.7504 27.098 47.6077 30.6806 49.0867 34.1765C48.5651 29.5916 48.2788 25.0095 49.0159 20.4154C49.5757 25.0573 49.483 29.7474 50.2095 34.3715C50.7421 31.0133 50.8981 27.6387 50.6626 24.2357C50.8279 24.2353 50.9933 24.235 51.1586 24.2346C51.4142 27.0339 51.6698 29.8333 51.9254 32.6326C52.8627 30.1758 52.296 27.7503 51.9495 25.3187C53.239 28.1617 53.0547 31.131 52.7141 34.1259C53.7389 32.1788 53.93 30.1327 53.618 27.9974C53.077 24.2955 50.3452 21.6648 48.9772 17.9952C47.8411 20.7528 46.0162 22.6729 44.7462 24.9423C42.9977 28.0666 43.7446 31.1657 44.9307 34.2398C44.7666 31.47 44.3428 28.6893 45.4976 26.0089C45.2987 28.6877 44.922 31.3668 46.3962 33.8813ZM49.1773 89.0336C47.8676 84.814 48.5535 80.5421 48.7489 76.2696C47.6292 78.9427 47.6018 81.8492 46.7604 84.5935C45.5169 81.8399 45.9809 78.9252 45.7845 75.7205C44.908 78.244 44.8462 80.4797 45.2316 82.7053C45.8044 86.0129 48.3593 88.4546 49.2395 91.6882C50.3165 88.8889 51.8974 86.4022 53.0143 83.7082C53.8938 81.5867 53.8503 79.3836 52.7718 77.28C52.7043 79.5815 53.3413 81.9539 51.7943 84.4307C52.2177 81.4956 52.3871 78.9111 51.6419 76.3544C51.5325 77.6005 51.5945 78.8505 51.5148 80.0913C51.4371 81.3012 51.2726 82.5131 51.0394 83.7033C50.8092 84.8774 50.4452 86.0254 50.1399 87.1848C50.3925 83.4134 51.1937 79.6774 50.1564 75.9134C50.2023 77.7295 49.9261 79.498 49.5324 81.2778C49.2515 80.9892 49.5737 80.5475 49.1547 80.2671C49.2402 83.2265 49.5795 86.1285 49.1773 89.0336ZM75.1217 80.9857C74.8562 79.7608 74.4598 78.808 73.9364 77.9161C73.0753 76.449 72.0418 75.0919 71.3685 73.5039C70.2221 70.8003 67.7368 69.7175 65.2572 68.6442C67.1877 70.6712 70.0679 71.8289 70.8464 74.8784C69.6037 73.0367 67.8989 71.729 65.9822 70.6462C67.6926 73.0846 70.1167 74.9018 71.8509 77.3115C69.0712 74.9899 66.2759 72.704 64.0281 69.8461C65.7535 74.3624 69.4231 76.9667 73.3945 79.2665C68.5409 77.9611 65.554 74.3336 62.5091 70.7474C63.2372 72.2416 64.0808 73.6117 64.9653 74.955C65.832 76.2714 66.6222 77.7171 68.1636 78.3515C70.4003 79.2719 72.6869 80.0711 75.1217 80.9857ZM32.645 41.1571C30.1583 38.618 28.1473 35.5883 25.1357 33.532C28.3615 35.2901 31.0569 37.6927 33.5393 40.4031C33.0877 38.6135 31.977 37.2618 30.7264 35.9728C28.1784 33.3465 24.5965 32.6038 21.4612 30.6652C21.6661 31.6237 21.8177 32.3666 21.9843 33.1061C22.4131 35.0097 23.2373 36.6248 24.9534 37.7471C26.5345 38.7811 27.9986 39.992 29.5451 41.0811C30.2581 41.5833 30.9531 42.1597 31.9201 42.2562C28.8237 39.1586 25.0714 36.698 22.8555 32.7809C25.9017 35.8145 28.9951 38.7819 32.645 41.1571ZM13.3396 21.9991C14.6286 22.0417 15.5657 22.2285 16.0428 23.3162C16.7054 24.8269 15.9841 26.2155 14.2695 26.7319C13.9229 26.8362 13.3341 26.7422 13.3242 27.2677C13.3154 27.7343 13.8496 27.8475 14.2136 27.9799C15.2721 28.3649 16.3442 28.7136 17.4174 29.0567C17.8088 29.1818 18.1744 29.2169 18.5289 28.8521C19.733 27.613 19.8418 24.7652 18.711 23.1317C17.5572 21.465 15.5429 20.9774 13.3396 21.9991ZM52.7386 8.17964C52.6056 8.18949 52.2285 8.10251 52.0826 8.24766C51.3517 8.97517 50.3633 9.6563 50.0604 10.5542C49.5397 12.098 50.9308 13.7432 52.5598 13.9036C54.2483 14.0699 55.7221 12.8478 55.8361 11.187C55.946 9.58776 54.567 8.18666 52.7386 8.17964ZM83.1151 87.0753C83.441 84.9774 81.3279 83.6881 79.8561 83.5515C78.5065 83.4262 77.3644 84.3965 76.9132 85.9875C76.5415 87.2981 77.1377 89.8074 78.8877 90.3267C79.0827 87.272 80.1475 86.437 83.1151 87.0753ZM24.2623 88.1852C24.2147 87.5077 24.1191 86.8382 23.7458 86.253C23.2024 85.4009 22.497 84.4087 21.4916 84.5825C20.5388 84.7474 20.4229 86.0014 20.1234 86.8664C20.0275 87.1432 19.8881 87.5754 20.4117 87.7548C21.4105 88.0968 21.3176 88.5081 20.5517 89.1136C20.1352 89.4428 19.6044 89.9481 20.0005 90.5998C20.4121 91.277 21.1074 91.4768 21.8726 91.3508C23.252 91.1237 24.2558 89.78 24.2623 88.1852ZM79.9985 23.3833C79.9367 22.7783 79.7639 21.9199 78.9682 21.6637C78.1235 21.3917 77.5603 22.0992 77.1498 22.7589C76.3975 23.9679 76.6741 25.8649 77.647 26.903C78.0208 27.3018 78.3013 27.3594 78.6098 26.9012C79.2936 25.8858 79.8993 24.8346 79.9985 23.3833ZM49.0558 9.38568C46.2617 10.6268 45.4911 12.9456 46.9985 15.6523C47.2429 16.0911 47.4212 16.9441 47.948 16.7808C48.565 16.5894 48.4311 15.7228 48.4715 15.1181C48.4917 14.8141 48.3714 14.5016 48.3215 14.1918C48.1323 13.0167 48.1977 11.8919 48.7364 10.7835C48.9305 10.3841 49.2214 9.91472 49.0558 9.38568ZM31.4201 43.832C28.7626 41.5904 25.9451 39.5657 23.3038 36.8706C24.5151 39.9781 27.9549 42.8852 31.4201 43.832ZM13.4101 26.1739C14.6576 26.2022 15.6595 25.3777 15.69 24.5331C15.7151 23.8385 14.7168 22.8326 13.9717 22.9257C13.0473 23.0412 12.3068 23.6001 12.2718 24.5486C12.2412 25.3769 12.6815 26.1003 13.4101 26.1739ZM83.1478 89.066C83.0905 88.0612 82.3942 87.7403 81.5107 87.6952C80.5137 87.6442 80.0068 88.1639 80.0034 89.1583C80.0001 90.151 80.5372 90.6593 81.4984 90.6738C82.5297 90.6894 83.0494 90.1062 83.1478 89.066ZM20.2444 84.489C17.747 84.9374 16.9508 87.3525 18.3851 89.5768C20.0515 88.2403 19.1739 86.1067 20.2444 84.489ZM65.8707 67.5829C70.0235 69.2774 72.1487 72.7062 73.6201 76.6942C72.741 72.1996 70.724 68.6783 65.8707 67.5829ZM27.7472 33.028C28.6912 33.4684 29.5902 33.9885 30.3771 34.6612C31.1309 35.3055 31.8088 36.038 32.5278 36.7235C33.2225 37.3858 33.5803 38.4017 34.7067 38.9459C33.3153 35.6159 31.2667 33.4206 27.7472 33.028ZM37.8809 72.6982C36.9721 74.2166 36.3866 75.9262 34.9442 76.7703C33.5191 77.6041 32.2788 78.6835 30.8126 79.4313C33.9334 78.8437 37.6709 76.0995 37.8809 72.6982ZM66.059 78.0969C64.5441 76.3211 63.6549 74.1036 61.9964 72.4413C62.8587 74.6756 63.6271 76.9748 66.059 78.0969ZM44.6653 83.8976C44.2531 81.4412 44.6962 78.9101 44.4186 76.2263C43.4219 79.0792 43.488 81.4231 44.6653 83.8976ZM46.8967 83.964C47.0488 81.3572 47.2009 78.7503 47.353 76.1435C46.1553 78.6694 46.2886 81.2849 46.8967 83.964ZM73.7848 40.1962C72.2588 41.9928 70.3323 43.3325 68.4309 44.7008C70.8142 43.8822 72.8088 42.6202 73.7848 40.1962ZM47.4244 34.1346C47.4124 31.8513 46.8211 29.6276 46.8727 27.3456C46.456 29.6585 46.736 31.9167 47.4244 34.1346ZM36.542 72.7921C35.6584 73.9989 34.9792 75.3368 34.1011 76.5471C35.628 75.7526 36.0914 74.2764 36.542 72.7921Z" fill="#F4F4F4"/>
<path d="M72.6855 66.0384C73.402 65.9572 74.4063 66.4755 74.5348 65.1495C74.5393 65.1029 74.7616 65.0226 74.8591 65.0479C76.366 65.4393 78.0184 65.5132 79.0533 66.9524C79.2494 67.225 79.4119 67.5193 79.1945 67.8012C78.9996 68.0538 78.6956 67.8999 78.448 67.8011C77.9133 67.5878 77.3833 67.3629 76.6404 67.0555C77.2922 67.9963 77.8144 68.7398 78.324 69.4919C78.4812 69.724 78.5635 70.036 78.3857 70.245C78.137 70.5372 77.8039 70.3915 77.5431 70.2007C77.2553 69.9901 76.945 69.7805 76.731 69.5037C75.6225 68.0703 74.4024 66.7747 72.7174 66.0054C72.7162 66.0061 72.6855 66.0384 72.6855 66.0384Z" fill="#F4F4F4"/>
<path d="M20.2374 70.3746C20.3416 69.0811 20.9123 68.097 21.8424 66.8419C21.1436 67.2545 20.7484 67.4711 20.3711 67.7155C20.0107 67.949 19.6065 68.168 19.2734 67.8026C18.9315 67.4276 19.2536 67.0501 19.477 66.7133C20.5287 65.1282 22.2431 65.2782 23.8014 64.9181C23.8897 65.5585 23.2772 65.4639 23.1212 65.9844C23.8227 66.0358 24.4999 66.0855 25.1771 66.1351C23.5199 67.5218 21.7257 68.7467 20.2374 70.3746Z" fill="#F4F4F4"/>
<path d="M36.7622 27.9887C36.2911 27.0027 35.8199 26.0168 35.3311 24.9939C37.5913 25.1966 39.1925 28.3814 38.014 30.1209C37.858 30.3513 37.802 30.3908 37.5334 30.3479C36.7033 30.2151 34.5136 27.7943 34.5193 26.9317C34.5203 26.7783 34.6141 26.5733 34.7337 26.4844C34.9388 26.332 35.1825 26.4226 35.3398 26.5997C35.7719 27.0858 36.1833 27.5903 36.6029 28.0875C36.656 28.0545 36.7091 28.0216 36.7622 27.9887Z" fill="#F4F4F4"/>
<path d="M59.7974 79.0213C60.3572 79.0902 60.2944 79.5645 60.3972 79.8624C60.7021 80.746 60.8636 81.6831 61.2116 82.5467C61.4436 83.1224 61.9391 83.5701 62.5013 83.891C62.8165 84.0709 63.2114 84.2194 62.9201 84.6887C62.6912 85.0574 62.313 85.0358 61.9518 84.9325C61.1435 84.7013 60.5048 84.2255 60.0084 83.5491C59.0382 82.2271 59.2823 80.7498 59.4612 79.283C59.486 79.0792 59.6441 78.9924 59.7974 79.0213Z" fill="#F4F4F4"/>
<path d="M59.7093 30.8057C60.854 28.5883 63.317 27.5513 62.8638 24.7419C64.6796 27.1183 63.4973 29.3649 59.7093 30.8057Z" fill="#F4F4F4"/>
<path d="M73.0904 46.3317C74.6446 44.8891 76.6894 44.3573 78.1066 42.8966C78.9131 44.8232 76.5765 46.4382 73.0904 46.3317Z" fill="#F4F4F4"/>
<path d="M74.4262 47.0909C75.9873 46.2858 77.3694 45.5561 78.7703 44.8646C79.0573 44.7229 79.4319 44.3776 79.7356 44.7827C79.9625 45.0854 79.6589 45.3583 79.4957 45.624C78.4401 47.3433 77.2477 47.7136 74.4262 47.0909Z" fill="#F4F4F4"/>
<path d="M21.808 45.4323C22.1379 45.9301 23.1962 46.3021 22.7635 46.8385C22.3513 47.3494 21.3721 47.0783 20.6435 46.7264C19.876 46.3558 19.3812 45.7234 18.8582 45.1093C18.6586 44.8748 18.4197 44.5768 18.6172 44.2615C18.8553 43.8812 19.1818 44.1625 19.4558 44.266C19.958 44.4558 20.4502 44.6718 20.9465 44.8768C21.2337 45.062 21.5208 45.2471 21.808 45.4323Z" fill="#F4F4F4"/>
<path d="M71.6065 68.1776C72.3048 68.9309 73.0593 69.6406 73.687 70.4486C74.4495 71.43 75.287 71.7643 76.5632 71.5332C77.2983 71.4002 78.6627 70.7968 78.8296 71.645C78.9932 72.4771 77.5328 72.0561 76.8674 72.4019C75.4081 73.1601 74.4327 72.5279 73.6031 71.3259C72.903 70.3113 72.1404 69.3399 71.4055 68.3494C71.4725 68.2921 71.5395 68.2349 71.6065 68.1776Z" fill="#F4F4F4"/>
<path d="M38.3006 78.9283C37.5757 81.1569 36.9281 83.1476 36.1887 85.4204C35.3614 82.9403 36.1514 80.5853 38.3006 78.9283Z" fill="#F4F4F4"/>
<path d="M36.9338 84.3481C37.5731 82.6027 37.8082 80.9241 38.8066 79.4294C39.7059 82.0766 39.1488 83.6759 36.9338 84.3481Z" fill="#F4F4F4"/>
<path d="M21.8083 45.4303C21.5211 45.2452 21.2339 45.06 20.9468 44.8749C20.358 44.0018 19.0542 43.5525 19.3444 41.8812C20.7134 43.3643 22.4142 44.1402 23.9149 45.5196C23.05 45.8112 22.4269 45.7083 21.8083 45.4303Z" fill="#F4F4F4"/>
<path d="M59.2674 30.1063C59.6835 27.9664 60.0355 26.2252 62.5683 25.8966C61.8701 27.6293 60.8621 28.878 59.2674 30.1063Z" fill="#F4F4F4"/>
<path d="M31.0133 54.6799C31.0426 45.0909 39.3937 36.995 49.1921 37.0566C59.0544 37.1187 67.3311 45.542 67.2691 55.4539C67.2114 64.6825 58.6474 72.8739 49.0611 72.8695C39.1733 72.865 30.9829 64.6102 31.0133 54.6799ZM47.351 61.126C50.9549 64.7114 57.3067 64.4948 60.6156 60.8206C63.9144 57.1576 64.3485 51.646 61.6673 47.3801C59.3437 43.6832 55.9502 41.9908 51.584 42.0737C54.2298 43.3101 56.4535 45.0221 57.7268 47.6758C59.0194 50.3698 59.0619 53.1478 57.829 55.906C55.982 60.0375 52.222 61.9546 47.351 61.126Z" fill="#F4F4F4"/>
</svg>
