<svg width="288" height="108" viewBox="0 0 288 108" fill="none" xmlns="http://www.w3.org/2000/svg">
<rect x="2" y="2" width="104" height="104" rx="52" fill="#A67C8C" stroke="#F4F4F4" stroke-width="4"/>
<path fill-rule="evenodd" clip-rule="evenodd" d="M54.1111 40.3289L55.7262 38.5937C60.1862 33.8021 67.4173 33.8021 71.8772 38.5937C76.3372 43.3853 76.3372 51.1541 71.8772 55.9457L57.3413 71.5625C55.5573 73.4792 52.6649 73.4792 50.8809 71.5625L36.345 55.9457C31.885 51.1541 31.885 43.3853 36.345 38.5937C40.805 33.8021 48.036 33.8021 52.496 38.5937L54.1111 40.3289ZM64.6667 39.75C63.7922 39.75 63.0833 40.4589 63.0833 41.3333C63.0833 42.2078 63.7922 42.9167 64.6667 42.9167C66.1241 42.9167 67.3056 44.0981 67.3056 45.5556C67.3056 46.43 68.0144 47.1389 68.8889 47.1389C69.7633 47.1389 70.4722 46.43 70.4722 45.5556C70.4722 42.3492 67.873 39.75 64.6667 39.75Z" fill="#F4F4F4"/>
<rect x="92" y="2" width="104" height="104" rx="52" fill="#4B6359" stroke="#F4F4F4" stroke-width="4"/>
<path d="M149.109 29.6113C147.508 29.6436 146.359 29.9551 145.596 30.5137L135.144 36.1104L129.332 44.0155C128.108 45.9062 128.978 49.5585 132.802 47.2167L136.992 41.6952C142.309 37.1094 153.159 39.2138 148.013 48.4198C145.489 53.7479 146.67 56.3476 149.925 57.4433L151.408 52.4589C153.975 46.6796 158.766 45.6376 158.573 40.9755L170.088 41.8026L169.981 29.7617L149.109 29.6113ZM143.297 40.7177C141.428 40.6854 139.591 41.4589 138.259 42.5761L134.059 48.0976C135.208 49.0106 136.369 48.5165 137.518 47.4101C138.871 48.0976 139.924 47.0341 140.784 44.9071C141.138 43.4569 141.664 42.4364 143.297 40.7177ZM134.746 51.0302C134.703 51.0302 134.65 51.0302 134.607 51.0409C134.252 51.1161 133.833 51.4921 133.554 52.3515C133.264 53.2108 133.2 54.4354 133.457 55.746C133.715 57.0458 134.252 58.1522 134.854 58.8397C135.434 59.5165 135.971 59.7099 136.326 59.6347C136.691 59.5702 137.099 59.1835 137.378 58.3349C137.668 57.4755 137.744 56.2401 137.486 54.9403C137.217 53.6298 136.68 52.5233 136.089 51.8466C135.574 51.245 135.101 51.0302 134.746 51.0302ZM143.62 62.5028C142.771 62.5136 141.707 62.7821 140.665 63.287C139.473 63.8778 138.538 64.6942 138.034 65.4462C137.529 66.1874 137.486 66.746 137.647 67.079C137.808 67.4013 138.281 67.7128 139.183 67.7558C140.085 67.8095 141.299 67.5624 142.492 66.9716C143.684 66.3808 144.619 65.5751 145.123 64.8231C145.628 64.0819 145.671 63.5126 145.51 63.1903C145.349 62.8573 144.876 62.5565 143.974 62.5136C143.856 62.5028 143.748 62.5028 143.62 62.5028ZM133.135 72.7724C132.63 72.7831 132.168 72.8583 131.76 72.9765C130.847 73.245 130.321 73.7284 130.149 74.2978C129.966 74.8778 130.149 75.5653 130.761 76.3065C131.384 77.037 132.426 77.7353 133.715 78.122C134.994 78.5087 136.24 78.4979 137.163 78.2187C138.087 77.9501 138.614 77.4667 138.786 76.8974C138.957 76.3173 138.786 75.6298 138.162 74.8886C137.55 74.1581 136.508 73.4599 135.219 73.0731C134.489 72.8583 133.78 72.7616 133.135 72.7724Z" fill="#F4F4F4"/>
<rect x="182" y="2" width="104" height="104" rx="52" fill="#A67C8C" stroke="#F4F4F4" stroke-width="4"/>
<path d="M219.541 54.1209L234.536 34.0201C236.013 32.0399 239.043 33.1357 239.043 35.6502V47.8161C239.043 49.2769 240.172 50.4611 241.564 50.4611H246.474C248.576 50.4611 249.755 53 248.46 54.7362L233.465 74.8371C231.987 76.8172 228.958 75.7214 228.958 73.207V61.041C228.958 59.5802 227.829 58.396 226.437 58.396H221.526C219.425 58.396 218.246 55.8571 219.541 54.1209Z" fill="#F4F4F4"/>
</svg>
