<svg width="1920" height="754" viewBox="0 0 1920 754" fill="none" xmlns="http://www.w3.org/2000/svg">
<path d="M-278.79 11C-276.136 12.6263 -273.33 14.6089 -270.455 16.8884L-273.732 21.0252C-276.443 18.8744 -279.07 17.0171 -281.547 15.4996L-278.79 11ZM-257.982 28.1573C-255.73 30.417 -253.405 32.8648 -251.077 35.4313L-254.981 38.9808C-257.256 36.4737 -259.521 34.0853 -261.717 31.8817L-257.982 28.1573ZM-240.252 48.1054C-238.225 50.6158 -236.151 53.2582 -234.09 55.96L-238.284 59.1631C-240.315 56.501 -242.359 53.8982 -244.354 51.4241L-240.252 48.1054ZM-224.278 69.3731C-222.401 72.0419 -220.502 74.803 -218.633 77.5806L-223.008 80.5298C-224.858 77.7819 -226.737 75.0504 -228.59 72.4113L-224.278 69.3731ZM-209.579 91.4951C-207.835 94.2695 -206.074 97.1164 -204.353 99.96L-208.863 102.698C-210.571 99.8775 -212.312 97.057 -214.043 94.3057L-209.579 91.4951ZM-195.951 114.264C-194.323 117.124 -192.69 120.043 -191.098 122.946L-195.721 125.486C-197.3 122.61 -198.919 119.713 -200.534 116.876L-195.951 114.264ZM-183.303 137.587C-181.787 140.526 -180.277 143.511 -178.809 146.46L-183.534 148.809C-184.988 145.883 -186.488 142.924 -187.992 140.008L-183.303 137.587ZM-171.628 161.408C-170.23 164.409 -168.842 167.458 -167.5 170.476L-172.32 172.624C-173.649 169.632 -175.027 166.607 -176.409 163.631L-171.628 161.408ZM-160.968 185.707C-159.699 188.785 -158.449 191.892 -157.252 194.94L-162.165 196.867C-163.349 193.848 -164.585 190.771 -165.845 187.719L-160.968 185.707ZM-151.439 210.484C-150.318 213.628 -149.227 216.798 -148.191 219.899L-153.197 221.569C-154.219 218.501 -155.3 215.367 -156.408 212.256L-151.439 210.484ZM-237.028 222.891H-237.021C-234.235 222.891 -231.406 222.947 -228.61 223.063L-228.828 228.338C-231.551 228.226 -234.308 228.17 -237.021 228.17H-237.028C-237.549 228.17 -238.066 228.17 -238.587 228.176L-238.63 222.898C-238.096 222.891 -237.562 222.891 -237.028 222.891ZM-255.307 223.723L-254.829 228.978C-258.061 229.275 -261.322 229.657 -264.516 230.116L-265.265 224.89C-261.981 224.419 -258.631 224.026 -255.307 223.723ZM-211.969 224.429C-208.675 224.831 -205.342 225.323 -202.058 225.887L-202.951 231.089C-206.15 230.538 -209.401 230.06 -212.612 229.667L-211.969 224.429ZM-281.692 227.978L-280.488 233.118C-283.653 233.86 -286.825 234.691 -289.915 235.595L-291.395 230.528C-288.213 229.598 -284.949 228.74 -281.692 227.978ZM-185.73 229.357C-182.542 230.169 -179.294 231.096 -176.076 232.112L-177.662 237.146C-180.788 236.159 -183.94 235.259 -187.032 234.47L-185.73 229.357ZM-307.215 235.968L-305.267 240.873C-308.29 242.077 -311.294 243.377 -314.199 244.74L-316.438 239.96C-313.44 238.554 -310.338 237.212 -307.215 235.968ZM-160.391 237.796C-157.371 239.029 -154.285 240.372 -151.222 241.781L-153.424 246.574C-156.418 245.198 -159.435 243.889 -162.386 242.681L-160.391 237.796ZM-143.233 235.757C-142.289 238.983 -141.389 242.216 -140.558 245.363L-145.656 246.716C-146.48 243.611 -147.367 240.421 -148.297 237.235L-143.233 235.757ZM357.776 246.854L358.014 252.129C354.829 252.271 351.574 252.535 348.34 252.908L347.733 247.666C351.09 247.276 354.466 247.003 357.776 246.854ZM374.589 247.161C377.978 247.448 381.351 247.874 384.619 248.434L383.732 253.637C380.613 253.102 377.385 252.693 374.147 252.423L374.589 247.161ZM-331.219 247.857L-328.489 252.373C-331.275 254.062 -334.008 255.847 -336.62 257.681L-339.653 253.363C-336.946 251.459 -334.107 249.605 -331.219 247.857ZM331.208 250.523L332.388 255.665C329.259 256.385 326.094 257.213 322.978 258.136L321.481 253.073C324.702 252.123 327.973 251.261 331.208 250.523ZM-136.335 249.223C-133.479 250.763 -130.551 252.403 -127.63 254.102L-130.281 258.664C-133.153 256.995 -136.031 255.382 -138.837 253.871L-136.335 249.223ZM401 252.555C404.234 253.653 407.412 254.92 410.443 256.319L408.234 261.112C405.368 259.789 402.364 258.592 399.305 257.552L401 252.555ZM305.684 258.631L307.679 263.517C304.688 264.737 301.695 266.067 298.776 267.469L296.495 262.708C299.509 261.264 302.598 259.891 305.684 258.631ZM-136.674 261.541C-135.966 264.849 -135.313 268.148 -134.739 271.345L-139.929 272.278C-140.496 269.141 -141.135 265.898 -141.831 262.646L-136.674 261.541ZM-113.475 262.791C-110.758 264.543 -107.966 266.393 -105.176 268.284L-108.137 272.654C-110.894 270.784 -113.65 268.956 -116.334 267.225L-113.475 262.791ZM-352.789 263.84L-349.248 267.752C-351.655 269.933 -353.976 272.216 -356.152 274.532L-359.997 270.916C-357.725 268.498 -355.302 266.116 -352.789 263.84ZM425.112 264.823C427.872 266.802 430.536 268.96 433.028 271.239L429.471 275.135C427.133 272.998 424.631 270.972 422.039 269.115L425.112 264.823ZM281.766 270.688L284.506 275.198C281.737 276.88 278.99 278.665 276.339 280.499L273.335 276.161C276.072 274.264 278.908 272.424 281.766 270.688ZM-91.6149 277.824C-89.0101 279.717 -86.3229 281.707 -83.6257 283.735L-86.7977 287.955C-89.4716 285.942 -92.1358 283.973 -94.7175 282.092L-91.6149 277.824ZM444.361 283.884C446.343 286.585 448.206 289.462 449.9 292.428L445.324 295.047C443.725 292.253 441.97 289.548 440.108 287.004L444.361 283.884ZM-370.614 284.016L-366.275 287.024C-368.118 289.68 -369.832 292.431 -371.372 295.192L-375.978 292.622C-374.356 289.71 -372.549 286.816 -370.614 284.016ZM260.064 286.391L263.493 290.399C261.03 292.51 258.613 294.717 256.312 296.957L252.632 293.173C255.016 290.854 257.515 288.571 260.064 286.391ZM-132.299 287.842C-131.913 291.234 -131.61 294.592 -131.392 297.828L-136.658 298.178C-136.866 295.024 -137.162 291.748 -137.538 288.439L-132.299 287.842ZM-70.5128 293.833C-68.0135 295.799 -65.3989 297.877 -62.7446 300.012L-66.0452 304.125C-68.6895 302.004 -71.2877 299.939 -73.7704 297.983L-70.5128 293.833ZM241.273 305.518L245.345 308.869C243.288 311.373 241.303 313.966 239.444 316.579L235.147 313.517C237.076 310.806 239.137 308.114 241.273 305.518ZM457.405 307.401C458.793 310.502 460.085 313.626 461.243 316.684L456.31 318.558C455.189 315.596 453.936 312.567 452.587 309.555L457.405 307.401ZM-382.919 308.054L-377.937 309.786C-378.989 312.811 -379.879 315.912 -380.581 319.003L-385.725 317.829C-384.98 314.55 -384.033 311.261 -382.919 308.054ZM-49.9219 310.449C-47.4918 312.452 -44.9958 314.52 -42.2921 316.77L-45.6652 320.828C-48.3623 318.581 -50.8516 316.519 -53.2783 314.523L-49.9219 310.449ZM-136.411 316.618C-136.378 315.886 -136.351 315.15 -136.328 314.411L-131.056 314.573C-131.079 315.338 -131.105 316.1 -131.142 316.859C-131.26 319.462 -131.452 322.078 -131.712 324.631L-136.961 324.097C-136.711 321.639 -136.526 319.125 -136.411 316.618ZM-29.6309 327.369C-27.5009 329.157 -25.3742 330.945 -23.2408 332.74L-22.0308 333.759L-25.427 337.797L-26.637 336.781C-28.767 334.986 -30.897 333.198 -33.0237 331.41L-29.6309 327.369ZM222.232 335.755C223.469 333.07 224.817 330.381 226.238 327.762L230.874 330.285C229.509 332.799 228.213 335.382 227.026 337.965C226.868 338.301 226.713 338.641 226.561 338.981L221.757 336.801C221.916 336.451 222.074 336.104 222.232 335.755ZM466.324 332.68C467.168 335.996 467.873 339.321 468.427 342.564L463.224 343.451C462.697 340.347 462.021 337.16 461.213 333.98L466.324 332.68ZM-387.937 334.633L-382.665 334.831C-382.705 335.903 -382.724 336.998 -382.724 338.084C-382.724 340.182 -382.648 342.316 -382.497 344.427L-387.756 344.81C-387.921 342.574 -388 340.311 -388 338.084C-388 336.932 -387.98 335.771 -387.937 334.633ZM-139.606 340.01L-134.469 341.211C-135.233 344.493 -136.14 347.769 -137.162 350.946L-142.184 349.33C-141.208 346.288 -140.341 343.154 -139.606 340.01ZM-9.3894 344.371C-6.86047 346.486 -4.32495 348.601 -1.78604 350.705L-5.15579 354.769C-7.69797 352.658 -10.2367 350.54 -12.7722 348.419L-9.3894 344.371ZM215.473 352.275L220.435 354.067C219.34 357.105 218.298 360.222 217.336 363.336L212.298 361.779C213.28 358.589 214.352 355.39 215.473 352.275ZM464.725 360.622C464.725 360.232 464.725 359.84 464.718 359.447L469.993 359.381C470 359.797 470 360.209 470 360.622C470 363.623 469.861 366.622 469.584 369.535L464.332 369.037C464.593 366.289 464.725 363.455 464.725 360.622ZM-379.955 360.245C-379.285 362.931 -378.487 365.656 -377.577 368.344C-377.449 368.723 -377.317 369.103 -377.185 369.482L-382.161 371.234C-382.302 370.835 -382.441 370.436 -382.576 370.033C-383.529 367.209 -384.37 364.346 -385.072 361.519L-379.955 360.245ZM10.9312 361.162C13.5723 363.307 16.1539 365.392 18.6104 367.354L15.3166 371.478C12.8503 369.505 10.2553 367.414 7.60434 365.26L10.9312 361.162ZM-148.162 364.28L-143.414 366.579C-144.875 369.601 -146.487 372.596 -148.198 375.483L-152.735 372.791C-151.1 370.03 -149.56 367.166 -148.162 364.28ZM31.5288 377.505C34.1732 379.544 36.8044 381.549 39.3531 383.459L36.1877 387.682C33.6226 385.759 30.9716 383.74 28.3075 381.688L31.5288 377.505ZM207.982 377.904L213.125 379.075C212.406 382.232 211.747 385.455 211.163 388.662L205.974 387.718C206.57 384.436 207.246 381.134 207.982 377.904ZM-370.657 384.122C-369.114 386.926 -367.409 389.674 -365.592 392.29L-369.925 395.302C-371.844 392.538 -373.647 389.635 -375.279 386.669L-370.657 384.122ZM461.318 384.68L466.373 386.188C465.404 389.443 464.227 392.666 462.868 395.771L458.034 393.656C459.304 390.75 460.408 387.728 461.318 384.68ZM-161.898 386.033L-157.78 389.328C-159.864 391.934 -162.089 394.497 -164.4 396.948L-168.238 393.326C-166.026 390.977 -163.893 388.523 -161.898 386.033ZM52.6143 393.155C55.3411 395.091 58.0581 396.985 60.6924 398.786L57.7186 403.144C55.0576 401.326 52.311 399.413 49.5612 397.456L52.6143 393.155ZM-180.046 404.301L-176.712 408.392C-179.291 410.497 -181.998 412.545 -184.757 414.472L-187.778 410.147C-185.127 408.293 -182.525 406.327 -180.046 404.301ZM203.58 404.229L208.826 404.8C208.476 408.019 208.186 411.302 207.968 414.554L202.706 414.201C202.927 410.876 203.224 407.518 203.58 404.229ZM-355.348 404.589C-353.112 406.842 -350.719 409.019 -348.232 411.058L-351.579 415.138C-354.2 412.987 -356.729 410.688 -359.093 408.306L-355.348 404.589ZM74.389 407.798C77.195 409.573 80.0108 411.305 82.7607 412.951L80.0537 417.48C77.2675 415.814 74.4122 414.056 71.5732 412.262L74.389 407.798ZM450.23 407.531L454.553 410.559C452.637 413.294 450.52 415.983 448.262 418.553L444.302 415.066C446.432 412.641 448.426 410.107 450.23 407.531ZM-201.56 418.599L-199.071 423.25C-202.002 424.824 -205.042 426.318 -208.105 427.697L-210.271 422.887C-207.317 421.554 -204.386 420.113 -201.56 418.599ZM-335.044 420.189C-332.3 421.782 -329.422 423.28 -326.491 424.649L-328.716 429.432C-331.792 428 -334.813 426.424 -337.691 424.754L-335.044 420.189ZM96.988 421.033C99.8994 422.594 102.831 424.108 105.703 425.536L103.355 430.263C100.437 428.812 97.4562 427.271 94.4954 425.685L96.988 421.033ZM432.742 426.163L436.078 430.25C433.53 432.335 430.806 434.374 427.984 436.304L425.006 431.946C427.703 430.102 430.305 428.155 432.742 426.163ZM-225.379 428.716L-223.75 433.737C-226.922 434.763 -230.173 435.703 -233.414 436.531L-234.716 431.415C-231.584 430.616 -228.442 429.709 -225.379 428.716ZM-311.449 430.399C-308.402 431.332 -305.254 432.164 -302.088 432.87L-303.236 438.019C-306.533 437.283 -309.817 436.419 -312.992 435.446L-311.449 430.399ZM207.431 430.867C207.431 434.103 207.497 437.399 207.626 440.655L202.353 440.863C202.225 437.537 202.155 434.176 202.155 430.867H207.431ZM-250.606 434.575L-249.851 439.797C-253.164 440.275 -256.524 440.651 -259.844 440.912L-260.263 435.65C-257.052 435.396 -253.804 435.034 -250.606 434.575ZM120.523 432.375C123.547 433.661 126.604 434.888 129.601 436.03L127.728 440.962C124.665 439.8 121.549 438.544 118.459 437.231L120.523 432.375ZM-286.133 435.42C-282.948 435.736 -279.687 435.947 -276.446 436.046L-276.608 441.324C-279.97 441.219 -283.35 441.001 -286.654 440.671L-286.133 435.42ZM144.989 441.265C147.425 441.997 149.888 442.687 152.318 443.324C153.014 443.505 153.71 443.686 154.402 443.865L153.083 448.974C152.384 448.793 151.685 448.612 150.986 448.43C148.497 447.78 145.968 447.068 143.472 446.319L144.989 441.265ZM411.132 440.209L413.559 444.897C410.65 446.401 407.597 447.859 404.488 449.232L402.361 444.402C405.372 443.076 408.323 441.664 411.132 440.209ZM170.351 447.79C173.556 448.539 176.79 449.271 179.962 449.964L178.834 455.12C175.639 454.421 172.382 453.682 169.151 452.93L170.351 447.79ZM387.214 450.248L388.892 455.252C385.796 456.291 382.578 457.288 379.327 458.211L377.886 453.134C381.055 452.234 384.194 451.264 387.214 450.248ZM362.06 457.027L363.144 462.193C359.946 462.866 356.642 463.496 353.332 464.063L352.442 458.861C355.686 458.304 358.924 457.687 362.06 457.027ZM221.932 457.706C225.183 458.191 228.464 458.653 231.685 459.076L230.996 464.307C227.748 463.882 224.438 463.417 221.157 462.929L221.932 457.706ZM247.98 460.972C251.257 461.302 254.554 461.602 257.779 461.866L257.351 467.128C254.093 466.861 250.759 466.557 247.452 466.224L247.98 460.972ZM196.046 453.276C199.264 453.896 202.525 454.5 205.733 455.067L205.341 457.291L208.786 456.938C209.116 460.154 209.515 463.427 209.967 466.663L204.741 467.395C204.401 464.967 204.094 462.52 203.821 460.088C200.906 459.567 197.961 459.023 195.047 458.459L196.046 453.276ZM336.269 461.167L336.869 466.412C333.618 466.785 330.281 467.118 326.948 467.402L326.506 462.14C329.783 461.863 333.067 461.536 336.269 461.167ZM274.143 462.925C277.427 463.08 280.734 463.202 283.969 463.285L283.834 468.563C280.559 468.477 277.216 468.355 273.893 468.197L274.143 462.925ZM310.172 463.14L310.376 468.415C307.109 468.54 303.759 468.626 300.422 468.672L300.353 463.394C303.643 463.351 306.947 463.265 310.172 463.14ZM212.706 482.765C213.343 485.938 214.049 489.161 214.8 492.341L209.667 493.555C208.901 490.319 208.183 487.037 207.533 483.8L212.706 482.765ZM218.994 508.136C219.911 511.24 220.897 514.391 221.922 517.498L216.91 519.154C215.869 515.994 214.866 512.787 213.936 509.63L218.994 508.136ZM227.442 532.891C228.615 535.916 229.852 538.977 231.125 541.989L226.265 544.044C224.972 540.983 223.716 537.872 222.522 534.801L227.442 532.891ZM237.841 556.909C239.239 559.835 240.706 562.798 242.2 565.711L237.508 568.119C235.991 565.163 234.504 562.158 233.083 559.189L237.841 556.909ZM249.988 580.11C251.594 582.931 253.265 585.784 254.957 588.588L250.44 591.316C248.725 588.473 247.03 585.583 245.405 582.723L249.988 580.11ZM263.701 602.44C265.491 605.152 267.344 607.89 269.211 610.582L264.878 613.59C262.985 610.865 261.109 608.091 259.299 605.346L263.701 602.44ZM278.802 623.869C280.754 626.465 282.769 629.091 284.793 631.671L280.642 634.93C278.594 632.321 276.557 629.665 274.585 627.04L278.802 623.869ZM295.136 644.391C297.23 646.875 299.39 649.386 301.553 651.853L297.586 655.334C295.4 652.84 293.221 650.303 291.104 647.793L295.136 644.391ZM312.562 664.01C314.781 666.382 317.066 668.78 319.354 671.135L315.569 674.813C313.258 672.432 310.953 670.01 308.711 667.615L312.562 664.01ZM330.954 682.741C333.285 685.004 335.679 687.29 338.076 689.539L334.465 693.389C332.049 691.12 329.632 688.81 327.277 686.524L330.954 682.741ZM350.196 700.607C352.626 702.765 355.122 704.945 357.612 707.089L354.173 711.091C351.66 708.93 349.145 706.73 346.695 704.552L350.196 700.607ZM370.197 717.636C372.716 719.694 375.301 721.772 377.873 723.811L374.596 727.951C372.004 725.896 369.402 723.801 366.86 721.723L370.197 717.636ZM390.864 733.859C393.459 735.819 396.12 737.798 398.771 739.741L395.651 744C392.981 742.041 390.3 740.045 387.686 738.072L390.864 733.859Z" fill="#4B6359"/>
<circle cx="12.5" cy="12.5" r="12.5" transform="matrix(-1 0 0 1 409 729)" fill="#4B6359"/>
<path d="M2198.79 11C2196.14 12.6263 2193.33 14.6089 2190.45 16.8884L2193.73 21.0252C2196.44 18.8744 2199.07 17.0171 2201.55 15.4996L2198.79 11ZM2177.98 28.1573C2175.73 30.417 2173.41 32.8648 2171.08 35.4313L2174.98 38.9808C2177.26 36.4737 2179.52 34.0853 2181.72 31.8817L2177.98 28.1573ZM2160.25 48.1054C2158.22 50.6158 2156.15 53.2582 2154.09 55.96L2158.28 59.1631C2160.32 56.501 2162.36 53.8982 2164.35 51.4241L2160.25 48.1054ZM2144.28 69.3731C2142.4 72.0419 2140.5 74.803 2138.63 77.5806L2143.01 80.5298C2144.86 77.7819 2146.74 75.0504 2148.59 72.4113L2144.28 69.3731ZM2129.58 91.4951C2127.83 94.2695 2126.07 97.1164 2124.35 99.96L2128.86 102.698C2130.57 99.8775 2132.31 97.057 2134.04 94.3057L2129.58 91.4951ZM2115.95 114.264C2114.32 117.124 2112.69 120.043 2111.1 122.946L2115.72 125.486C2117.3 122.61 2118.92 119.713 2120.53 116.876L2115.95 114.264ZM2103.3 137.587C2101.79 140.526 2100.28 143.511 2098.81 146.46L2103.53 148.809C2104.99 145.883 2106.49 142.924 2107.99 140.008L2103.3 137.587ZM2091.63 161.408C2090.23 164.409 2088.84 167.458 2087.5 170.476L2092.32 172.624C2093.65 169.632 2095.03 166.607 2096.41 163.631L2091.63 161.408ZM2080.97 185.707C2079.7 188.785 2078.45 191.892 2077.25 194.94L2082.16 196.867C2083.35 193.848 2084.59 190.771 2085.84 187.719L2080.97 185.707ZM2071.44 210.484C2070.32 213.628 2069.23 216.798 2068.19 219.899L2073.2 221.569C2074.22 218.501 2075.3 215.367 2076.41 212.256L2071.44 210.484ZM2157.03 222.891H2157.02C2154.24 222.891 2151.41 222.947 2148.61 223.063L2148.83 228.338C2151.55 228.226 2154.31 228.17 2157.02 228.17H2157.03C2157.55 228.17 2158.07 228.17 2158.59 228.176L2158.63 222.898C2158.1 222.891 2157.56 222.891 2157.03 222.891ZM2175.31 223.723L2174.83 228.978C2178.06 229.275 2181.32 229.657 2184.52 230.116L2185.27 224.89C2181.98 224.419 2178.63 224.026 2175.31 223.723ZM2131.97 224.429C2128.68 224.831 2125.34 225.323 2122.06 225.887L2122.95 231.089C2126.15 230.538 2129.4 230.06 2132.61 229.667L2131.97 224.429ZM2201.69 227.978L2200.49 233.118C2203.65 233.86 2206.83 234.691 2209.91 235.595L2211.4 230.528C2208.21 229.598 2204.95 228.74 2201.69 227.978ZM2105.73 229.357C2102.54 230.169 2099.29 231.096 2096.08 232.112L2097.66 237.146C2100.79 236.159 2103.94 235.259 2107.03 234.47L2105.73 229.357ZM2227.22 235.968L2225.27 240.873C2228.29 242.077 2231.29 243.377 2234.2 244.74L2236.44 239.96C2233.44 238.554 2230.34 237.212 2227.22 235.968ZM2080.39 237.796C2077.37 239.029 2074.28 240.372 2071.22 241.781L2073.42 246.574C2076.42 245.198 2079.43 243.889 2082.39 242.681L2080.39 237.796ZM2063.23 235.757C2062.29 238.983 2061.39 242.216 2060.56 245.363L2065.66 246.716C2066.48 243.611 2067.37 240.421 2068.3 237.235L2063.23 235.757ZM1562.22 246.854L1561.99 252.129C1565.17 252.271 1568.43 252.535 1571.66 252.908L1572.27 247.666C1568.91 247.276 1565.53 247.003 1562.22 246.854ZM1545.41 247.161C1542.02 247.448 1538.65 247.874 1535.38 248.434L1536.27 253.637C1539.39 253.102 1542.62 252.693 1545.85 252.423L1545.41 247.161ZM2251.22 247.857L2248.49 252.373C2251.27 254.062 2254.01 255.847 2256.62 257.681L2259.65 253.363C2256.95 251.459 2254.11 249.605 2251.22 247.857ZM1588.79 250.523L1587.61 255.665C1590.74 256.385 1593.91 257.213 1597.02 258.136L1598.52 253.073C1595.3 252.123 1592.03 251.261 1588.79 250.523ZM2056.33 249.223C2053.48 250.763 2050.55 252.403 2047.63 254.102L2050.28 258.664C2053.15 256.995 2056.03 255.382 2058.84 253.871L2056.33 249.223ZM1519 252.555C1515.77 253.653 1512.59 254.92 1509.56 256.319L1511.77 261.112C1514.63 259.789 1517.64 258.592 1520.7 257.552L1519 252.555ZM1614.32 258.631L1612.32 263.517C1615.31 264.737 1618.31 266.067 1621.22 267.469L1623.51 262.708C1620.49 261.264 1617.4 259.891 1614.32 258.631ZM2056.67 261.541C2055.97 264.849 2055.31 268.148 2054.74 271.345L2059.93 272.278C2060.5 269.141 2061.14 265.898 2061.83 262.646L2056.67 261.541ZM2033.48 262.791C2030.76 264.543 2027.97 266.393 2025.18 268.284L2028.14 272.654C2030.89 270.784 2033.65 268.956 2036.33 267.225L2033.48 262.791ZM2272.79 263.84L2269.25 267.752C2271.65 269.933 2273.98 272.216 2276.15 274.532L2280 270.916C2277.73 268.498 2275.3 266.116 2272.79 263.84ZM1494.89 264.823C1492.13 266.802 1489.46 268.96 1486.97 271.239L1490.53 275.135C1492.87 272.998 1495.37 270.972 1497.96 269.115L1494.89 264.823ZM1638.23 270.688L1635.49 275.198C1638.26 276.88 1641.01 278.665 1643.66 280.499L1646.66 276.161C1643.93 274.264 1641.09 272.424 1638.23 270.688ZM2011.61 277.824C2009.01 279.717 2006.32 281.707 2003.63 283.735L2006.8 287.955C2009.47 285.942 2012.14 283.973 2014.72 282.092L2011.61 277.824ZM1475.64 283.884C1473.66 286.585 1471.79 289.462 1470.1 292.428L1474.68 295.047C1476.28 292.253 1478.03 289.548 1479.89 287.004L1475.64 283.884ZM2290.61 284.016L2286.27 287.024C2288.12 289.68 2289.83 292.431 2291.37 295.192L2295.98 292.622C2294.36 289.71 2292.55 286.816 2290.61 284.016ZM1659.94 286.391L1656.51 290.399C1658.97 292.51 1661.39 294.717 1663.69 296.957L1667.37 293.173C1664.98 290.854 1662.48 288.571 1659.94 286.391ZM2052.3 287.842C2051.91 291.234 2051.61 294.592 2051.39 297.828L2056.66 298.178C2056.87 295.024 2057.16 291.748 2057.54 288.439L2052.3 287.842ZM1990.51 293.833C1988.01 295.799 1985.4 297.877 1982.74 300.012L1986.05 304.125C1988.69 302.004 1991.29 299.939 1993.77 297.983L1990.51 293.833ZM1678.73 305.518L1674.65 308.869C1676.71 311.373 1678.7 313.966 1680.56 316.579L1684.85 313.517C1682.92 310.806 1680.86 308.114 1678.73 305.518ZM1462.6 307.401C1461.21 310.502 1459.91 313.626 1458.76 316.684L1463.69 318.558C1464.81 315.596 1466.06 312.567 1467.41 309.555L1462.6 307.401ZM2302.92 308.054L2297.94 309.786C2298.99 312.811 2299.88 315.912 2300.58 319.003L2305.72 317.829C2304.98 314.55 2304.03 311.261 2302.92 308.054ZM1969.92 310.449C1967.49 312.452 1965 314.52 1962.29 316.77L1965.67 320.828C1968.36 318.581 1970.85 316.519 1973.28 314.523L1969.92 310.449ZM2056.41 316.618C2056.38 315.886 2056.35 315.15 2056.33 314.411L2051.06 314.573C2051.08 315.338 2051.11 316.1 2051.14 316.859C2051.26 319.462 2051.45 322.078 2051.71 324.631L2056.96 324.097C2056.71 321.639 2056.53 319.125 2056.41 316.618ZM1949.63 327.369C1947.5 329.157 1945.37 330.945 1943.24 332.74L1942.03 333.759L1945.43 337.797L1946.64 336.781C1948.77 334.986 1950.9 333.198 1953.02 331.41L1949.63 327.369ZM1697.77 335.755C1696.53 333.07 1695.18 330.381 1693.76 327.762L1689.13 330.285C1690.49 332.799 1691.79 335.382 1692.97 337.965C1693.13 338.301 1693.29 338.641 1693.44 338.981L1698.24 336.801C1698.08 336.451 1697.93 336.104 1697.77 335.755ZM1453.68 332.68C1452.83 335.996 1452.13 339.321 1451.57 342.564L1456.78 343.451C1457.3 340.347 1457.98 337.16 1458.79 333.98L1453.68 332.68ZM2307.94 334.633L2302.66 334.831C2302.7 335.903 2302.72 336.998 2302.72 338.084C2302.72 340.182 2302.65 342.316 2302.5 344.427L2307.76 344.81C2307.92 342.574 2308 340.311 2308 338.084C2308 336.932 2307.98 335.771 2307.94 334.633ZM2059.61 340.01L2054.47 341.211C2055.23 344.493 2056.14 347.769 2057.16 350.946L2062.18 349.33C2061.21 346.288 2060.34 343.154 2059.61 340.01ZM1929.39 344.371C1926.86 346.486 1924.32 348.601 1921.79 350.705L1925.16 354.769C1927.7 352.658 1930.24 350.54 1932.77 348.419L1929.39 344.371ZM1704.53 352.275L1699.56 354.067C1700.66 357.105 1701.7 360.222 1702.66 363.336L1707.7 361.779C1706.72 358.589 1705.65 355.39 1704.53 352.275ZM1455.28 360.622C1455.28 360.232 1455.28 359.84 1455.28 359.447L1450.01 359.381C1450 359.797 1450 360.209 1450 360.622C1450 363.623 1450.14 366.622 1450.42 369.535L1455.67 369.037C1455.41 366.289 1455.28 363.455 1455.28 360.622ZM2299.95 360.245C2299.29 362.931 2298.49 365.656 2297.58 368.344C2297.45 368.723 2297.32 369.103 2297.19 369.482L2302.16 371.234C2302.3 370.835 2302.44 370.436 2302.58 370.033C2303.53 367.209 2304.37 364.346 2305.07 361.519L2299.95 360.245ZM1909.07 361.162C1906.43 363.307 1903.85 365.392 1901.39 367.354L1904.68 371.478C1907.15 369.505 1909.74 367.414 1912.4 365.26L1909.07 361.162ZM2068.16 364.28L2063.41 366.579C2064.87 369.601 2066.49 372.596 2068.2 375.483L2072.74 372.791C2071.1 370.03 2069.56 367.166 2068.16 364.28ZM1888.47 377.505C1885.83 379.544 1883.2 381.549 1880.65 383.459L1883.81 387.682C1886.38 385.759 1889.03 383.74 1891.69 381.688L1888.47 377.505ZM1712.02 377.904L1706.87 379.075C1707.59 382.232 1708.25 385.455 1708.84 388.662L1714.03 387.718C1713.43 384.436 1712.75 381.134 1712.02 377.904ZM2290.66 384.122C2289.11 386.926 2287.41 389.674 2285.59 392.29L2289.92 395.302C2291.84 392.538 2293.65 389.635 2295.28 386.669L2290.66 384.122ZM1458.68 384.68L1453.63 386.188C1454.6 389.443 1455.77 392.666 1457.13 395.771L1461.97 393.656C1460.7 390.75 1459.59 387.728 1458.68 384.68ZM2081.9 386.033L2077.78 389.328C2079.86 391.934 2082.09 394.497 2084.4 396.948L2088.24 393.326C2086.03 390.977 2083.89 388.523 2081.9 386.033ZM1867.39 393.155C1864.66 395.091 1861.94 396.985 1859.31 398.786L1862.28 403.144C1864.94 401.326 1867.69 399.413 1870.44 397.456L1867.39 393.155ZM2100.05 404.301L2096.71 408.392C2099.29 410.497 2102 412.545 2104.76 414.472L2107.78 410.147C2105.13 408.293 2102.53 406.327 2100.05 404.301ZM1716.42 404.229L1711.17 404.8C1711.52 408.019 1711.81 411.302 1712.03 414.554L1717.29 414.201C1717.07 410.876 1716.78 407.518 1716.42 404.229ZM2275.35 404.589C2273.11 406.842 2270.72 409.019 2268.23 411.058L2271.58 415.138C2274.2 412.987 2276.73 410.688 2279.09 408.306L2275.35 404.589ZM1845.61 407.798C1842.8 409.573 1839.99 411.305 1837.24 412.951L1839.95 417.48C1842.73 415.814 1845.59 414.056 1848.43 412.262L1845.61 407.798ZM1469.77 407.531L1465.45 410.559C1467.36 413.294 1469.48 415.983 1471.74 418.553L1475.7 415.066C1473.57 412.641 1471.57 410.107 1469.77 407.531ZM2121.56 418.599L2119.07 423.25C2122 424.824 2125.04 426.318 2128.1 427.697L2130.27 422.887C2127.32 421.554 2124.39 420.113 2121.56 418.599ZM2255.04 420.189C2252.3 421.782 2249.42 423.28 2246.49 424.649L2248.72 429.432C2251.79 428 2254.81 426.424 2257.69 424.754L2255.04 420.189ZM1823.01 421.033C1820.1 422.594 1817.17 424.108 1814.3 425.536L1816.65 430.263C1819.56 428.812 1822.54 427.271 1825.5 425.685L1823.01 421.033ZM1487.26 426.163L1483.92 430.25C1486.47 432.335 1489.19 434.374 1492.02 436.304L1494.99 431.946C1492.3 430.102 1489.7 428.155 1487.26 426.163ZM2145.38 428.716L2143.75 433.737C2146.92 434.763 2150.17 435.703 2153.41 436.531L2154.72 431.415C2151.58 430.616 2148.44 429.709 2145.38 428.716ZM2231.45 430.399C2228.4 431.332 2225.25 432.164 2222.09 432.87L2223.24 438.019C2226.53 437.283 2229.82 436.419 2232.99 435.446L2231.45 430.399ZM1712.57 430.867C1712.57 434.103 1712.5 437.399 1712.37 440.655L1717.65 440.863C1717.78 437.537 1717.84 434.176 1717.84 430.867H1712.57ZM2170.61 434.575L2169.85 439.797C2173.16 440.275 2176.52 440.651 2179.84 440.912L2180.26 435.65C2177.05 435.396 2173.8 435.034 2170.61 434.575ZM1799.48 432.375C1796.45 433.661 1793.4 434.888 1790.4 436.03L1792.27 440.962C1795.34 439.8 1798.45 438.544 1801.54 437.231L1799.48 432.375ZM2206.13 435.42C2202.95 435.736 2199.69 435.947 2196.45 436.046L2196.61 441.324C2199.97 441.219 2203.35 441.001 2206.65 440.671L2206.13 435.42ZM1775.01 441.265C1772.57 441.997 1770.11 442.687 1767.68 443.324C1766.99 443.505 1766.29 443.686 1765.6 443.865L1766.92 448.974C1767.62 448.793 1768.31 448.612 1769.01 448.43C1771.5 447.78 1774.03 447.068 1776.53 446.319L1775.01 441.265ZM1508.87 440.209L1506.44 444.897C1509.35 446.401 1512.4 447.859 1515.51 449.232L1517.64 444.402C1514.63 443.076 1511.68 441.664 1508.87 440.209ZM1749.65 447.79C1746.44 448.539 1743.21 449.271 1740.04 449.964L1741.17 455.12C1744.36 454.421 1747.62 453.682 1750.85 452.93L1749.65 447.79ZM1532.79 450.248L1531.11 455.252C1534.2 456.291 1537.42 457.288 1540.67 458.211L1542.11 453.134C1538.95 452.234 1535.81 451.264 1532.79 450.248ZM1557.94 457.027L1556.86 462.193C1560.05 462.866 1563.36 463.496 1566.67 464.063L1567.56 458.861C1564.31 458.304 1561.08 457.687 1557.94 457.027ZM1698.07 457.706C1694.82 458.191 1691.54 458.653 1688.31 459.076L1689 464.307C1692.25 463.882 1695.56 463.417 1698.84 462.929L1698.07 457.706ZM1672.02 460.972C1668.74 461.302 1665.45 461.602 1662.22 461.866L1662.65 467.128C1665.91 466.861 1669.24 466.557 1672.55 466.224L1672.02 460.972ZM1723.95 453.276C1720.74 453.896 1717.48 454.5 1714.27 455.067L1714.66 457.291L1711.21 456.938C1710.88 460.154 1710.49 463.427 1710.03 466.663L1715.26 467.395C1715.6 464.967 1715.91 462.52 1716.18 460.088C1719.09 459.567 1722.04 459.023 1724.95 458.459L1723.95 453.276ZM1583.73 461.167L1583.13 466.412C1586.38 466.785 1589.72 467.118 1593.05 467.402L1593.49 462.14C1590.22 461.863 1586.93 461.536 1583.73 461.167ZM1645.86 462.925C1642.57 463.08 1639.27 463.202 1636.03 463.285L1636.17 468.563C1639.44 468.477 1642.78 468.355 1646.11 468.197L1645.86 462.925ZM1609.83 463.14L1609.62 468.415C1612.89 468.54 1616.24 468.626 1619.58 468.672L1619.65 463.394C1616.36 463.351 1613.05 463.265 1609.83 463.14ZM1707.29 482.765C1706.66 485.938 1705.95 489.161 1705.2 492.341L1710.33 493.555C1711.1 490.319 1711.82 487.037 1712.47 483.8L1707.29 482.765ZM1701.01 508.136C1700.09 511.24 1699.1 514.391 1698.08 517.498L1703.09 519.154C1704.13 515.994 1705.13 512.787 1706.06 509.63L1701.01 508.136ZM1692.56 532.891C1691.38 535.916 1690.15 538.977 1688.88 541.989L1693.74 544.044C1695.03 540.983 1696.28 537.872 1697.48 534.801L1692.56 532.891ZM1682.16 556.909C1680.76 559.835 1679.29 562.798 1677.8 565.711L1682.49 568.119C1684.01 565.163 1685.5 562.158 1686.92 559.189L1682.16 556.909ZM1670.01 580.11C1668.41 582.931 1666.73 585.784 1665.04 588.588L1669.56 591.316C1671.27 588.473 1672.97 585.583 1674.6 582.723L1670.01 580.11ZM1656.3 602.44C1654.51 605.152 1652.66 607.89 1650.79 610.582L1655.12 613.59C1657.01 610.865 1658.89 608.091 1660.7 605.346L1656.3 602.44ZM1641.2 623.869C1639.25 626.465 1637.23 629.091 1635.21 631.671L1639.36 634.93C1641.41 632.321 1643.44 629.665 1645.42 627.04L1641.2 623.869ZM1624.86 644.391C1622.77 646.875 1620.61 649.386 1618.45 651.853L1622.41 655.334C1624.6 652.84 1626.78 650.303 1628.9 647.793L1624.86 644.391ZM1607.44 664.01C1605.22 666.382 1602.93 668.78 1600.65 671.135L1604.43 674.813C1606.74 672.432 1609.05 670.01 1611.29 667.615L1607.44 664.01ZM1589.05 682.741C1586.71 685.004 1584.32 687.29 1581.92 689.539L1585.53 693.389C1587.95 691.12 1590.37 688.81 1592.72 686.524L1589.05 682.741ZM1569.8 700.607C1567.37 702.765 1564.88 704.945 1562.39 707.089L1565.83 711.091C1568.34 708.93 1570.86 706.73 1573.31 704.552L1569.8 700.607ZM1549.8 717.636C1547.28 719.694 1544.7 721.772 1542.13 723.811L1545.4 727.951C1548 725.896 1550.6 723.801 1553.14 721.723L1549.8 717.636ZM1529.14 733.859C1526.54 735.819 1523.88 737.798 1521.23 739.741L1524.35 744C1527.02 742.041 1529.7 740.045 1532.31 738.072L1529.14 733.859Z" fill="#4B6359"/>
<circle cx="1523.5" cy="741.5" r="12.5" fill="#4B6359"/>
</svg>
