<svg width="103" height="245" viewBox="0 0 103 245" fill="none" xmlns="http://www.w3.org/2000/svg">
<path opacity="0.5" d="M63.5893 85.2413C75.5945 95.307 86.9959 105.047 98.6224 114.504C102.098 117.332 103.962 120.069 102.496 124.736C101.71 127.235 101.347 130.129 101.729 132.703C105.412 157.512 96.3031 178.169 82.4787 197.87C72.8932 211.53 64.5973 226.135 56.1319 240.561C53.018 245.868 51.2257 246.852 47.4386 241.119C32.692 218.796 18.295 196.258 4.6787 173.212C2.41223 169.376 1.25632 165.368 1.18205 160.845C0.967795 147.785 0.646005 134.722 0.00994153 121.678C-0.178349 117.816 2.34394 116.438 4.52443 114.514C15.7026 104.652 26.8982 94.8102 38.1102 84.942C25.2307 72.1514 24.7899 69.4296 33.9773 51.1338C36.0083 47.0892 32.294 46.5821 31.0401 44.884C22.9727 33.9588 22.6521 18.7696 30.6524 9.59099C39.543 -0.609056 54.0387 -2.94322 66.0478 3.89149C79.9518 11.8046 83.23 31.0142 72.1102 43.7412C68.5261 47.8434 68.7847 49.8329 71.4248 54.1104C78.139 64.9888 75.8254 73.2301 63.5893 85.2413ZM30.8759 143.611C25.9433 150.37 21.6728 156.281 17.3295 162.138C15.9123 164.049 14.2291 165.9 15.7516 168.41C24.3675 182.618 32.0993 197.473 45.4879 211.64C40.9785 187.319 38.7709 165.429 30.8759 143.611ZM59.3482 209.107C59.9705 209.364 60.5927 209.621 61.215 209.879C69.6648 196.104 78.1058 182.323 86.5782 168.562C87.4037 167.221 87.3138 165.864 86.364 164.895C80.7826 159.2 77.5996 151.231 69.8385 146.316C66.2316 167.905 62.7898 188.506 59.3482 209.107ZM62.4359 38.9223C66.6883 37.0276 67.744 32.9324 68.254 29.034C69.2169 21.6745 66.3353 15.5933 59.4734 12.7662C52.3127 9.81612 44.7326 9.93946 39.5452 16.6982C35.1068 22.4813 33.022 29.2955 37.8575 36.1839C39.527 38.5623 40.8504 41.4912 44.1378 36.6708C50.9637 26.6613 56.0053 27.5221 62.4359 38.9223ZM38.5648 126.415C46.6767 126.415 53.2556 126.392 59.8341 126.426C62.6097 126.44 65.755 126.654 63.8138 122.352C59.9029 113.686 55.7529 105.129 50.7984 94.6098C46.319 106.255 42.7759 115.467 38.5648 126.415ZM50.0816 77.1145C58.2134 77.0828 65.6156 71.4158 64.9314 65.8221C63.7395 56.0791 55.9965 57.9109 49.5965 57.5835C43.4666 57.2698 37.405 58.2667 37.7859 65.9565C38.156 73.425 44.1114 76.2401 50.0816 77.1145ZM52.055 213.844C56.5545 198.444 55.5571 183.765 58.5338 169.654C59.0117 167.388 59.3558 165.055 55.1353 166.466C52.745 167.264 49.5465 165.6 46.0444 164.914C44.9099 181.562 48.5668 196.991 52.055 213.844ZM63.5206 99.38C65.3393 104.845 66.5923 108.509 67.7804 112.195C71.6717 124.268 78.888 126.745 89.4294 119.625C89.5953 119.513 89.5544 119.089 89.7499 118.111C81.0225 113.804 73.6645 107.106 63.5206 99.38ZM8.83276 160.978C16.6434 152.903 23.6902 146.512 23.4041 138.488C23.2332 133.696 14.6428 130.87 8.83276 128.594L8.83276 160.978ZM13.9868 119.361C18.1064 123.787 22.3456 125.419 26.7261 127.03C30.4239 128.389 32.4657 127.565 33.2058 123.723C34.5654 116.663 35.855 109.591 37.5388 100.567C28.5856 107.355 22.5699 114.509 13.9868 119.361ZM92.8505 160.8V128.441C88.4175 131.101 84.8185 133.393 81.0927 135.452C78.1721 137.066 77.5522 138.962 79.2834 141.922C82.918 148.135 86.1163 154.649 92.8505 160.8Z" fill="#F4F4F4"/>
</svg>
