<svg width="180" height="160" viewBox="0 0 180 160" fill="none" xmlns="http://www.w3.org/2000/svg">
<mask id="mask0_2069_960" style="mask-type:alpha" maskUnits="userSpaceOnUse" x="0" y="0" width="180" height="160">
<rect width="180" height="160" rx="20" fill="#4B6359"/>
</mask>
<g mask="url(#mask0_2069_960)">
<path d="M179.522 156.036L178.409 156.518L177.354 157.044L176.355 157.614L175.41 158.225L174.506 158.89L173.658 159.596L172.863 160.344L172.125 161.133L171.144 162.356L170.275 163.661L169.507 165.071L168.848 166.563L168.29 168.161L167.844 169.839L167.501 171.617L167.271 173.473L167.088 176.256L167.067 179.018L167.206 181.757L167.507 184.475L167.959 187.127L168.568 189.76L169.33 192.371L170.252 194.959L170.284 194.998L170.367 194.995L170.402 194.921L170.272 192.88L170.323 190.912L170.553 189.06L170.967 187.263L171.484 185.73L172.154 184.22L172.987 182.708L173.986 181.198L175.141 179.686L176.5 178.099L178.14 176.353L180.338 174.14L181.679 172.702L182.867 171.192L183.921 169.594L184.822 167.933L185.611 166.116L186.235 164.243L186.698 162.294L186.997 160.296L187.133 158.231L187.1 156.131L186.899 153.977L186.536 151.803L186.554 151.726L186.625 151.694H186.642L186.695 151.714L186.737 151.779L187.1 153.058L187.399 154.355L187.629 155.664L187.792 156.976L187.883 158.279L187.904 159.579L187.854 160.846L187.732 162.102L187.543 163.328L187.28 164.536L186.955 165.697L186.557 166.837L186.099 167.924L185.57 168.985L184.985 169.99L184.332 170.962L184.208 171.13L183.186 172.388L181.277 174.607L181.236 174.669L181.301 174.634L184.184 172.713L187.52 170.474L188.761 169.546L189.877 168.631L190.908 167.685L191.848 166.71L192.69 165.715L193.446 164.687L193.467 164.684L193.517 164.74L193.52 164.796L192.391 167.21L191.325 169.026L191.236 169.159L189.795 171.387L189.762 171.455L189.821 171.408L191.337 169.783L192.781 168.025L194.17 166.114L195.473 164.093L196.711 161.93L197.848 159.685L198.879 157.366L199.798 154.993L200.601 152.577L201.281 150.134L201.821 147.708L202.232 145.286L202.504 142.931L202.634 140.606L202.625 138.367L202.471 136.183L202.495 136.089L202.59 136.098L204.058 136.848L205.432 137.717L206.667 138.677L207.783 139.743L208.726 140.866L209.532 142.08L210.164 143.339L210.646 144.683L210.871 145.605L211.018 146.562L211.089 147.519L211.08 148.506L210.921 151.174L210.667 154.063L210.336 156.946L209.919 159.827L209.423 162.698L208.847 165.564L208.188 168.424L207.449 171.278L206.628 174.126L206.61 174.199L206.649 174.134L208.138 170.82L209.6 167.168L211.042 163.174L212.457 158.84L213.479 155.197L214.25 151.626L214.537 149.894L214.761 148.16L214.921 146.464L215.015 144.772L215.048 143.135L215.012 141.498L214.918 139.903L214.753 138.313L214.531 136.774L214.238 135.244L213.887 133.749L213.467 132.266V132.219L213.529 132.163L213.609 132.192L213.748 132.366L216.475 135.835L218.398 138.396L220.079 140.789L221.527 143.037L221.539 143.058V143.229L221.412 143.342L219.506 143.941L219.385 144.03L219.471 144.154L220.28 144.757L222.366 146.382L224.957 148.713L226.986 150.627L228.975 152.589L229.031 152.636L228.998 152.568L227.367 149.906L225.926 147.256L224.682 144.618L223.627 141.992L221.459 136.284L220.546 134.139L219.63 132.186L218.667 130.34L217.654 128.603L216.587 126.975L215.45 125.418L214.575 124.334L214.543 124.257L214.602 124.118L214.753 124.1L216.301 124.812L218.457 125.796L220.032 126.446L221.462 126.948L222.785 127.306L224.062 127.53L225.276 127.607L226.428 127.542L227.521 127.338L228.641 126.966L229.704 126.449L230.768 125.752L231.784 124.91L232.966 123.719L234.127 122.343L235.329 120.724L236.877 118.44L238.431 116.15L239.631 114.534L240.792 113.166L241.971 111.994L243.294 110.895L244.245 110.215L245.241 109.589L246.275 109.019L247.353 108.505L249.232 107.763L251.398 106.906L252.742 106.221L253.463 105.739L254.116 105.222L254.718 104.649L255.256 104.044L256.039 102.912L256.668 101.645L257.144 100.227L257.463 98.6726L257.631 96.9827L257.655 95.1333L257.54 93.0446L257.271 90.5157L257.108 88.5541L257.117 87.7682L257.188 87.0563L257.324 86.3915L257.519 85.8155L257.779 85.2925L258.119 84.811L258.68 84.3147L259.558 83.8213L260.541 83.2482L260.866 82.9468L261.094 82.6307L261.295 82.1078L261.531 81.2126L261.838 80.2939L262.651 78.4622L263.756 76.5241L265.445 73.9687L267.386 71.0114L268.069 69.8327L268.645 68.6982L269.262 67.2417L269.744 65.7734L270.101 64.2638L270.323 62.7541L270.421 60.7245L270.291 58.7097L269.933 56.6919L269.36 54.7155L268.568 52.7804L267.573 50.9162L266.376 49.1348L264.993 47.4508L263.835 46.2514L262.6 45.1258L261.301 44.0829L259.936 43.1198L258.515 42.2424L257.043 41.4565L255.525 40.7623L253.965 40.1655L252.382 39.6692L250.769 39.2733L249.161 38.9897L247.539 38.8095L245.935 38.7386L244.325 38.7711L242.742 38.9129L241.164 39.161L241.099 39.1404L241.084 39.0753L241.102 39.0458L241.711 38.455L243.731 36.446L245.108 34.8802L246.151 33.406L246.564 32.6734L246.887 31.9732L247.276 30.821L247.48 29.6954L247.492 28.6585L247.315 27.6451L246.999 26.8061L246.556 26.0351L245.977 25.3024L245.241 24.5963L244.384 23.9404L243.38 23.32L242.222 22.7292L240.931 22.1826L239.028 21.5002L236.174 20.4721L234.012 19.5917L232.174 18.7083L230.647 17.8043L229.435 16.8767L228.957 16.407L228.546 15.9195L228.233 15.4468L227.994 14.9535L227.843 14.4719L227.769 13.9756V13.9608L227.669 12.9238L227.5 11.9046L227.252 10.8736L226.936 9.86317L226.54 8.84691L226.076 7.85128L225.533 6.85275L224.924 5.88373L224.245 4.92358L223.506 3.99297L222.688 3.06826L221.819 2.17902L220.871 1.29864L219.878 0.456668L217.707 -1.14458L216.513 -1.91269L215.284 -2.63355L213.999 -3.31895L212.685 -3.95117L209.987 -5.05608L207.249 -5.92463L205.887 -6.26734L204.531 -6.54506L203.189 -6.7607L201.866 -6.90843L200.578 -6.98821L199.316 -7L198.12 -6.94386L196.962 -6.81979L194.929 -6.42983L192.687 -5.99258L191.115 -5.84191L190.06 -5.85077L188.882 -5.92758L185.759 -6.30278L183.032 -6.613L181.782 -6.63071L180.553 -6.55981L179.348 -6.40324L178.16 -6.15507L176.71 -5.72375L175.295 -5.15651L173.912 -4.45043L172.562 -3.6055L170.89 -2.41492L168.571 -0.787116L166.813 0.267592L165.197 1.00617L164.399 1.26615L163.649 1.44636L161.932 1.69453L159.59 2.04905L158.774 2.24992L158.092 2.48628L157.401 2.82895L156.751 3.25735L156.115 3.78618L155.522 4.39179L154.943 5.10971L154.417 5.8926L153.92 6.76707L153.48 7.68881L153.067 8.72873L152.721 9.79819L152.437 10.912L152.225 12.0228L152.086 13.1307L152.021 14.2001L152.036 15.2164L152.13 16.1618L152.089 16.2829L151.968 16.3183L151.923 16.3006L150.555 15.5443L149.158 14.918L147.775 14.4483L146.357 14.1115L144.895 13.9135L143.394 13.8544L141.831 13.9372L140.212 14.1617L138.552 14.5221L136.771 15.0214L134.788 15.6802L132.085 16.6729L128.256 18.0525L125.385 18.8945L124.035 19.1958L122.735 19.4144L121.482 19.5533L120.277 19.6094L119.736 19.6153L117.47 19.6922L115.949 19.9167L115.284 20.1117L114.723 20.3539L114.22 20.6553L113.768 21.0334L113.319 21.5682L112.95 22.224L112.678 22.9744L112.492 23.8577L112.418 25.0158L112.513 26.3512L112.767 27.8815L113.245 29.979L113.502 31.0692L113.562 31.7044L113.517 32.6113L113.367 33.7901L113.145 34.9896L112.906 36.0679L111.925 40.8243L111.65 42.588L111.476 44.2218L111.396 45.8082L111.42 47.3356L111.547 48.801L111.774 50.2249L112.232 52.0625L112.873 53.8853L113.544 55.3152L114.675 57.3448L115.438 58.689L115.831 59.5989L115.99 60.497L115.958 61.209L115.78 61.9565L115.452 62.7778L114.894 63.8768L114.38 64.8724L113.89 66.0541L113.559 67.2328L113.381 68.4323L113.358 69.614L113.458 70.6126L113.665 71.5905L113.984 72.5713L114.409 73.5226L114.938 74.4503L115.568 75.3395L116.285 76.1874L117.095 76.991L117.142 77.0914L117.104 77.1977L115.946 78.6188L114.962 80.152L114.176 81.7503L113.582 83.4195L113.207 85.0916L113.045 86.7963L113.101 88.4921L113.372 90.1287L113.736 91.3814L114.241 92.6192L115.222 94.6282L116.489 97.2575L117.219 99.0744L117.748 100.9L118.164 102.962L118.495 105.326L118.805 108.505L119.018 110.762L119.278 112.511L119.674 114.209L120.209 115.878L120.859 117.444L121.618 118.889L122.469 120.186L123.426 121.356L124.454 122.354L125.16 122.916L125.878 123.406L126.631 123.843L127.4 124.213L128.224 124.532L129.057 124.786L129.94 124.984L130.835 125.12L132.726 125.229L134.806 125.131L137.164 124.83L140.381 124.251L140.842 124.195L141.3 124.201L141.876 124.304L141.997 124.369L142.077 124.478L142.667 125.74L143.3 126.818L144.083 127.882L145.267 129.238L145.796 129.823L145.826 129.944L145.743 130.036L145.693 130.041L143.701 129.997L141.63 130.089L139.542 130.31L137.397 130.662L135.249 131.14L133.081 131.749L130.948 132.473L128.889 133.294L127.27 134.036L125.683 134.845L124.108 135.734L122.572 136.692L121.074 137.711L119.618 138.792L118.185 139.95L116.797 141.164L115.443 142.447L114.144 143.782L112.897 145.167L111.703 146.603L110.56 148.092L109.473 149.626L108.445 151.2L107.482 152.81L107.455 152.884L107.52 152.843L109.898 150.834L112.273 149.049L114.637 147.501L117.009 146.172L119.402 145.058L121.801 144.16L124.25 143.472L126.711 142.999L129.32 142.733L131.946 142.698L134.649 142.893L137.37 143.318L137.598 143.312L137.799 143.215L139.684 141.761L141.562 140.447L143.406 139.288L145.247 138.275L147.058 137.412L148.86 136.697L150.632 136.133L152.378 135.717L153.451 135.631L153.941 135.663L154.296 135.746L156.107 136.355L157.684 136.783L159.152 137.064L160.529 137.197L161.811 137.182L163.011 137.011L164.107 136.692L165.108 136.225L165.687 135.861L166.512 135.253L167.578 134.479L168.379 134.03L169.478 133.643L170.721 133.398L172.148 133.27L174.199 133.223L176.104 133.188L177.711 133.058L179.257 132.789L180.74 132.381L182.164 131.838L183.531 131.149L184.837 130.322L186.081 129.356L187.266 128.251L188.119 127.368L189.721 125.734L190.956 124.579L192.125 123.619L193.254 122.848L194.371 122.248L195.473 121.831L196.551 121.604L197.606 121.557L198.232 121.613L198.867 121.734L199.485 121.914L200.114 122.162L201.334 122.783L202.489 123.533L203.305 124.177L204.055 124.877L204.776 125.657L205.441 126.493L206.073 127.412L206.684 128.431L207.254 129.524L207.807 130.718L207.816 130.78L207.745 130.869L207.63 130.851L207.535 130.771L206.699 130.142L205.789 129.56L204.841 129.049L203.81 128.582L202.702 128.163L201.502 127.784L198.589 127.078L198.513 127.072L198.575 127.117L199.44 127.581L201.892 128.934L203.535 129.968L204.894 131.013L206.058 132.154L206.699 132.925L207.305 133.782L207.857 134.697L208.377 135.717L208.383 135.776L208.312 135.844L208.224 135.808L207.204 134.629L206.034 133.604L204.749 132.756L203.378 132.112L201.996 131.711L200.649 131.551L199.981 131.563L199.316 131.637L198.69 131.77L198.072 131.962L197.204 132.358L196.374 132.895L195.615 133.551L194.905 134.349L194.799 134.432L194.666 134.461L192.554 134.502L190.385 134.754L188.119 135.217L185.768 135.894L183.366 136.757L180.754 137.864L177.936 139.203L174.16 141.135L173.236 141.613L173.2 141.676L173.242 141.732H173.286L174.807 141.161L176.819 140.414L178.285 139.938L179.57 139.619L180.698 139.454L180.775 139.46L180.71 139.498L178.287 140.6L176.004 141.832L173.824 143.221L171.803 144.727L169.93 146.361L168.228 148.098L166.674 149.968L165.306 151.924L165.035 152.447L165.475 152.054L167.365 150.166L168.583 149.082L169.844 148.051L169.933 148.039L169.983 148.116L169.968 148.166L169.584 148.713L168.778 149.962L168.045 151.242L167.368 152.577L166.763 153.939L166.228 155.333L165.767 156.754L165.368 158.22L165.043 159.706L164.786 161.218L164.606 162.743L164.497 164.308L164.458 165.88L164.497 167.461L164.606 169.044L164.786 170.625L165.04 172.199L165.082 172.273L165.221 172.297L165.303 172.185L165.419 171.041L165.599 169.933L165.844 168.832L166.151 167.768L166.526 166.731L166.958 165.735L167.448 164.778L167.995 163.865L168.99 162.48L170.119 161.206L171.398 160.031L172.798 158.973L174.323 158.039L175.957 157.23L177.691 156.556L179.516 156.016L179.587 156.004L179.522 156.036ZM189.727 0.947012L189.715 1.65014L189.786 2.31486L189.936 2.94117L190.167 3.52911L190.459 4.04903L190.82 4.53354L191.257 4.98558L191.762 5.40213L191.836 5.50552L191.842 5.61777L191.786 5.71528L191.688 5.7714L191.576 5.76846L187.809 4.56604L186.944 4.32087L186.143 4.182L185.381 4.14359L184.613 4.20267L183.635 4.43607L182.663 4.84376L181.658 5.43463L180.302 6.39478L178.465 7.66514L177.708 8.09646L176.964 8.448L175.561 9.03592L171.853 10.6224L169.171 11.9134L167.554 12.72L166.343 13.237L165.232 13.5944L164.157 13.8071L163.339 13.881L162.47 13.8751H161.07L159.723 14.011L158.432 14.2857L157.197 14.6964L156.361 15.0657L155.551 15.5058L154.768 16.0111L154.012 16.5842L153.796 16.6374L153.619 16.5015L153.598 16.4483L153.327 14.9002L153.262 13.3581L153.409 11.8218L153.764 10.3447L154.313 8.97389L155.058 7.7124L155.962 6.61634L156.482 6.12298L157.043 5.67098L157.897 5.11261L158.833 4.64877L159.817 4.29722L160.875 4.04611L164.396 3.4641L165.07 3.34593L166.73 2.92346L168.391 2.31486L170.131 1.49357L172.426 0.238008L174.202 -0.745781L175.324 -1.2953L176.444 -1.73844L177.472 -2.06341L178.506 -2.31748L179.573 -2.50656L180.713 -2.63949L183.168 -2.73403L186.175 -2.60699L187.077 -2.57746L187.969 -2.61586L188.876 -2.71632L189.845 -2.88472L191.889 -3.42238L194.409 -4.30572L195.526 -4.68979L196.657 -5.00885L197.833 -5.26291L199.018 -5.45199L200.22 -5.57017L201.429 -5.62336L202.666 -5.61154L203.907 -5.53176L205.166 -5.38109L206.415 -5.16543L207.659 -4.88772L208.885 -4.54501L210.111 -4.13436L211.314 -3.66465L212.495 -3.13582L213.648 -2.5479L214.758 -1.90978L215.837 -1.21846L216.877 -0.476943L217.878 0.317746L218.829 1.1568L219.733 2.04309L220.57 2.95005L221.352 3.8984L222.076 4.87626L222.741 5.89256L223.335 6.91769L223.867 7.97532L224.336 9.05661L224.741 10.1704L225.069 11.2812L225.335 12.4186L225.326 12.5545L225.252 12.6697L225.134 12.7347L224.995 12.7288L224.886 12.6668L224.419 12.2679L223.63 11.7598L222.729 11.3669L221.751 11.098L220.673 10.9474L219.491 10.906L218.194 10.974L216.758 11.1453L214.826 11.4644L213.594 11.6978L209.322 12.4866L206.274 12.9386L204.253 13.0892L203.635 13.0479L203.266 12.9238L202.953 12.587L201.957 10.773L201.216 9.28706L200.607 7.89557L200.126 6.56909L199.765 5.27804L199.526 4.01654L199.411 2.79641L199.417 1.61173L199.411 1.54085L199.384 1.60586L199.05 2.86733L198.838 4.1436L198.752 5.33715L198.767 6.54545L198.743 6.63997L198.657 6.59565L198.161 6.1614L197.736 5.90141L197.369 5.76847L196.929 5.68869L195.009 5.39032L193.555 4.99148L192.938 4.73741L192.359 4.43311L191.851 4.0904L191.381 3.68864L190.885 3.13914L190.447 2.49215L190.084 1.76832L189.78 0.938177L189.744 0.870234L189.727 0.947012ZM189.925 13.946L189.972 14.8559L190.099 15.7481L190.312 16.6521L190.607 17.5414L190.61 17.6448L190.507 17.6507L189.623 17.4557L188.427 17.2844L186.967 17.0598L185.983 16.788L185.165 16.4512L184.297 16.0229L182.081 14.7348L180.205 13.6358L180.146 13.6121L180.187 13.6624L184.093 17.2844L184.134 17.3582L184.087 17.5L183.939 17.5237L181.738 16.6817L179.502 15.9519L177.268 15.3404L175.002 14.8382L174.982 14.8323L174.837 14.7112L174.831 14.5221L175.171 13.8633L175.697 13.107L176.406 12.2561L177.256 11.3669L178.19 10.4953L179.156 9.68884L180.166 8.93549L181.156 8.28258L182.054 7.77149L182.893 7.36971L183.688 7.07133L184.453 6.87042L185.124 6.78473L185.753 6.80839L186.303 6.93836L186.796 7.18064L186.938 7.28107L187.263 7.60606L187.591 8.09055L188.335 9.70065L188.964 11.0744L189.239 11.4614L189.49 11.6682L189.582 11.7066L189.851 11.7214L190.146 11.6298L191.029 11.0685L191.836 10.522L192.501 10.1792L193.127 9.98723L193.739 9.93699L194.179 9.98723L194.637 10.1202L195.086 10.324L195.549 10.6195L199.307 13.2251L202.067 15.1218L204.017 16.5428L205.68 17.8634L207.136 19.1574L208.451 20.4898L209.606 21.8576L210.605 23.2609L211.464 24.7233L212.25 26.3895L212.879 28.1444L213.373 30.0263L213.716 32.0086L213.896 33.6571L214.017 35.4504L214.129 40.2127L214.153 42.2926L214.141 42.3251L214.088 42.3457L214.046 42.3044L213.311 39.4801L212.436 36.8241L211.435 34.3603L210.294 32.0529L209.009 29.9081L207.579 27.9287L206.02 26.1207L204.321 24.4811L202.684 23.1516L200.953 21.964L199.378 21.0747L197.18 20.0377L194.968 18.989L193.458 18.1086L192.226 17.1485L191.706 16.6315L191.218 16.0583L190.551 15.048L190.01 13.9283L189.945 13.8249L189.925 13.946ZM230.254 28.3246L228.812 28.8505L227.447 29.5299L226.18 30.3512L225.028 31.3084L224.032 32.3602L223.175 33.5242L222.487 34.7561L221.958 36.0826L221.704 37.0044L221.53 37.9645L221.491 38.0118L221.432 38.0029L221.414 37.9734L221.089 36.254L220.98 34.4843L221.101 32.7295L221.441 31.0751L221.689 30.304L221.988 29.5595L222.33 28.8682L222.726 28.2123L223.166 27.6037L223.66 27.0365L224.183 26.5343L224.756 26.0734L225.341 25.6864L225.973 25.3467L226.623 25.066L227.317 24.8326L227.388 24.8031L227.311 24.8001L226.135 24.9478L225.004 25.2373L223.911 25.6657L222.865 26.2389L222.047 26.8563L221.373 27.5831L221.066 28.0292L220.986 28.0735L220.906 28.0233L220.897 27.973L221.069 26.6849L221.344 25.4441L221.716 24.2506L222.188 23.1043L222.72 22.0762L223.338 21.0865L224.044 20.1411L224.839 19.2342L224.856 19.1456L224.782 19.0924L224.729 19.1101L223.778 19.8723L222.898 20.6877L222.091 21.5563L221.352 22.478L220.658 23.4913L220.044 24.5638L219.503 25.6923L219.042 26.8799L218.992 26.9242L218.927 26.9065L218.909 26.8799L218.407 25.6273L217.689 24.2476L216.75 22.7114L215.361 20.6405L214.203 18.9151L213.438 17.5975L213.018 16.5251L212.927 16.0672L212.906 15.627L212.968 15.2459L213.113 14.8943L213.323 14.6048L213.621 14.3537L213.981 14.1498L214.43 13.9873L215.586 13.6978L216.77 13.4881L217.982 13.361L219.154 13.3226L220.259 13.3758L221.276 13.5117L222.233 13.7421L223.072 14.0494L223.902 14.4807L224.723 15.042L225.565 15.7392L226.682 16.788L228.106 18.1086L229.229 18.9565L229.565 19.1721L231.113 20.0496L232.818 20.8295L234.795 21.5829L237.707 22.5519L240.591 23.5061L241.779 23.967L242.883 24.5194L243.858 25.128L244.697 25.7928L245.395 26.5107L245.932 27.2551L246.328 28.0646L246.553 28.88L246.624 29.6068L246.573 30.3749L246.405 31.146L246.11 31.9525L245.536 33.0219L244.748 34.1032L243.728 35.2318L242.18 36.7444L241.072 37.8138L240.331 38.6617L239.743 39.5953L239.427 40.3013L239.194 41.0281L239.031 41.8021L238.936 42.65L238.907 43.5481L238.942 44.5349L239.22 47.1997L239.474 49.507L239.551 51.1968L239.507 52.4672L239.374 53.7287L239.155 55.005L238.854 56.2664L238.461 57.5545L237.985 58.816L237.427 60.0775L236.792 61.3094L236.068 62.5384L235.279 63.729L234.41 64.8989L233.48 66.0186L232.484 67.0999L231.438 68.1221L230.348 69.0822L229.22 69.9744L228.15 70.71L226.599 71.6495L224.806 72.7456L223.615 73.623L222.892 74.267L222.171 74.9967L220.797 76.6423L219.42 78.6335L217.674 81.5021L217.018 82.6041L216.247 83.8124L215.42 84.9468L214.558 85.9808L213.639 86.9351L212.673 87.8036L211.653 88.5925L210.602 89.2779L209.497 89.8805L208.046 90.5127L206.51 91.0061L204.915 91.3518L203.237 91.5527L202.359 91.5586L201.659 91.4345L201.098 91.1804L200.717 90.817L200.551 90.5216L200.457 90.1907L200.424 89.8008L200.463 89.3783L200.728 88.4536L201.245 87.4284L202.708 85.13L204.333 82.7902L206.117 80.4149L208.064 78.0012L211.228 74.2374L215.722 68.8665L218.909 64.8812L221.642 61.2119L223.97 57.7879L224.924 56.1985L225.787 54.5411L226.552 52.8187L227.223 51.0284L227.701 49.377L228.265 46.8954L228.936 44.0651L229.3 42.9898L229.973 41.5126L230.833 40.1093L231.879 38.7769L233.111 37.5154L233.161 37.4623L233.102 37.5036L232.032 38.3279L231.037 39.1817L230.115 40.068L229.261 40.9838L228.481 41.9321L227.775 42.91L227.14 43.9204L226.576 44.9603L224.641 48.6325L223.79 50.0919L223.016 51.3002V51.3032H222.992L222.927 51.2412L222.915 51.1436L223.364 50.3076L223.745 49.4567L224.059 48.5882L224.301 47.7048L224.49 46.7033L224.593 45.6782L224.611 44.6353L224.543 43.5718L224.363 41.4713L224.301 39.6898L224.342 38.0767L224.499 36.5967L224.768 35.2436L225.152 34.0028L225.669 32.8388L226.304 31.787L227.093 30.7914L228 29.9051L229.048 29.0927L230.266 28.3512L230.331 28.3098L230.254 28.3246ZM177.407 19.0924L174.846 19.2992L173.602 19.4853L172.4 19.7246L171.23 20.0171L170.101 20.3627L168.981 20.7675L167.903 21.2224L165.921 22.2417L164.015 23.4647L162.172 24.9123L160.39 26.5756L158.65 28.4753L156.937 30.629L155.217 33.0663L153.418 35.8994L150.585 40.6707L148.588 44.3724L147.743 46.1154L146.995 47.8023L146.351 49.4184L145.799 51.0019L145.326 52.5883L144.948 54.1393L144.656 55.6844L144.464 57.1882L144.357 58.689L144.348 60.1395L144.428 61.5842L144.602 63.0407L144.815 64.2135L144.812 64.2401L144.744 64.2312L144.266 62.4911L143.867 60.7452L143.545 58.9874L143.303 57.2207L143.131 55.3535L143.046 53.4746L143.049 51.5868L143.137 49.6872L143.385 47.5719L143.834 45.4094L144.502 43.0813L145.569 39.9528L145.654 39.7105L146.044 38.5258L146.275 37.6218L146.387 36.7473L146.384 35.8167L146.269 34.7827L146.021 33.4503L145.781 32.1386L145.71 31.2169L145.793 30.4546L146.035 29.8106L146.245 29.4857L146.52 29.1814L147.226 28.6673L148.207 28.2271L149.439 27.8785L151.4 27.5299L153.318 27.3733L153.4 27.3645L153.61 27.2758L153.764 27.1045L153.832 26.8888L153.802 26.6613L153.483 25.5357L153.347 24.4722L153.392 23.4707L153.613 22.5312L153.962 21.7571L154.449 21.0304L155.076 20.3539L155.844 19.7246L156.904 19.0244L158.006 18.4217L159.182 17.8959L160.393 17.4616L161.696 17.1041L163.026 16.8382L164.426 16.6551L165.847 16.5635L167.333 16.5576L168.887 16.6433L170.441 16.8117L172.045 17.0746L173.658 17.4173L175.301 17.8516L176.908 18.3597L178.521 18.9506L178.589 18.9949L178.512 19.0185L177.407 19.0924ZM128.49 27.6924L129.007 27.9878L129.465 28.2271L130.23 28.6496L130.936 29.1104L131.609 29.6245L132.227 30.1799L132.803 30.7826L133.323 31.4207L133.807 32.115L134.236 32.8417L134.638 33.6423L134.986 34.4696L135.562 36.2864L135.973 38.2895L136.227 40.5081L136.342 43.0252L136.325 46.1154L136.455 47.2322L136.883 49.1525L136.886 49.1643L136.815 49.2263L136.652 49.0875L135.267 45.4861L134.463 43.5659L133.92 42.5082L133.317 41.5038L132.652 40.5495L131.929 39.6485L130.599 38.2688L129.104 37.0339L127.444 35.9378L125.618 34.9866L125.55 34.96L125.609 35.0043L126.998 35.991L128.233 37.0782L129.314 38.2599L130.239 39.5421L130.865 40.6382L131.394 41.7962L131.825 43.0164L132.156 44.3015L132.646 47.504L133.039 50.2544L133.373 51.9679L133.701 53.188L134.091 54.3786L134.54 55.5397L135.048 56.6741L135.654 57.8411L136.325 58.9785L137.066 60.0805L137.873 61.1529L137.887 61.1942L137.846 61.2533L137.778 61.2415L136.065 59.8441L134.289 58.5679L132.451 57.4098L130.555 56.3728L128.561 55.4363L126.504 54.6268L124.386 53.9384L122.203 53.3742L122.159 53.3801L122.129 53.4421L122.173 53.4924L123.754 54.0182L125.267 54.6504L126.711 55.3831L128.085 56.2221L129.84 57.5309L131.465 59.0287L132.963 60.7215L134.333 62.6064L135.654 64.8753L137.71 68.7779L137.757 68.9138L137.639 68.8282L136.206 67.4662L134.717 66.1722L133.299 65.0555L131.834 63.9949L131.657 63.8886L131.801 64.0363L132.797 65.0082L133.775 66.1072L134.765 67.3599L136.038 69.1088L137.772 71.4516L139.164 73.0469L139.87 73.7264L140.582 74.3261L141.338 74.8756L142.103 75.3424L143.202 75.886L144.36 76.3203L144.428 76.3498L144.354 76.3528L143.353 76.2376L142.322 76.0425L141.303 75.7737L140.257 75.4222L139.178 74.9879L138.053 74.4679L135.364 73.0292L135.296 72.9996L135.344 73.0558L137.069 74.5743L138.874 75.9776L140.918 77.3661L143.06 78.6187L149.861 82.2407L158.839 87.0562L162.234 88.9736L165.3 90.7846L168.976 93.1244L172.606 95.6562L176.211 98.3978L179.759 101.326L179.788 101.423L179.711 101.491L179.649 101.479L177.673 100.365L175.818 99.4407L174.063 98.6962L172.358 98.1053L170.695 97.674L169.055 97.3933L167.445 97.2663L165.865 97.2899L164.476 97.4347L161.962 97.8217L160.52 98.0078L159.096 98.0965H157.663L156.254 98.0019L155.008 97.8424L153.779 97.612L152.541 97.3047L151.329 96.9295L150.127 96.4834L148.954 95.9694L147.778 95.3815L146.632 94.7315L145.492 94.0047L144.384 93.2189L143.285 92.3592L142.221 91.4404L141.19 90.4625L140.192 89.4344L139.217 88.3325L138.28 87.1862L137.24 85.9247L136.307 84.9468L135.394 84.1669L134.452 83.5376L133.669 83.1329L130.587 81.6853L128.759 80.7163L127.763 80.0752L126.779 79.375L125.819 78.6099L124.885 77.7945L124.005 76.9407L123.166 76.0425L122.392 75.1267L121.668 74.1725L121.024 73.2212L120.439 72.2433L119.928 71.2654L119.482 70.2699L119.122 69.2949L118.826 68.3052L118.611 67.3362L118.469 66.3554L118.398 65.2741L118.43 64.051L118.578 62.8073L118.835 61.5015L119.284 59.7614L119.78 57.8027L119.902 56.8868L119.84 56.0715L119.668 55.4658L119.367 54.8277L118.941 54.1689L118.342 53.4037L117.633 52.4701L117.018 51.51L116.315 50.1215L115.763 48.6296L115.358 47.0313L115.107 45.3326L115.006 43.5216L115.056 41.5983L115.254 39.5184L115.603 37.2791L115.748 36.0028L115.733 34.6941L115.565 33.3499L115.248 32.05L114.932 31.0603L114.395 29.3527L114.049 28.0469L113.825 26.8711L113.721 25.8134L113.745 24.8681L113.895 24.0409L114.185 23.3111L114.599 22.7232L115.13 22.2564L115.603 22.0053L116.22 21.8044L116.986 21.6538L117.896 21.5533L120.306 21.4292L122.702 21.3052L124.336 21.122L125.562 20.8857L126.894 20.5429L130.407 19.4026L133.787 18.2977L135.078 17.955L136.271 17.7038L138.1 17.4527L139.929 17.3257L141.565 17.3346L143.01 17.4793L144.18 17.7482L145.122 18.144L145.495 18.3833L145.817 18.6581L146.065 18.9506L146.26 19.2814L146.411 19.695L146.481 20.1618L146.425 21.0481L146.148 21.9758L145.645 22.9448L144.922 23.9374L143.985 24.9567L142.842 25.9996L141.483 27.0779L139.692 28.363L139.303 28.6378L139.187 28.6614L139.096 28.5905L139.09 28.5786L137.255 24.2801L137.193 24.2151L137.057 24.2329L137.016 24.3629L138.378 29.4709L138.342 29.5949L138.215 29.6156L138.156 29.5654L137.675 28.8327L137.146 28.1562L136.573 27.5358L135.952 26.9715L135.237 26.4279L134.466 25.9493L133.645 25.5328L132.771 25.1812L132.706 25.1664L132.756 25.2107L133.536 25.7928L134.57 26.7647L135.488 27.8932L136.28 29.1754L136.945 30.6024L137.471 32.1622L137.864 33.8403L138.121 35.6601L138.242 37.5745L138.233 37.6513L138.203 37.5804L137.571 35.7429L136.771 34.0766L135.799 32.5788L135.246 31.8934L134.652 31.2493L133.364 30.106L131.908 29.1282L130.289 28.3128L128.504 27.6599L128.428 27.6451L128.49 27.6924ZM176.739 27.521L174.154 27.5151L171.578 27.4088L168.651 27.1577L165.732 26.7736L165.661 26.75L165.732 26.7322L166.949 26.5461L168.423 26.2063L169.939 25.7278L171.614 25.0837L174.021 24.0468L176.001 23.1841L177.366 22.7143L178.861 22.4189L180.376 22.3214L181.833 22.4248L183.165 22.7262L184.35 23.2107L184.87 23.515L185.357 23.8666L185.786 24.2506L186.178 24.6819L186.326 24.871L186.521 24.9892L186.743 24.9419L188.252 24.0202L188.973 23.6716L189.694 23.385L190.385 23.1752L191.08 23.0305L191.753 22.9566L192.433 22.9478L193.236 23.0246L194.049 23.2048L194.852 23.4736L195.668 23.8488L196.347 24.224L197.824 25.2019L199.213 26.3659L200.477 27.6835L201.644 29.1784L202.705 30.8387L203.656 32.6674L204.51 34.6734L205.246 36.833L205.884 39.1876L206.401 41.6839L206.805 44.3428L207.092 47.1228L207.26 50.0683L207.305 53.0876L207.231 56.1719L207.033 59.2828L207.021 59.2916L206.944 59.2621L206.9 59.203L206.844 57.1557L206.646 54.2427L206.407 52.2338L206.055 50.2455L205.594 48.2809L205.024 46.3547L204.353 44.4935L203.576 42.6855L202.711 40.9631L201.742 39.3087L200.702 37.7665L199.57 36.3042L198.365 34.9511L197.071 33.6867L195.73 32.5552L194.306 31.5182L192.829 30.6053L191.275 29.7988L189.759 29.1488L188.173 28.6023L186.554 28.168L184.873 27.843L183.295 27.651L181.502 27.5387L179.422 27.4944L176.739 27.521ZM171.109 31.6452L170.281 31.8284L169.484 32.0706L168.721 32.372L167.992 32.7354L167.144 33.2583L166.346 33.8698L165.841 34.3514L165.413 34.8713L165.017 35.4859L164.707 36.1417L164.464 36.8596L164.305 37.607L164.213 38.4283L164.204 39.2733L164.272 40.1713L164.414 41.0783L164.647 42.068L164.952 43.0459L165.333 44.0474L165.776 45.0135L166.29 45.9766L166.845 46.8747L167.445 47.7108L168.06 48.4434L169.401 49.8024L170.884 51.1023L172.465 52.2958L174.175 53.4126L175.977 54.4318L177.892 55.3565L179.85 56.1571L181.895 56.8544L181.904 56.9253L181.877 56.9312L178.051 56.1158L176.341 55.6697L174.725 55.1822L173.215 54.6593L171.791 54.095L170.479 53.4982L169.265 52.8631L168.128 52.1806L167.1 51.4657L166.139 50.6917L165.294 49.894L164.544 49.0609L163.873 48.1687L163.306 47.2469L162.822 46.2661L162.408 45.1612L162.101 43.9854L161.912 42.7771L161.838 41.4949L161.938 39.9143L162.311 37.5834L162.668 35.3913L162.878 34.4075L163.226 33.6808L163.823 33.0367L164.686 32.4488L165.749 31.9525L166.993 31.5595L168.367 31.2907L169.717 31.1814L170.952 31.2405L171.942 31.4591L172.015 31.5064L171.939 31.5507L171.401 31.6157L171.109 31.6452ZM176.958 34.0471L177.963 33.9023L178.943 33.8934L179.989 34.0352L180.991 34.3159L181.972 34.7472L182.893 35.3086L183.777 36.0147L184.574 36.833L185.274 37.7488L185.868 38.7503L185.898 38.8212L185.848 38.7651L185.257 38.0531L184.622 37.4179L183.939 36.8625L183.212 36.381L182.367 35.9467L181.472 35.604L180.524 35.3529L179.519 35.1933L178.556 35.1166L177.617 35.1106L176.734 35.1727L175.877 35.3056L175.082 35.5036L174.32 35.7724L173.617 36.1033L172.949 36.5051L172.255 37.0339L171.611 37.6572L171.035 38.3515L170.509 39.1433L170.464 39.2024L170.479 39.1285L170.943 37.9113L171.522 36.7621L172.219 35.6749L172.99 34.7177L173.826 33.9023L174.698 33.2494L175.637 32.7413L176.586 32.4075L177.46 32.2331L178.364 32.1534L179.28 32.1681L180.196 32.2804L181.079 32.4842L181.93 32.7797L182.713 33.1519L183.437 33.6158L184.075 34.1889L184.873 35.1166L185.794 36.1742L185.821 36.2953L185.723 36.3692L185.647 36.3485L183.918 35.1874L182.468 34.4193L181.782 34.1446L181.082 33.9289L180.403 33.7842L179.706 33.7044L179.038 33.6926L178.35 33.7428L177.664 33.855L176.955 34.0352L176.884 34.0589L176.958 34.0471ZM170.503 35.8256L169.877 37.223L169.46 38.6528L169.256 40.1064L169.271 41.5658L169.395 42.4816L169.608 43.3886L169.909 44.2897L170.302 45.173L170.323 45.2469L170.258 45.2026L169.856 44.783L169.507 44.334L168.996 43.427L168.651 42.3989L168.491 41.3176L168.509 40.1536L168.713 38.9571L169.085 37.7932L169.628 36.6764L170.311 35.6631L170.382 35.6188L170.453 35.6365L170.515 35.7222L170.503 35.8256ZM191.236 36.0176L191.659 38.0738L191.851 40.1212L191.803 42.1035L191.694 43.0725L191.523 44.0208L191.301 44.9219L191.021 45.7993L190.684 46.6472L190.288 47.4656L189.842 48.2366L189.337 48.9752L188.793 49.6488L188.196 50.284L187.591 50.8393L186.935 51.3564L185.529 52.2368L184.76 52.6119L183.948 52.9458L182.24 53.4539L182.184 53.4362L182.175 53.3771L182.199 53.3505L183.251 52.7154L184.237 52.0181L185.177 51.25L186.048 50.4228L187.286 49.0077L188.353 47.4744L189.263 45.7964L189.99 44.0267L190.551 42.1301L190.923 40.1684L191.112 38.1211L191.109 36.0353L191.121 35.994L191.186 35.9704L191.236 36.0176ZM183.032 40.8981L181.98 40.3132L180.855 39.8464L179.703 39.5244L178.589 39.3589L177.508 39.3501L176.512 39.4948L175.564 39.7991L174.725 40.2452L173.909 40.904L173.227 41.7106L173.171 41.7637V41.684L173.38 40.9366L173.705 40.2216L174.131 39.5628L174.645 38.9808L175.206 38.517L175.832 38.1536L176.474 37.9202L177.159 37.8109L178.054 37.867L179.029 38.1093L179.957 38.4638L180.802 38.9099L181.602 39.4594L182.356 40.1123L183.062 40.8656L183.103 40.9306L183.032 40.8981ZM194.069 57.525L193.942 58.9046L193.845 60.0184L193.446 61.6108L192.835 63.1234L192.022 64.5178L190.991 65.8236L189.78 66.9965L188.362 68.0689L186.76 69.0202L184.976 69.8533L183.006 70.5623L180.881 71.1384L178.521 71.5904L176.054 71.8858L173.49 72.0247L170.902 71.9981L168.34 71.8091L165.865 71.4604L163.59 70.9641L161.575 70.3378L161.507 70.3083L161.581 70.3201L163.584 70.7189L165.575 70.9671L167.557 71.0646L169.531 71.0143L171.49 70.8135L173.439 70.4619L175.38 69.9626L177.31 69.3156L179.434 68.4264L181.579 67.3392L183.712 66.0777L185.756 64.6803L187.718 63.147L189.54 61.5221L191.21 59.8205L192.704 58.0597L193.998 56.2901L195.103 54.4968L196.031 52.6651L196.755 50.8305L197.284 48.9929L197.606 47.176L197.733 45.3385L197.656 43.5393L197.49 42.3339L197.228 41.1256L196.876 39.938L196.427 38.7474L196.442 38.6499L196.536 38.6203L196.586 38.6528L197.957 40.5377L199.098 42.4876L200.008 44.4965L200.377 45.5246L200.69 46.5675L201.059 48.2159L201.29 49.8969L201.384 51.6164L201.343 53.3742L201.26 54.095L201.098 54.8129L200.87 55.4717L200.569 56.0892L200.229 56.5973L199.824 57.0434L199.384 57.395L198.882 57.6638L198.321 57.8411L197.697 57.9149L196.906 57.8618L195.724 57.6491L194.241 57.395L194.131 57.4275L194.069 57.525ZM149.477 65.3391L149.353 64.2047L149.359 63.2209L149.501 62.3907L149.781 61.661L150.222 60.9933L150.824 60.3906L151.613 59.8175L152.647 59.2296L152.712 59.1912L152.851 59.0317L152.916 58.8308L152.886 58.621L152.774 58.4408L152.739 58.4054L151.814 57.4423L151.235 56.7627L150.815 56.1394L150.523 55.5308L150.349 54.9459L150.245 54.293L150.219 53.578L150.26 52.7626L150.405 51.51L150.609 50.2958L150.874 49.117L151.199 47.9766L151.584 46.8717L152.03 45.8052L152.535 44.7742L153.099 43.7786L153.923 42.5437L154.417 41.9144L154.94 41.3442L155.492 40.8331L156.047 40.4136L156.621 40.0709L157.17 39.8228L157.731 39.6543L158.316 39.5657L158.736 39.5953L159.049 39.74L159.217 39.9084L159.342 40.1182L159.469 40.6913L159.421 41.4772L159.209 42.2719L158.03 45.4448L157.155 48.1273L156.564 50.3431L156.112 52.541L155.799 54.7154L155.625 56.8721L155.587 59.0169L155.687 61.1351L155.926 63.2238L156.302 65.2859L156.792 67.2299L157.404 69.1413L158.139 71.0202L158.996 72.8696L159.977 74.6806L161.082 76.4562L162.305 78.1963L163.649 79.895L165.735 82.2348L168.098 84.5953L170.807 87.0415L174.299 89.9751L174.352 90.0283L174.287 89.9928L171.008 87.978L168.024 86.034L165.265 84.1137L162.689 82.1905L160.311 80.2701L158.101 78.3292L156.077 76.3823L154.213 74.4088L153.397 73.425L152.57 72.2876L151.79 71.0705L151.093 69.8297L150.511 68.6272L150.044 67.4721L149.693 66.3583L149.477 65.3391ZM181.035 42.9041L180.536 42.0976L180.016 41.4831L179.505 41.102L178.997 40.9543L177.862 40.972L176.89 41.1492L176.087 41.486L175.448 41.9824L174.985 42.6205L174.68 43.4152L174.533 44.3606L174.544 45.4596L174.53 45.5216L174.435 45.5659L174.352 45.5009L174.086 44.5497L174.01 43.6338L174.119 42.8125L174.42 42.0503L174.911 41.3885L175.584 40.8361L176.391 40.452L177.262 40.2511L178.152 40.2423L179.008 40.4313L179.771 40.8066L180.367 41.3383L180.618 41.6722L180.825 42.0533L181.079 42.8864L181.082 42.9662L181.035 42.9041ZM226.457 117.172L225.982 114.836L225.415 112.773L224.741 110.93L223.952 109.293L223.06 107.89L222.05 106.699L221.515 106.2L220.939 105.742L220.348 105.349L219.722 105.004L219.013 104.693L218.259 104.445L217.488 104.268L216.67 104.153L216.593 104.132L216.664 104.097L217.843 103.804L218.989 103.645L220.135 103.615L221.24 103.713L222.64 104.026L224.023 104.555L225.332 105.278L226.599 106.209L227.808 107.338L228.942 108.658L229.97 110.123L230.898 111.739L231.719 113.282L231.76 113.344L231.746 113.27L230.936 111.134L229.935 109.104L228.785 107.27L228.165 106.434L227.5 105.639L226.83 104.933L226.124 104.274L225.4 103.686L224.644 103.154L223.887 102.702L223.098 102.306L222.304 101.987L221.479 101.727L221.403 101.695L221.311 101.6L221.273 101.476L221.29 101.346L221.367 101.24L222.732 100.12L224.153 99.1068L225.624 98.2028L227.14 97.4081L228.697 96.7286L230.295 96.1643L231.899 95.7242L233.536 95.4051L235.187 95.2071L236.865 95.1274L238.535 95.1717L240.222 95.3371L240.298 95.3401L240.227 95.3105L238.966 94.9531L237.693 94.6636L235.932 94.3888L234.053 94.2293L231.902 94.1702L228.732 94.1938L226.995 94.2145L225.618 94.1229L224.528 94.0343L224.457 94.0254L224.525 94.0077L225.793 93.7891L227.042 93.4995L228.791 92.9678L231.028 92.2824L233.099 91.8481L235.055 91.6531L236.942 91.6945L238.269 91.8629L239.613 92.1583L240.957 92.569L242.331 93.1096L242.402 93.1303L242.349 93.0771L241.064 92.1938L239.737 91.4493L238.375 90.8466L236.972 90.3828L235.335 90.0283L233.651 89.8569L231.914 89.8628L230.13 90.0519L230.05 90.0283L230.02 89.9544L230.023 89.9337L230.434 88.8081L230.96 87.7771L231.456 87.0267L232.015 86.3354L232.65 85.6795L233.341 85.0857L234.118 84.5273L234.942 84.034L235.837 83.5938L236.771 83.2186L237.772 82.8965L238.801 82.6454L239.873 82.4593L240.957 82.347L242.056 82.3027L243.149 82.3323L244.222 82.4327L245.27 82.6011L245.347 82.607L245.282 82.5716L244.201 82.1314L243.108 81.7592L242.003 81.4607L240.883 81.2303L239.637 81.059L238.375 80.9703H237.096L235.805 81.056L234.88 81.3101L233.359 81.9423L233.273 81.9541L233.279 81.8655L233.755 80.7429L234.307 79.6232L234.936 78.5094L235.636 77.4134L236.372 76.3852L237.17 75.3926L238 74.4679L238.88 73.5934L239.767 72.8105L240.694 72.0868L241.628 71.4516L242.594 70.8873L243.545 70.4205L244.52 70.0305L245.486 69.7322L246.473 69.5165L247.717 69.3717L248.963 69.3776L249.794 69.4692L250.606 69.6258L251.439 69.8562L252.257 70.1487L253.971 70.9523L255.897 72.1163L255.965 72.1517L255.918 72.0897L254.777 70.973L253.581 69.9685L252.361 69.1058L251.096 68.3673L249.826 67.7764L248.517 67.3155L247.203 66.9965L245.858 66.8163L244.387 66.7808L242.886 66.9167L241.394 67.221L239.879 67.6996L239.808 67.6878L239.781 67.6198L239.796 67.5873L240.573 66.7129L241.409 65.9684L242.319 65.3332L243.273 64.8251L244.452 64.3878L245.669 64.119L246.954 64.0126L248.257 64.0717L249.604 64.2992L250.943 64.6833L252.29 65.2357L253.602 65.9388L253.667 65.9713L253.616 65.9181L252.76 65.215L251.867 64.5858L250.943 64.0333L249.986 63.5547L249.052 63.1706L248.089 62.8545L247.093 62.6064L246.071 62.4232L246.042 62.4114L246.009 62.3493L246.045 62.2873L246.954 61.7939L247.829 61.3922L248.7 61.0613L249.584 60.8042L250.426 60.6299L251.277 60.5295L252.107 60.5059L252.946 60.562L253.817 60.7067L254.698 60.9431L254.789 60.9608L254.715 60.9047L253.389 60.2104L252.074 59.7377L250.774 59.4807L249.486 59.4453L248.24 59.6196L247.005 60.0007L245.782 60.5915L244.57 61.3922L244.47 61.4306V61.3242L245.347 57.7081L246.059 54.0625L246.579 50.603L246.949 47.117L247.176 45.5925L247.362 44.9189L247.584 44.3458L247.844 43.8554L248.157 43.4182L248.508 43.0695L248.913 42.7859L249.365 42.5791L249.876 42.4521L250.42 42.4107L251.025 42.4491L252.692 42.7564L254.399 43.2645L256.083 43.947L257.767 44.8126L259.419 45.8525L260.967 47.0224L262.411 48.3164L263.708 49.696L264.382 50.5262L264.993 51.3741L265.561 52.2633L266.066 53.1703L266.515 54.1009L266.899 55.0463L267.221 56.0035L267.484 56.9695L267.812 58.816L267.933 60.6831L267.841 62.5857L267.543 64.4883L267.035 66.382L266.329 68.252L265.428 70.0807L264.335 71.8563L264.219 72.0277L262.01 75.239L260.237 77.6408L259.017 79.0855L258.615 79.4548L258.334 79.5907L256.396 79.6941L255.117 79.9068L254.597 80.0693L254.128 80.282L253.735 80.539L253.395 80.8551L253.011 81.4046L252.742 82.1019L252.6 82.9172L252.576 83.901L252.674 85.0473L252.884 86.2674L253.206 87.591L253.729 89.4049L254.32 91.4759L254.665 93.0062L254.86 94.4213L254.902 95.7685L254.81 96.9088L254.609 97.934L254.296 98.8705L253.859 99.7598L253.392 100.457L252.81 101.131L252.148 101.742L251.371 102.327L250.497 102.874L249.489 103.414L246.632 104.699L246.13 104.912L244.957 105.456L243.876 106.038L242.848 106.685L241.9 107.376L241.028 108.106L240.174 108.924L239.371 109.796L238.579 110.765L237.793 111.831L236.99 113.028L235.069 116.198L234.213 117.574L233.335 118.8L232.413 119.902L231.474 120.851L230.511 121.657L229.486 122.348L228.44 122.895L227.332 123.32L225.878 123.663L224.378 123.79L222.773 123.707L221.119 123.415L218.785 122.797L215.642 121.849L213.55 121.276L211.382 120.845L209.136 120.555L206.811 120.41L205.544 120.286L204.489 120.006L204.108 119.828L203.789 119.607L203.567 119.365L203.426 119.078L203.381 118.673L203.535 117.97L203.904 117.119L204.492 116.13L205.284 115.025L206.309 113.772L207.506 112.448L208.876 111.054L210.226 109.79L211.869 108.401L213.148 107.524L213.778 107.193L214.368 106.951L214.965 106.776L215.586 106.67L216.552 106.649L217.524 106.797L218.18 106.977L219.4 107.485L220.558 108.2L221.666 109.134L222.703 110.274L223.677 111.621L224.596 113.172L225.494 114.986L226.428 117.181L226.463 117.246L226.457 117.172ZM178.412 43.1789L178.612 43.3236L178.663 43.427L178.601 43.5245L178.55 43.5393L178.311 43.5541H178.302L178.214 43.5127L178.181 43.4211L178.199 43.2261L178.158 43.1109L178.042 43.0666L178.025 43.0695L177.567 43.1966L177.162 43.4034L176.645 43.8849L176.515 43.9263L176.429 43.8967L176.426 43.8938L176.397 43.8111L176.547 43.56L176.837 43.2291L177.18 42.9691L177.584 42.7712L178.016 42.6589L178.453 42.6353L178.878 42.7032L179.251 42.8509L179.579 43.0813L179.788 43.3088L179.963 43.5895L180.158 44.2306L180.146 44.4374L179.998 44.2956L179.082 42.975L178.97 42.8716L178.825 42.8184L178.675 42.8302L178.539 42.9041L178.515 42.9248L178.403 43.04L178.406 43.1759L178.412 43.1789ZM177.995 44.1183L177.856 44.077H177.584L177.345 44.074L177.528 43.9174L177.629 43.8701L177.924 43.8465L178.119 43.9499L178.205 44.1508L178.317 45.7432L178.285 45.8909L178.152 45.817L177.995 45.6575L177.921 45.5246L177.924 45.371L178.054 44.9278L178.042 44.786L177.945 44.6826L177.646 44.5822L177.416 44.594L177.224 44.6915L177.026 44.8835L176.828 45.0755L176.642 45.1671L176.583 45.1789L176.479 45.1582L176.518 45.0578L176.766 44.7889L177.05 44.5762L177.478 44.3872L177.968 44.2986L178.184 44.2394L177.995 44.1183ZM184.938 45.4921L183.567 46.4463L182.063 47.2381L180.491 47.8319L178.929 48.1953L177.41 48.3282L175.968 48.2307L175.274 48.0978L174.595 47.9028L173.959 47.6546L173.342 47.3474L172.645 46.9072L171.983 46.3784L171.936 46.2986L171.983 46.142L172.145 46.1125L173.809 46.6561L175.46 47.0135L177.097 47.1819L178.722 47.1613L180.267 46.9633L181.8 46.5911L183.322 46.0445L184.831 45.3266L184.899 45.3178L184.973 45.3916L184.938 45.4921ZM204.752 69.9803L204.664 69.9626L204.504 69.9862L204.371 70.0807L204.294 70.2226L204.285 70.3851L204.415 71.425L204.427 72.4235L204.321 73.4103L204.099 74.3497L203.671 75.4665L203.086 76.4975L202.336 77.4695L201.449 78.341L200.412 79.1298L199.266 79.8005L198.005 80.3588L196.663 80.7813L195.31 81.0797L193.963 81.2746L192.619 81.3692L191.281 81.3633L189.7 81.2244L188.125 80.9408L186.557 80.5183L184.994 79.9541L184.3 79.7088L183.653 79.5552L182.814 79.4725L181.818 79.4961L180.533 79.5464L179.254 79.5345L177.951 79.4577L176.657 79.3189L175.333 79.1091L174.021 78.8403L172.692 78.5065L171.38 78.1106L168.736 77.1297L166.119 75.9067L163.516 74.4413L160.978 72.7544L160.922 72.7012L160.999 72.7131L161.797 72.9671L165.844 74.2257L168.804 75.0558L171.614 75.7146L174.32 76.2051L175.906 76.4266L178.42 76.6541L180.914 76.7103L183.404 76.6009L185.856 76.3203L188.27 75.8771L190.619 75.2685L192.897 74.5034L195.086 73.5816L197.171 72.5122L199.154 71.295L200.994 69.9537L202.714 68.4736L204.268 66.8931L205.683 65.1884L206.93 63.3893L208.026 61.4778L208.8 59.8323L209.461 58.1129L209.996 56.3521L210.41 54.5234L210.696 52.6799L210.862 50.7744L210.9 48.8452L210.814 46.8599L210.823 46.8274L210.874 46.8038L210.918 46.8392L211.388 48.3695L211.781 49.9117L212.094 51.4598L212.327 53.0196L212.543 55.5692L212.552 58.1454L212.566 59.4394L212.708 61.2149L212.859 63.1825L212.85 64.6301L212.729 65.6375L212.49 66.6567L212.141 67.6169L211.707 68.4677L211.19 69.2033L210.617 69.7972L209.955 70.2787L209.26 70.6007L208.407 70.8016L207.517 70.8164L206.649 70.6509L205.467 70.2432L204.752 69.9803ZM171.023 117.412L172.148 115.784L173.386 114.239L174.273 113.264L175.194 112.342L176.178 111.447L177.194 110.608L178.27 109.796L179.425 109.001L181.886 107.521L184.536 106.177L187.561 104.865L190.994 103.562L195.812 101.896L202.043 99.7125L204.415 98.7937L206.542 97.8956L208.575 96.9325L210.537 95.8689L212.377 94.7345L214.103 93.5232L215.692 92.2528L217.137 90.9264L218.422 89.5615L219.541 88.1611L219.574 88.1375L219.636 88.1582L219.645 88.2232L219.033 89.4551L218.327 90.6782L217.521 91.9013L216.617 93.1244L215.627 94.3356L214.507 95.5942L211.402 98.7878L208.596 101.659L206.634 103.89L205.78 104.977L205.006 106.058L204.318 107.131L203.703 108.197L202.669 110.457L201.585 112.85L201.112 113.698L200.625 114.425L200.099 115.054L199.553 115.559L198.974 115.958L198.33 116.26L197.629 116.452L195.671 116.688L192.586 116.892L191.077 117.042L189.641 117.338L188.279 117.775L186.997 118.357L186.173 118.833L185.384 119.37L184.63 119.973L183.91 120.641L183.079 121.571L181.871 123.137L180.725 124.635L179.847 125.684L179.02 126.555L178.22 127.264L177.425 127.82L176.648 128.216L175.85 128.464L175.076 128.549L174.476 128.508L173.859 128.372L173.25 128.145L172.627 127.817L171.906 127.445L171.179 127.188L170.405 127.025L169.623 126.972L168.804 127.013L167.921 127.158L166.996 127.397L165.992 127.74L163.318 128.874L160.494 130.071L159.404 130.437L158.387 130.7L157.409 130.866L156.485 130.928L155.566 130.886L154.7 130.745L154.071 130.57L153.43 130.331L152.833 130.038L152.006 129.513L151.226 128.848L150.532 128.083L149.894 127.19L149.312 126.165L148.795 125.022L148.328 123.728L147.914 122.298L147.557 121.202L147.09 120.289L146.541 119.607L145.87 119.102L145.309 118.856L144.709 118.72L144.056 118.682L143.309 118.738L142.52 118.889L141.642 119.128L139.27 119.994L137.016 120.815L136.215 121.031L135.515 121.152L134.129 121.235L132.8 121.167L131.527 120.954L130.304 120.591L129.175 120.1L128.1 119.471L127.072 118.703L126.097 117.796L125.742 117.418L124.72 116.183L123.813 114.836L123.004 113.347L122.295 111.725L121.686 109.988L121.142 108.064L120.637 105.869L120.043 102.841L119.432 99.742L118.912 97.5026L118.348 95.5292L117.786 93.5941L117.423 92.1524L117.169 90.8554L117.021 89.6767L116.986 88.5984L117.059 87.6234L117.252 86.7253L117.556 85.9454L117.81 85.5052L118.088 85.1595L118.413 84.8848L118.764 84.7076L119.151 84.6189L119.562 84.616L120.02 84.7076L120.498 84.8819L121.027 85.1566L121.571 85.5141L122.755 86.4979L124.052 87.8273L125.47 89.5172L126.962 91.5054L128.555 93.8305L128.729 94.0934L128.738 94.1111L128.732 94.1938L128.664 94.244L128.372 94.3002L127.081 94.5572L126.182 94.8053L125.429 95.1126L124.776 95.4996L124.094 96.0816L123.491 96.8054L123.456 96.8734L123.524 96.835L124.129 96.4155L124.738 96.0875L125.376 95.8364L126.017 95.671L126.637 95.5883L127.258 95.5794L127.911 95.6414L128.564 95.7714L129.261 95.9812L129.958 96.2559L131.435 97.0329L139.359 101.955L139.459 102.079L139.335 102.179L137.542 102.933L135.834 103.795L134.212 104.77L132.673 105.854L131.237 107.036L129.884 108.327L128.614 109.728L127.426 111.234L127.385 111.308L127.459 111.264L128.894 109.964L130.274 108.72L132.31 107.234L134.446 105.946L136.641 104.885L137.769 104.439L138.91 104.046L140.053 103.719L141.208 103.45L142.345 103.243L143.492 103.095L144.647 103.009L145.811 102.983L146.948 103.018L148.092 103.113L150.248 103.464L152.346 104.029L153.247 104.395L153.309 104.463L153.229 104.513L151.581 105.004L149.976 105.624L148.408 106.377L146.951 107.231L145.634 108.165L144.473 109.163L143.456 110.239L142.626 111.355L142.594 111.429L142.662 111.391L143.837 110.549L145.046 109.796L146.484 109.033L147.962 108.38L149.521 107.825L151.114 107.373L152.786 107.018L154.55 106.758L156.361 106.599L158.26 106.537L158.343 106.561L158.293 106.628L156.721 107.955L155.309 109.37L154.056 110.874L152.963 112.469L152.349 113.527L151.796 114.626L151.306 115.757L150.877 116.927L150.502 118.15L150.192 119.409L149.941 120.706L149.752 122.041L149.781 122.103H149.846L149.873 122.071L150.662 120.079L151.589 118.186L152.662 116.375L153.861 114.676L155.194 113.09L156.641 111.627L158.198 110.298L159.862 109.101L161.324 108.212L162.851 107.426L164.441 106.741L166.086 106.168L167.77 105.71L169.501 105.361L171.247 105.134L173.035 105.018L180.137 104.732L180.22 104.75L180.175 104.823L178.601 106.342L177.15 107.872L175.835 109.403L174.642 110.945L173.561 112.519L172.6 114.106L171.738 115.748L170.999 117.4L170.976 117.471L171.023 117.412ZM193.765 139.77L194.823 138.706L195.895 137.726L196.985 136.83L198.09 136.021L198.841 135.604L199.57 135.421L200.312 135.457L201.101 135.699L201.174 135.764L201.112 135.838L199.375 136.993L197.691 138.263L196.058 139.646L194.477 141.144L192.128 143.596L189.871 146.181L187.694 148.899L185.605 151.75L183.605 154.731L181.688 157.844L179.836 161.124L178.06 164.551L178.054 164.56L177.98 164.554L177.971 164.536L177.98 164.459L179.632 160.811L181.366 157.333L183.18 154.039L185.091 150.899L187.103 147.903L189.221 145.046L191.44 142.34L193.765 139.77Z" fill="#4C3A41"/>
<path d="M107.045 38.3075L106.864 38.3252L106.752 38.3961L106.708 38.5173L106.728 38.6886L106.85 38.8127L107.015 38.7743L107.062 38.7034L107.145 38.4582L107.148 38.4434L107.127 38.3518L107.045 38.3075Z" fill="#4C3A41"/>
<path d="M107.352 45.8344L107.408 46.121L107.57 46.3632L107.813 46.5257L108.099 46.5818L108.386 46.5257L108.628 46.3632L108.79 46.121L108.847 45.8344L108.79 45.5478L108.628 45.3056L108.386 45.1431L108.099 45.0869L107.813 45.1431L107.57 45.3056L107.408 45.5478L107.352 45.8344Z" fill="#4C3A41"/>
<path d="M106.918 52.2062L106.943 52.3237L107.06 52.4022L107.201 52.3956L107.283 52.3079L107.258 52.1904L107.141 52.1119L107 52.1185L106.918 52.2062Z" fill="#4C3A41"/>
<path d="M105.077 56.2598L105.118 56.6705L105.236 57.0634L105.431 57.4239L105.691 57.7429L106.01 58.0029L106.371 58.1979L106.764 58.316L107.174 58.3574L107.585 58.316L107.978 58.1979L108.338 58.0029L108.657 57.7429L108.917 57.4239L109.112 57.0634L109.23 56.6705L109.272 56.2598L109.23 55.8492L109.112 55.4562L108.917 55.0958L108.657 54.7768L108.338 54.5168L107.978 54.3218L107.585 54.2036L107.174 54.1623L106.764 54.2036L106.371 54.3218L106.01 54.5168L105.691 54.7768L105.431 55.0958L105.236 55.4562L105.118 55.8492L105.077 56.2598Z" fill="#4C3A41"/>
<path d="M106.625 64.9017L106.663 65.2828L106.773 65.6491L106.953 65.9859L107.198 66.2813L107.493 66.5265L107.83 66.7067L108.197 66.816L108.578 66.8544L108.959 66.816L109.325 66.7067L109.662 66.5265L109.957 66.2813L110.203 65.9859L110.383 65.6491L110.492 65.2828L110.531 64.9017L110.492 64.5205L110.383 64.1542L110.203 63.8174L109.957 63.522L109.662 63.2768L109.325 63.0966L108.959 62.9872L108.578 62.9489L108.197 62.9872L107.83 63.0966L107.493 63.2768L107.198 63.522L106.953 63.8174L106.773 64.1542L106.663 64.5205L106.625 64.9017Z" fill="#4C3A41"/>
<path d="M107.133 75.1154L107.213 75.3075L107.405 75.3872L107.597 75.3075L107.677 75.1154L107.597 74.9234L107.405 74.8436L107.213 74.9234L107.133 75.1154Z" fill="#4C3A41"/>
<path d="M105 81.9103L105.035 82.2677L105.139 82.6104L105.307 82.9265L105.535 83.2042L105.812 83.4317L106.129 83.6001L106.471 83.7035L106.829 83.739L107.186 83.7035L107.529 83.6001L107.845 83.4317L108.123 83.2042L108.35 82.9265L108.519 82.6104L108.622 82.2677L108.657 81.9103L108.622 81.5528L108.519 81.2101L108.35 80.894L108.123 80.6163L107.845 80.3888L107.529 80.2204L107.186 80.117L106.829 80.0815L106.471 80.117L106.129 80.2204L105.812 80.3888L105.535 80.6163L105.307 80.894L105.139 81.2101L105.035 81.5528L105 81.9103Z" fill="#4C3A41"/>
<path d="M109.588 93.4784L109.514 93.502L109.485 93.5227L109.508 93.5493L109.848 93.7295L109.68 93.502L109.588 93.4784Z" fill="#4C3A41"/>
<path d="M108.099 96.3329L108.249 96.2992L108.377 96.2027L108.462 96.0581L108.492 95.8875L108.463 95.7167L108.378 95.5718L108.25 95.4749L108.1 95.4407L107.95 95.4744L107.822 95.5709L107.737 95.7154L107.706 95.8861L107.736 96.0569L107.821 96.2017L107.948 96.2987L108.099 96.3329Z" fill="#4C3A41"/>
<path d="M108.829 100.549L108.935 101.087L109.24 101.545L109.697 101.849L110.235 101.955L110.773 101.849L111.231 101.545L111.535 101.087L111.641 100.549L111.535 100.011L111.231 99.5534L110.773 99.2491L110.235 99.1428L109.697 99.2491L109.24 99.5534L108.935 100.011L108.829 100.549Z" fill="#4C3A41"/>
<path d="M109.245 106.339L109.302 106.628L109.467 106.871L109.709 107.036L109.999 107.092L110.288 107.036L110.531 106.871L110.696 106.628L110.752 106.339L110.696 106.049L110.531 105.807L110.288 105.642L109.999 105.585L109.709 105.642L109.467 105.807L109.302 106.049L109.245 106.339Z" fill="#4C3A41"/>
<path d="M113.5 107.919L113.565 108.253L113.754 108.537L114.037 108.726L114.371 108.791L114.705 108.726L114.989 108.537L115.178 108.253L115.243 107.919L115.178 107.585L114.989 107.302L114.705 107.113L114.371 107.048L114.037 107.113L113.754 107.302L113.565 107.585L113.5 107.919Z" fill="#4C3A41"/>
<path d="M125.26 154.689L127.314 152.612L129.411 150.583L131.692 148.473L134.02 146.417L134.965 145.534L135.116 145.324L135.134 145.174L135.013 145.082L134.756 145.049L133.054 145.07L131.349 145.162L129.701 145.321L128.064 145.555L126.51 145.85L124.977 146.219L123.517 146.654L122.088 147.162L120.755 147.72L119.458 148.352L118.241 149.038L117.068 149.8L115.984 150.607L114.953 151.484L113.999 152.412L113.098 153.41L111.804 155.133L110.699 156.991L110.622 157.136L109.892 158.604L109.219 160.09L108.595 161.617L108.028 163.159L107.511 164.752L107.05 166.359L106.285 169.671L105.735 173.104L105.399 176.649L105.272 180.342L105.357 184.159L105.36 184.17L105.396 184.173L105.431 184.129L105.605 182.93L105.836 181.774L106.122 180.664L106.465 179.594L106.867 178.572L107.328 177.591L107.842 176.658L108.415 175.765L108.873 175.157L109.354 174.619L109.88 174.123L110.433 173.694L111.201 173.213L112.064 172.808L112.976 172.495L113.987 172.259L115.077 172.096L116.288 171.999L119.6 171.963L122.07 171.96L123.715 171.845L125.322 171.561L126.823 171.127L128.277 170.519L129.429 169.892L130.507 169.165L131.538 168.326L132.49 167.396L133.403 166.344L134.227 165.213L134.992 163.975L135.668 162.672L136.283 161.248L136.806 159.774L137.243 158.226L137.583 156.648L137.831 155.014L137.982 153.372L138.035 151.708L137.985 150.063L137.988 149.983L138.017 150.057L138.274 151.324L138.457 153.082L138.534 155.437L138.425 157.676L138.129 159.83L137.642 161.948L137.072 163.715L136.348 165.476L135.485 167.183L134.463 168.894L133.287 170.592L131.943 172.306L130.404 174.061L128.667 175.866L128.637 175.984L128.732 176.064L128.806 176.049L133.403 173.532L139.781 170.312L141.937 169.239L144.803 167.706L147.217 166.185L148.304 165.402L149.347 164.574L150.319 163.727L151.252 162.823L152.171 161.839L153.055 160.787L153.891 159.685L154.697 158.506L154.942 158.06L155.276 157.446L155.569 157.05L155.64 157.003L155.634 157.085L155.253 158.4L154.801 159.712L154.313 160.938L153.755 162.173L152.443 164.619L150.795 167.204L148.526 170.365L148.487 170.43L148.549 170.386L150.295 168.767L151.938 167.112L153.504 165.393L154.954 163.65L156.304 161.865L157.533 160.072L158.671 158.229L159.678 156.382L160.576 154.515L161.344 152.657L162 150.781L162.547 148.866L162.966 146.982L163.271 145.061L163.451 143.159L163.516 141.23L163.486 139.868L163.427 139.507L163.282 139.241L162.99 139.02L162.564 138.89L158.931 138.314L157.448 138.151L156.186 138.074L154.431 138.089L152.629 138.24L150.836 138.529L149.001 138.955L147.164 139.513L145.294 140.21L143.394 141.049L141.474 142.024L139.533 143.132L137.586 144.373L135.603 145.758L133.612 147.268L131.589 148.928L129.562 150.71L127.523 152.618L125.441 154.686L125.343 154.713L125.263 154.692L125.26 154.689Z" fill="#4C3A41"/>
</g>
</svg>
