<svg width="58" height="48" viewBox="0 0 58 48" fill="none" xmlns="http://www.w3.org/2000/svg">
<path d="M1.73637 22.3545C7.53695 19.114 14.012 16.4092 20.0619 13.6907C30.4701 9.23801 40.9197 4.86248 51.4747 0.788918C53.5283 0.0948642 57.2182 -0.583798 57.58 2.50281C57.3818 6.87205 56.5668 11.2157 56.0078 15.5594C54.589 25.1114 52.949 34.6308 51.3498 44.1515C50.7987 47.3228 46.8819 48.9644 44.3757 46.9349C38.3526 42.8087 32.2833 38.7224 26.3371 34.5004C24.3893 32.493 26.1955 29.6102 27.9351 28.1768C32.8959 23.2183 38.1568 19.0055 42.8583 13.7907C44.1265 10.6847 40.3793 13.3023 39.1433 14.1045C32.352 18.8512 25.7269 23.8877 18.5667 28.0594C14.9093 30.1014 10.6466 28.3564 6.9908 27.2169C3.71303 25.8405 -1.09023 24.4537 1.73604 22.3549L1.73637 22.3545Z" fill="#F4F4F4"/>
</svg>
