<svg width="52" height="52" viewBox="0 0 52 52" fill="none" xmlns="http://www.w3.org/2000/svg">
<path d="M47.8563 35.7502H44.7363C46.4116 32.5302 47.2289 28.933 47.1096 25.3052C46.9902 21.6775 45.9381 18.1417 44.0548 15.0389C42.1714 11.936 39.5204 9.37077 36.3573 7.5905C33.1941 5.81023 29.6257 4.875 25.996 4.875C22.3663 4.875 18.7978 5.81023 15.6347 7.5905C12.4716 9.37077 9.82055 11.936 7.93721 15.0389C6.05387 18.1417 5.00179 21.6775 4.88241 25.3052C4.76303 28.933 5.58039 32.5302 7.25567 35.7502H4.14379C3.49497 35.7423 2.86868 35.9879 2.39825 36.4348C1.92782 36.8818 1.6504 37.4946 1.62504 38.143C1.61911 38.4668 1.67777 38.7886 1.7976 39.0895C1.91744 39.3904 2.09604 39.6644 2.32298 39.8955C2.54991 40.1266 2.82063 40.3102 3.11931 40.4355C3.418 40.5608 3.73865 40.6253 4.06254 40.6252H16.25C16.681 40.6252 17.0943 40.7964 17.3991 41.1011C17.7038 41.4059 17.875 41.8192 17.875 42.2502C17.875 42.6812 17.7038 43.0945 17.3991 43.3992C17.0943 43.704 16.681 43.8752 16.25 43.8752H14.6575C14.2813 43.8745 13.9158 44.0011 13.6208 44.2346C13.3257 44.4681 13.1184 44.7946 13.0325 45.161C12.9819 45.3981 12.985 45.6436 13.0416 45.8793C13.0982 46.1151 13.2068 46.3352 13.3595 46.5236C13.5122 46.7119 13.7051 46.8637 13.9241 46.9678C14.1431 47.0719 14.3826 47.1257 14.625 47.1252H40.5702C40.9894 47.1304 41.3951 46.9769 41.7059 46.6954C42.0167 46.414 42.2096 46.0255 42.246 45.6079C42.2607 45.3856 42.2296 45.1626 42.1546 44.9529C42.0796 44.7431 41.9622 44.551 41.8098 44.3886C41.6574 44.2261 41.4733 44.0967 41.2688 44.0083C41.0642 43.92 40.8438 43.8747 40.621 43.8752H29.25C28.8191 43.8752 28.4057 43.704 28.101 43.3992C27.7962 43.0945 27.625 42.6812 27.625 42.2502C27.625 41.8192 27.7962 41.4059 28.101 41.1011C28.4057 40.7964 28.8191 40.6252 29.25 40.6252H30.8324C31.2338 40.6233 31.6214 40.478 31.925 40.2153C32.2286 39.9527 32.4282 39.5901 32.4879 39.1932C32.5151 38.9652 32.4938 38.734 32.4252 38.5148C32.3566 38.2957 32.2423 38.0936 32.0899 37.9218C31.9376 37.75 31.7505 37.6125 31.5411 37.5183C31.3317 37.4241 31.1047 37.3753 30.875 37.3752H27.625C24.5924 37.3752 21.4115 36.2011 18.8907 34.1557C16.1383 31.9213 14.625 29.0227 14.625 26.0002C14.6247 25.388 14.6729 24.7767 14.7693 24.1721C14.8304 23.7502 15.0508 23.3678 15.3851 23.1034C15.7194 22.8389 16.1423 22.7126 16.5669 22.7502C16.7864 22.7748 16.9985 22.8438 17.1904 22.9531C17.3822 23.0624 17.5498 23.2096 17.6829 23.3859C17.8159 23.5621 17.9117 23.7635 17.9643 23.978C18.0169 24.1925 18.0252 24.4154 17.9888 24.6332C17.9136 25.085 17.8756 25.5422 17.875 26.0002C17.875 30.5014 23.2091 34.1252 27.625 34.1252H30.7613C33.5035 34.1252 35.811 36.3697 35.748 39.1119C35.7438 39.3043 35.7282 39.4962 35.7013 39.6868C35.683 39.8035 35.6903 39.9229 35.7229 40.0365C35.7554 40.1501 35.8123 40.2552 35.8897 40.3446C35.9671 40.4339 36.063 40.5053 36.1708 40.5538C36.2786 40.6023 36.3956 40.6266 36.5138 40.6252H47.9375C48.2614 40.6253 48.5821 40.5608 48.8808 40.4355C49.1795 40.3102 49.4502 40.1266 49.6771 39.8955C49.9041 39.6644 50.0827 39.3904 50.2025 39.0895C50.3223 38.7886 50.381 38.4668 50.375 38.143C50.3497 37.4946 50.0723 36.8818 49.6018 36.4348C49.1314 35.9879 48.5051 35.7423 47.8563 35.7502ZM25.9797 19.0046C25.9205 19.4557 25.7362 19.8813 25.4476 20.2331C25.159 20.5849 24.7777 20.8489 24.3469 20.9953C23.916 21.1416 23.4528 21.1644 23.0097 21.0611C22.5665 20.9579 22.1611 20.7326 21.8394 20.4108C21.5177 20.0891 21.2924 19.6837 21.1891 19.2406C21.0858 18.7974 21.1086 18.3342 21.255 17.9034C21.4013 17.4725 21.6653 17.0912 22.0171 16.8026C22.369 16.5141 22.7945 16.3297 23.2457 16.2705C23.6162 16.2219 23.993 16.2591 24.3469 16.3793C24.7008 16.4995 25.0223 16.6994 25.2865 16.9637C25.5508 17.228 25.7508 17.5495 25.871 17.9034C25.9912 18.2572 26.0284 18.634 25.9797 19.0046ZM35.7297 28.7546C35.6705 29.2057 35.4862 29.6313 35.1976 29.9831C34.909 30.3349 34.5277 30.5989 34.0969 30.7453C33.666 30.8916 33.2028 30.9144 32.7597 30.8111C32.3165 30.7079 31.9112 30.4826 31.5894 30.1608C31.2677 29.8391 31.0424 29.4337 30.9391 28.9906C30.8358 28.5474 30.8586 28.0842 31.005 27.6534C31.1513 27.2225 31.4153 26.8412 31.7671 26.5526C32.119 26.2641 32.5445 26.0797 32.9957 26.0205C33.3662 25.9719 33.743 26.0091 34.0969 26.1293C34.4508 26.2495 34.7723 26.4494 35.0365 26.7137C35.3008 26.978 35.5008 27.2995 35.621 27.6534C35.7412 28.0072 35.7784 28.384 35.7297 28.7546Z" fill="#F4F4F4"/>
</svg>
