<svg width="179" height="265" viewBox="0 0 179 265" fill="none" xmlns="http://www.w3.org/2000/svg">
<path d="M62.4421 229.243L64.179 229.994L65.8237 230.814L67.3808 231.703L68.8551 232.656L70.2648 233.693L71.587 234.794L72.8264 235.96L73.9781 237.19L75.5076 239.097L76.8621 241.133L78.0599 243.331L79.0873 245.657L79.958 248.15L80.6537 250.767L81.1881 253.54L81.5474 256.433L81.833 260.773L81.8653 265.081L81.6488 269.351L81.1788 273.59L80.474 277.727L79.5249 281.832L78.3363 285.904L76.8989 289.94L76.8482 290L76.7193 289.995L76.664 289.88L76.8667 286.697L76.7883 283.629L76.429 280.74L75.784 277.939L74.9778 275.548L73.932 273.194L72.6328 270.835L71.0757 268.481L69.2743 266.122L67.1551 263.648L64.5982 260.925L61.1705 257.474L59.079 255.231L57.227 252.877L55.5823 250.384L54.1771 247.795L52.9471 244.962L51.9749 242.041L51.2517 239L50.7864 235.886L50.5744 232.666L50.6251 229.39L50.9384 226.032L51.5051 222.641L51.4774 222.521L51.3669 222.47H51.3392L51.2563 222.503L51.1918 222.604L50.6251 224.599L50.1598 226.621L49.8005 228.662L49.5471 230.708L49.4043 232.739L49.372 234.766L49.4504 236.743L49.6392 238.701L49.9341 240.613L50.3441 242.497L50.8509 244.308L51.4728 246.086L52.1869 247.781L53.0116 249.435L53.9237 251.002L54.9419 252.517L55.1354 252.78L56.7294 254.743L59.7055 258.202L59.7701 258.299L59.6687 258.244L55.1722 255.249L49.9709 251.757L48.036 250.311L46.2945 248.882L44.6867 247.408L43.2217 245.888L41.9087 244.335L40.7293 242.732L40.697 242.727L40.6187 242.815L40.6141 242.902L42.374 246.666L44.0371 249.5L44.1753 249.707L46.4235 253.181L46.4742 253.287L46.3821 253.213L44.0187 250.679L41.7659 247.938L39.6006 244.957L37.5689 241.806L35.6385 238.434L33.8648 234.932L32.257 231.316L30.8242 227.616L29.5711 223.848L28.5115 220.038L27.6684 216.256L27.028 212.478L26.6042 208.806L26.4014 205.18L26.4153 201.688L26.6548 198.284L26.618 198.136L26.4706 198.15L24.1809 199.32L22.0386 200.675L20.1129 202.172L18.3714 203.835L16.9018 205.586L15.6441 207.479L14.6582 209.442L13.9072 211.538L13.5571 212.975L13.3268 214.468L13.2162 215.961L13.23 217.499L13.4788 221.66L13.875 226.165L14.391 230.662L15.0406 235.153L15.8146 239.632L16.7129 244.1L17.7403 248.56L18.892 253.01L20.1728 257.451L20.2004 257.567L20.1405 257.465L17.8186 252.296L15.5381 246.602L13.2899 240.373L11.0832 233.615L9.48912 227.934L8.28666 222.364L7.83982 219.665L7.48965 216.96L7.24091 214.316L7.09349 211.676L7.0428 209.124L7.09808 206.572L7.2455 204.084L7.50346 201.605L7.84899 199.205L8.30513 196.819L8.85335 194.487L9.50753 192.175V192.101L9.4108 192.013L9.28643 192.059L9.06985 192.331L4.81758 197.74L1.8184 201.734L-0.802979 205.466L-3.06042 208.972L-3.07883 209.004V209.271L-2.88072 209.446L0.0908279 210.382L0.279701 210.52L0.146103 210.713L-1.11622 211.653L-4.36879 214.187L-8.40914 217.822L-11.5742 220.807L-14.6747 223.866L-14.7622 223.94L-14.7116 223.834L-12.1685 219.683L-9.92026 215.551L-7.9807 211.437L-6.33598 207.341L-2.95446 198.44L-1.5309 195.096L-0.102692 192.05L1.39919 189.171L2.9794 186.462L4.64252 183.924L6.41626 181.496L7.7799 179.805L7.83059 179.685L7.73844 179.469L7.50346 179.441L5.08943 180.551L1.72631 182.085L-0.72924 183.099L-2.95905 183.882L-5.02297 184.439L-7.01321 184.79L-8.90673 184.909L-10.7035 184.808L-12.408 184.49L-14.1541 183.91L-15.8126 183.103L-17.4711 182.016L-19.0559 180.703L-20.8988 178.847L-22.7093 176.7L-24.5844 174.175L-26.9985 170.614L-29.4217 167.043L-31.2922 164.523L-33.1027 162.39L-34.941 160.561L-37.0049 158.848L-38.4884 157.788L-40.0409 156.811L-41.6534 155.922L-43.3349 155.12L-46.265 153.964L-49.6419 152.628L-51.7381 151.559L-52.8622 150.808L-53.8804 150.002L-54.8202 149.108L-55.6587 148.164L-56.8796 146.399L-57.8608 144.423L-58.6026 142.212L-59.1002 139.788L-59.3627 137.153L-59.3996 134.269L-59.2199 131.012L-58.8007 127.068L-58.5473 124.009L-58.5611 122.784L-58.6717 121.674L-58.8836 120.637L-59.1877 119.739L-59.5931 118.923L-60.1229 118.172L-60.9983 117.398L-62.3665 116.629L-63.9006 115.735L-64.4074 115.265L-64.7622 114.772L-65.0755 113.957L-65.444 112.561L-65.9231 111.128L-67.1901 108.272L-68.9131 105.249L-71.5483 101.264L-74.5751 96.6528L-75.6393 94.8146L-76.5377 93.0455L-77.5006 90.7743L-78.2515 88.4846L-78.809 86.1304L-79.1545 83.7762L-79.3065 80.6112L-79.1038 77.4692L-78.5463 74.3226L-77.6526 71.2405L-76.4179 68.2229L-74.8654 65.3159L-72.9995 62.5379L-70.8434 59.9119L-69.0375 58.0414L-67.1118 56.2861L-65.0846 54.6599L-62.9562 53.158L-60.7402 51.7897L-58.446 50.5642L-56.0779 49.4816L-53.6454 48.5509L-51.1761 47.777L-48.6607 47.1597L-46.1544 46.7174L-43.6252 46.4364L-41.1236 46.3258L-38.6127 46.3764L-36.1434 46.5976L-33.6832 46.9846L-33.5819 46.9524L-33.5589 46.851L-33.5865 46.8049L-34.5355 45.8835L-37.6867 42.7507L-39.8336 40.309L-41.4599 38.0101L-42.1049 36.8676L-42.607 35.7757L-43.2151 33.979L-43.533 32.2237L-43.5515 30.6067L-43.275 29.0264L-42.7821 27.718L-42.091 26.5156L-41.1881 25.373L-40.0409 24.272L-38.7049 23.2492L-37.1385 22.2818L-35.3325 21.3604L-33.3193 20.5081L-30.3524 19.4439L-25.902 17.8406L-22.5297 16.4677L-19.6641 15.0902L-17.2823 13.6804L-15.3934 12.2339L-14.6471 11.5014L-14.0067 10.7412L-13.5183 10.0041L-13.1452 9.23472L-12.9102 8.48376L-12.795 7.70981V7.68675L-12.6384 6.06971L-12.3758 4.48029L-11.9888 2.87244L-11.4959 1.29683L-10.8785 -0.287964L-10.1552 -1.84058L-9.30753 -3.3977L-8.35851 -4.90882L-7.29888 -6.4061L-6.14711 -7.85732L-4.87096 -9.29932L-3.5165 -10.686L-2.03767 -12.0589L-0.489677 -13.3719L2.89643 -15.8689L4.75766 -17.0667L6.67422 -18.1909L8.67829 -19.2597L10.7283 -20.2456L14.9346 -21.9686L19.2053 -23.323L21.3292 -23.8575L23.4438 -24.2906L25.5353 -24.6268L27.5993 -24.8572L29.608 -24.9816L31.5752 -25L33.441 -24.9125L35.2469 -24.719L38.4165 -24.1109L41.9133 -23.429L44.3642 -23.194L46.0089 -23.2079L47.8471 -23.3276L52.7167 -23.9127L56.969 -24.3965L58.9178 -24.4241L60.8343 -24.3136L62.714 -24.0694L64.5659 -23.6824L66.828 -23.0098L69.0347 -22.1252L71.1909 -21.0241L73.2963 -19.7065L75.9038 -17.8499L79.5204 -15.3115L82.2615 -13.6667L84.7815 -12.515L86.0255 -12.1096L87.1957 -11.8286L89.8723 -11.4416L93.5256 -10.8887L94.7973 -10.5755L95.8615 -10.2069L96.9395 -9.6725L97.953 -9.00446L98.9436 -8.17978L99.8695 -7.23538L100.773 -6.11584L101.593 -4.89498L102.367 -3.53131L103.053 -2.09393L103.698 -0.472246L104.237 1.19549L104.679 2.93234L105.011 4.66458L105.227 6.39221L105.329 8.05995L105.306 9.64473L105.158 11.119L105.223 11.3079L105.412 11.3632L105.481 11.3355L107.614 10.1561L109.793 9.17945L111.949 8.44692L114.16 7.92171L116.441 7.61305L118.781 7.5209L121.218 7.64992L123.743 8.00005L126.332 8.56209L129.11 9.34068L132.202 10.368L136.417 11.916L142.388 14.0675L146.866 15.3804L148.971 15.8504L150.998 16.1913L152.952 16.4079L154.831 16.4954L155.674 16.5046L159.208 16.6244L161.581 16.9745L162.617 17.2786L163.492 17.6563L164.276 18.1263L164.98 18.716L165.681 19.5498L166.257 20.5726L166.68 21.7428L166.971 23.1203L167.086 24.9262L166.938 27.0086L166.542 29.395L165.796 32.666L165.395 34.366L165.303 35.3565L165.372 36.7708L165.607 38.6091L165.953 40.4795L166.326 42.161L167.855 49.5784L168.284 52.3288L168.555 54.8764L168.68 57.3504L168.643 59.7322L168.445 62.0173L168.09 64.2379L167.376 67.1034L166.376 69.9459L165.331 72.1758L163.566 75.3408L162.378 77.437L161.765 78.8559L161.516 80.2564L161.567 81.3668L161.843 82.5323L162.354 83.8131L163.225 85.5269L164.027 87.0795L164.792 88.9222L165.308 90.7604L165.584 92.6309L165.621 94.4737L165.464 96.0309L165.142 97.5558L164.644 99.0853L163.981 100.569L163.156 102.015L162.175 103.402L161.055 104.724L159.793 105.977L159.719 106.134L159.779 106.3L161.585 108.516L163.119 110.907L164.345 113.399L165.271 116.002L165.856 118.61L166.109 121.268L166.022 123.913L165.598 126.465L165.031 128.418L164.243 130.349L162.714 133.481L160.737 137.582L159.599 140.415L158.775 143.262L158.125 146.478L157.609 150.163L157.125 155.12L156.794 158.64L156.388 161.368L155.771 164.017L154.937 166.62L153.924 169.061L152.74 171.314L151.413 173.337L149.92 175.161L148.317 176.718L147.216 177.593L146.096 178.358L144.922 179.04L143.724 179.616L142.438 180.114L141.139 180.51L139.762 180.818L138.366 181.03L135.417 181.201L132.174 181.049L128.498 180.579L123.48 179.676L122.762 179.588L122.048 179.598L121.149 179.759L120.96 179.86L120.836 180.031L119.915 181.998L118.929 183.679L117.708 185.338L115.86 187.452L115.036 188.365L114.99 188.554L115.119 188.696L115.197 188.706L118.302 188.637L121.532 188.779L124.789 189.125L128.134 189.673L131.483 190.419L134.864 191.368L138.191 192.497L141.402 193.778L143.926 194.934L146.4 196.197L148.856 197.583L151.252 199.076L153.587 200.665L155.859 202.352L158.093 204.158L160.258 206.051L162.368 208.05L164.395 210.133L166.34 212.294L168.201 214.533L169.984 216.854L171.679 219.246L173.282 221.701L174.784 224.212L174.826 224.327L174.724 224.263L171.016 221.13L167.312 218.347L163.626 215.933L159.927 213.86L156.195 212.123L152.454 210.723L148.635 209.649L144.797 208.912L140.729 208.497L136.634 208.442L132.418 208.746L128.175 209.41L127.82 209.4L127.507 209.248L124.568 206.982L121.638 204.932L118.763 203.126L115.893 201.545L113.069 200.2L110.258 199.085L107.494 198.205L104.771 197.556L103.099 197.422L102.334 197.473L101.781 197.602L98.9573 198.551L96.4972 199.219L94.2075 199.656L92.0607 199.864L90.0611 199.841L88.1907 199.574L86.4816 199.076L84.9198 198.348L84.0168 197.781L82.7315 196.832L81.0683 195.625L79.8198 194.925L78.106 194.322L76.1665 193.939L73.9413 193.741L70.744 193.667L67.7725 193.612L65.2662 193.409L62.8567 192.99L60.5441 192.354L58.3235 191.507L56.1904 190.433L54.1541 189.143L52.2146 187.637L50.3672 185.914L49.0358 184.536L46.5387 181.989L44.613 180.187L42.7886 178.69L41.0287 177.488L39.2873 176.552L37.5689 175.903L35.8873 175.548L34.2426 175.474L33.2659 175.562L32.2754 175.751L31.3125 176.032L30.3312 176.419L28.4286 177.386L26.6272 178.556L25.3557 179.561L24.1855 180.653L23.0614 181.869L22.0248 183.173L21.0389 184.605L20.0852 186.195L19.1961 187.899L18.3346 189.761L18.3207 189.857L18.4313 189.996L18.611 189.968L18.7584 189.844L20.0622 188.862L21.4812 187.955L22.96 187.158L24.5678 186.43L26.2955 185.776L28.1659 185.186L32.7085 184.085L32.8282 184.076L32.7315 184.145L31.3816 184.868L27.5578 186.978L24.9963 188.59L22.8771 190.221L21.062 192L20.0622 193.202L19.1178 194.538L18.2562 195.966L17.4454 197.556L17.4362 197.648L17.5468 197.754L17.685 197.699L19.2744 195.86L21.0988 194.262L23.1028 192.939L25.2405 191.935L27.3966 191.309L29.4974 191.06L30.5386 191.078L31.5752 191.193L32.5518 191.401L33.5147 191.7L34.8692 192.318L36.1637 193.156L37.3477 194.179L38.4534 195.423L38.6193 195.552L38.8266 195.598L42.1206 195.662L45.5022 196.054L49.0358 196.777L52.7029 197.832L56.4484 199.177L60.521 200.905L64.9161 202.992L70.8038 206.005L72.2458 206.751L72.3011 206.848L72.2366 206.936H72.1675L69.7949 206.046L66.6575 204.881L64.3725 204.139L62.3684 203.642L60.6085 203.384L60.4887 203.393L60.5901 203.453L64.3679 205.171L67.9291 207.092L71.3291 209.258L74.4803 211.607L77.4011 214.155L80.0547 216.864L82.478 219.78L84.6111 222.83L85.0349 223.645L84.3485 223.032L81.4 220.089L79.5019 218.398L77.5347 216.79L77.3965 216.772L77.3182 216.891L77.3412 216.97L77.9402 217.822L79.1979 219.771L80.3404 221.766L81.3954 223.848L82.3398 225.972L83.1737 228.146L83.8924 230.362L84.5143 232.647L85.0211 234.965L85.422 237.323L85.703 239.701L85.8734 242.142L85.9333 244.593L85.8734 247.058L85.703 249.527L85.422 251.992L85.0257 254.448L84.9612 254.563L84.7447 254.6L84.6157 254.425L84.436 252.642L84.155 250.914L83.7726 249.196L83.2935 247.537L82.7084 245.92L82.0358 244.368L81.271 242.875L80.4187 241.451L78.8661 239.291L77.1062 237.305L75.1114 235.471L72.9277 233.822L70.5504 232.366L68.0028 231.104L65.2985 230.054L62.4513 229.21L62.3408 229.192L62.4421 229.243ZM46.5295 -12.6072L46.5479 -11.5108L46.4374 -10.4742L46.2024 -9.49751L45.843 -8.58067L45.387 -7.76988L44.8249 -7.01432L44.143 -6.30941L43.3553 -5.65983L43.2401 -5.4986L43.2309 -5.32355L43.3185 -5.17149L43.4705 -5.08398L43.6455 -5.08856L49.5195 -6.96365L50.8693 -7.34598L52.1178 -7.56252L53.3064 -7.62242L54.5042 -7.5303L56.0292 -7.16633L57.5449 -6.53056L59.1112 -5.60915L61.2259 -4.11188L64.0914 -2.13084L65.2708 -1.45823L66.4318 -0.910027L68.6202 0.00679207L74.4019 2.48076L78.5851 4.494L81.1052 5.75176L82.994 6.55798L84.7263 7.11541L86.4032 7.44711L87.6793 7.56231L89.0338 7.55306H91.2175L93.3184 7.76502L95.3316 8.19347L97.2573 8.83385L98.5611 9.4097L99.8234 10.0961L101.044 10.884L102.224 11.7777L102.56 11.8607L102.836 11.6487L102.869 11.5658L103.293 9.15173L103.394 6.74683L103.164 4.3512L102.611 2.0477L101.754 -0.0899391L100.593 -2.05715L99.1831 -3.76636L98.3722 -4.53572L97.4969 -5.24058L96.1655 -6.11132L94.705 -6.83464L93.1709 -7.38286L91.5216 -7.77444L86.03 -8.68203L84.9796 -8.86632L82.3905 -9.52512L79.8014 -10.4742L77.0879 -11.7549L73.5082 -13.7129L70.7394 -15.247L68.9887 -16.104L67.2427 -16.795L65.6395 -17.3018L64.027 -17.698L62.3638 -17.9928L60.5855 -18.2001L56.7571 -18.3475L52.0672 -18.1494L50.662 -18.1034L49.2707 -18.1633L47.8563 -18.3199L46.3452 -18.5825L43.1572 -19.421L39.2274 -20.7985L37.486 -21.3974L35.7215 -21.8949L33.8879 -22.2911L32.0405 -22.586L30.1654 -22.7703L28.2811 -22.8532L26.3508 -22.8348L24.4158 -22.7104L22.4532 -22.4754L20.5045 -22.1391L18.5649 -21.7061L16.653 -21.1716L14.7411 -20.5313L12.8661 -19.7988L11.0232 -18.9741L9.22651 -18.0573L7.49429 -17.0622L5.81271 -15.9841L4.19104 -14.8278L2.62929 -13.5885L1.14581 -12.2801L-0.263931 -10.898L-1.56771 -9.48367L-2.78857 -8.00478L-3.9173 -6.47989L-4.95388 -4.89504L-5.87991 -3.29643L-6.70914 -1.64714L-7.44165 0.039053L-8.07285 1.7759L-8.5842 3.50815L-8.99882 5.28183L-8.98499 5.49374L-8.86986 5.67342L-8.68557 5.77479L-8.469 5.76553L-8.29859 5.66883L-7.57067 5.04687L-6.34057 4.25447L-4.93547 3.64171L-3.41054 3.22251L-1.72895 2.98755L0.113815 2.92304L2.13634 3.029L4.37533 3.29618L7.38833 3.79378L9.30942 4.15772L15.9712 5.38779L20.7257 6.09268L23.8769 6.32764L24.8397 6.26313L25.4155 6.06965L25.9039 5.54444L27.4565 2.7157L28.6128 0.398413L29.5619 -1.77151L30.3128 -3.84005L30.8749 -5.85334L31.248 -7.82055L31.4277 -9.72325L31.4185 -11.5707L31.4277 -11.6812L31.4692 -11.5798L31.9898 -9.61265L32.3215 -7.62241L32.4551 -5.76116L32.432 -3.87691L32.4689 -3.72951L32.6025 -3.79863L33.3765 -4.47581L34.0399 -4.88124L34.6112 -5.08856L35.2976 -5.21296L38.2922 -5.67825L40.5588 -6.30021L41.5217 -6.69641L42.4247 -7.17095L43.2171 -7.70538L43.9496 -8.33189L44.7235 -9.18879L45.4054 -10.1977L45.9721 -11.3265L46.4466 -12.621L46.5019 -12.727L46.5295 -12.6072ZM46.2208 7.66365L46.1471 9.08261L45.949 10.4739L45.6173 11.8837L45.1566 13.2704L45.152 13.4316L45.3132 13.4408L46.6907 13.1368L48.5566 12.8696L50.8325 12.5194L52.3666 12.0956L53.6427 11.5704L54.9972 10.9024L58.4525 8.89374L61.3779 7.17992L61.47 7.14303L61.4055 7.22137L55.3151 12.8696L55.2506 12.9848L55.3243 13.2059L55.5546 13.2428L58.9868 11.9297L62.4744 10.7918L65.9573 9.83817L69.4909 9.05495L69.5232 9.04576L69.7488 8.85688L69.7581 8.56202L69.2283 7.53467L68.4082 6.35525L67.3025 5.02842L65.9757 3.64171L64.5199 2.28266L63.0134 1.02496L61.4378 -0.14983L59.8945 -1.16799L58.494 -1.96499L57.1855 -2.59153L55.9463 -3.05685L54.753 -3.37015L53.7072 -3.50377L52.726 -3.46688L51.869 -3.2642L51.0997 -2.88639L50.8785 -2.72976L50.3717 -2.22297L49.8604 -1.46744L48.6994 1.04338L47.7181 3.18563L47.2896 3.78917L46.8981 4.11165L46.7552 4.17154L46.336 4.1946L45.8753 4.05178L44.4978 3.17644L43.2401 2.32415L42.2036 1.78972L41.2268 1.49028L40.2732 1.41194L39.5868 1.49028L38.8727 1.69757L38.1724 2.01549L37.4491 2.47618L31.589 6.53955L27.286 9.49727L24.2454 11.7132L21.6516 13.7726L19.3804 15.7904L17.3303 17.8682L15.5289 20.0013L13.9717 22.1896L12.6311 24.47L11.4056 27.0684L10.4243 29.805L9.65495 32.7396L9.12054 35.831L8.83953 38.4017L8.65065 41.1981L8.47559 48.6246L8.43873 51.868L8.45713 51.9186L8.54005 51.9509L8.60455 51.8864L9.75174 47.4821L11.1154 43.3404L12.6772 39.4982L14.4555 35.9L16.4595 32.5553L18.6893 29.4686L21.1218 26.6491L23.7709 24.0923L26.3232 22.0191L29.0229 20.1671L31.4784 18.7804L34.906 17.1633L38.3567 15.5278L40.7108 14.1549L42.632 12.6577L43.4428 11.8514L44.203 10.9577L45.2441 9.38209L46.0872 7.63602L46.1886 7.47478L46.2208 7.66365ZM-16.6695 30.086L-14.4213 30.906L-12.2929 31.9656L-10.3165 33.2464L-8.51974 34.7391L-6.96717 36.3792L-5.63111 38.1943L-4.55766 40.1155L-3.73301 42.184L-3.33685 43.6214L-3.06501 45.1187L-3.00515 45.1924L-2.913 45.1786L-2.88531 45.1325L-2.37855 42.4512L-2.20814 39.6916L-2.39701 36.9551L-2.92683 34.3751L-3.3138 33.1727L-3.77911 32.0117L-4.31351 30.9336L-4.93082 29.9109L-5.61729 28.9619L-6.38667 28.0773L-7.20209 27.2942L-8.09583 26.5754L-9.00805 25.9719L-9.99393 25.4421L-11.0075 25.0044L-12.0901 24.6405L-12.2007 24.5944L-12.0809 24.5898L-10.2473 24.8202L-8.48288 25.2716L-6.77824 25.9397L-5.1474 26.8335L-3.87125 27.7963L-2.82086 28.9296L-2.34167 29.6253L-2.21731 29.6944L-2.09294 29.6161L-2.07912 29.5378L-2.34632 27.5291L-2.77476 25.5941L-3.35526 23.7329L-4.09235 21.9454L-4.92165 20.3422L-5.88449 18.7988L-6.98558 17.3245L-8.22485 15.9102L-8.25249 15.772L-8.13735 15.6891L-8.05438 15.7167L-6.57096 16.9053L-5.19809 18.1769L-3.94035 19.5313L-2.78857 20.9687L-1.70596 22.5489L-0.747704 24.2213L0.0954132 25.9811L0.814102 27.8332L0.892426 27.9023L0.993805 27.8746L1.02144 27.8332L1.80458 25.8798L2.92413 23.7283L4.38914 21.3327L6.55444 18.1032L8.3604 15.4126L9.55363 13.3579L10.2078 11.6856L10.3506 10.9715L10.3829 10.285L10.2861 9.69075L10.0604 9.14251L9.73328 8.69103L9.26797 8.29942L8.70592 7.98154L8.00565 7.72813L6.20433 7.27665L4.35692 6.94957L2.46799 6.75144L0.639046 6.69155L-1.084 6.7745L-2.66879 6.9864L-4.16151 7.34576L-5.46987 7.82491L-6.76448 8.49752L-8.0452 9.37286L-9.35816 10.4601L-11.0997 12.0956L-13.3202 14.1549L-15.0709 15.4771L-15.5961 15.8135L-18.0102 17.1817L-20.6684 18.398L-23.7505 19.5728L-28.293 21.0839L-32.7895 22.572L-34.6415 23.2907L-36.3645 24.1521L-37.8848 25.1012L-39.1932 26.1378L-40.2805 27.2573L-41.1189 28.4183L-41.7363 29.6806L-42.0864 30.9521L-42.197 32.0854L-42.1187 33.2833L-41.8561 34.4857L-41.3954 35.7434L-40.5016 37.4111L-39.2716 39.0973L-37.6821 40.8572L-35.268 43.216L-33.5404 44.8837L-32.384 46.2059L-31.4672 47.6618L-30.9743 48.7628L-30.6104 49.8962L-30.357 51.1032L-30.2096 52.4254L-30.1635 53.8259L-30.2187 55.3647L-30.6518 59.5202L-31.048 63.1182L-31.1678 65.7535L-31.0987 67.7345L-30.8914 69.7017L-30.5504 71.692L-30.0806 73.6591L-29.4678 75.6678L-28.7261 77.635L-27.8553 79.6022L-26.8649 81.5233L-25.7361 83.4399L-24.506 85.2965L-23.1516 87.1208L-21.7004 88.8669L-20.1479 90.5531L-18.517 92.1471L-16.817 93.6444L-15.057 95.0357L-13.3893 96.1828L-10.9706 97.6479L-8.17422 99.3571L-6.31757 100.725L-5.18886 101.73L-4.06472 102.868L-1.92247 105.434L0.224426 108.539L2.94718 113.012L3.96994 114.731L5.17234 116.615L6.4623 118.384L7.80753 119.996L9.24033 121.485L10.7468 122.839L12.3362 124.069L13.9763 125.138L15.6994 126.078L17.9614 127.064L20.3571 127.833L22.8449 128.372L25.4616 128.685L26.8299 128.695L27.9218 128.501L28.7971 128.105L29.3914 127.538L29.6494 127.077L29.7968 126.561L29.8475 125.953L29.7876 125.295L29.373 123.853L28.5667 122.254L26.2863 118.67L23.7524 115.021L20.9698 111.317L17.9338 107.553L12.9997 101.684L5.99241 93.308L1.02144 87.0932L-3.24007 81.3713L-6.87038 76.0317L-8.35845 73.5532L-9.70368 70.9687L-10.8969 68.2827L-11.9427 65.4909L-12.689 62.9156L-13.569 59.0457L-14.6148 54.6322L-15.1815 52.9552L-16.2319 50.6517L-17.5725 48.4633L-19.2034 46.3856L-21.1245 44.4184L-21.2028 44.3355L-21.1107 44.4L-19.4429 45.6853L-17.8903 47.0168L-16.453 48.3989L-15.1216 49.827L-13.9053 51.3059L-12.8042 52.8308L-11.8137 54.4064L-10.9338 56.0281L-7.91619 61.7546L-6.58936 64.0305L-5.38232 65.9147V65.9193H-5.3455L-5.24413 65.8226L-5.22566 65.6705L-5.92595 64.3668L-6.52027 63.04L-7.00863 61.6855L-7.38638 60.308L-7.68121 58.7462L-7.84245 57.1476L-7.87009 55.5213L-7.76419 53.8628L-7.48311 50.5872L-7.38638 47.8091L-7.45089 45.2937L-7.69504 42.9856L-8.1143 40.8756L-8.71321 38.9407L-9.51945 37.1255L-10.5099 35.4854L-11.74 33.9328L-13.1544 32.5507L-14.7898 31.2838L-16.6879 30.1274L-16.7893 30.0629L-16.6695 30.086ZM65.7407 15.6891L69.735 16.0116L71.6746 16.3018L73.5496 16.675L75.374 17.1311L77.1339 17.6701L78.88 18.3013L80.5615 19.0107L83.6528 20.6002L86.6243 22.5074L89.4991 24.7649L92.2771 27.3586L94.9906 30.3209L97.6627 33.6795L100.344 37.4803L103.15 41.8984L107.568 49.3387L110.682 55.1113L112 57.8294L113.165 60.46L114.17 62.9801L115.031 65.4494L115.768 67.9234L116.358 70.3421L116.814 72.7516L117.114 75.0965L117.279 77.4369L117.293 79.6989L117.169 81.9518L116.897 84.223L116.565 86.052L116.57 86.0935L116.676 86.0797L117.422 83.3661L118.044 80.6434L118.546 77.9022L118.924 75.1472L119.191 72.2356L119.325 69.3055L119.32 66.3616L119.182 63.3993L118.795 60.1007L118.095 56.7284L117.054 53.098L115.391 48.2192L115.257 47.8414L114.649 45.994L114.289 44.5843L114.114 43.2206L114.119 41.7694L114.299 40.1569L114.686 38.0792L115.059 36.0336L115.169 34.5963L115.04 33.4076L114.663 32.4033L114.336 31.8966L113.907 31.422L112.806 30.6204L111.276 29.934L109.355 29.3903L106.296 28.8467L103.306 28.6025L103.177 28.5887L102.85 28.4505L102.611 28.1833L102.505 27.847L102.551 27.4923L103.048 25.737L103.26 24.0784L103.191 22.5167L102.846 21.0516L102.302 19.8446L101.542 18.7113L100.565 17.6563L99.3674 16.675L97.7134 15.5831L95.995 14.6433L94.1614 13.8232L92.2726 13.146L90.2408 12.5885L88.1677 12.1739L85.9839 11.8883L83.768 11.7455L81.4507 11.7363L79.0274 11.8699L76.6041 12.1325L74.1025 12.5425L71.587 13.0769L69.0255 13.7541L66.5193 14.5465L64.0039 15.4679L63.8979 15.5371L64.0177 15.5739L65.7407 15.6891ZM142.024 29.1001L141.217 29.5608L140.503 29.934L139.31 30.5927L138.209 31.3115L137.159 32.1131L136.196 32.9792L135.297 33.9191L134.487 34.9142L133.731 35.9968L133.063 37.1301L132.436 38.3786L131.893 39.6686L130.995 42.5019L130.354 45.6254L129.958 49.0853L129.778 53.0105L129.806 57.8294L129.603 59.5709L128.935 62.5654L128.931 62.5839L129.041 62.6807L129.295 62.4641L131.455 56.8481L132.708 53.8536L133.556 52.2043L134.496 50.6379L135.532 49.1498L136.661 47.7447L138.734 45.5932L141.065 43.6675L143.655 41.9582L146.502 40.4748L146.608 40.4334L146.516 40.5024L144.35 42.0412L142.425 43.7366L140.738 45.5794L139.296 47.5788L138.32 49.2881L137.495 51.094L136.822 52.9967L136.306 55.0007L135.542 59.9948L134.929 64.2839L134.408 66.9559L133.897 68.8586L133.289 70.7153L132.589 72.5258L131.796 74.2949L130.852 76.1147L129.806 77.8884L128.65 79.6068L127.392 81.2792L127.369 81.3437L127.433 81.4358L127.539 81.4174L130.211 79.2383L132.98 77.248L135.846 75.4421L138.803 73.825L141.913 72.3646L145.12 71.1023L148.423 70.0288L151.827 69.1489L151.897 69.1581L151.943 69.2548L151.874 69.3332L149.409 70.1532L147.05 71.1391L144.797 72.2816L142.655 73.59L139.918 75.631L137.384 77.9667L135.049 80.6065L132.911 83.5458L130.852 87.084L127.645 93.1699L127.571 93.3818L127.756 93.2482L129.99 91.1244L132.312 89.1065L134.523 87.365L136.809 85.7111L137.085 85.5453L136.859 85.7756L135.307 87.2913L133.782 89.0051L132.238 90.9585L130.253 93.6859L127.548 97.3392L125.379 99.827L124.277 100.887L123.167 101.822L121.988 102.679L120.795 103.407L119.081 104.254L117.275 104.932L117.169 104.978L117.284 104.982L118.846 104.803L120.454 104.498L122.043 104.079L123.674 103.531L125.356 102.854L127.111 102.043L131.303 99.7994L131.409 99.7533L131.335 99.8408L128.645 102.209L125.83 104.397L122.642 106.562L119.302 108.516L108.697 114.164L94.6958 121.673L89.4024 124.663L84.6203 127.488L78.8891 131.136L73.2272 135.085L67.6066 139.36L62.0735 143.925L62.0275 144.077L62.1473 144.183L62.244 144.165L65.3261 142.428L68.2193 140.986L70.9559 139.825L73.6141 138.904L76.2079 138.231L78.7648 137.793L81.2756 137.595L83.7404 137.632L85.9057 137.858L89.8262 138.461L92.0744 138.752L94.295 138.89H96.5294L98.727 138.742L100.671 138.494L102.588 138.134L104.518 137.655L106.407 137.07L108.282 136.374L110.111 135.573L111.944 134.656L113.732 133.642L115.51 132.509L117.238 131.284L118.952 129.943L120.61 128.51L122.218 126.985L123.775 125.382L125.296 123.664L126.756 121.876L128.378 119.909L129.834 118.384L131.257 117.168L132.727 116.186L133.948 115.555L138.753 113.298L141.604 111.787L143.157 110.787L144.691 109.695L146.188 108.502L147.644 107.23L149.017 105.899L150.326 104.498L151.533 103.07L152.661 101.582L153.666 100.099L154.578 98.5739L155.375 97.049L156.07 95.4964L156.632 93.9761L157.093 92.4327L157.43 90.9216L157.651 89.3921L157.761 87.7059L157.711 85.7986L157.48 83.8591L157.079 81.8228L156.379 79.1092L155.605 76.0548L155.416 74.6266L155.513 73.3551L155.78 72.4107L156.25 71.4155L156.914 70.3882L157.849 69.1949L158.954 67.7391L159.913 66.2419L161.009 64.0766L161.871 61.75L162.502 59.2576L162.893 56.6086L163.05 53.7845L162.972 50.7853L162.663 47.5419L162.12 44.0499L161.894 42.0596L161.917 40.0187L162.179 37.9225L162.672 35.8954L163.165 34.3521L164.004 31.6892L164.543 29.6529L164.893 27.8193L165.054 26.17L165.017 24.6958L164.782 23.4058L164.331 22.2678L163.686 21.3511L162.857 20.6231L162.12 20.2316L161.157 19.9183L159.963 19.6833L158.544 19.5267L154.785 19.3332L151.049 19.1397L148.501 18.8541L146.589 18.4855L144.511 17.9511L139.034 16.1728L133.763 14.4498L131.75 13.9153L129.889 13.5237L127.037 13.1322L124.185 12.934L121.633 12.9479L119.38 13.1736L117.556 13.5929L116.086 14.2102L115.506 14.5834L115.004 15.0118L114.617 15.4679L114.312 15.9839L114.077 16.6289L113.967 17.3568L114.054 18.7389L114.488 20.1855L115.271 21.6966L116.399 23.2446L117.86 24.834L119.643 26.4603L121.762 28.1418L124.554 30.1459L125.162 30.5743L125.342 30.6111L125.484 30.5006L125.494 30.4822L128.355 23.779L128.451 23.6776L128.663 23.7053L128.728 23.908L126.604 31.8735L126.659 32.067L126.857 32.0992L126.95 32.0209L127.701 30.8784L128.525 29.8234L129.419 28.8559L130.386 27.976L131.501 27.1282L132.704 26.3819L133.984 25.7324L135.348 25.1841L135.449 25.1611L135.371 25.2302L134.155 26.1378L132.542 27.6535L131.11 29.4133L129.875 31.4128L128.838 33.638L128.018 36.0705L127.406 38.6873L127.005 41.5252L126.816 44.5105L126.83 44.6303L126.876 44.5197L127.862 41.6542L129.11 39.0558L130.626 36.7201L131.487 35.6512L132.413 34.6469L134.422 32.864L136.693 31.3391L139.218 30.0675L142.001 29.0494L142.12 29.0264L142.024 29.1001ZM66.7819 28.8329L70.8131 28.8237L74.8304 28.6578L79.3959 28.2662L83.9477 27.6673L84.0582 27.6305L83.9477 27.6028L82.0496 27.3126L79.7507 26.7827L77.3873 26.0364L74.7751 25.0321L71.0204 23.415L67.9337 22.0698L65.8052 21.3372L63.4741 20.8766L61.1107 20.7245L58.8395 20.8858L56.7617 21.3557L54.9143 22.1113L54.1034 22.5858L53.3433 23.134L52.6752 23.7329L52.0625 24.4056L51.8322 24.7004L51.5281 24.8847L51.1826 24.811L48.8284 23.3736L47.7043 22.8299L46.5802 22.3831L45.5022 22.056L44.4195 21.8302L43.3691 21.715L42.3095 21.7012L41.0564 21.821L39.7895 22.102L38.5364 22.5213L37.2648 23.1064L36.2052 23.6915L33.9017 25.2164L31.7364 27.0315L29.7645 29.0863L27.9448 31.4174L26.2909 34.0065L24.8074 36.8583L23.476 39.9865L22.3289 43.3542L21.3337 47.026L20.5275 50.9189L19.8964 55.0652L19.4495 59.4004L19.1868 63.9936L19.1178 68.702L19.2329 73.5117L19.5416 78.3629L19.56 78.3767L19.6798 78.3306L19.7489 78.2385L19.8364 75.0458L20.1451 70.5033L20.5183 67.3705L21.0665 64.27L21.7852 61.2064L22.6744 58.2026L23.7202 55.3001L24.9318 52.4807L26.2817 49.7948L27.7928 47.2149L29.4144 44.81L31.1789 42.5295L33.0586 40.4195L35.0765 38.4477L37.1681 36.6832L39.3887 35.0662L41.6921 33.6426L44.1154 32.3849L46.4788 31.3713L48.9528 30.5191L51.4774 29.8418L54.0988 29.335L56.5589 29.0356L59.3554 28.8605L62.5988 28.7914L66.7819 28.8329ZM75.5629 35.2643L76.8529 35.5499L78.0967 35.9277L79.2854 36.3976L80.4233 36.9642L81.7455 37.7797L82.9894 38.7334L83.7772 39.4843L84.4452 40.2952L85.0625 41.2534L85.5463 42.2761L85.9241 43.3956L86.1729 44.5612L86.3157 45.8419L86.3295 47.1596L86.2235 48.5601L86.0024 49.9745L85.6385 51.5178L85.1639 53.0427L84.5696 54.6045L83.8785 56.111L83.077 57.6129L82.2108 59.0135L81.2756 60.3172L80.3173 61.4598L78.2258 63.579L75.913 65.6061L73.4483 67.4673L70.7808 69.2088L67.9705 70.7982L64.9852 72.2402L61.9308 73.4887L58.7427 74.576L58.7289 74.6865L58.7703 74.6957L64.7364 73.4242L67.4039 72.7285L69.9239 71.9683L72.2781 71.1529L74.4987 70.273L76.5442 69.3423L78.4377 68.3518L80.2114 67.2876L81.8146 66.1727L83.3119 64.9657L84.6295 63.7218L85.7997 62.4227L86.8455 61.0313L87.73 59.5939L88.4856 58.0644L89.1306 56.3414L89.6097 54.5078L89.9046 52.6235L90.0197 50.624L89.8631 48.1593L89.2826 44.5244L88.7251 41.106L88.398 39.5718L87.8544 38.4385L86.9238 37.4342L85.5785 36.5174L83.9201 35.7434L81.9805 35.1306L79.8383 34.7114L77.7329 34.541L75.8071 34.6331L74.2637 34.974L74.1486 35.0477L74.2683 35.1169L75.1068 35.2182L75.5629 35.2643ZM66.4411 39.0098L64.8746 38.784L63.3451 38.7702L61.7142 38.9913L60.1524 39.429L58.6229 40.1016L57.1855 40.9769L55.808 42.0781L54.5642 43.3542L53.4722 44.7824L52.5463 46.3441L52.5002 46.4547L52.5785 46.3672L53.4999 45.2569L54.4904 44.2664L55.5546 43.4003L56.688 42.6493L58.0056 41.9721L59.4015 41.4377L60.8804 41.0461L62.4468 40.7973L63.9486 40.6775L65.4137 40.6683L66.7912 40.765L68.1272 40.9724L69.3665 41.281L70.5551 41.7002L71.6515 42.2163L72.6927 42.8428L73.7754 43.6674L74.7797 44.6395L75.6781 45.7222L76.4981 46.9569L76.5673 47.049L76.5442 46.9339L75.821 45.0357L74.9179 43.2436L73.8307 41.5483L72.6283 40.0556L71.3245 38.784L69.9654 37.7659L68.5003 36.9735L67.0216 36.4529L65.6578 36.1811L64.2481 36.0567L62.8199 36.0797L61.3917 36.2548L60.0143 36.5726L58.6874 37.0334L57.4666 37.6138L56.3378 38.3371L55.3427 39.2309L54.0989 40.6775L52.6614 42.3269L52.62 42.5157L52.772 42.6309L52.8918 42.5986L55.5869 40.7881L57.849 39.5903L58.9178 39.1618L60.0096 38.8255L61.0692 38.5998L62.1565 38.4753L63.1977 38.4569L64.2711 38.5352L65.3399 38.7103L66.4456 38.9913L66.5562 39.0282L66.4411 39.0098ZM76.5074 41.7832L77.484 43.9623L78.1337 46.1921L78.4516 48.4588L78.4285 50.7347L78.235 52.1628L77.9033 53.5771L77.4333 54.9823L76.8206 56.3598L76.7883 56.475L76.8897 56.4059L77.5162 55.7517L78.0599 55.0514L78.8569 53.637L79.3959 52.0338L79.6447 50.3476L79.6171 48.5325L79.2992 46.6666L78.7187 44.8515L77.871 43.11L76.8068 41.5298L76.6963 41.4607L76.5856 41.4883L76.4889 41.622L76.5074 41.7832ZM44.1753 42.0827L43.5165 45.2891L43.2171 48.4818L43.2908 51.5731L43.4612 53.0842L43.7284 54.5631L44.074 55.9682L44.5116 57.3365L45.0368 58.6587L45.6542 59.9349L46.3498 61.1373L47.1376 62.289L47.9854 63.3395L48.9159 64.3299L49.8603 65.196L50.8832 66.0023L53.076 67.3752L54.2739 67.9602L55.5408 68.4809L58.2037 69.2733L58.2912 69.2457L58.305 69.1535L58.2682 69.112L56.6281 68.1215L55.0893 67.0342L53.6243 65.8364L52.2653 64.5465L50.3349 62.3397L48.6718 59.9487L47.2528 57.3319L46.1195 54.5723L45.2441 51.6146L44.6637 48.5555L44.3689 45.3628L44.3734 42.1103L44.355 42.0458L44.2537 42.009L44.1753 42.0827ZM56.969 49.6934L58.6091 48.7813L60.3644 48.0534L62.1611 47.5512L63.8979 47.2932L65.5841 47.2794L67.1367 47.5051L68.6155 47.9797L69.9239 48.6753L71.1954 49.7026L72.2597 50.9604L72.3472 51.0433V50.9189L72.0201 49.7534L71.5134 48.6385L70.8499 47.6111L70.0483 46.7035L69.173 45.9802L68.1963 45.4135L67.1966 45.0496L66.1278 44.8791L64.7318 44.9667L63.2115 45.3444L61.7649 45.8973L60.4473 46.5929L59.1988 47.4499L58.024 48.468L56.9229 49.6427L56.8584 49.7442L56.969 49.6934ZM39.7572 75.6217L39.9553 77.7732L40.1073 79.5101L40.7293 81.9932L41.6829 84.352L42.9499 86.5265L44.5577 88.5629L46.4466 90.3918L48.6579 92.0642L51.1549 93.5476L53.9376 94.8468L57.0105 95.9525L60.3229 96.8509L64.0039 97.5557L67.8507 98.0164L71.8496 98.233L75.8854 98.1915L79.8797 97.8967L83.7404 97.353L87.2878 96.579L90.4297 95.6024L90.5357 95.5563L90.4205 95.5747L87.2969 96.1967L84.1918 96.5836L81.1005 96.7357L78.0231 96.6574L74.9687 96.3441L71.928 95.7959L68.9011 95.0173L65.8928 94.0084L62.5804 92.6216L59.2356 90.9263L55.9094 88.9591L52.7213 86.78L49.6623 84.3889L46.8198 81.855L44.2168 79.2014L41.8857 76.4556L39.8678 73.696L38.1447 70.8996L36.6981 68.0432L35.5694 65.1823L34.7448 62.3167L34.2426 59.4834L34.0445 56.6178L34.1643 53.8121L34.4223 51.9325L34.8323 50.0482L35.3805 48.1962L36.0808 46.3396L36.0578 46.1875L35.9103 46.1414L35.832 46.1921L33.6944 49.1314L31.916 52.1721L30.4971 55.3048L29.9212 56.9081L29.4328 58.5343L28.857 61.105L28.4976 63.7264L28.3502 66.4077L28.4147 69.1489L28.5437 70.273L28.7971 71.3925L29.1518 72.4198L29.6218 73.3827L30.1516 74.1751L30.7827 74.8708L31.4692 75.419L32.2524 75.8383L33.1277 76.1147L34.0998 76.2299L35.3345 76.147L37.1773 75.8152L39.49 75.419L39.6604 75.4697L39.7572 75.6217ZM109.295 87.8073L109.489 86.0382L109.48 84.5041L109.259 83.2095L108.821 82.0715L108.135 81.0303L107.195 80.0905L105.965 79.1968L104.352 78.28L104.251 78.2201L104.034 77.9713L103.933 77.658L103.979 77.3309L104.154 77.0499L104.209 76.9946L105.651 75.4928L106.554 74.4331L107.208 73.461L107.665 72.512L107.936 71.5998L108.098 70.5817L108.139 69.4668L108.075 68.1952L107.849 66.2419L107.531 64.3484L107.116 62.5102L106.61 60.7318L106.011 59.0088L105.315 57.3457L104.527 55.7379L103.647 54.1853L102.362 52.2596L101.593 51.2783L100.777 50.3891L99.9156 49.5921L99.0495 48.9379L98.1557 48.4035L97.2988 48.0165L96.4234 47.7539L95.5113 47.6157L94.8571 47.6618L94.3688 47.8875L94.1061 48.1501L93.9126 48.4772L93.7145 49.371L93.7883 50.5964L94.12 51.8357L95.9581 56.7836L97.3218 60.9668L98.2432 64.4221L98.9481 67.8497L99.4364 71.2405L99.7083 74.6036L99.7682 77.9482L99.6115 81.2515L99.2384 84.5087L98.6533 87.7244L97.8885 90.7558L96.9349 93.7365L95.7877 96.6666L94.4517 99.5506L92.9221 102.375L91.1991 105.143L89.2918 107.857L87.1956 110.506L83.9431 114.155L80.2575 117.836L76.0328 121.65L70.5873 126.225L70.5044 126.308L70.6057 126.253L75.7195 123.111L80.3726 120.079L84.6756 117.085L88.6929 114.086L92.4016 111.091L95.8476 108.064L99.0034 105.028L101.91 101.951L103.182 100.417L104.472 98.643L105.688 96.7449L106.775 94.81L107.683 92.9349L108.411 91.1335L108.959 89.3967L109.295 87.8073ZM60.0833 52.8216L60.8619 51.5639L61.6727 50.6056L62.4697 50.0113L63.2622 49.781L65.0313 49.8086L66.547 50.0851L67.8001 50.6103L68.7952 51.3842L69.5185 52.3793L69.993 53.6186L70.2234 55.0929L70.2049 56.8067L70.228 56.9034L70.3754 56.9725L70.5044 56.8711L70.919 55.3877L71.0388 53.9596L70.8683 52.6788L70.3984 51.4902L69.6337 50.4582L68.5833 49.5967L67.3256 48.9978L65.9665 48.6845L64.5798 48.6707L63.2438 48.9655L62.0551 49.5507L61.1245 50.3799L60.7329 50.9005L60.4104 51.4948L60.0142 52.794L60.0096 52.9184L60.0833 52.8216ZM-10.7495 168.637L-10.0078 164.993L-9.12325 161.778L-8.07285 158.903L-6.84274 156.35L-5.45147 154.162L-3.87585 152.305L-3.04196 151.527L-2.14362 150.813L-1.22218 150.2L-0.245529 149.661L0.860146 149.177L2.03497 148.79L3.23737 148.514L4.51351 148.334L4.63329 148.302L4.52274 148.247L2.68456 147.791L0.897011 147.542L-0.89048 147.496L-2.61352 147.648L-4.79723 148.136L-6.95335 148.961L-8.99422 150.09L-10.9706 151.541L-12.8549 153.301L-14.624 155.36L-16.2272 157.645L-17.6738 160.165L-18.9546 162.57L-19.0191 162.667L-18.9961 162.551L-17.7338 159.221L-16.172 156.056L-14.3798 153.195L-13.4124 151.891L-12.3758 150.652L-11.33 149.551L-10.2289 148.523L-9.10019 147.606L-7.92078 146.777L-6.74143 146.072L-5.51133 145.455L-4.27206 144.957L-2.98669 144.552L-2.86691 144.501L-2.72407 144.354L-2.66421 144.16L-2.69185 143.958L-2.81163 143.792L-4.94006 142.046L-7.15605 140.465L-9.4503 139.056L-11.8137 137.816L-14.2416 136.757L-16.734 135.877L-19.2356 135.19L-21.7879 134.693L-24.3632 134.384L-26.98 134.26L-29.583 134.329L-32.2136 134.587L-32.3333 134.592L-32.2228 134.545L-30.2556 133.988L-28.27 133.537L-25.5242 133.108L-22.5942 132.859L-19.2402 132.767L-14.2969 132.804L-11.588 132.836L-9.44113 132.693L-7.74113 132.555L-7.63053 132.541L-7.73655 132.514L-9.71291 132.173L-11.6617 131.721L-14.389 130.892L-17.8766 129.823L-21.106 129.146L-24.1559 128.842L-27.0998 128.906L-29.1683 129.169L-31.2645 129.63L-33.3608 130.27L-35.503 131.113L-35.6136 131.145L-35.5306 131.063L-33.5266 129.685L-31.458 128.524L-29.3342 127.584L-27.1459 126.861L-24.5936 126.308L-21.9676 126.041L-19.2586 126.05L-16.476 126.345L-16.3517 126.308L-16.3055 126.193L-16.3101 126.161L-16.9506 124.405L-17.7706 122.798L-18.5445 121.627L-19.4153 120.549L-20.4058 119.527L-21.4839 118.601L-22.6955 117.73L-23.9809 116.96L-25.3768 116.274L-26.8326 115.689L-28.3944 115.187L-29.9976 114.795L-31.6699 114.505L-33.3607 114.33L-35.0745 114.261L-36.7791 114.307L-38.4514 114.463L-40.0869 114.726L-40.2067 114.735L-40.1054 114.68L-38.4192 113.994L-36.7146 113.413L-34.9916 112.948L-33.2455 112.588L-31.3014 112.321L-29.3342 112.183H-27.3393L-25.326 112.317L-23.8841 112.713L-21.5114 113.699L-21.3779 113.717L-21.3871 113.579L-22.1288 111.828L-22.9903 110.082L-23.9716 108.345L-25.0635 106.636L-26.2106 105.033L-27.4545 103.485L-28.7491 102.043L-30.122 100.679L-31.5041 99.4584L-32.9507 98.3297L-34.4065 97.3392L-35.913 96.4593L-37.3965 95.7313L-38.9167 95.1232L-40.4233 94.6579L-41.962 94.3216L-43.9016 94.0959L-45.8457 94.105L-47.1403 94.2479L-48.4072 94.4921L-49.7064 94.8514L-50.9825 95.3075L-53.6546 96.5606L-56.6584 98.3758L-56.7643 98.431L-56.6906 98.3343L-54.9123 96.5929L-53.0465 95.0265L-51.1438 93.6812L-49.172 92.5295L-47.191 91.608L-45.15 90.8894L-43.0999 90.3918L-41.0037 90.1108L-38.7095 90.0555L-36.3691 90.2674L-34.0426 90.7419L-31.6792 91.4883L-31.5686 91.4699L-31.5272 91.3639L-31.5502 91.3132L-32.7618 89.9495L-34.0656 88.7885L-35.4845 87.798L-36.9726 87.0057L-38.8108 86.3238L-40.7089 85.9046L-42.7129 85.7387L-44.7447 85.8309L-46.8454 86.1856L-48.9324 86.7845L-51.0332 87.646L-53.0787 88.7425L-53.1801 88.7932L-53.1018 88.7102L-51.7658 87.6138L-50.3744 86.6325L-48.9324 85.771L-47.4398 85.0247L-45.9839 84.4257L-44.4821 83.9328L-42.9295 83.5458L-41.3355 83.2601L-41.2894 83.2417L-41.2387 83.145L-41.294 83.0482L-42.7129 82.2788L-44.0766 81.6523L-45.4357 81.1363L-46.8132 80.7355L-48.1262 80.4637L-49.4531 80.3071L-50.7476 80.2702L-52.056 80.3578L-53.415 80.5835L-54.788 80.952L-54.9308 80.9797L-54.8156 80.8922L-52.7471 79.8095L-50.6969 79.0724L-48.6699 78.6716L-46.6612 78.6163L-44.717 78.8881L-42.7913 79.4824L-40.884 80.4038L-38.9951 81.6523L-38.8385 81.7122V81.5463L-40.2068 75.9074L-41.317 70.2223L-42.1279 64.8275L-42.7038 59.3912L-43.0585 57.014L-43.3487 55.9636L-43.6943 55.0698L-44.0997 54.3051L-44.5881 53.6232L-45.1363 53.0796L-45.7674 52.6373L-46.4723 52.3149L-47.2693 52.1168L-48.117 52.0522L-49.0614 52.1121L-51.6598 52.5912L-54.3226 53.3837L-56.9487 54.4479L-59.5746 55.7978L-62.15 57.4194L-64.5641 59.2438L-66.8169 61.2617L-68.8393 63.4131L-69.8897 64.7077L-70.8434 66.0299L-71.728 67.4166L-72.5157 68.831L-73.216 70.2822L-73.8149 71.7564L-74.3171 73.2491L-74.7271 74.7556L-75.2385 77.635L-75.4274 80.5466L-75.2845 83.5135L-74.8193 86.4804L-74.0268 89.4336L-72.9258 92.3498L-71.5206 95.2015L-69.816 97.9704L-69.6363 98.2376L-66.1903 103.245L-63.4261 106.991L-61.5234 109.244L-60.8969 109.82L-60.4592 110.032L-57.437 110.193L-55.4421 110.524L-54.6313 110.778L-53.8988 111.11L-53.2861 111.51L-52.7563 112.003L-52.1573 112.86L-51.7381 113.947L-51.517 115.219L-51.4801 116.753L-51.6321 118.541L-51.9592 120.443L-52.4614 122.507L-53.2768 125.336L-54.1983 128.566L-54.7373 130.952L-55.0413 133.159L-55.1058 135.26L-54.963 137.038L-54.6498 138.636L-54.1614 140.097L-53.4796 141.484L-52.7517 142.571L-51.8441 143.621L-50.8121 144.575L-49.6005 145.487L-48.2368 146.339L-46.6658 147.183L-42.2108 149.187L-41.4276 149.518L-39.5986 150.366L-37.9125 151.274L-36.3092 152.282L-34.8304 153.361L-33.4713 154.498L-32.1399 155.775L-30.8868 157.134L-29.6521 158.645L-28.4266 160.308L-27.1735 162.174L-24.179 167.117L-22.8429 169.264L-21.4746 171.176L-20.0372 172.894L-18.5722 174.373L-17.0703 175.631L-15.4717 176.709L-13.8408 177.561L-12.1132 178.225L-9.84652 178.759L-7.50616 178.957L-5.00456 178.828L-2.42458 178.372L1.2149 177.409L6.11678 175.93L9.37857 175.036L12.7601 174.364L16.2615 173.912L19.8871 173.687L21.8636 173.493L23.5083 173.055L24.1026 172.779L24.6001 172.434L24.9457 172.056L25.1668 171.609L25.2359 170.978L24.9963 169.881L24.4204 168.554L23.5036 167.011L22.2689 165.288L20.6703 163.335L18.8045 161.271L16.6668 159.096L14.5615 157.124L11.9999 154.959L10.0051 153.591L9.02382 153.075L8.10237 152.697L7.17176 152.425L6.20433 152.259L4.6978 152.227L3.1821 152.458L2.15934 152.739L0.256653 153.531L-1.54931 154.646L-3.27694 156.102L-4.89402 157.88L-6.41431 159.981L-7.8471 162.399L-9.24761 165.228L-10.7035 168.651L-10.7587 168.753L-10.7495 168.637ZM64.1744 53.2501L63.8611 53.4758L63.7828 53.637L63.8795 53.7891L63.9578 53.8121L64.331 53.8352H64.3448L64.483 53.7707L64.5337 53.6278L64.5061 53.3238L64.5705 53.1441L64.7502 53.075L64.7779 53.0796L65.492 53.2777L66.1231 53.6002L66.9294 54.3512L67.1321 54.4157L67.2657 54.3696L67.2703 54.365L67.3163 54.236L67.0814 53.8444L66.6299 53.3284L66.0955 52.923L65.4643 52.6143L64.7917 52.4392L64.1099 52.4024L63.4465 52.5083L62.866 52.7387L62.3546 53.098L62.0275 53.4528L61.7557 53.8905L61.4516 54.8902L61.47 55.2127L61.7004 54.9915L63.1286 52.9322L63.3036 52.771L63.5294 52.688L63.7644 52.7064L63.9762 52.8216L64.0131 52.8539L64.1881 53.0336L64.1836 53.2455L64.1744 53.2501ZM64.8239 54.7151L65.0404 54.6506H65.4643L65.8375 54.646L65.5518 54.4018L65.3952 54.3281L64.9345 54.2912L64.6305 54.4525L64.4969 54.7658L64.3217 57.2489L64.3725 57.4793L64.5798 57.3641L64.8239 57.1154L64.9391 56.908L64.9345 56.6685L64.7318 55.9774L64.7502 55.7563L64.9023 55.595L65.3676 55.4384L65.7269 55.4568L66.0264 55.6089L66.335 55.9083L66.6437 56.2077L66.9339 56.3506L67.0261 56.369L67.1873 56.3368L67.1275 56.1801L66.7404 55.7609L66.2982 55.4292L65.6302 55.1344L64.8654 54.9962L64.5291 54.904L64.8239 54.7151ZM53.9975 56.8574L56.1351 58.3454L58.4801 59.5801L60.931 60.5061L63.3681 61.0728L65.7361 61.2801L67.9843 61.1281L69.067 60.9208L70.1266 60.6167L71.1171 60.2297L72.08 59.7506L73.1672 59.0641L74.1992 58.2395L74.273 58.1151L74.1992 57.8709L73.9458 57.8248L71.3521 58.6725L68.7768 59.23L66.2245 59.4926L63.6906 59.4603L61.2812 59.1517L58.8901 58.5711L56.5175 57.7188L54.1633 56.5994L54.0573 56.5855L53.9422 56.7007L53.9975 56.8574ZM23.0982 95.0449L23.2364 95.0173L23.4852 95.0541L23.6925 95.2015L23.8123 95.4227L23.8262 95.6761L23.6234 97.2977L23.605 98.8549L23.7708 100.394L24.1164 101.859L24.7844 103.6L25.6966 105.208L26.8667 106.724L28.2488 108.083L29.8659 109.313L31.6534 110.359L33.6206 111.229L35.7122 111.888L37.8223 112.353L39.9231 112.658L42.0193 112.805L44.1062 112.796L46.571 112.579L49.0265 112.137L51.4728 111.478L53.9099 110.598L54.9926 110.216L56.0015 109.976L57.3099 109.847L58.8625 109.884L60.8665 109.962L62.8613 109.944L64.8931 109.824L66.9109 109.608L68.9749 109.281L71.0204 108.861L73.0936 108.341L75.1391 107.723L79.2623 106.194L83.3441 104.287L87.403 102.001L91.3603 99.3709L91.4479 99.2879L91.328 99.3064L90.0842 99.7026L83.7726 101.665L79.1564 102.96L74.7751 103.987L70.5551 104.752L68.0811 105.097L64.1605 105.452L60.2722 105.54L56.3885 105.369L52.5647 104.932L48.8008 104.241L45.1382 103.291L41.5862 102.098L38.1724 100.661L34.9198 98.9931L31.8285 97.095L28.9583 95.0035L26.277 92.6953L23.8538 90.2306L21.647 87.5723L19.7028 84.7667L17.9937 81.7859L16.7866 79.2198L15.7546 76.5385L14.9208 73.7928L14.2757 70.941L13.8289 68.0662L13.5709 65.0947L13.511 62.0863L13.6446 58.9904L13.6308 58.9397L13.5525 58.9029L13.4834 58.9582L12.7509 61.3446L12.1381 63.7495L11.6498 66.1635L11.2859 68.596L10.9495 72.5719L10.9357 76.5892L10.9127 78.6071L10.6915 81.3759L10.4566 84.4442L10.4704 86.7016L10.6592 88.2726L11.0324 89.862L11.576 91.3593L12.2533 92.6861L13.0595 93.8333L13.9533 94.7593L14.9853 95.5102L16.0679 96.0124L17.3993 96.3256L18.786 96.3487L20.1405 96.0907L21.9833 95.4549L23.0982 95.0449ZM75.6965 169.011L73.9412 166.472L72.0109 164.063L70.6288 162.542L69.1914 161.105L67.6573 159.709L66.0724 158.401L64.3955 157.134L62.5941 155.894L58.7565 153.586L54.624 151.49L49.9064 149.445L44.5531 147.413L37.0391 144.814L27.3229 141.41L23.6234 139.977L20.3064 138.577L17.1367 137.075L14.0777 135.416L11.2075 133.647L8.51699 131.758L6.03845 129.777L3.78559 127.709L1.78159 125.58L0.0354919 123.396L-0.0151978 123.36L-0.111923 123.392L-0.125748 123.493L0.827919 125.414L1.92901 127.322L3.18668 129.229L4.59643 131.136L6.13982 133.025L7.88586 134.988L12.7278 139.968L17.1045 144.446L20.1636 147.924L21.495 149.62L22.702 151.306L23.7755 152.978L24.7337 154.641L26.3462 158.166L28.0369 161.897L28.7741 163.22L29.5342 164.353L30.3543 165.334L31.2066 166.122L32.1096 166.744L33.1139 167.214L34.2058 167.513L37.2602 167.882L42.0699 168.2L44.4241 168.435L46.6631 168.895L48.787 169.577L50.7864 170.485L52.0717 171.227L53.3018 172.065L54.4766 173.005L55.6007 174.046L56.8953 175.497L58.7796 177.939L60.5671 180.275L61.9353 181.91L63.2253 183.269L64.4739 184.375L65.7131 185.241L66.9248 185.858L68.1687 186.245L69.3757 186.379L70.3109 186.314L71.2738 186.103L72.2228 185.748L73.1949 185.236L74.319 184.656L75.4523 184.255L76.6594 184.002L77.8802 183.919L79.1564 183.983L80.5339 184.209L81.9759 184.582L83.5423 185.117L87.7116 186.886L92.1159 188.752L93.8159 189.323L95.4007 189.733L96.9257 189.991L98.3676 190.088L99.8004 190.023L101.15 189.802L102.132 189.53L103.131 189.157L104.062 188.701L105.352 187.881L106.568 186.844L107.651 185.651L108.646 184.26L109.553 182.661L110.36 180.878L111.088 178.86L111.733 176.631L112.29 174.921L113.018 173.498L113.875 172.434L114.921 171.646L115.796 171.263L116.731 171.051L117.749 170.992L118.915 171.079L120.145 171.314L121.513 171.687L125.213 173.037L128.728 174.318L129.976 174.654L131.068 174.843L133.229 174.972L135.302 174.866L137.288 174.534L139.195 173.968L140.955 173.203L142.632 172.222L144.235 171.024L145.755 169.609L146.308 169.02L147.902 167.094L149.317 164.993L150.579 162.671L151.685 160.142L152.634 157.433L153.481 154.434L154.269 151.011L155.195 146.289L156.149 141.456L156.96 137.964L157.84 134.886L158.715 131.869L159.282 129.621L159.678 127.598L159.908 125.76L159.963 124.078L159.848 122.558L159.549 121.157L159.074 119.941L158.678 119.255L158.245 118.716L157.738 118.287L157.19 118.011L156.586 117.873L155.946 117.868L155.232 118.011L154.486 118.283L153.661 118.711L152.813 119.269L150.966 120.803L148.943 122.876L146.732 125.511L144.406 128.612L141.922 132.237L141.651 132.647L141.637 132.675L141.646 132.804L141.752 132.882L142.208 132.97L144.221 133.371L145.622 133.758L146.797 134.237L147.815 134.84L148.879 135.748L149.819 136.877L149.874 136.983L149.768 136.923L148.824 136.268L147.875 135.757L146.879 135.366L145.88 135.107L144.912 134.979L143.945 134.965L142.927 135.061L141.909 135.264L140.821 135.591L139.734 136.02L137.43 137.231L125.074 144.907L124.918 145.1L125.111 145.257L127.908 146.432L130.571 147.777L133.1 149.297L135.5 150.988L137.739 152.831L139.849 154.844L141.83 157.028L143.682 159.377L143.747 159.492L143.632 159.423L141.393 157.396L139.241 155.457L136.067 153.139L132.736 151.131L129.313 149.477L127.553 148.781L125.775 148.168L123.992 147.657L122.19 147.238L120.417 146.915L118.629 146.685L116.828 146.551L115.013 146.51L113.239 146.565L111.456 146.713L108.093 147.261L104.822 148.141L103.417 148.712L103.32 148.818L103.445 148.896L106.015 149.661L108.517 150.629L110.963 151.803L113.234 153.135L115.289 154.591L117.1 156.148L118.685 157.825L119.979 159.566L120.03 159.681L119.924 159.621L118.09 158.308L116.206 157.134L113.962 155.945L111.659 154.927L109.226 154.061L106.743 153.356L104.136 152.803L101.385 152.398L98.5611 152.149L95.5988 152.052L95.4698 152.089L95.5481 152.195L97.9991 154.263L100.201 156.47L102.155 158.815L103.859 161.303L104.817 162.952L105.679 164.666L106.444 166.431L107.112 168.255L107.697 170.162L108.181 172.125L108.572 174.147L108.867 176.23L108.821 176.326H108.72L108.678 176.276L107.448 173.171L106.001 170.218L104.329 167.393L102.459 164.744L100.381 162.27L98.1234 159.99L95.6956 157.917L93.1018 156.051L90.8213 154.664L88.4395 153.439L85.9609 152.37L83.3948 151.476L80.7688 150.762L78.0691 150.219L75.3464 149.864L72.5591 149.684L61.4839 149.237L61.3548 149.265L61.4239 149.38L63.8795 151.748L66.1416 154.134L68.1917 156.521L70.0529 158.926L71.7391 161.381L73.2363 163.855L74.5816 166.417L75.7333 168.992L75.7702 169.103L75.6965 169.011ZM40.2317 203.876L38.5824 202.218L36.91 200.688L35.2101 199.292L33.4871 198.03L32.3169 197.381L31.1789 197.095L30.0226 197.15L28.7925 197.528L28.6773 197.629L28.7741 197.745L31.483 199.546L34.109 201.527L36.6567 203.683L39.1214 206.019L42.784 209.843L46.3038 213.874L49.6991 218.112L52.9563 222.558L56.0753 227.206L59.0652 232.062L61.9538 237.176L64.7226 242.52L64.7318 242.534L64.847 242.525L64.8608 242.497L64.847 242.377L62.2716 236.688L59.5674 231.265L56.7386 226.128L53.7579 221.231L50.6205 216.56L47.3173 212.105L43.8574 207.885L40.2317 203.876Z" fill="#33403B"/>
<path d="M175.466 45.6533L175.747 45.681L175.922 45.7915L175.991 45.9804L175.959 46.2476L175.77 46.4412L175.512 46.3812L175.438 46.2707L175.309 45.8883L175.304 45.8653L175.337 45.7225L175.466 45.6533Z" fill="#33403B"/>
<path d="M174.987 57.3911L174.899 57.8381L174.646 58.2158L174.268 58.4692L173.821 58.5567L173.374 58.4692L172.997 58.2158L172.743 57.8381L172.656 57.3911L172.743 56.9443L172.997 56.5665L173.374 56.3131L173.821 56.2256L174.268 56.3131L174.646 56.5665L174.899 56.9443L174.987 57.3911Z" fill="#33403B"/>
<path d="M175.662 67.3277L175.624 67.5109L175.442 67.6332L175.222 67.623L175.094 67.4862L175.133 67.303L175.315 67.1807L175.535 67.1909L175.662 67.3277Z" fill="#33403B"/>
<path d="M178.534 73.6489L178.47 74.2893L178.286 74.902L177.982 75.4641L177.576 75.9617L177.079 76.3671L176.516 76.6711L175.904 76.8554L175.263 76.9199L174.623 76.8554L174.01 76.6711L173.448 76.3671L172.951 75.9617L172.545 75.4641L172.241 74.902L172.057 74.2893L171.992 73.6489L172.057 73.0086L172.241 72.3958L172.545 71.8338L172.951 71.3362L173.448 70.9308L174.01 70.6268L174.623 70.4425L175.263 70.3779L175.904 70.4425L176.516 70.6268L177.079 70.9308L177.576 71.3362L177.982 71.8338L178.286 72.3958L178.47 73.0086L178.534 73.6489Z" fill="#33403B"/>
<path d="M176.12 87.1253L176.06 87.7196L175.89 88.2909L175.609 88.8161L175.226 89.2768L174.766 89.6592L174.241 89.9402L173.669 90.1107L173.075 90.1705L172.481 90.1107L171.909 89.9402L171.384 89.6592L170.924 89.2768L170.541 88.8161L170.26 88.2909L170.09 87.7196L170.03 87.1253L170.09 86.531L170.26 85.9598L170.541 85.4345L170.924 84.9739L171.384 84.5915L171.909 84.3104L172.481 84.14L173.075 84.0801L173.669 84.14L174.241 84.3104L174.766 84.5915L175.226 84.9739L175.609 85.4345L175.89 85.9598L176.06 86.531L176.12 87.1253Z" fill="#33403B"/>
<path d="M175.328 103.053L175.204 103.352L174.904 103.477L174.605 103.352L174.48 103.053L174.605 102.753L174.904 102.629L175.204 102.753L175.328 103.053Z" fill="#33403B"/>
<path d="M178.654 113.649L178.599 114.206L178.437 114.74L178.175 115.233L177.82 115.666L177.387 116.021L176.894 116.284L176.36 116.445L175.802 116.5L175.245 116.445L174.71 116.284L174.217 116.021L173.784 115.666L173.43 115.233L173.167 114.74L173.006 114.206L172.95 113.649L173.006 113.091L173.167 112.557L173.43 112.064L173.784 111.631L174.217 111.276L174.71 111.013L175.245 110.852L175.802 110.797L176.36 110.852L176.894 111.013L177.387 111.276L177.82 111.631L178.175 112.064L178.437 112.557L178.599 113.091L178.654 113.649Z" fill="#33403B"/>
<path d="M171.499 131.688L171.614 131.725L171.66 131.758L171.623 131.799L171.094 132.08L171.356 131.725L171.499 131.688Z" fill="#33403B"/>
<path d="M173.822 136.139L173.588 136.087L173.389 135.936L173.255 135.711L173.208 135.445L173.254 135.178L173.387 134.953L173.585 134.801L173.82 134.748L174.054 134.801L174.253 134.951L174.387 135.176L174.434 135.443L174.388 135.709L174.255 135.935L174.057 136.086L173.822 136.139Z" fill="#33403B"/>
<path d="M172.683 142.714L172.518 143.553L172.043 144.267L171.329 144.742L170.49 144.907L169.652 144.742L168.938 144.267L168.463 143.553L168.297 142.714L168.463 141.876L168.938 141.162L169.652 140.687L170.49 140.521L171.329 140.687L172.043 141.162L172.518 141.876L172.683 142.714Z" fill="#33403B"/>
<path d="M172.034 151.743L171.946 152.195L171.688 152.572L171.311 152.83L170.859 152.918L170.408 152.83L170.03 152.572L169.772 152.195L169.684 151.743L169.772 151.292L170.03 150.914L170.408 150.656L170.859 150.568L171.311 150.656L171.688 150.914L171.946 151.292L172.034 151.743Z" fill="#33403B"/>
<path d="M165.4 154.208L165.298 154.728L165.003 155.171L164.561 155.465L164.04 155.567L163.52 155.465L163.078 155.171L162.783 154.728L162.681 154.208L162.783 153.687L163.078 153.245L163.52 152.95L164.04 152.849L164.561 152.95L165.003 153.245L165.298 153.687L165.4 154.208Z" fill="#33403B"/>
<path d="M147.059 227.142L143.858 223.904L140.587 220.739L137.03 217.449L133.4 214.243L131.925 212.865L131.69 212.538L131.663 212.303L131.852 212.16L132.252 212.11L134.906 212.142L137.564 212.285L140.135 212.533L142.687 212.897L145.111 213.358L147.502 213.934L149.778 214.611L152.007 215.404L154.085 216.274L156.108 217.26L158.006 218.329L159.835 219.518L161.525 220.775L163.133 222.144L164.621 223.59L166.026 225.147L168.044 227.833L169.767 230.731L169.887 230.957L171.025 233.247L172.075 235.564L173.048 237.946L173.932 240.351L174.738 242.834L175.457 245.34L176.65 250.504L177.507 255.858L178.032 261.386L178.23 267.145L178.097 273.097L178.092 273.116L178.037 273.12L177.982 273.051L177.71 271.181L177.351 269.379L176.904 267.647L176.369 265.979L175.743 264.385L175.024 262.856L174.222 261.4L173.329 260.009L172.615 259.06L171.864 258.221L171.043 257.447L170.182 256.779L168.984 256.028L167.639 255.397L166.215 254.909L164.64 254.54L162.94 254.287L161.051 254.135L155.886 254.079L152.035 254.075L149.469 253.895L146.963 253.453L144.622 252.776L142.356 251.827L140.559 250.85L138.877 249.717L137.27 248.408L135.786 246.957L134.362 245.317L133.077 243.552L131.884 241.622L130.829 239.59L129.871 237.37L129.055 235.071L128.373 232.657L127.844 230.197L127.457 227.649L127.222 225.088L127.139 222.494L127.217 219.928L127.212 219.803L127.166 219.918L126.766 221.895L126.48 224.636L126.36 228.308L126.531 231.8L126.991 235.158L127.751 238.462L128.641 241.217L129.769 243.962L131.115 246.625L132.709 249.293L134.542 251.942L136.638 254.614L139.039 257.35L141.748 260.165L141.794 260.35L141.646 260.474L141.531 260.451L134.362 256.526L124.416 251.504L121.053 249.832L116.584 247.441L112.82 245.068L111.125 243.847L109.498 242.557L107.983 241.235L106.527 239.825L105.094 238.291L103.717 236.651L102.413 234.933L101.155 233.095L100.773 232.399L100.252 231.441L99.796 230.823L99.6855 230.75L99.6947 230.879L100.289 232.929L100.994 234.974L101.754 236.886L102.625 238.812L104.67 242.626L107.241 246.658L110.779 251.587L110.839 251.688L110.742 251.619L108.02 249.095L105.458 246.515L103.016 243.833L100.754 241.115L98.6489 238.333L96.7324 235.536L94.9587 232.661L93.3877 229.782L91.9872 226.87L90.7893 223.973L89.7665 221.047L88.9143 218.062L88.2601 215.123L87.7855 212.128L87.5045 209.161L87.4032 206.153L87.4492 204.029L87.5414 203.467L87.7671 203.052L88.2232 202.707L88.8866 202.504L94.5532 201.606L96.8659 201.352L98.8332 201.232L101.57 201.255L104.38 201.49L107.176 201.942L110.037 202.605L112.903 203.476L115.819 204.563L118.782 205.872L121.776 207.392L124.803 209.12L127.839 211.055L130.93 213.215L134.035 215.569L137.191 218.159L140.352 220.937L143.53 223.913L146.778 227.138L146.93 227.179L147.055 227.147L147.059 227.142Z" fill="#33403B"/>
</svg>
