<svg width="58" height="34" viewBox="0 0 58 34" fill="none" xmlns="http://www.w3.org/2000/svg">
<path fill-rule="evenodd" clip-rule="evenodd" d="M56.2806 2.93301C56.6728 1.64308 56.2806 0.693359 54.4025 0.693359H48.2009C46.6227 0.693359 45.8951 1.51315 45.5005 2.41798C45.5005 2.41798 42.3466 9.96853 37.8791 14.8731C36.4333 16.2953 35.7765 16.7465 34.9874 16.7465C34.5929 16.7465 33.9999 16.2953 33.9999 15.003V2.93301C33.9999 1.38321 33.5652 0.693359 32.2516 0.693359H22.4992C21.5141 0.693359 20.9211 1.41156 20.9211 2.09432C20.9211 3.56143 23.156 3.90163 23.3852 8.03128V17.0041C23.3852 18.972 23.0237 19.3288 22.2346 19.3288C20.132 19.3288 15.0172 11.7428 11.9814 3.06295C11.3931 1.37376 10.7978 0.693359 9.21254 0.693359H3.00626C1.23438 0.693359 0.880005 1.51315 0.880005 2.41798C0.880005 4.02921 2.98263 12.0334 10.6726 22.6197C15.7992 29.849 23.0166 33.7684 29.5915 33.7684C33.5345 33.7684 34.0212 32.899 34.0212 31.3988V25.9343C34.0212 24.1931 34.3944 23.8459 35.6442 23.8459C36.5656 23.8459 38.1414 24.2995 41.8221 27.7841C46.0274 31.9162 46.7196 33.7684 49.0868 33.7684H55.2884C57.0603 33.7684 57.9486 32.899 57.4383 31.1791C56.876 29.4686 54.8679 26.9856 52.2053 24.0396C50.7595 22.3622 48.5907 20.5549 47.9316 19.6501C47.0126 18.4901 47.2748 17.9727 47.9316 16.9403C47.9316 16.9403 55.4916 6.48385 56.2783 2.93301H56.2806Z" fill="#F4F4F4"/>
</svg>
